<svg xmlns="http://www.w3.org/2000/svg" xmlns:xlink="http://www.w3.org/1999/xlink" xmlns:inkscape="http://www.inkscape.org/namespaces/inkscape" version="1.1" width="566.929" height="566.929" viewBox="0 0 566.929 566.929">
<g>
<g inkscape:groupmode="layer" inkscape:label="Camada 1">
<path transform="matrix(1,0,0,-1,0,566.929)" d="M0 0H566.929V566.929H0Z" fill="#834b4b"/>
<path transform="matrix(1,0,0,-1,0,566.929)" d="M539.997 26.932H26.932007V539.997H539.997Z" fill="#ecded1"/>
<text xml:space="preserve" transform="matrix(1 0 -0 1 0 566.929)" font-size="12.3355" font-family="Simonetta"><tspan y="-40.416" x="41.8584 52.35591 63.618227 69.99568 82.94796 90.34926 101.82127 113.14526 119.056438 131.25624 142.41986 149.82117 161.14516 172.08675 179.48805 191.3178">BY @IZA.CRIATIVA</tspan></text>
<text fill="#834b4b" xml:space="preserve" transform="matrix(1 0 -0 1 0 566.929)" font-size="12.3355" font-family="Simonetta"><tspan y="-40.416" x="41.8584 52.35591 63.618227 69.99568 82.94796 90.34926 101.82127 113.14526 119.056438 131.25624 142.41986 149.82117 161.14516 172.08675 179.48805 191.3178">BY @IZA.CRIATIVA</tspan></text>
<text fill="#834b4b" xml:space="preserve" transform="matrix(1 0 -0 1 0 566.929)" font-size="42.882" font-family="Simonetta"><tspan y="-301.5332" x="168.6914 195.19249 227.35399 257.4014 283.90248 309.84608 342.32063 364.5335">AGUARDEM</tspan></text>
<text fill="#834b4b" xml:space="preserve" transform="matrix(1 0 -0 1 0 566.929)" font-size="40.0314" font-family="Simonetta"><tspan y="-264.543" x="167.5381 198.85066 229.43465 255.81534 267.82478 297.65217 322.39158 352.70738 373.44364 393.13908">NOVIDADES!</tspan></text>
<text fill="#834b4b" xml:space="preserve" transform="matrix(1 0 -0 1 0 566.929)" font-size="22.5755" font-family="Simonetta"><tspan y="-238.3906" x="188.3955 205.32712 215.44095 225.6225 243.38942 249.14618 254.474 264.65556 275.853 286.0797 298.36079 305.6978 317.3242 328.52165 336.6714 348.29777 359.4275 369.6542">@camilabentobroker</tspan></text>
</g>
</g>
</svg>
