<svg xmlns="http://www.w3.org/2000/svg" xmlns:xlink="http://www.w3.org/1999/xlink" xmlns:inkscape="http://www.inkscape.org/namespaces/inkscape" version="1.1" width="566.929" height="566.929" viewBox="0 0 566.929 566.929">
<defs>
<clipPath id="clip_1">
<path transform="matrix(1,0,0,-1,0,566.929)" d="M0 566.929H566.929V0H0Z"/>
</clipPath>
</defs>
<g>
<g inkscape:groupmode="layer" inkscape:label="Camada 1">
<g clip-path="url(#clip_1)">
<path transform="matrix(1,0,0,-1,77.8761,328.4424)" d="M0 0C-2.692 0-5.282-.442-7.77-1.327-10.258-2.212-12.455-3.512-14.361-5.227-16.268-6.941-17.791-9.056-18.933-11.569-20.074-14.082-20.645-16.968-20.645-20.225-20.645-22.663-20.344-24.885-19.74-26.891-19.138-28.897-18.318-30.698-17.285-32.295-16.251-33.891-15.039-35.283-13.65-36.469-12.261-37.655-10.774-38.643-9.191-39.43-7.608-40.218-5.972-40.805-4.28-41.193-2.59-41.582-.926-41.776 .711-41.776 1.745-41.776 2.692-41.743 3.555-41.679 4.416-41.614 5.283-41.501 6.155-41.34 7.027-41.178 7.937-40.963 8.886-40.693 9.833-40.425 10.899-40.096 12.084-39.708L12.698-41.557C11.556-42.109 10.334-42.566 9.031-42.928 7.728-43.289 6.44-43.581 5.17-43.804 3.898-44.027 2.677-44.186 1.503-44.282 .328-44.377-.71-44.425-1.615-44.425-3.963-44.425-6.214-44.172-8.367-43.666-10.521-43.16-12.524-42.443-14.377-41.518-16.229-40.592-17.915-39.461-19.434-38.125-20.952-36.79-22.25-35.287-23.326-33.618-24.404-31.949-25.232-30.14-25.814-28.19-26.396-26.241-26.687-24.168-26.687-21.971-26.687-19.602-26.396-17.355-25.814-15.234-25.232-13.113-24.398-11.152-23.311-9.354-22.223-7.556-20.898-5.929-19.337-4.476-17.775-3.021-16.02-1.788-14.07-.775-12.121 .236-9.999 1.012-7.705 1.551-5.411 2.089-2.983 2.358-.42 2.358 2.833 2.358 5.665 2.169 8.078 1.793 10.489 1.416 12.622 .99 14.475 .517L13.538-10.274H11.567V-9.758C11.567-8.659 11.433-7.534 11.163-6.382 10.894-5.229 10.35-4.18 9.531-3.231 8.713-2.284 7.545-1.509 6.026-.905 4.508-.303 2.499 0 0 0" fill="#834b4b"/>
<path transform="matrix(1,0,0,-1,113.3195,334.16114)" d="M0 0-6.817-19.838H6.365L.937 0ZM2.843 8.82 13.764-26.501C14.561-29.127 15.433-31.241 16.381-32.845 17.328-34.448 18.513-35.368 19.935-35.604L21.712-35.896 21.646-37.77C20.549-37.641 19.358-37.543 18.077-37.479 16.795-37.414 15.486-37.382 14.151-37.382 12.729-37.382 11.341-37.414 9.983-37.479 8.626-37.543 7.334-37.641 6.106-37.77L6.171-35.896 10.727-35.477 7.011-22.1H5.751C5.169-22.1 4.404-22.105 3.457-22.116 2.509-22.127 1.437-22.153 .242-22.196-.953-22.239-2.24-22.304-3.618-22.39-4.997-22.476-6.419-22.594-7.884-22.744L-9.66-27.708C-10.048-28.74-10.388-29.718-10.678-30.642-10.969-31.565-11.114-32.371-11.114-33.059-11.114-33.746-10.932-34.311-10.565-34.751-10.199-35.191-9.563-35.477-8.659-35.605L-6.753-35.896-6.817-37.77C-7.98-37.641-9.095-37.533-10.161-37.446-11.228-37.36-12.342-37.317-13.505-37.317-14.668-37.317-15.875-37.36-17.124-37.446-18.373-37.533-19.762-37.641-21.292-37.77L-21.227-35.896C-20.602-35.831-20.01-35.767-19.45-35.702-18.955-35.659-18.46-35.616-17.964-35.573-17.469-35.53-17.06-35.498-16.736-35.477-15.854-33.625-14.933-31.603-13.974-29.406-13.016-27.211-12.035-24.908-11.033-22.497-10.032-20.087-9.03-17.59-8.029-15.008-7.027-12.425-6.042-9.831-5.072-7.227-4.104-4.622-3.172-2.028-2.277 .555-1.385 3.137-.539 5.645 .259 8.077Z" fill="#834b4b"/>
<path transform="matrix(1,0,0,-1,185.1427,363.7608)" d="M0 0C.021-1.271 .097-2.282 .226-3.035 .355-3.788 .549-4.381 .808-4.811 1.065-5.241 1.394-5.543 1.793-5.715 2.191-5.887 2.692-6.017 3.295-6.103L4.685-6.296V-8.17C4.211-8.105 3.64-8.03 2.972-7.943 2.412-7.9 1.723-7.853 .902-7.799 .082-7.745-.873-7.718-1.964-7.718-3.076-7.718-4.292-7.75-5.612-7.814-6.933-7.879-8.4-7.998-10.016-8.17V-6.296C-9.456-6.253-8.961-6.21-8.53-6.167-8.1-6.124-7.701-6.081-7.334-6.038-6.969-5.995-6.613-5.963-6.269-5.941-5.924-5.92-5.558-5.898-5.17-5.877L-5.299 27.24H-5.911L-22.357-6.393H-23.879L-38.324 27.37H-38.872L-40.839 2.516C-40.883 2.192-40.915 1.821-40.937 1.402-40.958 .982-40.984 .563-41.017 .144-41.05-.276-41.07-.669-41.081-1.035-41.092-1.4-41.098-1.691-41.098-1.906-41.098-2.745-41.022-3.418-40.871-3.924-40.721-4.43-40.511-4.833-40.241-5.134-39.972-5.436-39.639-5.656-39.239-5.796-38.841-5.937-38.384-6.038-37.866-6.103L-36.478-6.296V-8.17C-36.822-8.105-37.274-8.03-37.834-7.943-38.309-7.9-38.9-7.853-39.611-7.799-40.322-7.745-41.179-7.718-42.181-7.718-43.188-7.718-44.326-7.75-45.594-7.814-46.861-7.879-48.302-7.998-49.918-8.17V-6.296C-49.357-6.253-48.862-6.21-48.432-6.167-48.001-6.124-47.603-6.081-47.236-6.037-46.87-5.994-46.515-5.962-46.17-5.941-45.825-5.92-45.459-5.898-45.071-5.877L-40.38 36.611-37.306 37.677-21.679 1.62H-21.226L-4.174 36.966-.938 37.612Z" fill="#834b4b"/>
<path transform="matrix(1,0,0,-1,195.3195,369.92774)" d="M0 0C.431 .043 .829 .086 1.195 .129 1.562 .172 1.917 .204 2.262 .226 2.605 .247 2.973 .269 3.36 .29 3.468 3.153 3.57 5.983 3.667 8.781 3.764 11.579 3.855 14.259 3.941 16.82 4.027 19.381 4.114 21.77 4.2 23.986 4.286 26.203 4.361 28.162 4.427 29.862 4.491 31.562 4.539 32.961 4.571 34.059 4.604 35.156 4.62 35.867 4.62 36.19 4.62 37.115 4.55 37.868 4.41 38.45 4.27 39.031 4.065 39.488 3.796 39.822 3.526 40.155 3.188 40.392 2.778 40.532 2.369 40.672 1.906 40.785 1.39 40.871L-.032 41.064V42.938C.441 42.853 1.012 42.767 1.68 42.681 2.24 42.616 2.924 42.562 3.731 42.519 4.539 42.476 5.492 42.454 6.591 42.454 7.689 42.454 8.901 42.491 10.226 42.567 11.551 42.643 13.01 42.767 14.604 42.938V41.064C14.043 41.021 13.548 40.979 13.117 40.936 12.687 40.893 12.294 40.854 11.938 40.822 11.583 40.79 11.232 40.763 10.888 40.742 10.543 40.721 10.178 40.699 9.79 40.678 9.682 37.814 9.58 34.979 9.482 32.17 9.386 29.361 9.289 26.683 9.192 24.132 9.095 21.582 9.009 19.192 8.934 16.965 8.857 14.737 8.788 12.773 8.724 11.073 8.659 9.373 8.61 7.974 8.578 6.877 8.546 5.779 8.529 5.079 8.529 4.778 8.529 3.831 8.6 3.067 8.739 2.486 8.88 1.904 9.084 1.447 9.354 1.114 9.622 .78 9.962 .538 10.371 .388 10.78 .237 11.243 .13 11.761 .064L13.149-.129V-2.003C12.676-1.938 12.104-1.863 11.438-1.776 10.877-1.733 10.188-1.686 9.369-1.632 8.551-1.578 7.604-1.551 6.526-1.551 5.428-1.551 4.222-1.583 2.908-1.647 1.594-1.712 .129-1.831-1.486-2.003V-.129C-.927-.086-.431-.043 0 0" fill="#834b4b"/>
<path transform="matrix(1,0,0,-1,218.5822,369.6377)" d="M0 0C.107 2.863 .21 5.693 .307 8.491 .404 11.289 .501 13.969 .598 16.53 .694 19.091 .775 21.479 .84 23.696 .904 25.913 .964 27.872 1.018 29.572 1.071 31.272 1.114 32.671 1.146 33.769 1.18 34.866 1.195 35.577 1.195 35.9 1.195 36.825 1.131 37.578 1.002 38.16 .872 38.741 .679 39.198 .42 39.532 .161 39.865-.167 40.102-.565 40.242-.964 40.382-1.433 40.495-1.971 40.581L-3.36 40.774V42.648C-2.887 42.563-2.326 42.477-1.68 42.391-1.12 42.326-.437 42.271 .371 42.229 1.18 42.186 2.133 42.164 3.23 42.164 4.329 42.164 5.541 42.201 6.865 42.277 8.19 42.353 9.649 42.477 11.243 42.648V40.774C10.684 40.731 10.193 40.688 9.773 40.646 9.354 40.603 8.96 40.564 8.594 40.532 8.228 40.5 7.872 40.473 7.528 40.452 7.184 40.431 6.817 40.409 6.43 40.388 6.321 37.524 6.22 34.689 6.122 31.88 6.025 29.071 5.929 26.393 5.832 23.842 5.734 21.292 5.648 18.902 5.573 16.675 5.497 14.447 5.428 12.483 5.363 10.783 5.299 9.083 5.25 7.684 5.218 6.587 5.186 5.489 5.169 4.789 5.169 4.488 5.169 3.455 5.353 2.626 5.719 2.002 6.085 1.378 6.612 .899 7.302 .565 7.991 .231 8.82 .006 9.79-.112 10.759-.23 11.857-.29 13.085-.29 14.808-.29 16.278-.15 17.495 .13 18.712 .41 19.746 .873 20.597 1.52 21.447 2.166 22.143 3.027 22.681 4.104 23.219 5.181 23.661 6.527 24.006 8.143H26.073C25.987 7.56 25.857 6.798 25.686 5.858 25.513 4.919 25.303 3.925 25.056 2.878 24.808 1.829 24.517 .787 24.184-.249 23.849-1.286 23.488-2.183 23.101-2.939 20.817-2.875 18.599-2.782 16.445-2.664 14.291-2.546 12.314-2.433 10.517-2.325 8.718-2.218 7.15-2.121 5.815-2.034 4.479-1.948 3.489-1.905 2.843-1.905 1.745-1.905 .581-1.927-.646-1.97-1.874-2.014-3.296-2.121-4.911-2.293L-4.847-.419C-4.286-.376-3.791-.333-3.36-.29-2.93-.247-2.531-.204-2.165-.161-1.799-.118-1.443-.086-1.099-.064-.754-.043-.388-.021 0 0" fill="#834b4b"/>
<path transform="matrix(1,0,0,-1,264.7511,334.16114)" d="M0 0-6.817-19.838H6.365L.937 0ZM2.843 8.82 13.764-26.501C14.561-29.127 15.433-31.241 16.381-32.845 17.328-34.448 18.513-35.368 19.935-35.604L21.712-35.896 21.646-37.77C20.549-37.641 19.358-37.543 18.077-37.479 16.795-37.414 15.486-37.382 14.151-37.382 12.729-37.382 11.341-37.414 9.983-37.479 8.626-37.543 7.334-37.641 6.106-37.77L6.171-35.896 10.727-35.477 7.011-22.1H5.751C5.169-22.1 4.404-22.105 3.457-22.116 2.509-22.127 1.437-22.153 .242-22.196-.953-22.239-2.24-22.304-3.618-22.39-4.997-22.476-6.419-22.594-7.884-22.744L-9.66-27.708C-10.048-28.74-10.388-29.718-10.678-30.642-10.969-31.565-11.114-32.371-11.114-33.059-11.114-33.746-10.932-34.311-10.565-34.751-10.199-35.191-9.563-35.477-8.659-35.605L-6.753-35.896-6.817-37.77C-7.98-37.641-9.095-37.533-10.161-37.446-11.228-37.36-12.342-37.317-13.505-37.317-14.668-37.317-15.875-37.36-17.124-37.446-18.373-37.533-19.762-37.641-21.292-37.77L-21.227-35.896C-20.602-35.831-20.01-35.767-19.45-35.702-18.955-35.659-18.46-35.616-17.964-35.573-17.469-35.53-17.06-35.498-16.736-35.477-15.854-33.625-14.933-31.603-13.974-29.406-13.016-27.211-12.035-24.908-11.033-22.497-10.032-20.087-9.03-17.59-8.029-15.008-7.027-12.425-6.042-9.831-5.072-7.227-4.104-4.622-3.172-2.028-2.277 .555-1.385 3.137-.539 5.645 .259 8.077Z" fill="#834b4b"/>
<path transform="matrix(1,0,0,-1,329.2404,346.60063)" d="M0 0C1.098 0 2.137-.038 3.117-.113 4.098-.188 5.04-.28 5.944-.388 6.677 .129 7.35 .722 7.964 1.39 8.578 2.057 9.11 2.784 9.563 3.57 10.016 4.356 10.365 5.202 10.613 6.106 10.86 7.011 10.984 7.959 10.984 8.95 10.984 10.371 10.791 11.632 10.403 12.729 10.016 13.828 9.477 14.754 8.788 15.509 8.098 16.262 7.29 16.833 6.364 17.221 5.438 17.608 4.426 17.803 3.327 17.803 2.702 17.803 2.067 17.797 1.421 17.786 .775 17.775 .021 17.716-.841 17.608-.905 16.983-.976 16.203-1.051 15.267-1.126 14.329-1.207 13.312-1.293 12.213-1.379 11.114-1.454 9.979-1.519 8.805-1.584 7.63-1.627 6.505-1.648 5.428L-1.842 0ZM-1.906-2.294C-1.993-5.137-2.079-7.7-2.165-9.983-2.208-10.952-2.241-11.922-2.262-12.892-2.284-13.86-2.311-14.738-2.343-15.524-2.375-16.311-2.396-16.979-2.407-17.527-2.419-18.077-2.424-18.427-2.424-18.577-2.424-19.482-2.326-20.263-2.133-20.92-1.938-21.577-1.6-22.126-1.115-22.567-.631-23.01 .026-23.338 .855-23.553 1.685-23.769 2.746-23.876 4.038-23.876 4.383-23.876 4.878-23.844 5.524-23.779 6.171-23.715 6.87-23.569 7.625-23.343 8.378-23.117 9.144-22.777 9.919-22.325 10.694-21.873 11.399-21.259 12.035-20.483 12.67-19.708 13.187-18.744 13.586-17.592 13.983-16.44 14.184-15.045 14.184-13.408 14.184-11.814 13.941-10.328 13.456-8.949 12.972-7.571 12.218-6.376 11.194-5.363 10.172-4.351 8.868-3.554 7.285-2.973 5.702-2.391 3.813-2.1 1.615-2.1 .452-2.1-.723-2.165-1.906-2.294M16.154 10.403C16.154 9.067 15.948 7.829 15.538 6.688 15.127 5.546 14.592 4.496 13.933 3.538 13.273 2.579 12.533 1.718 11.712 .953 10.891 .188 10.069-.463 9.248-1.001 11.028-1.476 12.563-2.089 13.85-2.843 15.138-3.598 16.199-4.47 17.036-5.46 17.872-6.451 18.489-7.544 18.887-8.739 19.283-9.935 19.482-11.211 19.482-12.568 19.482-14.227 19.186-15.843 18.594-17.414 18.001-18.987 17.107-20.387 15.912-21.614 14.717-22.843 13.23-23.833 11.453-24.587 9.676-25.341 7.603-25.718 5.233-25.718 4.372-25.718 3.51-25.68 2.649-25.604 1.787-25.529 .926-25.443 .064-25.347-.798-25.249-1.67-25.158-2.553-25.071-3.437-24.985-4.319-24.942-5.202-24.942-6.236-24.942-7.34-24.975-8.514-25.039-9.688-25.104-11.018-25.201-12.504-25.33L-12.439-23.456C-11.88-23.413-11.384-23.37-10.953-23.327-10.522-23.284-10.124-23.241-9.758-23.198-9.392-23.155-9.036-23.123-8.691-23.102-8.348-23.08-7.98-23.059-7.593-23.037-7.378-16.516-7.184-10.672-7.012-5.507-6.947-3.312-6.877-1.148-6.802 .982-6.727 3.113-6.656 5.018-6.592 6.696-6.526 8.375-6.479 9.752-6.446 10.829-6.414 11.905-6.397 12.497-6.397 12.604-6.397 13.595-6.462 14.396-6.592 15.01-6.721 15.623-6.926 16.103-7.205 16.446-7.485 16.791-7.83 17.038-8.239 17.189-8.648 17.34-9.123 17.458-9.661 17.544L-11.05 17.737-10.985 19.611C-10.469 19.525-9.887 19.439-9.241 19.354-8.681 19.289-8.035 19.234-7.302 19.191-6.569 19.148-5.761 19.127-4.874 19.127-3.945 19.127-3.13 19.17-2.428 19.256-1.727 19.342-1.019 19.434-.306 19.531 .407 19.628 1.185 19.719 2.027 19.806 2.869 19.892 3.906 19.935 5.138 19.935 7.124 19.935 8.82 19.665 10.225 19.127 11.628 18.589 12.768 17.878 13.643 16.995 14.518 16.111 15.154 15.099 15.555 13.958 15.954 12.815 16.154 11.632 16.154 10.403" fill="#834b4b"/>
<path transform="matrix(1,0,0,-1,377.3478,350.7041)" d="M0 0C-1.292 .173-2.601 .323-3.926 .453-5.25 .582-6.516 .689-7.722 .775-8.929 .861-10.032 .932-11.033 .986-12.035 1.039-12.858 1.088-13.505 1.131-13.592-1.449-13.678-3.805-13.764-5.934-13.807-6.837-13.839-7.74-13.86-8.644-13.882-9.546-13.909-10.38-13.941-11.144-13.974-11.906-13.995-12.558-14.006-13.095-14.017-13.633-14.022-13.998-14.022-14.191-14.022-15.31-13.871-16.202-13.569-16.869-13.269-17.535-12.811-18.041-12.196-18.385-11.583-18.729-10.823-18.955-9.919-19.062-9.014-19.17-7.959-19.224-6.753-19.224-5.029-19.224-3.56-19.116-2.343-18.9-1.126-18.686-.092-18.286 .76-17.705 1.61-17.123 2.305-16.321 2.844-15.298 3.382-14.275 3.823-12.955 4.168-11.34H6.203C6.117-11.924 5.988-12.658 5.815-13.544 5.643-14.43 5.433-15.364 5.186-16.347 4.937-17.33 4.647-18.308 4.313-19.28 3.979-20.252 3.619-21.116 3.231-21.873 .947-21.809-1.233-21.716-3.312-21.598-5.391-21.479-7.285-21.366-8.998-21.259-10.71-21.151-12.202-21.055-13.473-20.968-14.744-20.882-15.702-20.839-16.349-20.839-17.446-20.839-18.61-20.86-19.838-20.903-21.065-20.947-22.487-21.055-24.103-21.227L-24.038-19.353C-23.478-19.31-22.982-19.267-22.552-19.224-22.121-19.181-21.723-19.138-21.356-19.095-20.99-19.052-20.635-19.02-20.29-18.998-19.945-18.977-19.579-18.955-19.191-18.934-18.977-12.627-18.782-6.923-18.61-1.822-18.545 .352-18.476 2.498-18.399 4.618-18.324 6.738-18.255 8.659-18.189 10.381-18.125 12.103-18.077 13.544-18.045 14.707-18.012 15.869-17.996 16.579-17.996 16.838-17.996 17.806-18.056 18.586-18.174 19.178-18.292 19.77-18.48 20.232-18.739 20.566-18.998 20.899-19.332 21.142-19.74 21.293-20.15 21.443-20.646 21.562-21.227 21.647L-22.552 21.841V23.715C-21.949 23.629-21.184 23.543-20.258 23.457-19.461 23.393-18.459 23.338-17.253 23.295-16.047 23.252-14.571 23.23-12.826 23.23H-5.04C-4.179 23.23-3.339 23.235-2.52 23.247-1.702 23.257-.872 23.279-.032 23.312 .808 23.344 1.68 23.393 2.585 23.457 3.489 23.521 4.459 23.607 5.492 23.715L4.491 12.795H2.521C2.541 13.226 2.558 13.564 2.568 13.813 2.579 14.06 2.585 14.254 2.585 14.395V14.685 14.83C2.585 15.541 2.493 16.22 2.311 16.865 2.127 17.512 1.771 18.088 1.244 18.594 .716 19.1-.016 19.521-.953 19.854-1.89 20.187-3.112 20.408-4.62 20.517L-12.568 21.065C-12.741 19.3-12.875 17.506-12.972 15.687-13.069 13.866-13.139 12.191-13.182 10.662L-13.44 3.393 .323 4.104Z" fill="#834b4b"/>
<path transform="matrix(1,0,0,-1,388.6886,369.92774)" d="M0 0C.431 .043 .829 .086 1.195 .13 1.562 .173 1.917 .205 2.262 .226 2.606 .247 2.973 .269 3.36 .29L4.2 25.215C4.265 26.743 4.303 28.196 4.313 29.573 4.324 30.951 4.329 32.274 4.329 33.545 4.329 35.567 4.303 37.37 4.249 38.952 4.194 40.534 4.136 41.863 4.071 42.939L6.721 43.908 38.415 5.849C38.48 7.722 38.55 9.735 38.626 11.89 38.701 14.044 38.771 16.192 38.836 18.336 38.9 20.479 38.965 22.552 39.029 24.555 39.094 26.559 39.147 28.372 39.191 29.999 39.233 31.625 39.271 32.982 39.304 34.07 39.336 35.157 39.353 35.863 39.353 36.187 39.353 37.112 39.288 37.866 39.158 38.448 39.029 39.029 38.83 39.486 38.561 39.821 38.291 40.154 37.958 40.392 37.56 40.532 37.16 40.672 36.703 40.785 36.187 40.871L34.797 41.064V42.938C35.099 42.853 35.508 42.767 36.024 42.681 36.455 42.616 37.005 42.562 37.673 42.519 38.34 42.476 39.158 42.454 40.128 42.454 41.097 42.454 42.201 42.491 43.439 42.567 44.678 42.643 46.094 42.767 47.688 42.938V41.064C47.128 41.021 46.633 40.979 46.202 40.936 45.771 40.893 45.378 40.854 45.022 40.822 44.667 40.79 44.317 40.763 43.973 40.742 43.628 40.72 43.251 40.698 42.842 40.677L42.131 19.902C42.109 19.321 42.088 18.546 42.066 17.576 42.045 16.607 42.018 15.589 41.985 14.523 41.953 13.457 41.926 12.396 41.905 11.341 41.883 10.285 41.873 9.391 41.873 8.659V5.929C41.873 5.078 41.878 4.232 41.889 3.393 41.899 2.553 41.921 1.696 41.953 .824 41.985-.048 42.023-.991 42.066-2.003L39.288-2.939 7.593 34.668C7.55 32.838 7.501 30.875 7.447 28.777 7.394 26.679 7.34 24.569 7.286 22.45 7.231 20.33 7.178 18.275 7.124 16.284 7.07 14.294 7.021 12.497 6.979 10.894 6.936 9.291 6.903 7.945 6.882 6.859 6.86 5.772 6.85 5.078 6.85 4.777 6.85 3.83 6.914 3.072 7.044 2.502 7.173 1.932 7.366 1.479 7.625 1.146 7.884 .812 8.212 .57 8.61 .42 9.009 .269 9.488 .15 10.048 .064L11.438-.129V-2.003C11.114-1.938 10.694-1.863 10.178-1.776 9.746-1.733 9.197-1.686 8.529-1.632 7.862-1.578 7.044-1.551 6.074-1.551 5.105-1.551 4.007-1.583 2.778-1.647 1.551-1.712 .13-1.831-1.486-2.003V-.129C-.926-.086-.431-.043 0 0" fill="#834b4b"/>
<path transform="matrix(1,0,0,-1,455.5509,329.25105)" d="M0 0C-1.227 .043-2.34 .075-3.341 .098-4.341 .118-5.143 .13-5.744 .13-6.949 .13-8.015 .038-8.939-.145-9.864-.328-10.688-.71-11.408-1.292-12.129-1.873-12.758-2.714-13.296-3.813-13.834-4.91-14.318-6.376-14.748-8.206H-16.654L-15.332 2.649C-12.881 2.456-10.779 2.343-9.026 2.311-7.274 2.278-5.721 2.262-4.366 2.262-1.442 2.262 1.348 2.268 4.003 2.278 6.658 2.289 9.094 2.311 11.309 2.343 13.523 2.375 15.485 2.418 17.195 2.472 18.904 2.525 20.275 2.606 21.309 2.715L20.34-8.206H18.336C18.336-7.97 18.347-7.662 18.368-7.285 18.39-6.908 18.4-6.602 18.4-6.364 18.4-5.653 18.325-4.965 18.175-4.297 18.023-3.629 17.7-3.031 17.205-2.504 16.71-1.976 15.994-1.534 15.057-1.179 14.12-.823 12.854-.603 11.261-.517L4.928-.193C4.82-3.034 4.718-5.843 4.621-8.619 4.524-11.396 4.437-14.054 4.362-16.593 4.287-19.133 4.212-21.512 4.137-23.728 4.061-25.945 4.002-27.903 3.959-29.604 3.915-31.304 3.878-32.703 3.846-33.8 3.813-34.897 3.797-35.598 3.797-35.898 3.797-36.846 3.867-37.609 4.007-38.19 4.147-38.772 4.352-39.229 4.621-39.563 4.891-39.896 5.219-40.139 5.606-40.289 5.994-40.439 6.446-40.547 6.964-40.612L8.353-40.806V-42.68C7.879-42.615 7.308-42.54 6.641-42.453 6.08-42.41 5.392-42.362 4.575-42.309 3.759-42.255 2.818-42.228 1.755-42.228 .67-42.228-.526-42.26-1.834-42.324-3.142-42.389-4.604-42.508-6.219-42.68V-40.806C-5.659-40.763-5.163-40.72-4.732-40.677-4.302-40.634-3.903-40.591-3.537-40.548-3.171-40.505-2.815-40.473-2.471-40.451-2.126-40.43-1.76-40.408-1.372-40.387Z" fill="#834b4b"/>
<path transform="matrix(1,0,0,-1,485.5187,348.959)" d="M0 0C0-2.8 .383-5.492 1.147-8.077 1.911-10.662 3.021-12.951 4.475-14.943 5.929-16.936 7.711-18.529 9.822-19.725 11.933-20.92 14.334-21.518 17.027-21.518 19.611-21.518 21.89-21.001 23.86-19.967 25.831-18.933 27.474-17.517 28.787-15.719 30.102-13.92 31.092-11.82 31.76-9.418 32.428-7.017 32.762-4.437 32.762-1.68 32.762 1.422 32.368 4.324 31.582 7.027 30.796 9.73 29.692 12.084 28.271 14.087 26.849 16.09 25.152 17.662 23.182 18.804 21.211 19.945 19.052 20.517 16.704 20.517 15.477 20.517 14.216 20.382 12.924 20.112 11.632 19.843 10.366 19.391 9.128 18.755 7.889 18.12 6.715 17.285 5.605 16.251 4.496 15.218 3.527 13.941 2.698 12.423 1.868 10.904 1.212 9.122 .728 7.075 .242 5.029 0 2.671 0 0M-5.944-.679C-5.944 2.703-5.364 5.837-4.202 8.724-3.041 11.609-1.406 14.098 .701 16.187 2.81 18.275 5.342 19.913 8.299 21.098 11.257 22.282 14.531 22.875 18.123 22.875 20.317 22.875 22.35 22.578 24.221 21.986 26.092 21.394 27.791 20.575 29.318 19.53 30.846 18.485 32.2 17.253 33.383 15.831 34.565 14.41 35.561 12.875 36.367 11.228 37.174 9.579 37.781 7.84 38.19 6.01 38.599 4.179 38.804 2.348 38.804 .517 38.804-3.08 38.223-6.37 37.062-9.354 35.899-12.337 34.318-14.91 32.318-17.075 30.318-19.24 27.995-20.92 25.35-22.115 22.704-23.311 19.897-23.908 16.93-23.908 14.37-23.908 12.031-23.602 9.912-22.988 7.794-22.374 5.885-21.523 4.186-20.436 2.486-19.348 1.002-18.066-.267-16.591-1.536-15.115-2.59-13.517-3.429-11.793-4.268-10.069-4.896-8.266-5.315-6.381-5.735-4.496-5.944-2.596-5.944-.679" fill="#834b4b"/>
<path transform="matrix(1,0,0,-1,116.1535,385.92195)" d="M0 0C-.822 0-1.612-.136-2.372-.405-3.132-.676-3.803-1.072-4.385-1.596-4.967-2.12-5.432-2.766-5.78-3.532-6.129-4.3-6.304-5.181-6.304-6.176-6.304-6.92-6.211-7.599-6.027-8.211-5.843-8.823-5.593-9.373-5.277-9.86-4.962-10.348-4.592-10.773-4.168-11.135-3.743-11.497-3.29-11.799-2.807-12.039-2.323-12.279-1.823-12.459-1.307-12.577-.791-12.696-.282-12.756 .217-12.756 .533-12.756 .822-12.746 1.085-12.726 1.349-12.706 1.613-12.672 1.879-12.622 2.146-12.573 2.424-12.508 2.713-12.425 3.002-12.343 3.328-12.242 3.689-12.124L3.877-12.688C3.528-12.857 3.155-12.997 2.758-13.107 2.359-13.218 1.967-13.307 1.578-13.375 1.19-13.442 .817-13.491 .459-13.521 .101-13.55-.217-13.564-.493-13.564-1.21-13.564-1.897-13.487-2.555-13.333-3.213-13.178-3.824-12.959-4.39-12.677-4.955-12.394-5.47-12.049-5.934-11.641-6.397-11.233-6.793-10.774-7.122-10.265-7.451-9.755-7.704-9.203-7.882-8.607-8.06-8.013-8.148-7.379-8.148-6.708-8.148-5.985-8.06-5.3-7.882-4.651-7.704-4.004-7.449-3.405-7.117-2.856-6.785-2.308-6.381-1.811-5.904-1.366-5.427-.923-4.892-.546-4.296-.237-3.701 .072-3.053 .309-2.353 .473-1.652 .638-.911 .72-.128 .72 .865 .72 1.729 .662 2.467 .547 3.203 .432 3.854 .302 4.42 .157L4.134-3.138H3.531V-2.979C3.531-2.645 3.49-2.301 3.408-1.948 3.326-1.597 3.16-1.276 2.91-.987 2.66-.697 2.304-.461 1.84-.276 1.376-.093 .763 0 0 0"/>
<path transform="matrix(1,0,0,-1,129.6232,392.18653)" d="M0 0C0-.854 .116-1.677 .351-2.466 .584-3.255 .922-3.954 1.366-4.562 1.811-5.171 2.354-5.657 2.999-6.022 3.644-6.388 4.377-6.569 5.198-6.569 5.988-6.569 6.684-6.412 7.285-6.097 7.887-5.78 8.389-5.349 8.789-4.799 9.19-4.25 9.493-3.608 9.697-2.875 9.9-2.143 10.003-1.354 10.003-.513 10.003 .435 9.883 1.32 9.643 2.146 9.402 2.971 9.065 3.689 8.632 4.301 8.197 4.913 7.68 5.393 7.078 5.741 6.477 6.09 5.816 6.265 5.1 6.265 4.726 6.265 4.341 6.223 3.946 6.141 3.552 6.059 3.165 5.921 2.787 5.727 2.408 5.532 2.05 5.277 1.712 4.962 1.373 4.646 1.077 4.257 .823 3.793 .57 3.329 .37 2.785 .222 2.16 .074 1.535 0 .815 0 0M-1.815-.207C-1.815 .825-1.638 1.782-1.283 2.664-.929 3.545-.43 4.305 .214 4.942 .857 5.58 1.631 6.08 2.534 6.441 3.437 6.804 4.437 6.984 5.533 6.984 6.203 6.984 6.824 6.894 7.396 6.713 7.967 6.532 8.485 6.282 8.951 5.963 9.418 5.645 9.831 5.268 10.192 4.834 10.554 4.399 10.857 3.932 11.104 3.428 11.351 2.925 11.535 2.394 11.66 1.835 11.785 1.276 11.848 .717 11.848 .158 11.848-.94 11.67-1.945 11.315-2.855 10.961-3.767 10.479-4.553 9.867-5.213 9.257-5.874 8.548-6.388 7.74-6.752 6.932-7.117 6.075-7.3 5.169-7.3 4.388-7.3 3.673-7.206 3.026-7.019 2.38-6.831 1.797-6.571 1.278-6.239 .759-5.907 .306-5.516-.081-5.065-.469-4.615-.791-4.127-1.047-3.601-1.303-3.074-1.495-2.523-1.623-1.948-1.751-1.373-1.815-.792-1.815-.207"/>
<path transform="matrix(1,0,0,-1,149.2179,398.58894)" d="M0 0C.131 .014 .253 .026 .365 .04 .477 .053 .585 .062 .69 .069 .796 .075 .907 .082 1.025 .089L1.282 7.699C1.302 8.165 1.313 8.609 1.316 9.029 1.32 9.45 1.321 9.854 1.321 10.242 1.321 10.86 1.313 11.41 1.297 11.894 1.28 12.376 1.263 12.782 1.243 13.11L2.052 13.406 11.729 1.786C11.749 2.358 11.77 2.973 11.793 3.631 11.816 4.288 11.838 4.944 11.857 5.599 11.877 6.253 11.896 6.886 11.916 7.497 11.937 8.109 11.952 8.663 11.966 9.159 11.979 9.656 11.99 10.07 12 10.402 12.01 10.734 12.015 10.95 12.015 11.049 12.015 11.331 11.995 11.562 11.956 11.739 11.916 11.917 11.855 12.057 11.773 12.158 11.691 12.261 11.589 12.333 11.468 12.376 11.346 12.418 11.206 12.453 11.048 12.479L10.624 12.538V13.11C10.716 13.084 10.841 13.058 10.999 13.031 11.131 13.012 11.298 12.995 11.502 12.982 11.706 12.969 11.956 12.963 12.252 12.963 12.548 12.963 12.885 12.974 13.263 12.997 13.641 13.02 14.073 13.058 14.561 13.11V12.538C14.389 12.525 14.238 12.512 14.106 12.499 13.975 12.485 13.854 12.475 13.746 12.464 13.638 12.454 13.531 12.446 13.426 12.439 13.32 12.433 13.205 12.427 13.08 12.42L12.863 6.077C12.856 5.899 12.851 5.663 12.844 5.366 12.837 5.07 12.829 4.76 12.819 4.435 12.81 4.109 12.801 3.785 12.794 3.463 12.788 3.141 12.784 2.867 12.784 2.644V1.811C12.784 1.551 12.786 1.293 12.789 1.036 12.793 .779 12.799 .519 12.81 .252 12.819-.015 12.83-.303 12.844-.611L11.995-.897 2.318 10.585C2.305 10.026 2.29 9.427 2.273 8.786 2.257 8.146 2.24 7.502 2.225 6.854 2.208 6.207 2.191 5.58 2.175 4.973 2.158 4.364 2.144 3.816 2.131 3.326 2.117 2.837 2.107 2.426 2.101 2.095 2.095 1.763 2.091 1.551 2.091 1.459 2.091 1.17 2.111 .938 2.15 .764 2.189 .59 2.249 .452 2.328 .351 2.407 .248 2.507 .174 2.629 .128 2.75 .082 2.896 .046 3.067 .02L3.492-.039V-.611C3.394-.592 3.265-.568 3.107-.542 2.976-.529 2.808-.515 2.604-.498 2.4-.481 2.15-.474 1.854-.474 1.559-.474 1.223-.483 .849-.503 .474-.522 .039-.559-.454-.611V-.039C-.283-.026-.132-.013 0 0"/>
<path transform="matrix(1,0,0,-1,174.7326,398.75593)" d="M0 0C.395 0 .765 .061 1.109 .182 1.455 .304 1.756 .479 2.013 .71 2.269 .94 2.471 1.221 2.619 1.554 2.767 1.886 2.841 2.262 2.841 2.683 2.841 3.084 2.747 3.45 2.56 3.782 2.372 4.114 2.136 4.422 1.85 4.705 1.563 4.987 1.253 5.254 .917 5.504 .582 5.754 .263 6.001-.039 6.244-.329 6.468-.647 6.713-.996 6.979-1.345 7.245-1.672 7.539-1.978 7.861-2.284 8.184-2.54 8.539-2.747 8.927-2.954 9.315-3.058 9.746-3.058 10.22-3.058 10.456-3.035 10.704-2.989 10.964-2.943 11.224-2.863 11.478-2.748 11.724-2.634 11.971-2.482 12.204-2.296 12.424-2.109 12.645-1.874 12.839-1.593 13.006-1.311 13.174-.979 13.307-.599 13.405-.219 13.504 .224 13.554 .729 13.554 1.372 13.554 1.991 13.503 2.588 13.4 3.185 13.299 3.7 13.182 4.133 13.051L3.916 10.081H3.354V10.348C3.354 10.598 3.327 10.869 3.275 11.161 3.223 11.454 3.107 11.724 2.93 11.971 2.752 12.217 2.494 12.423 2.155 12.587 1.816 12.751 1.361 12.834 .789 12.834 .447 12.834 .137 12.786-.144 12.69-.423 12.595-.661 12.46-.858 12.286-1.056 12.111-1.208 11.899-1.317 11.649-1.426 11.399-1.479 11.12-1.479 10.812-1.479 10.403-1.399 10.043-1.238 9.731-1.077 9.419-.87 9.138-.616 8.888-.363 8.638-.082 8.406 .227 8.192 .536 7.979 .835 7.767 1.125 7.556 1.559 7.24 1.975 6.926 2.372 6.614 2.771 6.302 3.12 5.973 3.423 5.627 3.726 5.282 3.967 4.912 4.148 4.518 4.329 4.123 4.419 3.689 4.419 3.216 4.419 2.663 4.295 2.146 4.046 1.667 3.796 1.187 3.463 .769 3.047 .414 2.63 .059 2.153-.221 1.615-.425 1.077-.628 .522-.73-.048-.73-.743-.73-1.406-.675-2.036-.562-2.665-.451-3.214-.322-3.68-.178L-3.442 2.949H-2.831V2.604C-2.831 2.328-2.799 2.037-2.732 1.73-2.667 1.425-2.534 1.144-2.333 .888-2.133 .631-1.847 .419-1.475 .251-1.104 .083-.611 0 0 0"/>
<path transform="matrix(1,0,0,-1,187.5597,385.55763)" d="M0 0C.171-.02 .38-.036 .627-.049 .873-.062 1.164-.068 1.5-.068 1.835-.068 2.203-.058 2.604-.034 3.006-.012 3.449 .026 3.937 .079V-.493C3.766-.506 3.615-.52 3.487-.532 3.359-.546 3.239-.557 3.127-.567 3.016-.577 2.907-.585 2.802-.592 2.696-.599 2.585-.604 2.467-.611 2.42-1.775 2.383-2.78 2.353-3.625 2.323-4.47 2.297-5.19 2.274-5.785 2.251-6.381 2.233-6.869 2.22-7.25 2.207-7.632 2.198-7.939 2.195-8.173 2.191-8.406 2.188-8.584 2.186-8.705 2.182-8.827 2.181-8.924 2.181-8.996 2.181-10.352 2.504-11.37 3.152-12.055 3.8-12.738 4.817-13.08 6.205-13.08 7.554-13.08 8.583-12.692 9.293-11.916 10.003-11.141 10.388-9.957 10.447-8.365 10.52-6.511 10.573-5.056 10.609-4 10.646-2.944 10.664-2.271 10.664-1.982 10.664-1.7 10.645-1.47 10.604-1.292 10.565-1.114 10.506-.975 10.428-.873 10.349-.771 10.248-.698 10.126-.655 10.005-.613 9.861-.578 9.697-.552L9.273-.493V.079C9.398 .053 9.553 .026 9.736 0 9.895-.02 10.09-.036 10.323-.049 10.557-.062 10.835-.068 11.157-.068 11.473-.068 11.826-.058 12.218-.034 12.609-.012 13.048 .026 13.534 .079V-.493C13.363-.506 13.214-.52 13.086-.532 12.958-.546 12.838-.557 12.726-.567 12.614-.577 12.505-.585 12.4-.592 12.295-.599 12.184-.604 12.064-.611L11.394-8.513C11.315-9.388 11.15-10.162 10.9-10.836 10.65-11.511 10.308-12.076 9.87-12.533 9.433-12.99 8.896-13.337 8.262-13.573 7.627-13.811 6.893-13.929 6.058-13.929 5.235-13.929 4.488-13.843 3.818-13.672 3.147-13.501 2.575-13.24 2.102-12.888 1.628-12.536 1.262-12.096 1.002-11.566 .741-11.037 .612-10.41 .612-9.687 .612-9.549 .615-9.34 .622-9.061 .628-8.781 .638-8.459 .651-8.094 .664-7.729 .68-7.334 .695-6.91 .712-6.485 .73-6.06 .75-5.633 .77-5.205 .788-4.787 .805-4.38 .82-3.972 .835-3.602 .849-3.27 .861-2.938 .872-2.658 .878-2.432 .885-2.204 .888-2.055 .888-1.982 .888-1.7 .866-1.47 .824-1.292 .781-1.114 .719-.975 .637-.873 .555-.771 .45-.698 .326-.655 .201-.613 .06-.578-.099-.552L-.522-.493V.079C-.378 .053-.204 .026 0 0"/>
<path transform="matrix(1,0,0,-1,209.2375,398.5)" d="M0 0C.032 .874 .063 1.738 .094 2.593 .123 3.446 .152 4.265 .182 5.047 .212 5.829 .236 6.559 .256 7.235 .275 7.912 .294 8.51 .311 9.029 .327 9.548 .34 9.976 .35 10.311 .359 10.646 .364 10.862 .364 10.961 .364 11.243 .345 11.474 .306 11.651 .266 11.828 .207 11.968 .128 12.07 .049 12.172-.052 12.244-.173 12.287-.295 12.329-.437 12.364-.603 12.391L-1.026 12.449V13.021C-.882 12.995-.711 12.969-.514 12.942-.343 12.923-.134 12.906 .113 12.894 .359 12.88 .65 12.874 .986 12.874 1.321 12.874 1.691 12.885 2.096 12.908 2.5 12.931 2.945 12.969 3.433 13.021V12.449C3.262 12.437 3.112 12.423 2.983 12.41 2.855 12.396 2.735 12.386 2.624 12.375 2.512 12.365 2.403 12.357 2.298 12.351 2.192 12.345 2.081 12.338 1.963 12.331 1.93 11.457 1.898 10.592 1.869 9.733 1.84 8.876 1.81 8.059 1.78 7.279 1.751 6.501 1.725 5.771 1.701 5.091 1.678 4.411 1.657 3.812 1.637 3.292 1.617 2.773 1.603 2.346 1.593 2.011 1.583 1.676 1.578 1.462 1.578 1.37 1.578 1.055 1.634 .802 1.746 .611 1.857 .421 2.019 .274 2.229 .173 2.439 .07 2.692 .002 2.988-.034 3.284-.07 3.62-.089 3.995-.089 4.521-.089 4.97-.046 5.342 .04 5.713 .125 6.028 .267 6.288 .464 6.548 .661 6.76 .924 6.925 1.253 7.089 1.582 7.224 1.993 7.329 2.486H7.96C7.935 2.308 7.895 2.075 7.842 1.789 7.789 1.502 7.726 1.198 7.649 .879 7.574 .559 7.485 .24 7.384-.076 7.281-.393 7.171-.667 7.053-.897 6.355-.878 5.679-.85 5.021-.813 4.363-.777 3.76-.743 3.211-.71 2.661-.677 2.183-.647 1.775-.621 1.367-.595 1.065-.582 .868-.582 .532-.582 .177-.589-.197-.602-.572-.615-1.007-.647-1.5-.7L-1.48-.128C-1.31-.115-1.158-.102-1.026-.089-.895-.075-.773-.062-.661-.049-.55-.036-.441-.026-.336-.02-.23-.014-.119-.007 0 0"/>
<path transform="matrix(1,0,0,-1,228.8674,386.169)" d="M0 0C-.375 .013-.715 .023-1.021 .029-1.326 .036-1.57 .039-1.754 .039-2.122 .039-2.447 .012-2.729-.044-3.013-.101-3.264-.217-3.483-.395-3.704-.572-3.896-.828-4.06-1.164-4.225-1.499-4.372-1.946-4.503-2.506H-5.085L-4.682 .809C-3.934 .75-3.292 .715-2.757 .705-2.222 .695-1.747 .69-1.334 .69-.44 .69 .411 .692 1.222 .695 2.032 .699 2.776 .705 3.452 .715 4.129 .725 4.728 .738 5.25 .755 5.771 .771 6.19 .796 6.506 .829L6.21-2.506H5.598C5.598-2.434 5.602-2.34 5.608-2.225 5.614-2.109 5.618-2.016 5.618-1.943 5.618-1.727 5.595-1.516 5.549-1.312 5.503-1.108 5.404-.926 5.253-.765 5.102-.604 4.883-.469 4.597-.36 4.311-.252 3.925-.185 3.438-.158L1.504-.06C1.472-.927 1.44-1.784 1.41-2.632 1.381-3.479 1.354-4.291 1.332-5.066 1.309-5.842 1.285-6.568 1.263-7.245 1.239-7.922 1.222-8.52 1.208-9.039 1.195-9.558 1.184-9.985 1.174-10.32 1.164-10.655 1.159-10.869 1.159-10.961 1.159-11.25 1.181-11.483 1.223-11.661 1.266-11.838 1.328-11.978 1.41-12.08 1.492-12.182 1.593-12.256 1.711-12.302 1.83-12.348 1.968-12.38 2.126-12.4L2.55-12.459V-13.031C2.405-13.012 2.23-12.988 2.027-12.962 1.856-12.949 1.646-12.935 1.396-12.918 1.147-12.901 .86-12.894 .535-12.894 .204-12.894-.161-12.903-.561-12.923-.96-12.942-1.406-12.979-1.899-13.031V-12.459C-1.729-12.446-1.577-12.433-1.445-12.42-1.313-12.406-1.192-12.394-1.08-12.38-.969-12.367-.86-12.357-.755-12.351-.649-12.345-.538-12.338-.419-12.331Z"/>
<path transform="matrix(1,0,0,-1,244.0773,392.18653)" d="M0 0C0-.854 .116-1.677 .351-2.466 .584-3.255 .922-3.954 1.366-4.562 1.811-5.171 2.354-5.657 2.999-6.022 3.644-6.388 4.377-6.569 5.198-6.569 5.988-6.569 6.684-6.412 7.285-6.097 7.887-5.78 8.389-5.349 8.789-4.799 9.19-4.25 9.493-3.608 9.697-2.875 9.9-2.143 10.003-1.354 10.003-.513 10.003 .435 9.883 1.32 9.643 2.146 9.402 2.971 9.065 3.689 8.632 4.301 8.197 4.913 7.68 5.393 7.078 5.741 6.477 6.09 5.816 6.265 5.1 6.265 4.726 6.265 4.341 6.223 3.946 6.141 3.552 6.059 3.165 5.921 2.787 5.727 2.408 5.532 2.05 5.277 1.712 4.962 1.373 4.646 1.077 4.257 .823 3.793 .57 3.329 .37 2.785 .222 2.16 .074 1.535 0 .815 0 0M-1.815-.207C-1.815 .825-1.638 1.782-1.283 2.664-.929 3.545-.43 4.305 .214 4.942 .857 5.58 1.631 6.08 2.534 6.441 3.437 6.804 4.437 6.984 5.533 6.984 6.203 6.984 6.824 6.894 7.396 6.713 7.967 6.532 8.485 6.282 8.951 5.963 9.418 5.645 9.831 5.268 10.192 4.834 10.554 4.399 10.857 3.932 11.104 3.428 11.351 2.925 11.535 2.394 11.66 1.835 11.785 1.276 11.848 .717 11.848 .158 11.848-.94 11.67-1.945 11.315-2.855 10.961-3.767 10.479-4.553 9.867-5.213 9.257-5.874 8.548-6.388 7.74-6.752 6.932-7.117 6.075-7.3 5.169-7.3 4.388-7.3 3.673-7.206 3.026-7.019 2.38-6.831 1.797-6.571 1.278-6.239 .759-5.907 .306-5.516-.081-5.065-.469-4.615-.791-4.127-1.047-3.601-1.303-3.074-1.495-2.523-1.623-1.948-1.751-1.373-1.815-.792-1.815-.207"/>
<path transform="matrix(1,0,0,-1,266.5334,392.26564)" d="M0 0H.562C1.385 0 2.065 .097 2.604 .291 3.144 .484 3.571 .739 3.887 1.054 4.202 1.369 4.425 1.73 4.553 2.138 4.681 2.545 4.745 2.965 4.745 3.398 4.745 3.608 4.724 3.823 4.681 4.043 4.639 4.264 4.566 4.479 4.464 4.688 4.362 4.898 4.228 5.098 4.06 5.284 3.892 5.472 3.688 5.636 3.448 5.777 3.208 5.918 2.925 6.029 2.6 6.111 2.274 6.193 1.9 6.234 1.479 6.234 1.243 6.234 1.029 6.229 .839 6.215 .647 6.202 .437 6.176 .207 6.137ZM-3.216-6.362C-3.045-6.35-2.894-6.336-2.762-6.323-2.631-6.31-2.509-6.297-2.396-6.283-2.285-6.271-2.177-6.261-2.071-6.254-1.966-6.248-1.854-6.241-1.736-6.234-1.703-5.36-1.672-4.496-1.643-3.642-1.612-2.788-1.585-1.97-1.559-1.187-1.532-.405-1.506 .324-1.479 1.001-1.453 1.678-1.43 2.275-1.41 2.795-1.391 3.313-1.376 3.741-1.366 4.076-1.356 4.411-1.352 4.628-1.352 4.727-1.352 5.009-1.371 5.239-1.41 5.417-1.45 5.594-1.511 5.733-1.593 5.836-1.675 5.937-1.778 6.01-1.903 6.053-2.028 6.095-2.174 6.13-2.338 6.156L-2.771 6.215V6.787C-2.588 6.761-2.391 6.734-2.18 6.708-2.002 6.688-1.8 6.672-1.573 6.659-1.347 6.646-1.111 6.64-.868 6.64-.645 6.64-.431 6.652-.227 6.679-.022 6.705 .187 6.733 .404 6.763 .622 6.792 .852 6.82 1.096 6.847 1.339 6.873 1.608 6.886 1.904 6.886 2.693 6.886 3.367 6.789 3.927 6.595 4.485 6.401 4.942 6.142 5.298 5.816 5.652 5.491 5.912 5.12 6.077 4.702 6.241 4.285 6.323 3.856 6.323 3.416 6.323 2.812 6.213 2.292 5.993 1.858 5.772 1.425 5.503 1.058 5.185 .759 4.865 .46 4.526 .22 4.168 .039 3.81-.142 3.492-.274 3.216-.36 3.716-1.262 4.226-2.11 4.745-2.907 5.265-3.703 5.776-4.4 6.279-5 6.782-5.599 7.269-6.07 7.739-6.416 8.209-6.762 8.648-6.935 9.056-6.935L9.036-7.28C8.786-7.319 8.543-7.339 8.307-7.339 7.767-7.326 7.249-7.196 6.753-6.949 6.256-6.703 5.784-6.386 5.337-5.997 4.89-5.609 4.471-5.171 4.079-4.681 3.688-4.19 3.33-3.699 3.004-3.206 2.679-2.713 2.391-2.242 2.141-1.795 1.891-1.348 1.684-.967 1.52-.65 1.349-.664 1.169-.674 .981-.681 .794-.687 .596-.69 .385-.69H-.02C-.026-.887-.034-1.115-.044-1.375-.054-1.634-.063-1.901-.073-2.178-.084-2.453-.094-2.732-.104-3.015-.113-3.297-.121-3.56-.128-3.802-.135-4.045-.142-4.26-.147-4.447-.154-4.634-.157-4.773-.157-4.865-.157-5.148-.138-5.376-.099-5.55-.059-5.724 0-5.863 .079-5.969 .158-6.073 .26-6.149 .385-6.195 .51-6.241 .658-6.277 .829-6.304L1.253-6.362V-6.935C1.108-6.915 .934-6.892 .73-6.865 .56-6.853 .349-6.838 .099-6.821-.151-6.805-.44-6.797-.77-6.797-1.104-6.797-1.473-6.807-1.874-6.826-2.275-6.846-2.723-6.882-3.216-6.935Z"/>
<path transform="matrix(1,0,0,-1,286.9572,387.66804)" d="M0 0-2.081-6.058H1.943L.286 0ZM.868 2.692 4.203-8.092C4.446-8.894 4.712-9.539 5.002-10.028 5.291-10.519 5.652-10.799 6.087-10.871L6.629-10.96 6.609-11.532C6.274-11.493 5.911-11.463 5.52-11.443 5.128-11.424 4.729-11.414 4.321-11.414 3.887-11.414 3.463-11.424 3.049-11.443 2.634-11.463 2.239-11.493 1.864-11.532L1.885-10.96 3.275-10.832 2.141-6.748H1.756C1.579-6.748 1.345-6.75 1.056-6.753 .767-6.756 .439-6.765 .074-6.777-.291-6.791-.684-6.811-1.104-6.837-1.525-6.862-1.96-6.898-2.406-6.944L-2.949-8.46C-3.067-8.775-3.171-9.074-3.26-9.356-3.349-9.638-3.394-9.884-3.394-10.094-3.394-10.304-3.337-10.477-3.226-10.61-3.113-10.745-2.92-10.832-2.644-10.871L-2.062-10.96-2.081-11.532C-2.437-11.493-2.776-11.46-3.103-11.434-3.428-11.407-3.768-11.395-4.123-11.395-4.479-11.395-4.847-11.407-5.228-11.434-5.609-11.46-6.033-11.493-6.501-11.532L-6.48-10.96C-6.29-10.94-6.109-10.921-5.938-10.901-5.787-10.888-5.636-10.875-5.484-10.861-5.333-10.849-5.208-10.839-5.109-10.832-4.84-10.267-4.559-9.649-4.267-8.979-3.974-8.309-3.675-7.605-3.368-6.869-3.063-6.134-2.757-5.371-2.451-4.582-2.146-3.794-1.845-3.002-1.549-2.207-1.253-1.411-.968-.619-.695 .169-.423 .958-.164 1.724 .079 2.466Z"/>
<path transform="matrix(1,0,0,-1,316.3781,386.10945)" d="M0 0C-.225 0-.448-.002-.673-.005-.896-.009-1.111-.016-1.315-.025-1.52-.035-1.711-.047-1.889-.06-2.066-.073-2.218-.086-2.344-.099-2.416-2.026-2.479-3.766-2.531-5.317-2.551-5.981-2.572-6.635-2.596-7.275-2.619-7.917-2.639-8.495-2.655-9.012-2.671-9.528-2.685-9.959-2.694-10.304-2.704-10.649-2.709-10.852-2.709-10.911-2.709-11.227-2.677-11.491-2.61-11.705-2.544-11.919-2.416-12.09-2.225-12.218-2.033-12.346-1.765-12.437-1.419-12.489-1.073-12.542-.62-12.568-.06-12.568 .276-12.568 .667-12.542 1.112-12.489 1.557-12.437 2.018-12.335 2.496-12.184 2.974-12.032 3.443-11.816 3.904-11.537 4.366-11.258 4.778-10.888 5.141-10.428 5.503-9.967 5.796-9.406 6.021-8.745 6.244-8.085 6.356-7.297 6.356-6.383 6.356-5.896 6.318-5.401 6.243-4.898 6.167-4.396 6.037-3.907 5.853-3.434 5.668-2.96 5.419-2.515 5.105-2.097 4.793-1.679 4.4-1.315 3.93-1.007 3.458-.697 2.899-.452 2.254-.271 1.607-.091 .856 0 0 0M-5.768-12.519C-5.597-12.506-5.445-12.492-5.313-12.479-5.182-12.466-5.061-12.453-4.948-12.439-4.837-12.427-4.729-12.417-4.623-12.41-4.518-12.404-4.406-12.397-4.287-12.391-4.223-10.465-4.164-8.724-4.112-7.166-4.093-6.503-4.071-5.849-4.049-5.205-4.026-4.561-4.005-3.976-3.985-3.45-3.966-2.925-3.951-2.486-3.941-2.135-3.932-1.783-3.927-1.567-3.927-1.488-3.927-1.187-3.946-.943-3.986-.76-4.025-.575-4.085-.433-4.164-.33-4.242-.229-4.343-.155-4.465-.108-4.586-.062-4.729-.026-4.894 0L-5.318 .059V.631C-5.127 .604-4.92 .578-4.696 .552-4.506 .532-4.284 .516-4.03 .503-3.777 .489-3.506 .483-3.217 .483-2.854 .483-2.491 .496-2.126 .522-1.761 .549-1.388 .577-1.006 .606-.624 .636-.234 .664 .163 .69 .562 .717 .978 .729 1.412 .729 2.418 .729 3.339 .565 4.175 .236 5.011-.093 5.726-.56 6.321-1.164 6.917-1.77 7.379-2.496 7.708-3.345 8.037-4.192 8.201-5.134 8.201-6.166 8.201-6.64 8.15-7.141 8.048-7.67 7.946-8.199 7.778-8.726 7.545-9.248 7.312-9.771 7.003-10.271 6.618-10.748 6.233-11.225 5.762-11.646 5.202-12.011 4.644-12.376 3.985-12.667 3.229-12.884 2.473-13.101 1.605-13.209 .625-13.209 .322-13.209 .015-13.197-.297-13.175-.609-13.151-.926-13.125-1.244-13.096-1.563-13.066-1.887-13.038-2.216-13.012-2.545-12.985-2.877-12.973-3.212-12.973-3.528-12.973-3.897-12.978-4.322-12.987-4.746-12.997-5.228-13.031-5.768-13.091Z"/>
<path transform="matrix(1,0,0,-1,339.3117,392.7188)" d="M0 0C-.395 .052-.794 .099-1.198 .138-1.604 .177-1.989 .21-2.357 .236-2.727 .263-3.063 .284-3.369 .301-3.675 .316-3.927 .332-4.124 .345-4.15-.443-4.177-1.162-4.202-1.812-4.216-2.088-4.226-2.363-4.232-2.64-4.238-2.915-4.247-3.17-4.257-3.402-4.267-3.636-4.273-3.834-4.276-3.999-4.28-4.163-4.281-4.274-4.281-4.333-4.281-4.675-4.235-4.947-4.144-5.151-4.052-5.354-3.911-5.509-3.724-5.614-3.536-5.719-3.305-5.788-3.028-5.82-2.752-5.854-2.431-5.87-2.062-5.87-1.536-5.87-1.087-5.837-.715-5.771-.344-5.705-.028-5.584 .231-5.406 .491-5.229 .703-4.983 .868-4.671 1.032-4.359 1.167-3.956 1.272-3.463H1.894C1.867-3.641 1.828-3.865 1.775-4.136 1.723-4.406 1.659-4.691 1.583-4.991 1.508-5.292 1.419-5.59 1.316-5.887 1.215-6.184 1.104-6.448 .986-6.679 .289-6.659-.377-6.631-1.012-6.595-1.646-6.559-2.225-6.524-2.747-6.491-3.271-6.458-3.726-6.429-4.113-6.402-4.502-6.376-4.794-6.363-4.991-6.363-5.327-6.363-5.683-6.37-6.057-6.383-6.432-6.396-6.866-6.429-7.359-6.481L-7.34-5.909C-7.169-5.896-7.018-5.883-6.886-5.87-6.754-5.856-6.633-5.844-6.521-5.83-6.409-5.817-6.301-5.808-6.195-5.801-6.09-5.795-5.979-5.788-5.859-5.781-5.794-3.855-5.735-2.114-5.683-.557-5.662 .106-5.642 .762-5.618 1.409-5.595 2.057-5.573 2.644-5.554 3.169-5.534 3.694-5.52 4.135-5.51 4.49-5.5 4.845-5.495 5.062-5.495 5.141-5.495 5.437-5.513 5.675-5.549 5.855-5.585 6.035-5.643 6.177-5.722 6.279-5.801 6.381-5.902 6.454-6.027 6.501-6.152 6.547-6.304 6.583-6.481 6.609L-6.886 6.668V7.24C-6.701 7.214-6.468 7.187-6.186 7.161-5.942 7.142-5.637 7.125-5.268 7.112-4.899 7.099-4.449 7.093-3.916 7.093H-1.539C-1.276 7.093-1.02 7.094-.77 7.098-.52 7.101-.267 7.107-.01 7.117 .246 7.127 .513 7.142 .789 7.161 1.065 7.182 1.361 7.207 1.677 7.24L1.371 3.906H.77C.775 4.037 .78 4.142 .784 4.217 .787 4.292 .789 4.352 .789 4.395V4.483 4.527C.789 4.744 .761 4.952 .705 5.149 .649 5.347 .541 5.522 .38 5.677 .219 5.831-.005 5.96-.291 6.062-.577 6.163-.95 6.23-1.411 6.264L-3.838 6.432C-3.891 5.893-3.932 5.345-3.961 4.789-3.99 4.233-4.012 3.722-4.025 3.255L-4.104 1.035 .099 1.253Z"/>
<path transform="matrix(1,0,0,-1,359.3742,398.58894)" d="M0 0C.131 .014 .253 .026 .365 .04 .477 .053 .585 .062 .69 .069 .796 .075 .907 .082 1.025 .089 1.059 .963 1.09 1.827 1.119 2.682 1.149 3.535 1.177 4.354 1.203 5.136 1.229 5.918 1.256 6.647 1.282 7.324 1.309 8.001 1.332 8.599 1.352 9.118 1.371 9.637 1.386 10.064 1.396 10.399 1.405 10.734 1.41 10.951 1.41 11.05 1.41 11.332 1.389 11.563 1.347 11.74 1.304 11.917 1.241 12.057 1.159 12.159 1.076 12.261 .973 12.333 .849 12.376 .724 12.418 .582 12.453 .424 12.479L-.01 12.538V13.11C.135 13.084 .309 13.058 .513 13.031 .684 13.012 .893 12.995 1.14 12.982 1.386 12.969 1.677 12.963 2.013 12.963 2.348 12.963 2.718 12.974 3.122 12.997 3.526 13.02 3.972 13.058 4.459 13.11V12.538C4.288 12.525 4.137 12.512 4.005 12.499 3.873 12.485 3.753 12.475 3.645 12.464 3.536 12.454 3.43 12.446 3.324 12.439 3.219 12.434 3.107 12.427 2.989 12.42 2.956 11.546 2.925 10.681 2.896 9.822 2.865 8.965 2.836 8.147 2.807 7.368 2.776 6.59 2.75 5.86 2.728 5.18 2.704 4.5 2.683 3.9 2.663 3.381 2.644 2.862 2.629 2.435 2.619 2.1 2.609 1.765 2.604 1.551 2.604 1.459 2.604 1.17 2.625 .937 2.668 .759 2.711 .582 2.773 .442 2.855 .34 2.938 .238 3.041 .164 3.166 .118 3.291 .072 3.433 .04 3.591 .02L4.015-.039V-.611C3.87-.592 3.695-.568 3.492-.542 3.321-.529 3.11-.515 2.86-.498 2.61-.481 2.321-.474 1.992-.474 1.657-.474 1.289-.483 .888-.503 .486-.522 .039-.559-.454-.611V-.039C-.283-.026-.132-.013 0 0"/>
<path transform="matrix(1,0,0,-1,385.8341,396.70613)" d="M0 0C.007-.388 .03-.696 .069-.927 .109-1.156 .168-1.337 .247-1.469 .326-1.6 .426-1.692 .548-1.744 .67-1.797 .822-1.837 1.007-1.863L1.431-1.922V-2.494C1.286-2.475 1.111-2.451 .908-2.425 .737-2.412 .526-2.397 .276-2.381 .025-2.364-.267-2.356-.599-2.356-.938-2.356-1.311-2.366-1.713-2.386-2.116-2.405-2.564-2.441-3.058-2.494V-1.922C-2.887-1.909-2.735-1.896-2.604-1.883-2.473-1.869-2.351-1.856-2.239-1.843-2.127-1.83-2.019-1.82-1.913-1.813-1.809-1.808-1.696-1.801-1.578-1.794L-1.617 8.317H-1.805L-6.826-1.951H-7.29L-11.701 8.357H-11.868L-12.469 .769C-12.482 .67-12.492 .557-12.498 .429-12.505 .301-12.513 .172-12.523 .044-12.533-.084-12.539-.204-12.543-.315-12.546-.428-12.548-.516-12.548-.582-12.548-.838-12.524-1.043-12.479-1.197-12.433-1.353-12.368-1.476-12.286-1.567-12.204-1.659-12.103-1.727-11.98-1.77-11.858-1.812-11.719-1.843-11.562-1.863L-11.137-1.922V-2.494C-11.242-2.475-11.38-2.451-11.551-2.425-11.696-2.412-11.877-2.397-12.094-2.381-12.311-2.364-12.572-2.356-12.879-2.356-13.187-2.356-13.533-2.366-13.92-2.386-14.308-2.405-14.747-2.441-15.24-2.494V-1.922C-15.069-1.909-14.919-1.896-14.787-1.883-14.655-1.869-14.534-1.856-14.422-1.843-14.311-1.83-14.201-1.82-14.097-1.813-13.991-1.808-13.879-1.801-13.761-1.794L-12.328 11.179-11.39 11.504-6.618 .495H-6.48L-1.274 11.287-.286 11.484Z"/>
<path transform="matrix(1,0,0,-1,400.7345,383.50593)" d="M0 0 3.374 2.97C3.505 2.746 3.653 2.534 3.817 2.333 3.981 2.133 4.156 1.957 4.34 1.806L.365-.443ZM-4.064-8.681C-4.064-9.535-3.948-10.357-3.714-11.146-3.48-11.936-3.143-12.635-2.698-13.243-2.254-13.852-1.71-14.338-1.065-14.703-.421-15.068 .312-15.25 1.134-15.25 1.924-15.25 2.619-15.093 3.221-14.777 3.822-14.461 4.324-14.029 4.725-13.479 5.126-12.931 5.429-12.289 5.633-11.556 5.836-10.823 5.938-10.035 5.938-9.193 5.938-8.246 5.818-7.36 5.578-6.535 5.338-5.71 5.001-4.991 4.567-4.38 4.133-3.768 3.615-3.288 3.014-2.939 2.412-2.591 1.752-2.416 1.035-2.416 .661-2.416 .276-2.458-.118-2.54-.513-2.622-.899-2.76-1.277-2.954-1.656-3.148-2.015-3.403-2.353-3.719-2.691-4.034-2.987-4.424-3.241-4.888-3.494-5.352-3.694-5.896-3.843-6.521-3.99-7.146-4.064-7.865-4.064-8.681M-5.88-8.888C-5.88-7.855-5.702-6.898-5.348-6.017-4.993-5.136-4.494-4.376-3.851-3.738-3.207-3.101-2.434-2.601-1.53-2.239-.628-1.877 .372-1.696 1.469-1.696 2.139-1.696 2.76-1.787 3.331-1.968 3.902-2.148 4.421-2.398 4.887-2.718 5.354-3.036 5.767-3.413 6.128-3.847 6.489-4.281 6.793-4.749 7.039-5.253 7.286-5.756 7.471-6.287 7.596-6.846 7.721-7.404 7.783-7.964 7.783-8.522 7.783-9.621 7.605-10.626 7.251-11.536 6.896-12.447 6.414-13.233 5.803-13.894 5.192-14.555 4.483-15.068 3.676-15.433 2.867-15.798 2.011-15.98 1.104-15.98 .323-15.98-.392-15.887-1.038-15.699-1.685-15.512-2.268-15.252-2.786-14.92-3.306-14.588-3.759-14.196-4.146-13.746-4.533-13.296-4.855-12.808-5.111-12.281-5.367-11.755-5.56-11.204-5.687-10.629-5.815-10.054-5.88-9.473-5.88-8.888"/>
<path transform="matrix(1,0,0,-1,422.2726,397.36524)" d="M0 0H.129L3.641 9.401C3.771 9.736 3.869 10.013 3.932 10.229 3.994 10.446 4.025 10.627 4.025 10.772 4.025 10.937 3.978 11.05 3.882 11.112 3.786 11.175 3.644 11.223 3.453 11.256L3.028 11.314V11.887C3.134 11.86 3.269 11.834 3.434 11.808 3.571 11.788 3.748 11.771 3.964 11.759 4.18 11.745 4.44 11.739 4.746 11.739 5.045 11.739 5.386 11.75 5.769 11.773 6.151 11.796 6.587 11.834 7.073 11.887V11.314C6.902 11.302 6.751 11.288 6.619 11.275 6.488 11.262 6.368 11.251 6.26 11.24 6.15 11.23 6.044 11.223 5.938 11.216 5.833 11.209 5.722 11.203 5.604 11.196L.029-1.973-.758-2.141-4.786 9.401C-4.924 9.789-5.057 10.1-5.185 10.333-5.312 10.566-5.446 10.747-5.584 10.876-5.722 11.004-5.868 11.093-6.022 11.142-6.177 11.191-6.343 11.229-6.521 11.256L-6.944 11.314V11.887C-6.773 11.86-6.576 11.834-6.353 11.808-6.162 11.788-5.929 11.771-5.652 11.759-5.376 11.745-5.061 11.739-4.705 11.739-4.351 11.739-3.962 11.75-3.541 11.773-3.12 11.796-2.667 11.834-2.18 11.887V11.314C-2.351 11.302-2.502 11.288-2.634 11.275-2.766 11.262-2.885 11.251-2.994 11.24-3.103 11.23-3.209 11.223-3.314 11.216-3.42 11.209-3.531 11.203-3.649 11.196Z"/>
<path transform="matrix(1,0,0,-1,442.7863,392.7188)" d="M0 0C-.395 .052-.794 .099-1.198 .138-1.604 .177-1.989 .21-2.357 .236-2.727 .263-3.063 .284-3.369 .301-3.675 .316-3.927 .332-4.124 .345-4.15-.443-4.177-1.162-4.202-1.812-4.216-2.088-4.226-2.363-4.232-2.64-4.238-2.915-4.247-3.17-4.257-3.402-4.267-3.636-4.273-3.834-4.276-3.999-4.28-4.163-4.281-4.274-4.281-4.333-4.281-4.675-4.235-4.947-4.144-5.151-4.052-5.354-3.911-5.509-3.724-5.614-3.536-5.719-3.305-5.788-3.028-5.82-2.752-5.854-2.431-5.87-2.062-5.87-1.536-5.87-1.087-5.837-.715-5.771-.344-5.705-.028-5.584 .231-5.406 .491-5.229 .703-4.983 .868-4.671 1.032-4.359 1.167-3.956 1.272-3.463H1.894C1.867-3.641 1.828-3.865 1.775-4.136 1.723-4.406 1.659-4.691 1.583-4.991 1.508-5.292 1.419-5.59 1.316-5.887 1.215-6.184 1.104-6.448 .986-6.679 .289-6.659-.377-6.631-1.012-6.595-1.646-6.559-2.225-6.524-2.747-6.491-3.271-6.458-3.726-6.429-4.113-6.402-4.502-6.376-4.794-6.363-4.991-6.363-5.327-6.363-5.683-6.37-6.057-6.383-6.432-6.396-6.866-6.429-7.359-6.481L-7.34-5.909C-7.169-5.896-7.018-5.883-6.886-5.87-6.754-5.856-6.633-5.844-6.521-5.83-6.409-5.817-6.301-5.808-6.195-5.801-6.09-5.795-5.979-5.788-5.859-5.781-5.794-3.855-5.735-2.114-5.683-.557-5.662 .106-5.642 .762-5.618 1.409-5.595 2.057-5.573 2.644-5.554 3.169-5.534 3.694-5.52 4.135-5.51 4.49-5.5 4.845-5.495 5.062-5.495 5.141-5.495 5.437-5.513 5.675-5.549 5.855-5.585 6.035-5.643 6.177-5.722 6.279-5.801 6.381-5.902 6.454-6.027 6.501-6.152 6.547-6.304 6.583-6.481 6.609L-6.886 6.668V7.24C-6.701 7.214-6.468 7.187-6.186 7.161-5.942 7.142-5.637 7.125-5.268 7.112-4.899 7.099-4.449 7.093-3.916 7.093H-1.539C-1.276 7.093-1.02 7.094-.77 7.098-.52 7.101-.267 7.107-.01 7.117 .246 7.127 .513 7.142 .789 7.161 1.065 7.182 1.361 7.207 1.677 7.24L1.371 3.906H.77C.775 4.037 .78 4.142 .784 4.217 .787 4.292 .789 4.352 .789 4.395V4.483 4.527C.789 4.744 .761 4.952 .705 5.149 .649 5.347 .541 5.522 .38 5.677 .219 5.831-.005 5.96-.291 6.062-.577 6.163-.95 6.23-1.411 6.264L-3.838 6.432C-3.891 5.893-3.932 5.345-3.961 4.789-3.99 4.233-4.012 3.722-4.025 3.255L-4.104 1.035 .099 1.253Z"/>
<path transform="matrix(1,0,0,-1,452.4084,398.58894)" d="M0 0C.131 .014 .253 .026 .365 .04 .477 .053 .585 .062 .69 .069 .796 .075 .907 .082 1.025 .089 1.059 .963 1.09 1.827 1.119 2.682 1.149 3.535 1.177 4.354 1.203 5.136 1.229 5.918 1.256 6.647 1.282 7.324 1.309 8.001 1.332 8.599 1.352 9.118 1.371 9.637 1.386 10.064 1.396 10.399 1.405 10.734 1.41 10.951 1.41 11.05 1.41 11.332 1.389 11.563 1.347 11.74 1.304 11.917 1.241 12.057 1.159 12.159 1.076 12.261 .973 12.333 .849 12.376 .724 12.418 .582 12.453 .424 12.479L-.01 12.538V13.11C.135 13.084 .309 13.058 .513 13.031 .684 13.012 .893 12.995 1.14 12.982 1.386 12.969 1.677 12.963 2.013 12.963 2.348 12.963 2.718 12.974 3.122 12.997 3.526 13.02 3.972 13.058 4.459 13.11V12.538C4.288 12.525 4.137 12.512 4.005 12.499 3.873 12.485 3.753 12.475 3.645 12.464 3.536 12.454 3.43 12.446 3.324 12.439 3.219 12.434 3.107 12.427 2.989 12.42 2.956 11.546 2.925 10.681 2.896 9.822 2.865 8.965 2.836 8.147 2.807 7.368 2.776 6.59 2.75 5.86 2.728 5.18 2.704 4.5 2.683 3.9 2.663 3.381 2.644 2.862 2.629 2.435 2.619 2.1 2.609 1.765 2.604 1.551 2.604 1.459 2.604 1.17 2.625 .937 2.668 .759 2.711 .582 2.773 .442 2.855 .34 2.938 .238 3.041 .164 3.166 .118 3.291 .072 3.433 .04 3.591 .02L4.015-.039V-.611C3.87-.592 3.695-.568 3.492-.542 3.321-.529 3.11-.515 2.86-.498 2.61-.481 2.321-.474 1.992-.474 1.657-.474 1.289-.483 .888-.503 .486-.522 .039-.559-.454-.611V-.039C-.283-.026-.132-.013 0 0"/>
<path transform="matrix(1,0,0,-1,467.9386,398.75593)" d="M0 0C.395 0 .765 .061 1.109 .182 1.455 .304 1.756 .479 2.013 .71 2.269 .94 2.471 1.221 2.619 1.554 2.767 1.886 2.841 2.262 2.841 2.683 2.841 3.084 2.747 3.45 2.56 3.782 2.372 4.114 2.136 4.422 1.85 4.705 1.563 4.987 1.253 5.254 .917 5.504 .582 5.754 .263 6.001-.039 6.244-.329 6.468-.647 6.713-.996 6.979-1.345 7.245-1.672 7.539-1.978 7.861-2.284 8.184-2.54 8.539-2.747 8.927-2.954 9.315-3.058 9.746-3.058 10.22-3.058 10.456-3.035 10.704-2.989 10.964-2.943 11.224-2.863 11.478-2.748 11.724-2.634 11.971-2.482 12.204-2.296 12.424-2.109 12.645-1.874 12.839-1.593 13.006-1.311 13.174-.979 13.307-.599 13.405-.219 13.504 .224 13.554 .729 13.554 1.372 13.554 1.991 13.503 2.588 13.4 3.185 13.299 3.7 13.182 4.133 13.051L3.916 10.081H3.354V10.348C3.354 10.598 3.327 10.869 3.275 11.161 3.223 11.454 3.107 11.724 2.93 11.971 2.752 12.217 2.494 12.423 2.155 12.587 1.816 12.751 1.361 12.834 .789 12.834 .447 12.834 .137 12.786-.144 12.69-.423 12.595-.661 12.46-.858 12.286-1.056 12.111-1.208 11.899-1.317 11.649-1.426 11.399-1.479 11.12-1.479 10.812-1.479 10.403-1.399 10.043-1.238 9.731-1.077 9.419-.87 9.138-.616 8.888-.363 8.638-.082 8.406 .227 8.192 .536 7.979 .835 7.767 1.125 7.556 1.559 7.24 1.975 6.926 2.372 6.614 2.771 6.302 3.12 5.973 3.423 5.627 3.726 5.282 3.967 4.912 4.148 4.518 4.329 4.123 4.419 3.689 4.419 3.216 4.419 2.663 4.295 2.146 4.046 1.667 3.796 1.187 3.463 .769 3.047 .414 2.63 .059 2.153-.221 1.615-.425 1.077-.628 .522-.73-.048-.73-.743-.73-1.406-.675-2.036-.562-2.665-.451-3.214-.322-3.68-.178L-3.442 2.949H-2.831V2.604C-2.831 2.328-2.799 2.037-2.732 1.73-2.667 1.425-2.534 1.144-2.333 .888-2.133 .631-1.847 .419-1.475 .251-1.104 .083-.611 0 0 0"/>
<path transform="matrix(1,0,0,-1,116.1535,385.92195)" d="M0 0C-.822 0-1.612-.136-2.372-.405-3.132-.676-3.803-1.072-4.385-1.596-4.967-2.12-5.432-2.766-5.78-3.532-6.129-4.3-6.304-5.181-6.304-6.176-6.304-6.92-6.211-7.599-6.027-8.211-5.843-8.823-5.593-9.373-5.277-9.86-4.962-10.348-4.592-10.773-4.168-11.135-3.743-11.497-3.29-11.799-2.807-12.039-2.323-12.279-1.823-12.459-1.307-12.577-.791-12.696-.282-12.756 .217-12.756 .533-12.756 .822-12.746 1.085-12.726 1.349-12.706 1.613-12.672 1.879-12.622 2.146-12.573 2.424-12.508 2.713-12.425 3.002-12.343 3.328-12.242 3.689-12.124L3.877-12.688C3.528-12.857 3.155-12.997 2.758-13.107 2.359-13.218 1.967-13.307 1.578-13.375 1.19-13.442 .817-13.491 .459-13.521 .101-13.55-.217-13.564-.493-13.564-1.21-13.564-1.897-13.487-2.555-13.333-3.213-13.178-3.824-12.959-4.39-12.677-4.955-12.394-5.47-12.049-5.934-11.641-6.397-11.233-6.793-10.774-7.122-10.265-7.451-9.755-7.704-9.203-7.882-8.607-8.06-8.013-8.148-7.379-8.148-6.708-8.148-5.985-8.06-5.3-7.882-4.651-7.704-4.004-7.449-3.405-7.117-2.856-6.785-2.308-6.381-1.811-5.904-1.366-5.427-.923-4.892-.546-4.296-.237-3.701 .072-3.053 .309-2.353 .473-1.652 .638-.911 .72-.128 .72 .865 .72 1.729 .662 2.467 .547 3.203 .432 3.854 .302 4.42 .157L4.134-3.138H3.531V-2.979C3.531-2.645 3.49-2.301 3.408-1.948 3.326-1.597 3.16-1.276 2.91-.987 2.66-.697 2.304-.461 1.84-.276 1.376-.093 .763 0 0 0" fill="#834b4b"/>
<path transform="matrix(1,0,0,-1,129.6232,392.18653)" d="M0 0C0-.854 .116-1.677 .351-2.466 .584-3.255 .922-3.954 1.366-4.562 1.811-5.171 2.354-5.657 2.999-6.022 3.644-6.388 4.377-6.569 5.198-6.569 5.988-6.569 6.684-6.412 7.285-6.097 7.887-5.78 8.389-5.349 8.789-4.799 9.19-4.25 9.493-3.608 9.697-2.875 9.9-2.143 10.003-1.354 10.003-.513 10.003 .435 9.883 1.32 9.643 2.146 9.402 2.971 9.065 3.689 8.632 4.301 8.197 4.913 7.68 5.393 7.078 5.741 6.477 6.09 5.816 6.265 5.1 6.265 4.726 6.265 4.341 6.223 3.946 6.141 3.552 6.059 3.165 5.921 2.787 5.727 2.408 5.532 2.05 5.277 1.712 4.962 1.373 4.646 1.077 4.257 .823 3.793 .57 3.329 .37 2.785 .222 2.16 .074 1.535 0 .815 0 0M-1.815-.207C-1.815 .825-1.638 1.782-1.283 2.664-.929 3.545-.43 4.305 .214 4.942 .857 5.58 1.631 6.08 2.534 6.441 3.437 6.804 4.437 6.984 5.533 6.984 6.203 6.984 6.824 6.894 7.396 6.713 7.967 6.532 8.485 6.282 8.951 5.963 9.418 5.645 9.831 5.268 10.192 4.834 10.554 4.399 10.857 3.932 11.104 3.428 11.351 2.925 11.535 2.394 11.66 1.835 11.785 1.276 11.848 .717 11.848 .158 11.848-.94 11.67-1.945 11.315-2.855 10.961-3.767 10.479-4.553 9.867-5.213 9.257-5.874 8.548-6.388 7.74-6.752 6.932-7.117 6.075-7.3 5.169-7.3 4.388-7.3 3.673-7.206 3.026-7.019 2.38-6.831 1.797-6.571 1.278-6.239 .759-5.907 .306-5.516-.081-5.065-.469-4.615-.791-4.127-1.047-3.601-1.303-3.074-1.495-2.523-1.623-1.948-1.751-1.373-1.815-.792-1.815-.207" fill="#834b4b"/>
<path transform="matrix(1,0,0,-1,149.2179,398.58894)" d="M0 0C.131 .014 .253 .026 .365 .04 .477 .053 .585 .062 .69 .069 .796 .075 .907 .082 1.025 .089L1.282 7.699C1.302 8.165 1.313 8.609 1.316 9.029 1.32 9.45 1.321 9.854 1.321 10.242 1.321 10.86 1.313 11.41 1.297 11.894 1.28 12.376 1.263 12.782 1.243 13.11L2.052 13.406 11.729 1.786C11.749 2.358 11.77 2.973 11.793 3.631 11.816 4.288 11.838 4.944 11.857 5.599 11.877 6.253 11.896 6.886 11.916 7.497 11.937 8.109 11.952 8.663 11.966 9.159 11.979 9.656 11.99 10.07 12 10.402 12.01 10.734 12.015 10.95 12.015 11.049 12.015 11.331 11.995 11.562 11.956 11.739 11.916 11.917 11.855 12.057 11.773 12.158 11.691 12.261 11.589 12.333 11.468 12.376 11.346 12.418 11.206 12.453 11.048 12.479L10.624 12.538V13.11C10.716 13.084 10.841 13.058 10.999 13.031 11.131 13.012 11.298 12.995 11.502 12.982 11.706 12.969 11.956 12.963 12.252 12.963 12.548 12.963 12.885 12.974 13.263 12.997 13.641 13.02 14.073 13.058 14.561 13.11V12.538C14.389 12.525 14.238 12.512 14.106 12.499 13.975 12.485 13.854 12.475 13.746 12.464 13.638 12.454 13.531 12.446 13.426 12.439 13.32 12.433 13.205 12.427 13.08 12.42L12.863 6.077C12.856 5.899 12.851 5.663 12.844 5.366 12.837 5.07 12.829 4.76 12.819 4.435 12.81 4.109 12.801 3.785 12.794 3.463 12.788 3.141 12.784 2.867 12.784 2.644V1.811C12.784 1.551 12.786 1.293 12.789 1.036 12.793 .779 12.799 .519 12.81 .252 12.819-.015 12.83-.303 12.844-.611L11.995-.897 2.318 10.585C2.305 10.026 2.29 9.427 2.273 8.786 2.257 8.146 2.24 7.502 2.225 6.854 2.208 6.207 2.191 5.58 2.175 4.973 2.158 4.364 2.144 3.816 2.131 3.326 2.117 2.837 2.107 2.426 2.101 2.095 2.095 1.763 2.091 1.551 2.091 1.459 2.091 1.17 2.111 .938 2.15 .764 2.189 .59 2.249 .452 2.328 .351 2.407 .248 2.507 .174 2.629 .128 2.75 .082 2.896 .046 3.067 .02L3.492-.039V-.611C3.394-.592 3.265-.568 3.107-.542 2.976-.529 2.808-.515 2.604-.498 2.4-.481 2.15-.474 1.854-.474 1.559-.474 1.223-.483 .849-.503 .474-.522 .039-.559-.454-.611V-.039C-.283-.026-.132-.013 0 0" fill="#834b4b"/>
<path transform="matrix(1,0,0,-1,174.7326,398.75593)" d="M0 0C.395 0 .765 .061 1.109 .182 1.455 .304 1.756 .479 2.013 .71 2.269 .94 2.471 1.221 2.619 1.554 2.767 1.886 2.841 2.262 2.841 2.683 2.841 3.084 2.747 3.45 2.56 3.782 2.372 4.114 2.136 4.422 1.85 4.705 1.563 4.987 1.253 5.254 .917 5.504 .582 5.754 .263 6.001-.039 6.244-.329 6.468-.647 6.713-.996 6.979-1.345 7.245-1.672 7.539-1.978 7.861-2.284 8.184-2.54 8.539-2.747 8.927-2.954 9.315-3.058 9.746-3.058 10.22-3.058 10.456-3.035 10.704-2.989 10.964-2.943 11.224-2.863 11.478-2.748 11.724-2.634 11.971-2.482 12.204-2.296 12.424-2.109 12.645-1.874 12.839-1.593 13.006-1.311 13.174-.979 13.307-.599 13.405-.219 13.504 .224 13.554 .729 13.554 1.372 13.554 1.991 13.503 2.588 13.4 3.185 13.299 3.7 13.182 4.133 13.051L3.916 10.081H3.354V10.348C3.354 10.598 3.327 10.869 3.275 11.161 3.223 11.454 3.107 11.724 2.93 11.971 2.752 12.217 2.494 12.423 2.155 12.587 1.816 12.751 1.361 12.834 .789 12.834 .447 12.834 .137 12.786-.144 12.69-.423 12.595-.661 12.46-.858 12.286-1.056 12.111-1.208 11.899-1.317 11.649-1.426 11.399-1.479 11.12-1.479 10.812-1.479 10.403-1.399 10.043-1.238 9.731-1.077 9.419-.87 9.138-.616 8.888-.363 8.638-.082 8.406 .227 8.192 .536 7.979 .835 7.767 1.125 7.556 1.559 7.24 1.975 6.926 2.372 6.614 2.771 6.302 3.12 5.973 3.423 5.627 3.726 5.282 3.967 4.912 4.148 4.518 4.329 4.123 4.419 3.689 4.419 3.216 4.419 2.663 4.295 2.146 4.046 1.667 3.796 1.187 3.463 .769 3.047 .414 2.63 .059 2.153-.221 1.615-.425 1.077-.628 .522-.73-.048-.73-.743-.73-1.406-.675-2.036-.562-2.665-.451-3.214-.322-3.68-.178L-3.442 2.949H-2.831V2.604C-2.831 2.328-2.799 2.037-2.732 1.73-2.667 1.425-2.534 1.144-2.333 .888-2.133 .631-1.847 .419-1.475 .251-1.104 .083-.611 0 0 0" fill="#834b4b"/>
<path transform="matrix(1,0,0,-1,187.5597,385.55763)" d="M0 0C.171-.02 .38-.036 .627-.049 .873-.062 1.164-.068 1.5-.068 1.835-.068 2.203-.058 2.604-.034 3.006-.012 3.449 .026 3.937 .079V-.493C3.766-.506 3.615-.52 3.487-.532 3.359-.546 3.239-.557 3.127-.567 3.016-.577 2.907-.585 2.802-.592 2.696-.599 2.585-.604 2.467-.611 2.42-1.775 2.383-2.78 2.353-3.625 2.323-4.47 2.297-5.19 2.274-5.785 2.251-6.381 2.233-6.869 2.22-7.25 2.207-7.632 2.198-7.939 2.195-8.173 2.191-8.406 2.188-8.584 2.186-8.705 2.182-8.827 2.181-8.924 2.181-8.996 2.181-10.352 2.504-11.37 3.152-12.055 3.8-12.738 4.817-13.08 6.205-13.08 7.554-13.08 8.583-12.692 9.293-11.916 10.003-11.141 10.388-9.957 10.447-8.365 10.52-6.511 10.573-5.056 10.609-4 10.646-2.944 10.664-2.271 10.664-1.982 10.664-1.7 10.645-1.47 10.604-1.292 10.565-1.114 10.506-.975 10.428-.873 10.349-.771 10.248-.698 10.126-.655 10.005-.613 9.861-.578 9.697-.552L9.273-.493V.079C9.398 .053 9.553 .026 9.736 0 9.895-.02 10.09-.036 10.323-.049 10.557-.062 10.835-.068 11.157-.068 11.473-.068 11.826-.058 12.218-.034 12.609-.012 13.048 .026 13.534 .079V-.493C13.363-.506 13.214-.52 13.086-.532 12.958-.546 12.838-.557 12.726-.567 12.614-.577 12.505-.585 12.4-.592 12.295-.599 12.184-.604 12.064-.611L11.394-8.513C11.315-9.388 11.15-10.162 10.9-10.836 10.65-11.511 10.308-12.076 9.87-12.533 9.433-12.99 8.896-13.337 8.262-13.573 7.627-13.811 6.893-13.929 6.058-13.929 5.235-13.929 4.488-13.843 3.818-13.672 3.147-13.501 2.575-13.24 2.102-12.888 1.628-12.536 1.262-12.096 1.002-11.566 .741-11.037 .612-10.41 .612-9.687 .612-9.549 .615-9.34 .622-9.061 .628-8.781 .638-8.459 .651-8.094 .664-7.729 .68-7.334 .695-6.91 .712-6.485 .73-6.06 .75-5.633 .77-5.205 .788-4.787 .805-4.38 .82-3.972 .835-3.602 .849-3.27 .861-2.938 .872-2.658 .878-2.432 .885-2.204 .888-2.055 .888-1.982 .888-1.7 .866-1.47 .824-1.292 .781-1.114 .719-.975 .637-.873 .555-.771 .45-.698 .326-.655 .201-.613 .06-.578-.099-.552L-.522-.493V.079C-.378 .053-.204 .026 0 0" fill="#834b4b"/>
<path transform="matrix(1,0,0,-1,209.2375,398.5)" d="M0 0C.032 .874 .063 1.738 .094 2.593 .123 3.446 .152 4.265 .182 5.047 .212 5.829 .236 6.559 .256 7.235 .275 7.912 .294 8.51 .311 9.029 .327 9.548 .34 9.976 .35 10.311 .359 10.646 .364 10.862 .364 10.961 .364 11.243 .345 11.474 .306 11.651 .266 11.828 .207 11.968 .128 12.07 .049 12.172-.052 12.244-.173 12.287-.295 12.329-.437 12.364-.603 12.391L-1.026 12.449V13.021C-.882 12.995-.711 12.969-.514 12.942-.343 12.923-.134 12.906 .113 12.894 .359 12.88 .65 12.874 .986 12.874 1.321 12.874 1.691 12.885 2.096 12.908 2.5 12.931 2.945 12.969 3.433 13.021V12.449C3.262 12.437 3.112 12.423 2.983 12.41 2.855 12.396 2.735 12.386 2.624 12.375 2.512 12.365 2.403 12.357 2.298 12.351 2.192 12.345 2.081 12.338 1.963 12.331 1.93 11.457 1.898 10.592 1.869 9.733 1.84 8.876 1.81 8.059 1.78 7.279 1.751 6.501 1.725 5.771 1.701 5.091 1.678 4.411 1.657 3.812 1.637 3.292 1.617 2.773 1.603 2.346 1.593 2.011 1.583 1.676 1.578 1.462 1.578 1.37 1.578 1.055 1.634 .802 1.746 .611 1.857 .421 2.019 .274 2.229 .173 2.439 .07 2.692 .002 2.988-.034 3.284-.07 3.62-.089 3.995-.089 4.521-.089 4.97-.046 5.342 .04 5.713 .125 6.028 .267 6.288 .464 6.548 .661 6.76 .924 6.925 1.253 7.089 1.582 7.224 1.993 7.329 2.486H7.96C7.935 2.308 7.895 2.075 7.842 1.789 7.789 1.502 7.726 1.198 7.649 .879 7.574 .559 7.485 .24 7.384-.076 7.281-.393 7.171-.667 7.053-.897 6.355-.878 5.679-.85 5.021-.813 4.363-.777 3.76-.743 3.211-.71 2.661-.677 2.183-.647 1.775-.621 1.367-.595 1.065-.582 .868-.582 .532-.582 .177-.589-.197-.602-.572-.615-1.007-.647-1.5-.7L-1.48-.128C-1.31-.115-1.158-.102-1.026-.089-.895-.075-.773-.062-.661-.049-.55-.036-.441-.026-.336-.02-.23-.014-.119-.007 0 0" fill="#834b4b"/>
<path transform="matrix(1,0,0,-1,228.8674,386.169)" d="M0 0C-.375 .013-.715 .023-1.021 .029-1.326 .036-1.57 .039-1.754 .039-2.122 .039-2.447 .012-2.729-.044-3.013-.101-3.264-.217-3.483-.395-3.704-.572-3.896-.828-4.06-1.164-4.225-1.499-4.372-1.946-4.503-2.506H-5.085L-4.682 .809C-3.934 .75-3.292 .715-2.757 .705-2.222 .695-1.747 .69-1.334 .69-.44 .69 .411 .692 1.222 .695 2.032 .699 2.776 .705 3.452 .715 4.129 .725 4.728 .738 5.25 .755 5.771 .771 6.19 .796 6.506 .829L6.21-2.506H5.598C5.598-2.434 5.602-2.34 5.608-2.225 5.614-2.109 5.618-2.016 5.618-1.943 5.618-1.727 5.595-1.516 5.549-1.312 5.503-1.108 5.404-.926 5.253-.765 5.102-.604 4.883-.469 4.597-.36 4.311-.252 3.925-.185 3.438-.158L1.504-.06C1.472-.927 1.44-1.784 1.41-2.632 1.381-3.479 1.354-4.291 1.332-5.066 1.309-5.842 1.285-6.568 1.263-7.245 1.239-7.922 1.222-8.52 1.208-9.039 1.195-9.558 1.184-9.985 1.174-10.32 1.164-10.655 1.159-10.869 1.159-10.961 1.159-11.25 1.181-11.483 1.223-11.661 1.266-11.838 1.328-11.978 1.41-12.08 1.492-12.182 1.593-12.256 1.711-12.302 1.83-12.348 1.968-12.38 2.126-12.4L2.55-12.459V-13.031C2.405-13.012 2.23-12.988 2.027-12.962 1.856-12.949 1.646-12.935 1.396-12.918 1.147-12.901 .86-12.894 .535-12.894 .204-12.894-.161-12.903-.561-12.923-.96-12.942-1.406-12.979-1.899-13.031V-12.459C-1.729-12.446-1.577-12.433-1.445-12.42-1.313-12.406-1.192-12.394-1.08-12.38-.969-12.367-.86-12.357-.755-12.351-.649-12.345-.538-12.338-.419-12.331Z" fill="#834b4b"/>
<path transform="matrix(1,0,0,-1,244.0773,392.18653)" d="M0 0C0-.854 .116-1.677 .351-2.466 .584-3.255 .922-3.954 1.366-4.562 1.811-5.171 2.354-5.657 2.999-6.022 3.644-6.388 4.377-6.569 5.198-6.569 5.988-6.569 6.684-6.412 7.285-6.097 7.887-5.78 8.389-5.349 8.789-4.799 9.19-4.25 9.493-3.608 9.697-2.875 9.9-2.143 10.003-1.354 10.003-.513 10.003 .435 9.883 1.32 9.643 2.146 9.402 2.971 9.065 3.689 8.632 4.301 8.197 4.913 7.68 5.393 7.078 5.741 6.477 6.09 5.816 6.265 5.1 6.265 4.726 6.265 4.341 6.223 3.946 6.141 3.552 6.059 3.165 5.921 2.787 5.727 2.408 5.532 2.05 5.277 1.712 4.962 1.373 4.646 1.077 4.257 .823 3.793 .57 3.329 .37 2.785 .222 2.16 .074 1.535 0 .815 0 0M-1.815-.207C-1.815 .825-1.638 1.782-1.283 2.664-.929 3.545-.43 4.305 .214 4.942 .857 5.58 1.631 6.08 2.534 6.441 3.437 6.804 4.437 6.984 5.533 6.984 6.203 6.984 6.824 6.894 7.396 6.713 7.967 6.532 8.485 6.282 8.951 5.963 9.418 5.645 9.831 5.268 10.192 4.834 10.554 4.399 10.857 3.932 11.104 3.428 11.351 2.925 11.535 2.394 11.66 1.835 11.785 1.276 11.848 .717 11.848 .158 11.848-.94 11.67-1.945 11.315-2.855 10.961-3.767 10.479-4.553 9.867-5.213 9.257-5.874 8.548-6.388 7.74-6.752 6.932-7.117 6.075-7.3 5.169-7.3 4.388-7.3 3.673-7.206 3.026-7.019 2.38-6.831 1.797-6.571 1.278-6.239 .759-5.907 .306-5.516-.081-5.065-.469-4.615-.791-4.127-1.047-3.601-1.303-3.074-1.495-2.523-1.623-1.948-1.751-1.373-1.815-.792-1.815-.207" fill="#834b4b"/>
<path transform="matrix(1,0,0,-1,266.5334,392.26564)" d="M0 0H.562C1.385 0 2.065 .097 2.604 .291 3.144 .484 3.571 .739 3.887 1.054 4.202 1.369 4.425 1.73 4.553 2.138 4.681 2.545 4.745 2.965 4.745 3.398 4.745 3.608 4.724 3.823 4.681 4.043 4.639 4.264 4.566 4.479 4.464 4.688 4.362 4.898 4.228 5.098 4.06 5.284 3.892 5.472 3.688 5.636 3.448 5.777 3.208 5.918 2.925 6.029 2.6 6.111 2.274 6.193 1.9 6.234 1.479 6.234 1.243 6.234 1.029 6.229 .839 6.215 .647 6.202 .437 6.176 .207 6.137ZM-3.216-6.362C-3.045-6.35-2.894-6.336-2.762-6.323-2.631-6.31-2.509-6.297-2.396-6.283-2.285-6.271-2.177-6.261-2.071-6.254-1.966-6.248-1.854-6.241-1.736-6.234-1.703-5.36-1.672-4.496-1.643-3.642-1.612-2.788-1.585-1.97-1.559-1.187-1.532-.405-1.506 .324-1.479 1.001-1.453 1.678-1.43 2.275-1.41 2.795-1.391 3.313-1.376 3.741-1.366 4.076-1.356 4.411-1.352 4.628-1.352 4.727-1.352 5.009-1.371 5.239-1.41 5.417-1.45 5.594-1.511 5.733-1.593 5.836-1.675 5.937-1.778 6.01-1.903 6.053-2.028 6.095-2.174 6.13-2.338 6.156L-2.771 6.215V6.787C-2.588 6.761-2.391 6.734-2.18 6.708-2.002 6.688-1.8 6.672-1.573 6.659-1.347 6.646-1.111 6.64-.868 6.64-.645 6.64-.431 6.652-.227 6.679-.022 6.705 .187 6.733 .404 6.763 .622 6.792 .852 6.82 1.096 6.847 1.339 6.873 1.608 6.886 1.904 6.886 2.693 6.886 3.367 6.789 3.927 6.595 4.485 6.401 4.942 6.142 5.298 5.816 5.652 5.491 5.912 5.12 6.077 4.702 6.241 4.285 6.323 3.856 6.323 3.416 6.323 2.812 6.213 2.292 5.993 1.858 5.772 1.425 5.503 1.058 5.185 .759 4.865 .46 4.526 .22 4.168 .039 3.81-.142 3.492-.274 3.216-.36 3.716-1.262 4.226-2.11 4.745-2.907 5.265-3.703 5.776-4.4 6.279-5 6.782-5.599 7.269-6.07 7.739-6.416 8.209-6.762 8.648-6.935 9.056-6.935L9.036-7.28C8.786-7.319 8.543-7.339 8.307-7.339 7.767-7.326 7.249-7.196 6.753-6.949 6.256-6.703 5.784-6.386 5.337-5.997 4.89-5.609 4.471-5.171 4.079-4.681 3.688-4.19 3.33-3.699 3.004-3.206 2.679-2.713 2.391-2.242 2.141-1.795 1.891-1.348 1.684-.967 1.52-.65 1.349-.664 1.169-.674 .981-.681 .794-.687 .596-.69 .385-.69H-.02C-.026-.887-.034-1.115-.044-1.375-.054-1.634-.063-1.901-.073-2.178-.084-2.453-.094-2.732-.104-3.015-.113-3.297-.121-3.56-.128-3.802-.135-4.045-.142-4.26-.147-4.447-.154-4.634-.157-4.773-.157-4.865-.157-5.148-.138-5.376-.099-5.55-.059-5.724 0-5.863 .079-5.969 .158-6.073 .26-6.149 .385-6.195 .51-6.241 .658-6.277 .829-6.304L1.253-6.362V-6.935C1.108-6.915 .934-6.892 .73-6.865 .56-6.853 .349-6.838 .099-6.821-.151-6.805-.44-6.797-.77-6.797-1.104-6.797-1.473-6.807-1.874-6.826-2.275-6.846-2.723-6.882-3.216-6.935Z" fill="#834b4b"/>
<path transform="matrix(1,0,0,-1,286.9572,387.66804)" d="M0 0-2.081-6.058H1.943L.286 0ZM.868 2.692 4.203-8.092C4.446-8.894 4.712-9.539 5.002-10.028 5.291-10.519 5.652-10.799 6.087-10.871L6.629-10.96 6.609-11.532C6.274-11.493 5.911-11.463 5.52-11.443 5.128-11.424 4.729-11.414 4.321-11.414 3.887-11.414 3.463-11.424 3.049-11.443 2.634-11.463 2.239-11.493 1.864-11.532L1.885-10.96 3.275-10.832 2.141-6.748H1.756C1.579-6.748 1.345-6.75 1.056-6.753 .767-6.756 .439-6.765 .074-6.777-.291-6.791-.684-6.811-1.104-6.837-1.525-6.862-1.96-6.898-2.406-6.944L-2.949-8.46C-3.067-8.775-3.171-9.074-3.26-9.356-3.349-9.638-3.394-9.884-3.394-10.094-3.394-10.304-3.337-10.477-3.226-10.61-3.113-10.745-2.92-10.832-2.644-10.871L-2.062-10.96-2.081-11.532C-2.437-11.493-2.776-11.46-3.103-11.434-3.428-11.407-3.768-11.395-4.123-11.395-4.479-11.395-4.847-11.407-5.228-11.434-5.609-11.46-6.033-11.493-6.501-11.532L-6.48-10.96C-6.29-10.94-6.109-10.921-5.938-10.901-5.787-10.888-5.636-10.875-5.484-10.861-5.333-10.849-5.208-10.839-5.109-10.832-4.84-10.267-4.559-9.649-4.267-8.979-3.974-8.309-3.675-7.605-3.368-6.869-3.063-6.134-2.757-5.371-2.451-4.582-2.146-3.794-1.845-3.002-1.549-2.207-1.253-1.411-.968-.619-.695 .169-.423 .958-.164 1.724 .079 2.466Z" fill="#834b4b"/>
<path transform="matrix(1,0,0,-1,316.3781,386.10945)" d="M0 0C-.225 0-.448-.002-.673-.005-.896-.009-1.111-.016-1.315-.025-1.52-.035-1.711-.047-1.889-.06-2.066-.073-2.218-.086-2.344-.099-2.416-2.026-2.479-3.766-2.531-5.317-2.551-5.981-2.572-6.635-2.596-7.275-2.619-7.917-2.639-8.495-2.655-9.012-2.671-9.528-2.685-9.959-2.694-10.304-2.704-10.649-2.709-10.852-2.709-10.911-2.709-11.227-2.677-11.491-2.61-11.705-2.544-11.919-2.416-12.09-2.225-12.218-2.033-12.346-1.765-12.437-1.419-12.489-1.073-12.542-.62-12.568-.06-12.568 .276-12.568 .667-12.542 1.112-12.489 1.557-12.437 2.018-12.335 2.496-12.184 2.974-12.032 3.443-11.816 3.904-11.537 4.366-11.258 4.778-10.888 5.141-10.428 5.503-9.967 5.796-9.406 6.021-8.745 6.244-8.085 6.356-7.297 6.356-6.383 6.356-5.896 6.318-5.401 6.243-4.898 6.167-4.396 6.037-3.907 5.853-3.434 5.668-2.96 5.419-2.515 5.105-2.097 4.793-1.679 4.4-1.315 3.93-1.007 3.458-.697 2.899-.452 2.254-.271 1.607-.091 .856 0 0 0M-5.768-12.519C-5.597-12.506-5.445-12.492-5.313-12.479-5.182-12.466-5.061-12.453-4.948-12.439-4.837-12.427-4.729-12.417-4.623-12.41-4.518-12.404-4.406-12.397-4.287-12.391-4.223-10.465-4.164-8.724-4.112-7.166-4.093-6.503-4.071-5.849-4.049-5.205-4.026-4.561-4.005-3.976-3.985-3.45-3.966-2.925-3.951-2.486-3.941-2.135-3.932-1.783-3.927-1.567-3.927-1.488-3.927-1.187-3.946-.943-3.986-.76-4.025-.575-4.085-.433-4.164-.33-4.242-.229-4.343-.155-4.465-.108-4.586-.062-4.729-.026-4.894 0L-5.318 .059V.631C-5.127 .604-4.92 .578-4.696 .552-4.506 .532-4.284 .516-4.03 .503-3.777 .489-3.506 .483-3.217 .483-2.854 .483-2.491 .496-2.126 .522-1.761 .549-1.388 .577-1.006 .606-.624 .636-.234 .664 .163 .69 .562 .717 .978 .729 1.412 .729 2.418 .729 3.339 .565 4.175 .236 5.011-.093 5.726-.56 6.321-1.164 6.917-1.77 7.379-2.496 7.708-3.345 8.037-4.192 8.201-5.134 8.201-6.166 8.201-6.64 8.15-7.141 8.048-7.67 7.946-8.199 7.778-8.726 7.545-9.248 7.312-9.771 7.003-10.271 6.618-10.748 6.233-11.225 5.762-11.646 5.202-12.011 4.644-12.376 3.985-12.667 3.229-12.884 2.473-13.101 1.605-13.209 .625-13.209 .322-13.209 .015-13.197-.297-13.175-.609-13.151-.926-13.125-1.244-13.096-1.563-13.066-1.887-13.038-2.216-13.012-2.545-12.985-2.877-12.973-3.212-12.973-3.528-12.973-3.897-12.978-4.322-12.987-4.746-12.997-5.228-13.031-5.768-13.091Z" fill="#834b4b"/>
<path transform="matrix(1,0,0,-1,339.3117,392.7188)" d="M0 0C-.395 .052-.794 .099-1.198 .138-1.604 .177-1.989 .21-2.357 .236-2.727 .263-3.063 .284-3.369 .301-3.675 .316-3.927 .332-4.124 .345-4.15-.443-4.177-1.162-4.202-1.812-4.216-2.088-4.226-2.363-4.232-2.64-4.238-2.915-4.247-3.17-4.257-3.402-4.267-3.636-4.273-3.834-4.276-3.999-4.28-4.163-4.281-4.274-4.281-4.333-4.281-4.675-4.235-4.947-4.144-5.151-4.052-5.354-3.911-5.509-3.724-5.614-3.536-5.719-3.305-5.788-3.028-5.82-2.752-5.854-2.431-5.87-2.062-5.87-1.536-5.87-1.087-5.837-.715-5.771-.344-5.705-.028-5.584 .231-5.406 .491-5.229 .703-4.983 .868-4.671 1.032-4.359 1.167-3.956 1.272-3.463H1.894C1.867-3.641 1.828-3.865 1.775-4.136 1.723-4.406 1.659-4.691 1.583-4.991 1.508-5.292 1.419-5.59 1.316-5.887 1.215-6.184 1.104-6.448 .986-6.679 .289-6.659-.377-6.631-1.012-6.595-1.646-6.559-2.225-6.524-2.747-6.491-3.271-6.458-3.726-6.429-4.113-6.402-4.502-6.376-4.794-6.363-4.991-6.363-5.327-6.363-5.683-6.37-6.057-6.383-6.432-6.396-6.866-6.429-7.359-6.481L-7.34-5.909C-7.169-5.896-7.018-5.883-6.886-5.87-6.754-5.856-6.633-5.844-6.521-5.83-6.409-5.817-6.301-5.808-6.195-5.801-6.09-5.795-5.979-5.788-5.859-5.781-5.794-3.855-5.735-2.114-5.683-.557-5.662 .106-5.642 .762-5.618 1.409-5.595 2.057-5.573 2.644-5.554 3.169-5.534 3.694-5.52 4.135-5.51 4.49-5.5 4.845-5.495 5.062-5.495 5.141-5.495 5.437-5.513 5.675-5.549 5.855-5.585 6.035-5.643 6.177-5.722 6.279-5.801 6.381-5.902 6.454-6.027 6.501-6.152 6.547-6.304 6.583-6.481 6.609L-6.886 6.668V7.24C-6.701 7.214-6.468 7.187-6.186 7.161-5.942 7.142-5.637 7.125-5.268 7.112-4.899 7.099-4.449 7.093-3.916 7.093H-1.539C-1.276 7.093-1.02 7.094-.77 7.098-.52 7.101-.267 7.107-.01 7.117 .246 7.127 .513 7.142 .789 7.161 1.065 7.182 1.361 7.207 1.677 7.24L1.371 3.906H.77C.775 4.037 .78 4.142 .784 4.217 .787 4.292 .789 4.352 .789 4.395V4.483 4.527C.789 4.744 .761 4.952 .705 5.149 .649 5.347 .541 5.522 .38 5.677 .219 5.831-.005 5.96-.291 6.062-.577 6.163-.95 6.23-1.411 6.264L-3.838 6.432C-3.891 5.893-3.932 5.345-3.961 4.789-3.99 4.233-4.012 3.722-4.025 3.255L-4.104 1.035 .099 1.253Z" fill="#834b4b"/>
<path transform="matrix(1,0,0,-1,359.3742,398.58894)" d="M0 0C.131 .014 .253 .026 .365 .04 .477 .053 .585 .062 .69 .069 .796 .075 .907 .082 1.025 .089 1.059 .963 1.09 1.827 1.119 2.682 1.149 3.535 1.177 4.354 1.203 5.136 1.229 5.918 1.256 6.647 1.282 7.324 1.309 8.001 1.332 8.599 1.352 9.118 1.371 9.637 1.386 10.064 1.396 10.399 1.405 10.734 1.41 10.951 1.41 11.05 1.41 11.332 1.389 11.563 1.347 11.74 1.304 11.917 1.241 12.057 1.159 12.159 1.076 12.261 .973 12.333 .849 12.376 .724 12.418 .582 12.453 .424 12.479L-.01 12.538V13.11C.135 13.084 .309 13.058 .513 13.031 .684 13.012 .893 12.995 1.14 12.982 1.386 12.969 1.677 12.963 2.013 12.963 2.348 12.963 2.718 12.974 3.122 12.997 3.526 13.02 3.972 13.058 4.459 13.11V12.538C4.288 12.525 4.137 12.512 4.005 12.499 3.873 12.485 3.753 12.475 3.645 12.464 3.536 12.454 3.43 12.446 3.324 12.439 3.219 12.434 3.107 12.427 2.989 12.42 2.956 11.546 2.925 10.681 2.896 9.822 2.865 8.965 2.836 8.147 2.807 7.368 2.776 6.59 2.75 5.86 2.728 5.18 2.704 4.5 2.683 3.9 2.663 3.381 2.644 2.862 2.629 2.435 2.619 2.1 2.609 1.765 2.604 1.551 2.604 1.459 2.604 1.17 2.625 .937 2.668 .759 2.711 .582 2.773 .442 2.855 .34 2.938 .238 3.041 .164 3.166 .118 3.291 .072 3.433 .04 3.591 .02L4.015-.039V-.611C3.87-.592 3.695-.568 3.492-.542 3.321-.529 3.11-.515 2.86-.498 2.61-.481 2.321-.474 1.992-.474 1.657-.474 1.289-.483 .888-.503 .486-.522 .039-.559-.454-.611V-.039C-.283-.026-.132-.013 0 0" fill="#834b4b"/>
<path transform="matrix(1,0,0,-1,385.8341,396.70613)" d="M0 0C.007-.388 .03-.696 .069-.927 .109-1.156 .168-1.337 .247-1.469 .326-1.6 .426-1.692 .548-1.744 .67-1.797 .822-1.837 1.007-1.863L1.431-1.922V-2.494C1.286-2.475 1.111-2.451 .908-2.425 .737-2.412 .526-2.397 .276-2.381 .025-2.364-.267-2.356-.599-2.356-.938-2.356-1.311-2.366-1.713-2.386-2.116-2.405-2.564-2.441-3.058-2.494V-1.922C-2.887-1.909-2.735-1.896-2.604-1.883-2.473-1.869-2.351-1.856-2.239-1.843-2.127-1.83-2.019-1.82-1.913-1.813-1.809-1.808-1.696-1.801-1.578-1.794L-1.617 8.317H-1.805L-6.826-1.951H-7.29L-11.701 8.357H-11.868L-12.469 .769C-12.482 .67-12.492 .557-12.498 .429-12.505 .301-12.513 .172-12.523 .044-12.533-.084-12.539-.204-12.543-.315-12.546-.428-12.548-.516-12.548-.582-12.548-.838-12.524-1.043-12.479-1.197-12.433-1.353-12.368-1.476-12.286-1.567-12.204-1.659-12.103-1.727-11.98-1.77-11.858-1.812-11.719-1.843-11.562-1.863L-11.137-1.922V-2.494C-11.242-2.475-11.38-2.451-11.551-2.425-11.696-2.412-11.877-2.397-12.094-2.381-12.311-2.364-12.572-2.356-12.879-2.356-13.187-2.356-13.533-2.366-13.92-2.386-14.308-2.405-14.747-2.441-15.24-2.494V-1.922C-15.069-1.909-14.919-1.896-14.787-1.883-14.655-1.869-14.534-1.856-14.422-1.843-14.311-1.83-14.201-1.82-14.097-1.813-13.991-1.808-13.879-1.801-13.761-1.794L-12.328 11.179-11.39 11.504-6.618 .495H-6.48L-1.274 11.287-.286 11.484Z" fill="#834b4b"/>
<path transform="matrix(1,0,0,-1,400.7345,383.50593)" d="M0 0 3.374 2.97C3.505 2.746 3.653 2.534 3.817 2.333 3.981 2.133 4.156 1.957 4.34 1.806L.365-.443ZM-4.064-8.681C-4.064-9.535-3.948-10.357-3.714-11.146-3.48-11.936-3.143-12.635-2.698-13.243-2.254-13.852-1.71-14.338-1.065-14.703-.421-15.068 .312-15.25 1.134-15.25 1.924-15.25 2.619-15.093 3.221-14.777 3.822-14.461 4.324-14.029 4.725-13.479 5.126-12.931 5.429-12.289 5.633-11.556 5.836-10.823 5.938-10.035 5.938-9.193 5.938-8.246 5.818-7.36 5.578-6.535 5.338-5.71 5.001-4.991 4.567-4.38 4.133-3.768 3.615-3.288 3.014-2.939 2.412-2.591 1.752-2.416 1.035-2.416 .661-2.416 .276-2.458-.118-2.54-.513-2.622-.899-2.76-1.277-2.954-1.656-3.148-2.015-3.403-2.353-3.719-2.691-4.034-2.987-4.424-3.241-4.888-3.494-5.352-3.694-5.896-3.843-6.521-3.99-7.146-4.064-7.865-4.064-8.681M-5.88-8.888C-5.88-7.855-5.702-6.898-5.348-6.017-4.993-5.136-4.494-4.376-3.851-3.738-3.207-3.101-2.434-2.601-1.53-2.239-.628-1.877 .372-1.696 1.469-1.696 2.139-1.696 2.76-1.787 3.331-1.968 3.902-2.148 4.421-2.398 4.887-2.718 5.354-3.036 5.767-3.413 6.128-3.847 6.489-4.281 6.793-4.749 7.039-5.253 7.286-5.756 7.471-6.287 7.596-6.846 7.721-7.404 7.783-7.964 7.783-8.522 7.783-9.621 7.605-10.626 7.251-11.536 6.896-12.447 6.414-13.233 5.803-13.894 5.192-14.555 4.483-15.068 3.676-15.433 2.867-15.798 2.011-15.98 1.104-15.98 .323-15.98-.392-15.887-1.038-15.699-1.685-15.512-2.268-15.252-2.786-14.92-3.306-14.588-3.759-14.196-4.146-13.746-4.533-13.296-4.855-12.808-5.111-12.281-5.367-11.755-5.56-11.204-5.687-10.629-5.815-10.054-5.88-9.473-5.88-8.888" fill="#834b4b"/>
<path transform="matrix(1,0,0,-1,422.2726,397.36524)" d="M0 0H.129L3.641 9.401C3.771 9.736 3.869 10.013 3.932 10.229 3.994 10.446 4.025 10.627 4.025 10.772 4.025 10.937 3.978 11.05 3.882 11.112 3.786 11.175 3.644 11.223 3.453 11.256L3.028 11.314V11.887C3.134 11.86 3.269 11.834 3.434 11.808 3.571 11.788 3.748 11.771 3.964 11.759 4.18 11.745 4.44 11.739 4.746 11.739 5.045 11.739 5.386 11.75 5.769 11.773 6.151 11.796 6.587 11.834 7.073 11.887V11.314C6.902 11.302 6.751 11.288 6.619 11.275 6.488 11.262 6.368 11.251 6.26 11.24 6.15 11.23 6.044 11.223 5.938 11.216 5.833 11.209 5.722 11.203 5.604 11.196L.029-1.973-.758-2.141-4.786 9.401C-4.924 9.789-5.057 10.1-5.185 10.333-5.312 10.566-5.446 10.747-5.584 10.876-5.722 11.004-5.868 11.093-6.022 11.142-6.177 11.191-6.343 11.229-6.521 11.256L-6.944 11.314V11.887C-6.773 11.86-6.576 11.834-6.353 11.808-6.162 11.788-5.929 11.771-5.652 11.759-5.376 11.745-5.061 11.739-4.705 11.739-4.351 11.739-3.962 11.75-3.541 11.773-3.12 11.796-2.667 11.834-2.18 11.887V11.314C-2.351 11.302-2.502 11.288-2.634 11.275-2.766 11.262-2.885 11.251-2.994 11.24-3.103 11.23-3.209 11.223-3.314 11.216-3.42 11.209-3.531 11.203-3.649 11.196Z" fill="#834b4b"/>
<path transform="matrix(1,0,0,-1,442.7863,392.7188)" d="M0 0C-.395 .052-.794 .099-1.198 .138-1.604 .177-1.989 .21-2.357 .236-2.727 .263-3.063 .284-3.369 .301-3.675 .316-3.927 .332-4.124 .345-4.15-.443-4.177-1.162-4.202-1.812-4.216-2.088-4.226-2.363-4.232-2.64-4.238-2.915-4.247-3.17-4.257-3.402-4.267-3.636-4.273-3.834-4.276-3.999-4.28-4.163-4.281-4.274-4.281-4.333-4.281-4.675-4.235-4.947-4.144-5.151-4.052-5.354-3.911-5.509-3.724-5.614-3.536-5.719-3.305-5.788-3.028-5.82-2.752-5.854-2.431-5.87-2.062-5.87-1.536-5.87-1.087-5.837-.715-5.771-.344-5.705-.028-5.584 .231-5.406 .491-5.229 .703-4.983 .868-4.671 1.032-4.359 1.167-3.956 1.272-3.463H1.894C1.867-3.641 1.828-3.865 1.775-4.136 1.723-4.406 1.659-4.691 1.583-4.991 1.508-5.292 1.419-5.59 1.316-5.887 1.215-6.184 1.104-6.448 .986-6.679 .289-6.659-.377-6.631-1.012-6.595-1.646-6.559-2.225-6.524-2.747-6.491-3.271-6.458-3.726-6.429-4.113-6.402-4.502-6.376-4.794-6.363-4.991-6.363-5.327-6.363-5.683-6.37-6.057-6.383-6.432-6.396-6.866-6.429-7.359-6.481L-7.34-5.909C-7.169-5.896-7.018-5.883-6.886-5.87-6.754-5.856-6.633-5.844-6.521-5.83-6.409-5.817-6.301-5.808-6.195-5.801-6.09-5.795-5.979-5.788-5.859-5.781-5.794-3.855-5.735-2.114-5.683-.557-5.662 .106-5.642 .762-5.618 1.409-5.595 2.057-5.573 2.644-5.554 3.169-5.534 3.694-5.52 4.135-5.51 4.49-5.5 4.845-5.495 5.062-5.495 5.141-5.495 5.437-5.513 5.675-5.549 5.855-5.585 6.035-5.643 6.177-5.722 6.279-5.801 6.381-5.902 6.454-6.027 6.501-6.152 6.547-6.304 6.583-6.481 6.609L-6.886 6.668V7.24C-6.701 7.214-6.468 7.187-6.186 7.161-5.942 7.142-5.637 7.125-5.268 7.112-4.899 7.099-4.449 7.093-3.916 7.093H-1.539C-1.276 7.093-1.02 7.094-.77 7.098-.52 7.101-.267 7.107-.01 7.117 .246 7.127 .513 7.142 .789 7.161 1.065 7.182 1.361 7.207 1.677 7.24L1.371 3.906H.77C.775 4.037 .78 4.142 .784 4.217 .787 4.292 .789 4.352 .789 4.395V4.483 4.527C.789 4.744 .761 4.952 .705 5.149 .649 5.347 .541 5.522 .38 5.677 .219 5.831-.005 5.96-.291 6.062-.577 6.163-.95 6.23-1.411 6.264L-3.838 6.432C-3.891 5.893-3.932 5.345-3.961 4.789-3.99 4.233-4.012 3.722-4.025 3.255L-4.104 1.035 .099 1.253Z" fill="#834b4b"/>
<path transform="matrix(1,0,0,-1,452.4084,398.58894)" d="M0 0C.131 .014 .253 .026 .365 .04 .477 .053 .585 .062 .69 .069 .796 .075 .907 .082 1.025 .089 1.059 .963 1.09 1.827 1.119 2.682 1.149 3.535 1.177 4.354 1.203 5.136 1.229 5.918 1.256 6.647 1.282 7.324 1.309 8.001 1.332 8.599 1.352 9.118 1.371 9.637 1.386 10.064 1.396 10.399 1.405 10.734 1.41 10.951 1.41 11.05 1.41 11.332 1.389 11.563 1.347 11.74 1.304 11.917 1.241 12.057 1.159 12.159 1.076 12.261 .973 12.333 .849 12.376 .724 12.418 .582 12.453 .424 12.479L-.01 12.538V13.11C.135 13.084 .309 13.058 .513 13.031 .684 13.012 .893 12.995 1.14 12.982 1.386 12.969 1.677 12.963 2.013 12.963 2.348 12.963 2.718 12.974 3.122 12.997 3.526 13.02 3.972 13.058 4.459 13.11V12.538C4.288 12.525 4.137 12.512 4.005 12.499 3.873 12.485 3.753 12.475 3.645 12.464 3.536 12.454 3.43 12.446 3.324 12.439 3.219 12.434 3.107 12.427 2.989 12.42 2.956 11.546 2.925 10.681 2.896 9.822 2.865 8.965 2.836 8.147 2.807 7.368 2.776 6.59 2.75 5.86 2.728 5.18 2.704 4.5 2.683 3.9 2.663 3.381 2.644 2.862 2.629 2.435 2.619 2.1 2.609 1.765 2.604 1.551 2.604 1.459 2.604 1.17 2.625 .937 2.668 .759 2.711 .582 2.773 .442 2.855 .34 2.938 .238 3.041 .164 3.166 .118 3.291 .072 3.433 .04 3.591 .02L4.015-.039V-.611C3.87-.592 3.695-.568 3.492-.542 3.321-.529 3.11-.515 2.86-.498 2.61-.481 2.321-.474 1.992-.474 1.657-.474 1.289-.483 .888-.503 .486-.522 .039-.559-.454-.611V-.039C-.283-.026-.132-.013 0 0" fill="#834b4b"/>
<path transform="matrix(1,0,0,-1,467.9386,398.75593)" d="M0 0C.395 0 .765 .061 1.109 .182 1.455 .304 1.756 .479 2.013 .71 2.269 .94 2.471 1.221 2.619 1.554 2.767 1.886 2.841 2.262 2.841 2.683 2.841 3.084 2.747 3.45 2.56 3.782 2.372 4.114 2.136 4.422 1.85 4.705 1.563 4.987 1.253 5.254 .917 5.504 .582 5.754 .263 6.001-.039 6.244-.329 6.468-.647 6.713-.996 6.979-1.345 7.245-1.672 7.539-1.978 7.861-2.284 8.184-2.54 8.539-2.747 8.927-2.954 9.315-3.058 9.746-3.058 10.22-3.058 10.456-3.035 10.704-2.989 10.964-2.943 11.224-2.863 11.478-2.748 11.724-2.634 11.971-2.482 12.204-2.296 12.424-2.109 12.645-1.874 12.839-1.593 13.006-1.311 13.174-.979 13.307-.599 13.405-.219 13.504 .224 13.554 .729 13.554 1.372 13.554 1.991 13.503 2.588 13.4 3.185 13.299 3.7 13.182 4.133 13.051L3.916 10.081H3.354V10.348C3.354 10.598 3.327 10.869 3.275 11.161 3.223 11.454 3.107 11.724 2.93 11.971 2.752 12.217 2.494 12.423 2.155 12.587 1.816 12.751 1.361 12.834 .789 12.834 .447 12.834 .137 12.786-.144 12.69-.423 12.595-.661 12.46-.858 12.286-1.056 12.111-1.208 11.899-1.317 11.649-1.426 11.399-1.479 11.12-1.479 10.812-1.479 10.403-1.399 10.043-1.238 9.731-1.077 9.419-.87 9.138-.616 8.888-.363 8.638-.082 8.406 .227 8.192 .536 7.979 .835 7.767 1.125 7.556 1.559 7.24 1.975 6.926 2.372 6.614 2.771 6.302 3.12 5.973 3.423 5.627 3.726 5.282 3.967 4.912 4.148 4.518 4.329 4.123 4.419 3.689 4.419 3.216 4.419 2.663 4.295 2.146 4.046 1.667 3.796 1.187 3.463 .769 3.047 .414 2.63 .059 2.153-.221 1.615-.425 1.077-.628 .522-.73-.048-.73-.743-.73-1.406-.675-2.036-.562-2.665-.451-3.214-.322-3.68-.178L-3.442 2.949H-2.831V2.604C-2.831 2.328-2.799 2.037-2.732 1.73-2.667 1.425-2.534 1.144-2.333 .888-2.133 .631-1.847 .419-1.475 .251-1.104 .083-.611 0 0 0" fill="#834b4b"/>
<path transform="matrix(1,0,0,-1,323.1232,263.6972)" d="M0 0C-3.538 5.371-10.48 9.432-16.769 10.48H-17.031C-17.162 10.48-17.293 10.611-17.162 10.611-9.433 14.149-3.669 21.616-3.669 31.049-3.8 38.385-8.516 44.019-14.411 47.556-18.996 50.308-26.463 50.962-32.228 50.962-33.932 50.962-35.503 50.962-36.814 50.831-39.172 50.57-42.578 50.439-45.592 50.439-49.39 50.439-52.666 50.57-53.452 50.57L-53.714 49.652C-51.094 49.259-50.045 48.08-49.521 46.901-49.259 46.246-49.128 45.46-49.259 44.543-49.285 32.697-49.31 20.852-49.336 9.006-47.889 8.818-45.949 8.713-43.695 9.006-41.702 9.266-40.039 9.762-38.776 10.241-38.864 22.373-38.952 34.506-39.041 46.639-37.493 47.046-35.226 47.483-32.49 47.425-30.767 47.389-20.403 47.154-15.167 39.223-12.441 35.094-12.433 30.816-12.445 29.346-12.51 21.139-17.903 15.653-19.9 13.875-27.946 7.153-38.216 2.881-48.832 2.881-68.611 2.881-101.263 17.166-101.263 57.667-101.263 92.204-69.396 102.878-54.797 102.878-42.081 102.878-26.068 100.052-16.807 81.529V104.919C-18.376 103.977-21.046 102.878-22.772 102.878-27.324 102.878-35.174 107.745-56.366 107.745-81.797 107.745-105.502 84.197-109.897 60.022-110.682 55.784-110.997 51.545-110.839 47.62-109.426 17.637-86.35-4.027-56.837-4.027-40.713-4.027-28.559 3.168-23.849 6.679-11.967 4.426-5.442-3.708-5.109-15.328-4.716-31.049-16.114-35.505-24.498-36.29-26.071-36.421-27.512-36.552-28.823-36.552-32.228-36.552-35.896-36.29-39.172-35.505-39.064-26.544-38.955-17.582-38.847-8.621-39.891-9.321-41.757-10.374-44.311-10.825-46.371-11.188-48.109-11.025-49.247-10.825-49.251-17.566-49.255-24.308-49.259-31.049-49.259-37.994-53.059-39.434-53.452-39.434-53.19-39.434-51.879-39.303-49.39-39.303-47.163-39.303-44.15-39.434-40.089-39.696-35.765-39.958-32.359-40.22-28.823-40.22-25.154-40.22-21.354-39.958-16.114-39.303 2.62-36.945 10.48-15.852 0 0" fill="#834b4b"/>
<path transform="matrix(1,0,0,-1,299.1404,355.13783)" d="M0 0-7.534 8.14 .605 15.674 8.14 7.534Z" fill="#4c2e2e"/>
</g>
</g>
</g>
</svg>
