<svg xmlns="http://www.w3.org/2000/svg" xmlns:xlink="http://www.w3.org/1999/xlink" xmlns:inkscape="http://www.inkscape.org/namespaces/inkscape" version="1.1" width="566.929" height="566.929" viewBox="0 0 566.929 566.929">
<defs>
<clipPath id="clip_0">
<path transform="matrix(1,0,0,-1,0,566.929)" d="M0 566.929H566.929V0H0Z"/>
</clipPath>
</defs>
<g>
<g inkscape:groupmode="layer" inkscape:label="Camada 1">
<path transform="matrix(1,0,0,-1,0,566.929)" d="M0 0H566.929V566.929H0Z" fill="#ecded1"/>
<g clip-path="url(#clip_0)">
<path transform="matrix(1,0,0,-1,128.5801,316.76844)" d="M0 0C-1.974 0-3.872-.324-5.696-.973-7.52-1.621-9.131-2.574-10.528-3.831-11.926-5.089-13.043-6.639-13.88-8.48-14.717-10.323-15.135-12.438-15.135-14.826-15.135-16.613-14.914-18.243-14.472-19.714-14.029-21.185-13.43-22.505-12.672-23.675-11.914-24.845-11.025-25.865-10.007-26.735-8.988-27.604-7.898-28.328-6.738-28.905-5.578-29.483-4.378-29.914-3.138-30.198-1.898-30.483-.679-30.626 .521-30.626 1.279-30.626 1.974-30.602 2.605-30.555 3.237-30.507 3.873-30.424 4.513-30.306 5.152-30.187 5.818-30.029 6.514-29.832 7.209-29.635 7.99-29.394 8.858-29.109L9.309-30.465C8.472-30.87 7.575-31.205 6.62-31.47 5.665-31.734 4.722-31.948 3.79-32.112 2.858-32.275 1.962-32.393 1.102-32.463 .241-32.532-.521-32.567-1.184-32.567-2.905-32.567-4.556-32.382-6.135-32.011-7.714-31.641-9.182-31.115-10.54-30.436-11.898-29.757-13.134-28.929-14.247-27.949-15.36-26.97-16.312-25.869-17.101-24.645-17.891-23.421-18.498-22.095-18.925-20.666-19.351-19.236-19.564-17.717-19.564-16.106-19.564-14.369-19.351-12.724-18.925-11.168-18.498-9.612-17.887-8.176-17.089-6.856-16.292-5.539-15.32-4.347-14.176-3.28-13.031-2.215-11.744-1.311-10.314-.568-8.886 .174-7.33 .742-5.648 1.137-3.967 1.531-2.187 1.729-.308 1.729 2.076 1.729 4.153 1.591 5.922 1.314 7.69 1.038 9.253 .727 10.611 .379L9.925-7.532H8.479V-7.153C8.479-6.348 8.381-5.522 8.184-4.678 7.986-3.833 7.588-3.063 6.987-2.368 6.388-1.674 5.531-1.105 4.418-.663 3.305-.222 1.832 0 0 0" fill="#834b4b"/>
<path transform="matrix(1,0,0,-1,154.5645,320.96083)" d="M0 0-4.998-14.543H4.666L.687 0ZM2.084 6.466 10.09-19.428C10.674-21.353 11.313-22.903 12.008-24.078 12.703-25.254 13.571-25.929 14.613-26.102L15.916-26.314 15.869-27.688C15.063-27.594 14.191-27.522 13.252-27.476 12.312-27.428 11.353-27.404 10.374-27.404 9.332-27.404 8.313-27.428 7.318-27.476 6.323-27.522 5.376-27.594 4.477-27.688L4.523-26.314 7.863-26.008 5.14-16.201H4.216C3.789-16.201 3.229-16.205 2.534-16.213 1.839-16.221 1.054-16.24 .177-16.272-.699-16.304-1.643-16.351-2.653-16.414-3.664-16.477-4.706-16.563-5.78-16.674L-7.082-20.312C-7.367-21.069-7.615-21.786-7.828-22.463-8.042-23.141-8.148-23.731-8.148-24.235-8.148-24.739-8.015-25.153-7.746-25.476-7.478-25.799-7.012-26.008-6.349-26.102L-4.951-26.314-4.998-27.688C-5.851-27.594-6.668-27.515-7.449-27.451-8.231-27.389-9.049-27.356-9.901-27.356-10.754-27.356-11.639-27.389-12.554-27.451-13.47-27.515-14.488-27.594-15.609-27.688L-15.562-26.314C-15.104-26.268-14.67-26.22-14.259-26.173-13.896-26.142-13.533-26.109-13.17-26.078-12.807-26.047-12.507-26.023-12.27-26.007-11.622-24.65-10.947-23.167-10.244-21.558-9.542-19.948-8.823-18.26-8.089-16.492-7.354-14.726-6.621-12.895-5.887-11.002-5.152-9.108-4.43-7.207-3.719-5.297-3.009-3.388-2.326-1.486-1.67 .407-1.016 2.3-.396 4.139 .189 5.922Z" fill="#834b4b"/>
<path transform="matrix(1,0,0,-1,207.2168,342.66004)" d="M0 0C.016-.932 .07-1.673 .165-2.225 .261-2.777 .402-3.211 .592-3.526 .781-3.843 1.021-4.063 1.314-4.189 1.606-4.315 1.974-4.41 2.416-4.474L3.435-4.615V-5.989C3.087-5.941 2.668-5.887 2.179-5.823 1.768-5.792 1.263-5.757 .661-5.717 .061-5.678-.641-5.657-1.439-5.657-2.255-5.657-3.146-5.682-4.114-5.729-5.083-5.776-6.158-5.863-7.343-5.989V-4.615C-6.933-4.584-6.569-4.553-6.253-4.521-5.937-4.489-5.646-4.458-5.377-4.427-5.108-4.395-4.848-4.371-4.596-4.355-4.343-4.34-4.074-4.324-3.79-4.308L-3.885 19.971H-4.334L-16.391-4.687H-17.506L-28.096 20.065H-28.497L-29.939 1.845C-29.971 1.607-29.995 1.336-30.011 1.028-30.026 .721-30.046 .413-30.069 .105-30.094-.202-30.108-.49-30.116-.759-30.125-1.026-30.129-1.239-30.129-1.397-30.129-2.013-30.073-2.506-29.963-2.876-29.853-3.247-29.698-3.543-29.501-3.764-29.304-3.984-29.059-4.146-28.767-4.249-28.475-4.352-28.139-4.427-27.76-4.474L-26.741-4.615V-5.989C-26.994-5.941-27.326-5.887-27.736-5.823-28.084-5.792-28.518-5.757-29.039-5.717-29.56-5.678-30.188-5.657-30.923-5.657-31.662-5.657-32.495-5.682-33.425-5.729-34.354-5.776-35.41-5.863-36.595-5.989V-4.615C-36.185-4.584-35.821-4.553-35.505-4.521-35.189-4.489-34.897-4.458-34.629-4.426-34.36-4.395-34.1-4.371-33.847-4.355-33.595-4.34-33.326-4.324-33.042-4.308L-29.603 26.84-27.349 27.621-15.893 1.187H-15.561L-3.061 27.1-.688 27.573Z" fill="#834b4b"/>
<path transform="matrix(1,0,0,-1,214.6777,347.1805)" d="M0 0C.315 .031 .607 .062 .877 .094 1.145 .126 1.405 .149 1.658 .165 1.91 .181 2.18 .196 2.464 .213 2.542 2.311 2.617 4.386 2.688 6.437 2.76 8.488 2.826 10.452 2.89 12.33 2.953 14.208 3.016 15.959 3.079 17.584 3.143 19.209 3.198 20.646 3.245 21.892 3.293 23.138 3.328 24.164 3.352 24.968 3.375 25.772 3.388 26.294 3.388 26.53 3.388 27.209 3.336 27.761 3.233 28.187 3.131 28.613 2.98 28.948 2.783 29.193 2.586 29.437 2.337 29.611 2.037 29.714 1.737 29.816 1.397 29.899 1.019 29.962L-.023 30.104V31.479C.323 31.415 .742 31.352 1.231 31.288 1.643 31.241 2.144 31.201 2.736 31.17 3.328 31.139 4.026 31.123 4.832 31.123 5.638 31.123 6.525 31.15 7.497 31.206 8.468 31.261 9.537 31.352 10.706 31.479V30.104C10.295 30.072 9.933 30.041 9.616 30.01 9.301 29.978 9.013 29.95 8.752 29.927 8.491 29.903 8.234 29.883 7.982 29.867 7.729 29.852 7.461 29.836 7.177 29.82 7.098 27.722 7.023 25.643 6.952 23.584 6.881 21.524 6.81 19.561 6.738 17.69 6.668 15.821 6.604 14.069 6.549 12.437 6.494 10.804 6.442 9.364 6.396 8.117 6.348 6.871 6.312 5.846 6.289 5.041 6.265 4.236 6.253 3.724 6.253 3.502 6.253 2.808 6.305 2.248 6.407 1.822 6.51 1.396 6.659 1.061 6.857 .816 7.055 .571 7.303 .394 7.604 .283 7.903 .173 8.243 .095 8.622 .047L9.641-.095V-1.469C9.293-1.421 8.874-1.366 8.385-1.303 7.975-1.271 7.469-1.236 6.869-1.196 6.269-1.157 5.574-1.137 4.785-1.137 3.979-1.137 3.095-1.161 2.132-1.208 1.169-1.256 .095-1.343-1.089-1.469V-.095C-.679-.063-.315-.032 0 0" fill="#834b4b"/>
<path transform="matrix(1,0,0,-1,231.7314,346.96763)" d="M0 0C.079 2.098 .154 4.173 .226 6.225 .296 8.275 .367 10.239 .438 12.117 .51 13.995 .568 15.746 .616 17.371 .663 18.996 .707 20.433 .746 21.679 .785 22.925 .817 23.951 .841 24.755 .864 25.56 .877 26.081 .877 26.317 .877 26.996 .829 27.548 .734 27.975 .64 28.4 .497 28.735 .308 28.98 .118 29.225-.122 29.398-.414 29.501-.707 29.604-1.05 29.687-1.444 29.749L-2.463 29.892V31.266C-2.116 31.202-1.705 31.139-1.231 31.075-.821 31.028-.319 30.988 .272 30.957 .864 30.926 1.563 30.91 2.369 30.91 3.174 30.91 4.062 30.937 5.033 30.993 6.005 31.048 7.074 31.139 8.243 31.266V29.892C7.832 29.859 7.473 29.828 7.165 29.797 6.857 29.765 6.568 29.737 6.301 29.714 6.032 29.69 5.771 29.67 5.519 29.654 5.267 29.639 4.998 29.623 4.714 29.607 4.635 27.509 4.56 25.43 4.488 23.371 4.418 21.312 4.347 19.348 4.275 17.478 4.204 15.608 4.141 13.856 4.086 12.224 4.03 10.591 3.979 9.151 3.932 7.904 3.885 6.658 3.849 5.633 3.825 4.828 3.802 4.023 3.79 3.511 3.79 3.29 3.79 2.532 3.924 1.925 4.192 1.467 4.461 1.01 4.848 .658 5.354 .414 5.858 .169 6.467 .003 7.177-.083 7.888-.17 8.692-.213 9.593-.213 10.855-.213 11.934-.11 12.826 .095 13.718 .3 14.476 .64 15.1 1.113 15.724 1.587 16.232 2.219 16.628 3.008 17.022 3.798 17.346 4.784 17.599 5.969H19.114C19.051 5.541 18.956 4.983 18.83 4.294 18.704 3.605 18.55 2.877 18.368 2.108 18.187 1.341 17.974 .576 17.729-.184 17.483-.943 17.22-1.601 16.936-2.155 15.262-2.108 13.635-2.041 12.056-1.954 10.477-1.867 9.028-1.784 7.71-1.705 6.392-1.627 5.242-1.556 4.264-1.492 3.284-1.43 2.559-1.397 2.084-1.397 1.279-1.397 .427-1.413-.474-1.444-1.374-1.477-2.416-1.556-3.6-1.682L-3.553-.308C-3.143-.276-2.779-.245-2.463-.213-2.147-.182-1.855-.15-1.587-.119-1.318-.087-1.058-.063-.806-.048-.553-.032-.284-.017 0 0" fill="#834b4b"/>
<path transform="matrix(1,0,0,-1,265.5791,320.96083)" d="M0 0-4.998-14.543H4.666L.687 0ZM2.084 6.466 10.09-19.428C10.674-21.353 11.313-22.903 12.008-24.078 12.703-25.254 13.571-25.929 14.613-26.102L15.916-26.314 15.869-27.688C15.063-27.594 14.191-27.522 13.252-27.476 12.312-27.428 11.353-27.404 10.374-27.404 9.332-27.404 8.313-27.428 7.318-27.476 6.323-27.522 5.376-27.594 4.477-27.688L4.523-26.314 7.863-26.008 5.14-16.201H4.216C3.789-16.201 3.229-16.205 2.534-16.213 1.839-16.221 1.054-16.24 .177-16.272-.699-16.304-1.643-16.351-2.653-16.414-3.664-16.477-4.706-16.563-5.78-16.674L-7.082-20.312C-7.367-21.069-7.615-21.786-7.828-22.463-8.042-23.141-8.148-23.731-8.148-24.235-8.148-24.739-8.015-25.153-7.746-25.476-7.478-25.799-7.012-26.008-6.349-26.102L-4.951-26.314-4.998-27.688C-5.851-27.594-6.668-27.515-7.449-27.451-8.231-27.389-9.049-27.356-9.901-27.356-10.754-27.356-11.639-27.389-12.554-27.451-13.47-27.515-14.488-27.594-15.609-27.688L-15.562-26.314C-15.104-26.268-14.67-26.22-14.259-26.173-13.896-26.142-13.533-26.109-13.17-26.078-12.807-26.047-12.507-26.023-12.27-26.007-11.622-24.65-10.947-23.167-10.244-21.558-9.542-19.948-8.823-18.26-8.089-16.492-7.354-14.726-6.621-12.895-5.887-11.002-5.152-9.108-4.43-7.207-3.719-5.297-3.009-3.388-2.326-1.486-1.67 .407-1.016 2.3-.396 4.139 .189 5.922Z" fill="#834b4b"/>
<path transform="matrix(1,0,0,-1,312.8545,330.0799)" d="M0 0C.806 0 1.567-.027 2.286-.083 3.004-.138 3.695-.205 4.358-.284 4.896 .095 5.389 .529 5.839 1.019 6.289 1.508 6.68 2.041 7.012 2.617 7.343 3.193 7.6 3.813 7.781 4.477 7.963 5.14 8.054 5.835 8.054 6.562 8.054 7.604 7.911 8.527 7.627 9.332 7.343 10.138 6.948 10.816 6.442 11.369 5.937 11.922 5.345 12.341 4.666 12.625 3.987 12.909 3.245 13.051 2.44 13.051 1.981 13.051 1.517 13.047 1.043 13.039 .568 13.031 .016 12.987-.615 12.909-.663 12.451-.714 11.879-.77 11.191-.825 10.505-.884 9.759-.947 8.953-1.011 8.148-1.065 7.315-1.113 6.455-1.16 5.594-1.192 4.769-1.208 3.979L-1.35 0ZM-1.397-1.682C-1.46-3.766-1.523-5.646-1.587-7.318-1.618-8.029-1.643-8.74-1.657-9.45-1.674-10.161-1.693-10.805-1.717-11.381-1.74-11.957-1.757-12.446-1.765-12.85-1.772-13.252-1.776-13.509-1.776-13.619-1.776-14.282-1.705-14.854-1.562-15.336-1.421-15.818-1.172-16.221-.816-16.544-.462-16.868 .02-17.109 .628-17.267 1.235-17.425 2.014-17.504 2.961-17.504 3.214-17.504 3.577-17.479 4.051-17.433 4.524-17.385 5.037-17.278 5.59-17.112 6.143-16.947 6.703-16.698 7.271-16.366 7.84-16.035 8.357-15.585 8.823-15.017 9.289-14.448 9.668-13.741 9.96-12.896 10.252-12.052 10.398-11.029 10.398-9.829 10.398-8.661 10.221-7.571 9.865-6.561 9.51-5.551 8.957-4.674 8.207-3.932 7.457-3.189 6.502-2.605 5.342-2.179 4.181-1.753 2.795-1.539 1.185-1.539 .332-1.539-.529-1.587-1.397-1.682M11.843 7.627C11.843 6.647 11.692 5.74 11.392 4.903 11.09 4.066 10.698 3.296 10.215 2.594 9.731 1.891 9.188 1.26 8.587 .699 7.984 .139 7.383-.34 6.78-.734 8.086-1.081 9.21-1.531 10.154-2.084 11.098-2.637 11.876-3.276 12.489-4.003 13.103-4.729 13.556-5.53 13.846-6.406 14.137-7.283 14.283-8.219 14.283-9.214 14.283-10.43 14.065-11.614 13.632-12.767 13.197-13.919 12.542-14.945 11.666-15.846 10.789-16.745 9.699-17.472 8.396-18.024 7.094-18.577 5.574-18.854 3.838-18.854 3.206-18.854 2.574-18.826 1.942-18.771 1.311-18.715 .679-18.652 .048-18.581-.584-18.51-1.224-18.443-1.871-18.38-2.519-18.317-3.166-18.285-3.813-18.285-4.571-18.285-5.381-18.309-6.241-18.356-7.102-18.403-8.076-18.475-9.166-18.569L-9.118-17.195C-8.708-17.164-8.345-17.133-8.029-17.101-7.714-17.069-7.422-17.038-7.152-17.007-6.885-16.975-6.624-16.951-6.371-16.936-6.119-16.92-5.85-16.904-5.565-16.888-5.408-12.107-5.266-7.823-5.14-4.037-5.092-2.428-5.041-.842-4.985 .721-4.931 2.282-4.879 3.679-4.831 4.909-4.784 6.14-4.749 7.149-4.725 7.938-4.701 8.728-4.689 9.161-4.689 9.24-4.689 9.967-4.736 10.554-4.831 11.004-4.927 11.453-5.076 11.805-5.281 12.057-5.487 12.31-5.739 12.491-6.039 12.602-6.34 12.712-6.687 12.799-7.082 12.861L-8.101 13.004-8.053 14.378C-7.674 14.314-7.247 14.251-6.773 14.188-6.363 14.141-5.89 14.101-5.353 14.069-4.815 14.038-4.223 14.022-3.573 14.022-2.892 14.022-2.294 14.054-1.779 14.117-1.265 14.18-.746 14.247-.224 14.318 .299 14.39 .869 14.456 1.486 14.52 2.104 14.582 2.864 14.614 3.767 14.614 5.224 14.614 6.467 14.417 7.496 14.022 8.525 13.627 9.36 13.106 10.002 12.459 10.644 11.812 11.11 11.069 11.403 10.232 11.696 9.396 11.843 8.527 11.843 7.627" fill="#834b4b"/>
<path transform="matrix(1,0,0,-1,348.123,333.08784)" d="M0 0C-.947 .126-1.906 .237-2.878 .332-3.849 .427-4.776 .505-5.661 .568-6.545 .631-7.354 .683-8.089 .723-8.823 .762-9.427 .797-9.9 .829-9.964-1.062-10.027-2.789-10.09-4.35-10.122-5.013-10.146-5.675-10.161-6.337-10.177-6.999-10.196-7.609-10.221-8.169-10.244-8.729-10.26-9.206-10.268-9.601-10.275-9.994-10.279-10.263-10.279-10.404-10.279-11.224-10.169-11.878-9.948-12.367-9.727-12.855-9.392-13.226-8.941-13.479-8.491-13.73-7.935-13.896-7.271-13.975-6.608-14.054-5.835-14.093-4.95-14.093-3.688-14.093-2.609-14.015-1.717-13.856-.825-13.698-.067-13.406 .557-12.979 1.181-12.554 1.689-11.966 2.084-11.215 2.479-10.466 2.803-9.498 3.056-8.313H4.548C4.484-8.741 4.39-9.28 4.264-9.929 4.137-10.579 3.983-11.264 3.802-11.984 3.62-12.705 3.407-13.422 3.162-14.135 2.917-14.848 2.653-15.48 2.369-16.035 .694-15.988-.904-15.921-2.428-15.834-3.952-15.747-5.341-15.664-6.597-15.585-7.852-15.507-8.945-15.436-9.877-15.372-10.809-15.31-11.511-15.277-11.985-15.277-12.79-15.277-13.643-15.293-14.543-15.324-15.443-15.356-16.485-15.436-17.669-15.562L-17.622-14.188C-17.212-14.156-16.849-14.125-16.532-14.093-16.217-14.062-15.925-14.03-15.656-13.999-15.388-13.967-15.127-13.943-14.875-13.928-14.622-13.912-14.354-13.896-14.069-13.88-13.911-9.257-13.77-5.076-13.643-1.336-13.596 .257-13.544 1.831-13.489 3.385-13.434 4.939-13.382 6.348-13.335 7.609-13.287 8.872-13.252 9.929-13.229 10.781-13.205 11.633-13.192 12.153-13.192 12.343-13.192 13.053-13.236 13.625-13.323 14.059-13.41 14.492-13.548 14.832-13.737 15.076-13.927 15.321-14.172 15.499-14.472 15.609-14.772 15.72-15.135 15.807-15.562 15.869L-16.532 16.012V17.386C-16.091 17.322-15.53 17.259-14.851 17.195-14.267 17.148-13.532 17.108-12.648 17.077-11.764 17.046-10.683 17.03-9.403 17.03H-3.695C-3.063 17.03-2.447 17.033-1.848 17.042-1.247 17.05-.64 17.065-.023 17.089 .592 17.113 1.231 17.148 1.895 17.195 2.559 17.243 3.269 17.306 4.026 17.386L3.292 9.38H1.848C1.863 9.695 1.875 9.944 1.883 10.126 1.891 10.307 1.895 10.449 1.895 10.552V10.765 10.872C1.895 11.393 1.827 11.891 1.693 12.364 1.56 12.838 1.299 13.26 .912 13.631 .524 14.002-.012 14.31-.698 14.555-1.386 14.8-2.282 14.961-3.387 15.04L-9.214 15.443C-9.34 14.148-9.438 12.834-9.51 11.499-9.581 10.165-9.632 8.938-9.664 7.816L-9.854 2.487 .237 3.008Z" fill="#834b4b"/>
<path transform="matrix(1,0,0,-1,356.4365,347.1805)" d="M0 0C.315 .031 .607 .062 .876 .095 1.145 .126 1.405 .149 1.657 .165 1.91 .181 2.179 .196 2.463 .213L3.079 18.484C3.126 19.604 3.153 20.67 3.162 21.68 3.17 22.689 3.174 23.66 3.174 24.591 3.174 26.074 3.153 27.396 3.114 28.556 3.075 29.715 3.031 30.689 2.984 31.479L4.927 32.188 28.162 4.287C28.209 5.66 28.261 7.137 28.315 8.716 28.371 10.295 28.423 11.87 28.47 13.441 28.518 15.013 28.564 16.532 28.612 18.001 28.659 19.47 28.698 20.8 28.73 21.992 28.762 23.184 28.79 24.179 28.813 24.977 28.837 25.773 28.849 26.291 28.849 26.527 28.849 27.206 28.802 27.76 28.707 28.186 28.612 28.612 28.466 28.947 28.269 29.192 28.071 29.437 27.826 29.61 27.534 29.714 27.242 29.816 26.906 29.898 26.527 29.962L25.509 30.104V31.479C25.73 31.415 26.03 31.352 26.409 31.288 26.725 31.241 27.128 31.201 27.617 31.17 28.106 31.139 28.707 31.123 29.417 31.123 30.128 31.123 30.937 31.15 31.845 31.206 32.753 31.261 33.791 31.352 34.96 31.479V30.104C34.549 30.072 34.186 30.041 33.87 30.01 33.554 29.978 33.267 29.95 33.006 29.927 32.745 29.903 32.488 29.883 32.236 29.867 31.983 29.852 31.707 29.836 31.407 29.82L30.886 14.59C30.87 14.164 30.854 13.596 30.839 12.885 30.822 12.174 30.803 11.428 30.779 10.646 30.756 9.865 30.735 9.087 30.72 8.313 30.704 7.54 30.696 6.884 30.696 6.348V4.346C30.696 3.722 30.7 3.103 30.708 2.486 30.716 1.871 30.731 1.243 30.756 .604 30.779-.036 30.807-.727 30.839-1.469L28.802-2.155 5.565 25.414C5.534 24.073 5.498 22.634 5.459 21.096 5.42 19.558 5.38 18.012 5.341 16.458 5.301 14.903 5.262 13.397 5.223 11.938 5.183 10.479 5.147 9.161 5.116 7.986 5.084 6.811 5.061 5.824 5.045 5.028 5.028 4.231 5.021 3.723 5.021 3.502 5.021 2.808 5.068 2.252 5.163 1.834 5.258 1.415 5.4 1.084 5.59 .84 5.779 .596 6.02 .418 6.312 .308 6.604 .196 6.955 .11 7.366 .047L8.385-.095V-1.469C8.147-1.421 7.84-1.366 7.461-1.303 7.145-1.271 6.742-1.236 6.253-1.196 5.763-1.157 5.163-1.137 4.452-1.137 3.742-1.137 2.937-1.161 2.037-1.208 1.137-1.256 .095-1.343-1.09-1.469V-.095C-.68-.063-.316-.032 0 0" fill="#834b4b"/>
<path transform="matrix(1,0,0,-1,405.4531,317.36024)" d="M0 0C-.899 .031-1.715 .055-2.449 .07-3.183 .086-3.77 .095-4.211 .095-5.095 .095-5.875 .027-6.554-.106-7.231-.241-7.835-.521-8.363-.947-8.892-1.374-9.353-1.99-9.747-2.795-10.142-3.601-10.496-4.675-10.812-6.017H-12.209L-11.24 1.942C-9.442 1.8-7.902 1.717-6.617 1.693-5.332 1.67-4.193 1.658-3.201 1.658-1.058 1.658 .988 1.661 2.935 1.67 4.882 1.678 6.667 1.693 8.29 1.717 9.914 1.74 11.353 1.772 12.605 1.812 13.858 1.851 14.864 1.91 15.622 1.989L14.911-6.017H13.442C13.442-5.843 13.45-5.618 13.466-5.342 13.481-5.065 13.49-4.84 13.49-4.666 13.49-4.146 13.435-3.64 13.324-3.15 13.214-2.661 12.977-2.223 12.613-1.836 12.25-1.449 11.726-1.125 11.038-.865 10.352-.604 9.424-.442 8.255-.379L3.613-.143C3.534-2.226 3.459-4.284 3.388-6.319 3.316-8.355 3.254-10.304 3.198-12.165 3.143-14.027 3.088-15.771 3.032-17.396 2.978-19.021 2.934-20.457 2.902-21.703 2.87-22.949 2.843-23.975 2.819-24.779 2.796-25.584 2.784-26.097 2.784-26.318 2.784-27.013 2.835-27.572 2.938-27.998 3.04-28.425 3.19-28.76 3.388-29.004 3.585-29.249 3.826-29.427 4.11-29.537 4.395-29.647 4.727-29.726 5.105-29.773L6.124-29.915V-31.289C5.776-31.241 5.357-31.187 4.868-31.123 4.457-31.092 3.953-31.057 3.354-31.017 2.756-30.978 2.066-30.957 1.287-30.957 .491-30.957-.386-30.981-1.345-31.028-2.303-31.076-3.374-31.163-4.559-31.289V-29.915C-4.148-29.884-3.785-29.853-3.469-29.82-3.153-29.789-2.861-29.758-2.593-29.727-2.324-29.694-2.063-29.671-1.812-29.655-1.559-29.64-1.29-29.624-1.006-29.607Z" fill="#834b4b"/>
<path transform="matrix(1,0,0,-1,427.4229,331.80854)" d="M0 0C0-2.053 .28-4.027 .841-5.922 1.401-7.816 2.215-9.494 3.28-10.955 4.347-12.416 5.653-13.584 7.2-14.46 8.748-15.337 10.509-15.775 12.482-15.775 14.377-15.775 16.047-15.396 17.492-14.638 18.937-13.88 20.141-12.842 21.104-11.523 22.067-10.205 22.794-8.666 23.283-6.904 23.772-5.145 24.018-3.253 24.018-1.232 24.018 1.042 23.729 3.17 23.153 5.151 22.576 7.133 21.768 8.858 20.726 10.327 19.683 11.795 18.439 12.947 16.994 13.785 15.55 14.621 13.967 15.04 12.246 15.04 11.346 15.04 10.422 14.941 9.475 14.744 8.527 14.547 7.6 14.215 6.691 13.749 5.783 13.283 4.923 12.672 4.109 11.914 3.296 11.155 2.586 10.22 1.978 9.106 1.37 7.993 .889 6.687 .533 5.187 .178 3.687 0 1.957 0 0M-4.358-.498C-4.358 1.981-3.933 4.278-3.081 6.395-2.229 8.511-1.031 10.334 .515 11.866 2.06 13.397 3.916 14.598 6.084 15.467 8.252 16.335 10.652 16.77 13.286 16.77 14.895 16.77 16.385 16.552 17.756 16.118 19.128 15.684 20.373 15.083 21.493 14.317 22.612 13.552 23.605 12.647 24.473 11.605 25.34 10.563 26.069 9.438 26.661 8.23 27.252 7.022 27.697 5.747 27.997 4.405 28.297 3.063 28.446 1.721 28.446 .379 28.446-2.259 28.021-4.671 27.17-6.857 26.318-9.045 25.159-10.932 23.692-12.519 22.227-14.105 20.523-15.337 18.584-16.213 16.645-17.09 14.587-17.527 12.411-17.527 10.535-17.527 8.819-17.303 7.267-16.853 5.714-16.402 4.314-15.779 3.068-14.981 1.823-14.185 .734-13.245-.195-12.163-1.126-11.081-1.898-9.909-2.514-8.646-3.129-7.383-3.59-6.061-3.896-4.678-4.204-3.297-4.358-1.903-4.358-.498" fill="#834b4b"/>
<path transform="matrix(1,0,0,-1,156.6416,358.90614)" d="M0 0C-.603 0-1.183-.1-1.739-.297-2.296-.495-2.788-.786-3.215-1.17-3.641-1.554-3.982-2.027-4.237-2.59-4.493-3.152-4.621-3.798-4.621-4.527-4.621-5.073-4.554-5.57-4.419-6.02-4.283-6.469-4.101-6.872-3.869-7.229-3.638-7.586-3.366-7.897-3.056-8.163-2.744-8.429-2.412-8.649-2.058-8.826-1.703-9.002-1.337-9.134-.958-9.221-.58-9.308-.207-9.352 .159-9.352 .391-9.352 .603-9.344 .796-9.329 .988-9.314 1.183-9.29 1.378-9.254 1.573-9.218 1.776-9.169 1.989-9.108 2.201-9.049 2.439-8.975 2.705-8.889L2.842-9.302C2.587-9.426 2.313-9.528 2.021-9.608 1.729-9.689 1.441-9.755 1.157-9.805 .873-9.854 .6-9.891 .336-9.912 .073-9.934-.159-9.944-.361-9.944-.887-9.944-1.391-9.888-1.873-9.774-2.355-9.661-2.804-9.501-3.218-9.293-3.633-9.086-4.01-8.833-4.35-8.534-4.689-8.235-4.98-7.898-5.222-7.525-5.462-7.151-5.647-6.746-5.778-6.311-5.908-5.874-5.974-5.41-5.974-4.918-5.974-4.388-5.908-3.885-5.778-3.41-5.647-2.936-5.461-2.496-5.218-2.094-4.975-1.691-4.678-1.327-4.328-1.002-3.979-.677-3.586-.4-3.149-.174-2.713 .053-2.238 .227-1.725 .347-1.211 .467-.668 .527-.094 .527 .634 .527 1.269 .485 1.808 .401 2.348 .316 2.825 .222 3.24 .115L3.03-2.3H2.589V-2.185C2.589-1.938 2.559-1.687 2.499-1.429 2.438-1.171 2.316-.936 2.134-.724 1.95-.512 1.688-.338 1.349-.203 1.009-.068 .56 0 0 0"/>
<path transform="matrix(1,0,0,-1,166.5166,363.4989)" d="M0 0C0-.627 .085-1.229 .257-1.808 .428-2.387 .676-2.898 1.002-3.345 1.327-3.79 1.726-4.147 2.198-4.415 2.671-4.683 3.208-4.816 3.812-4.816 4.39-4.816 4.899-4.7 5.341-4.469 5.781-4.237 6.149-3.921 6.443-3.518 6.737-3.115 6.959-2.646 7.108-2.107 7.258-1.57 7.333-.993 7.333-.376 7.333 .318 7.245 .968 7.069 1.573 6.893 2.178 6.646 2.705 6.328 3.153 6.01 3.602 5.63 3.953 5.188 4.209 4.748 4.465 4.265 4.593 3.738 4.593 3.464 4.593 3.182 4.562 2.893 4.502 2.604 4.441 2.32 4.341 2.043 4.198 1.766 4.056 1.503 3.869 1.255 3.638 1.006 3.406 .789 3.121 .604 2.781 .418 2.441 .271 2.042 .163 1.584 .054 1.126 0 .598 0 0M-1.331-.151C-1.331 .605-1.201 1.307-.94 1.953-.681 2.599-.315 3.155 .157 3.623 .629 4.091 1.195 4.457 1.857 4.723 2.52 4.987 3.252 5.12 4.057 5.12 4.548 5.12 5.002 5.054 5.421 4.922 5.84 4.789 6.221 4.605 6.562 4.372 6.904 4.138 7.207 3.862 7.472 3.544 7.736 3.226 7.96 2.882 8.14 2.514 8.32 2.145 8.457 1.755 8.548 1.346 8.64 .936 8.686 .525 8.686 .116 8.686-.689 8.556-1.426 8.295-2.094 8.035-2.761 7.682-3.337 7.233-3.822 6.786-4.307 6.266-4.683 5.674-4.95 5.082-5.218 4.453-5.352 3.789-5.352 3.217-5.352 2.692-5.282 2.219-5.146 1.744-5.008 1.317-4.817 .937-4.574 .557-4.33 .225-4.044-.06-3.713-.344-3.383-.58-3.025-.768-2.64-.955-2.254-1.096-1.85-1.19-1.428-1.284-1.006-1.331-.581-1.331-.151"/>
<path transform="matrix(1,0,0,-1,180.8809,368.1922)" d="M0 0C.097 .01 .186 .02 .268 .029 .35 .039 .43 .046 .507 .051 .584 .056 .666 .061 .752 .065L.94 5.644C.955 5.986 .963 6.312 .966 6.619 .968 6.928 .97 7.225 .97 7.509 .97 7.961 .963 8.364 .951 8.719 .939 9.073 .926 9.37 .911 9.611L1.505 9.828 8.599 1.31C8.613 1.729 8.629 2.18 8.646 2.661 8.663 3.144 8.679 3.624 8.693 4.104 8.707 4.584 8.722 5.048 8.736 5.496 8.751 5.944 8.763 6.351 8.772 6.715 8.782 7.079 8.791 7.383 8.798 7.626 8.805 7.869 8.809 8.027 8.809 8.1 8.809 8.307 8.794 8.476 8.766 8.606 8.736 8.736 8.691 8.839 8.632 8.913 8.571 8.988 8.496 9.041 8.407 9.072 8.318 9.104 8.216 9.129 8.1 9.148L7.789 9.191V9.611C7.856 9.592 7.948 9.572 8.063 9.554 8.16 9.539 8.283 9.526 8.433 9.518 8.582 9.508 8.766 9.503 8.982 9.503 9.199 9.503 9.446 9.511 9.724 9.528 10.001 9.545 10.317 9.572 10.675 9.611V9.191C10.549 9.182 10.438 9.173 10.342 9.163 10.245 9.153 10.157 9.145 10.078 9.138 9.998 9.13 9.92 9.124 9.843 9.119 9.766 9.114 9.682 9.109 9.59 9.105L9.431 4.455C9.426 4.325 9.421 4.151 9.416 3.935 9.411 3.717 9.405 3.489 9.398 3.251 9.391 3.012 9.385 2.774 9.38 2.538 9.375 2.302 9.373 2.103 9.373 1.938V1.327C9.373 1.137 9.374 .947 9.376 .76 9.379 .571 9.384 .38 9.391 .185 9.398-.011 9.406-.222 9.416-.448L8.794-.658 1.7 7.76C1.69 7.351 1.68 6.911 1.667 6.441 1.655 5.972 1.644 5.5 1.631 5.025 1.619 4.551 1.606 4.091 1.595 3.646 1.583 3.199 1.572 2.798 1.562 2.438 1.553 2.08 1.546 1.778 1.541 1.535 1.536 1.292 1.533 1.137 1.533 1.069 1.533 .857 1.548 .687 1.577 .56 1.605 .433 1.649 .331 1.707 .257 1.765 .182 1.838 .128 1.928 .094 2.017 .061 2.124 .034 2.249 .015L2.561-.028V-.448C2.488-.434 2.395-.417 2.278-.397 2.182-.388 2.059-.377 1.909-.365 1.76-.354 1.577-.347 1.36-.347 1.143-.347 .897-.354 .622-.369 .348-.383 .029-.41-.332-.448V-.028C-.207-.02-.096-.01 0 0"/>
<path transform="matrix(1,0,0,-1,199.5859,368.3153)" d="M0 0C.289 0 .561 .045 .813 .134 1.066 .224 1.287 .353 1.475 .521 1.663 .689 1.812 .896 1.92 1.14 2.028 1.383 2.082 1.659 2.082 1.968 2.082 2.262 2.014 2.53 1.876 2.773 1.739 3.017 1.565 3.242 1.355 3.45 1.146 3.657 .918 3.853 .672 4.035 .427 4.219 .192 4.399-.029 4.578-.241 4.742-.476 4.922-.73 5.117-.986 5.312-1.227 5.527-1.45 5.764-1.675 6-1.862 6.261-2.015 6.545-2.166 6.829-2.242 7.146-2.242 7.492-2.242 7.666-2.226 7.848-2.191 8.038-2.158 8.229-2.1 8.414-2.015 8.596-1.931 8.776-1.82 8.947-1.684 9.108-1.546 9.271-1.375 9.412-1.168 9.535-.961 9.658-.719 9.756-.439 9.828-.16 9.9 .164 9.937 .534 9.937 1.005 9.937 1.46 9.899 1.897 9.824 2.335 9.75 2.712 9.664 3.029 9.568L2.871 7.392H2.458V7.586C2.458 7.77 2.439 7.969 2.4 8.183 2.362 8.397 2.277 8.596 2.147 8.776 2.018 8.957 1.828 9.107 1.58 9.229 1.331 9.349 .998 9.409 .578 9.409 .327 9.409 .1 9.374-.105 9.304-.311 9.234-.485 9.135-.63 9.008-.774 8.88-.887 8.725-.966 8.541-1.045 8.357-1.085 8.153-1.085 7.927-1.085 7.627-1.026 7.363-.908 7.135-.79 6.905-.638 6.699-.452 6.516-.267 6.333-.061 6.163 .166 6.006 .393 5.85 .612 5.694 .824 5.54 1.143 5.309 1.447 5.078 1.739 4.85 2.03 4.62 2.287 4.379 2.509 4.126 2.73 3.873 2.908 3.602 3.041 3.313 3.173 3.023 3.239 2.705 3.239 2.357 3.239 1.953 3.148 1.574 2.966 1.223 2.782 .87 2.538 .564 2.233 .304 1.928 .044 1.578-.161 1.184-.311 .789-.46 .383-.535-.035-.535-.545-.535-1.031-.494-1.493-.412-1.954-.33-2.356-.236-2.698-.13L-2.524 2.162H-2.076V1.909C-2.076 1.707-2.052 1.493-2.004 1.27-1.955 1.045-1.857 .839-1.711 .651-1.563 .463-1.354 .308-1.081 .185-.81 .062-.448 0 0 0"/>
<path transform="matrix(1,0,0,-1,208.9902,358.63853)" d="M0 0C.125-.015 .278-.027 .459-.036 .64-.046 .854-.051 1.1-.051 1.346-.051 1.615-.043 1.909-.025 2.203-.009 2.528 .019 2.886 .058V-.362C2.76-.372 2.65-.381 2.557-.391 2.463-.4 2.374-.409 2.293-.416 2.211-.424 2.131-.43 2.054-.435 1.977-.439 1.895-.444 1.808-.448 1.774-1.302 1.747-2.039 1.725-2.658 1.703-3.277 1.684-3.806 1.667-4.242 1.65-4.678 1.637-5.036 1.627-5.315 1.617-5.596 1.611-5.821 1.609-5.992 1.606-6.163 1.604-6.293 1.602-6.383 1.6-6.472 1.599-6.543 1.599-6.596 1.599-7.589 1.836-8.336 2.311-8.838 2.785-9.339 3.531-9.59 4.549-9.59 5.537-9.59 6.292-9.306 6.812-8.736 7.333-8.168 7.615-7.3 7.658-6.133 7.712-4.773 7.751-3.707 7.778-2.933 7.805-2.159 7.817-1.666 7.817-1.454 7.817-1.247 7.804-1.078 7.774-.947 7.745-.817 7.702-.715 7.645-.641 7.586-.565 7.513-.513 7.424-.481 7.334-.45 7.229-.425 7.109-.405L6.798-.362V.058C6.89 .038 7.003 .019 7.138 0 7.254-.015 7.397-.027 7.568-.036 7.739-.046 7.943-.051 8.18-.051 8.411-.051 8.67-.043 8.957-.025 9.243-.009 9.565 .019 9.922 .058V-.362C9.797-.372 9.688-.381 9.593-.391 9.499-.4 9.411-.409 9.329-.416 9.247-.424 9.168-.43 9.091-.435 9.014-.439 8.932-.444 8.845-.448L8.353-6.241C8.295-6.883 8.175-7.45 7.991-7.944 7.808-8.438 7.556-8.854 7.235-9.188 6.915-9.523 6.521-9.777 6.057-9.951 5.592-10.125 5.053-10.212 4.44-10.212 3.838-10.212 3.291-10.149 2.799-10.023 2.307-9.898 1.888-9.707 1.54-9.448 1.193-9.19 .925-8.868 .734-8.479 .544-8.092 .448-7.633 .448-7.102 .448-7.001 .451-6.848 .456-6.643 .461-6.437 .468-6.201 .478-5.934 .487-5.666 .498-5.377 .51-5.066 .521-4.755 .535-4.443 .55-4.13 .564-3.816 .577-3.511 .59-3.211 .602-2.912 .612-2.642 .622-2.397 .632-2.154 .639-1.949 .644-1.783 .648-1.616 .651-1.507 .651-1.454 .651-1.247 .636-1.078 .604-.947 .572-.817 .526-.715 .467-.641 .406-.565 .33-.513 .238-.481 .147-.45 .044-.425-.072-.405L-.383-.362V.058C-.277 .038-.149 .019 0 0"/>
<path transform="matrix(1,0,0,-1,224.8809,368.12684)" d="M0 0C.024 .641 .047 1.274 .069 1.9 .091 2.526 .112 3.126 .134 3.699 .156 4.272 .174 4.808 .188 5.304 .203 5.8 .216 6.238 .229 6.619 .24 6.999 .25 7.312 .257 7.559 .265 7.804 .268 7.963 .268 8.035 .268 8.242 .254 8.411 .225 8.541 .195 8.671 .152 8.773 .095 8.848 .036 8.923-.037 8.976-.126 9.007-.216 9.038-.32 9.063-.44 9.083L-.752 9.126V9.546C-.646 9.526-.521 9.507-.376 9.488-.25 9.474-.098 9.461 .084 9.452 .265 9.442 .478 9.438 .724 9.438 .97 9.438 1.24 9.445 1.537 9.463 1.834 9.479 2.16 9.507 2.517 9.546V9.126C2.392 9.116 2.282 9.107 2.188 9.098 2.094 9.088 2.006 9.079 1.924 9.072 1.842 9.064 1.763 9.059 1.686 9.054 1.608 9.049 1.526 9.044 1.439 9.04 1.415 8.398 1.393 7.764 1.371 7.136 1.349 6.507 1.327 5.907 1.306 5.336 1.284 4.766 1.265 4.23 1.248 3.732 1.23 3.233 1.215 2.794 1.201 2.413 1.187 2.033 1.176 1.72 1.168 1.474 1.161 1.229 1.157 1.071 1.157 1.004 1.157 .772 1.198 .587 1.28 .447 1.362 .308 1.48 .201 1.635 .126 1.789 .052 1.975 .001 2.191-.025 2.408-.052 2.654-.065 2.93-.065 3.314-.065 3.644-.034 3.916 .028 4.188 .092 4.42 .195 4.61 .34 4.801 .484 4.956 .677 5.077 .918 5.197 1.159 5.297 1.461 5.374 1.822H5.836C5.817 1.691 5.788 1.521 5.75 1.311 5.711 1.101 5.664 .878 5.608 .644 5.553 .409 5.488 .176 5.413-.057 5.339-.288 5.258-.489 5.171-.658 4.66-.644 4.163-.623 3.682-.597 3.199-.57 2.757-.545 2.354-.521 1.952-.497 1.601-.476 1.302-.456 1.003-.437 .781-.427 .637-.427 .391-.427 .131-.432-.145-.441-.419-.451-.737-.476-1.099-.514L-1.084-.094C-.959-.085-.849-.075-.752-.065-.655-.056-.566-.046-.484-.036-.402-.027-.322-.02-.245-.015-.169-.01-.087-.005 0 0"/>
<path transform="matrix(1,0,0,-1,239.2715,359.08683)" d="M0 0C-.274 .009-.523 .017-.747 .021-.972 .026-1.15 .028-1.285 .028-1.555 .028-1.794 .008-2.001-.033-2.208-.074-2.392-.159-2.553-.29-2.715-.42-2.855-.608-2.976-.854-3.096-1.1-3.204-1.428-3.301-1.837H-3.728L-3.432 .593C-2.883 .549-2.412 .523-2.02 .517-1.628 .51-1.28 .506-.977 .506-.322 .506 .302 .507 .896 .51 1.491 .512 2.036 .517 2.531 .523 3.027 .531 3.467 .541 3.85 .553 4.231 .564 4.539 .583 4.771 .607L4.553-1.837H4.104C4.104-1.784 4.107-1.716 4.112-1.631 4.116-1.547 4.119-1.479 4.119-1.425 4.119-1.266 4.103-1.111 4.068-.962 4.035-.812 3.963-.679 3.852-.561 3.74-.442 3.58-.344 3.371-.265 3.161-.185 2.878-.136 2.521-.116L1.104-.044C1.079-.68 1.057-1.309 1.035-1.93 1.013-2.552 .994-3.146 .977-3.715 .96-4.283 .943-4.815 .927-5.312 .909-5.808 .896-6.246 .887-6.627 .877-7.008 .868-7.32 .861-7.566 .854-7.812 .851-7.969 .851-8.036 .851-8.248 .866-8.419 .897-8.549 .929-8.679 .975-8.781 1.035-8.856 1.095-8.931 1.169-8.985 1.255-9.019 1.342-9.053 1.443-9.076 1.56-9.091L1.87-9.134V-9.554C1.764-9.539 1.636-9.522 1.486-9.503 1.361-9.493 1.207-9.482 1.024-9.471 .842-9.459 .631-9.452 .394-9.452 .15-9.452-.117-9.46-.41-9.475-.703-9.488-1.03-9.516-1.392-9.554V-9.134C-1.267-9.125-1.155-9.115-1.059-9.105-.963-9.096-.873-9.086-.791-9.076-.709-9.067-.63-9.06-.553-9.055-.476-9.05-.394-9.045-.307-9.04Z"/>
<path transform="matrix(1,0,0,-1,250.4229,363.4989)" d="M0 0C0-.627 .085-1.229 .257-1.808 .428-2.387 .676-2.898 1.002-3.345 1.327-3.79 1.726-4.147 2.198-4.415 2.671-4.683 3.208-4.816 3.812-4.816 4.39-4.816 4.899-4.7 5.341-4.469 5.781-4.237 6.149-3.921 6.443-3.518 6.737-3.115 6.959-2.646 7.108-2.107 7.258-1.57 7.333-.993 7.333-.376 7.333 .318 7.245 .968 7.069 1.573 6.893 2.178 6.646 2.705 6.328 3.153 6.01 3.602 5.63 3.953 5.188 4.209 4.748 4.465 4.265 4.593 3.738 4.593 3.464 4.593 3.182 4.562 2.893 4.502 2.604 4.441 2.32 4.341 2.043 4.198 1.766 4.056 1.503 3.869 1.255 3.638 1.006 3.406 .789 3.121 .604 2.781 .418 2.441 .271 2.042 .163 1.584 .054 1.126 0 .598 0 0M-1.331-.151C-1.331 .605-1.201 1.307-.94 1.953-.681 2.599-.315 3.155 .157 3.623 .629 4.091 1.195 4.457 1.857 4.723 2.52 4.987 3.252 5.12 4.057 5.12 4.548 5.12 5.002 5.054 5.421 4.922 5.84 4.789 6.221 4.605 6.562 4.372 6.904 4.138 7.207 3.862 7.472 3.544 7.736 3.226 7.96 2.882 8.14 2.514 8.32 2.145 8.457 1.755 8.548 1.346 8.64 .936 8.686 .525 8.686 .116 8.686-.689 8.556-1.426 8.295-2.094 8.035-2.761 7.682-3.337 7.233-3.822 6.786-4.307 6.266-4.683 5.674-4.95 5.082-5.218 4.453-5.352 3.789-5.352 3.217-5.352 2.692-5.282 2.219-5.146 1.744-5.008 1.317-4.817 .937-4.574 .557-4.33 .225-4.044-.06-3.713-.344-3.383-.58-3.025-.768-2.64-.955-2.254-1.096-1.85-1.19-1.428-1.284-1.006-1.331-.581-1.331-.151"/>
<path transform="matrix(1,0,0,-1,266.8848,363.55653)" d="M0 0H.412C1.015 0 1.514 .071 1.909 .213 2.305 .354 2.618 .541 2.85 .772 3.081 1.004 3.243 1.269 3.337 1.566 3.432 1.865 3.479 2.173 3.479 2.491 3.479 2.645 3.463 2.803 3.432 2.964 3.4 3.125 3.347 3.283 3.272 3.437 3.197 3.591 3.099 3.736 2.976 3.874 2.853 4.011 2.703 4.131 2.527 4.234 2.352 4.338 2.145 4.42 1.905 4.48 1.667 4.54 1.394 4.57 1.085 4.57 .911 4.57 .754 4.565 .614 4.556 .475 4.546 .32 4.527 .151 4.498ZM-2.357-4.664C-2.232-4.655-2.121-4.646-2.025-4.636-1.929-4.626-1.84-4.616-1.758-4.606-1.676-4.598-1.596-4.59-1.519-4.585-1.441-4.58-1.359-4.575-1.272-4.57-1.249-3.93-1.226-3.296-1.204-2.67-1.183-2.044-1.162-1.444-1.143-.871-1.123-.298-1.104 .237-1.085 .733-1.065 1.229-1.049 1.668-1.034 2.049-1.02 2.429-1.009 2.742-1.002 2.988-.994 3.233-.991 3.393-.991 3.465-.991 3.672-1.005 3.841-1.034 3.971-1.063 4.101-1.107 4.203-1.168 4.277-1.229 4.353-1.305 4.405-1.396 4.437-1.487 4.468-1.594 4.493-1.714 4.513L-2.032 4.556V4.976C-1.897 4.956-1.753 4.937-1.599 4.918-1.468 4.903-1.32 4.891-1.153 4.882-.987 4.872-.814 4.867-.637 4.867-.473 4.867-.316 4.877-.166 4.896-.017 4.915 .138 4.936 .297 4.957 .455 4.979 .624 5 .803 5.019 .98 5.038 1.179 5.048 1.396 5.048 1.975 5.048 2.469 4.977 2.878 4.835 3.288 4.692 3.623 4.502 3.884 4.264 4.144 4.025 4.334 3.753 4.455 3.447 4.575 3.141 4.636 2.826 4.636 2.504 4.636 2.061 4.555 1.68 4.394 1.362 4.231 1.044 4.034 .775 3.8 .557 3.566 .337 3.318 .161 3.056 .028 2.793-.104 2.56-.201 2.357-.264 2.724-.925 3.098-1.548 3.479-2.131 3.859-2.715 4.234-3.227 4.603-3.665 4.972-4.104 5.328-4.45 5.673-4.704 6.018-4.957 6.34-5.084 6.639-5.084L6.624-5.337C6.441-5.366 6.263-5.381 6.089-5.381 5.693-5.371 5.314-5.275 4.95-5.095 4.586-4.914 4.24-4.682 3.912-4.396 3.584-4.112 3.277-3.791 2.99-3.432 2.703-3.072 2.44-2.712 2.202-2.351 1.963-1.988 1.752-1.645 1.569-1.316 1.386-.988 1.234-.709 1.113-.478 .988-.487 .856-.494 .72-.499 .582-.504 .437-.506 .282-.506H-.015C-.02-.65-.025-.818-.032-1.008-.04-1.198-.047-1.395-.055-1.597-.062-1.799-.068-2.003-.076-2.21-.083-2.417-.09-2.609-.094-2.787-.099-2.966-.104-3.123-.108-3.261-.113-3.397-.116-3.5-.116-3.567-.116-3.774-.102-3.941-.072-4.069-.044-4.196 0-4.299 .058-4.376 .115-4.453 .19-4.508 .282-4.542 .373-4.575 .481-4.603 .607-4.621L.918-4.664V-5.084C.812-5.069 .685-5.053 .535-5.033 .409-5.023 .256-5.013 .072-5.001-.111-4.989-.323-4.982-.564-4.982-.811-4.982-1.08-4.99-1.374-5.005-1.668-5.019-1.996-5.046-2.357-5.084Z"/>
<path transform="matrix(1,0,0,-1,281.8574,360.1864)" d="M0 0-1.526-4.44H1.425L.21 0ZM.637 1.975 3.081-5.932C3.259-6.52 3.454-6.993 3.666-7.352 3.879-7.711 4.144-7.917 4.462-7.97L4.859-8.034 4.845-8.454C4.6-8.425 4.333-8.403 4.046-8.389 3.759-8.375 3.466-8.367 3.167-8.367 2.85-8.367 2.538-8.375 2.234-8.389 1.931-8.403 1.642-8.425 1.366-8.454L1.381-8.034 2.4-7.94 1.569-4.946H1.287C1.157-4.946 .985-4.948 .773-4.95 .562-4.953 .321-4.959 .054-4.969-.214-4.978-.502-4.992-.811-5.012-1.119-5.031-1.437-5.058-1.765-5.091L-2.162-6.202C-2.249-6.433-2.325-6.652-2.391-6.858-2.455-7.065-2.488-7.246-2.488-7.399-2.488-7.554-2.447-7.68-2.365-7.778-2.283-7.877-2.141-7.94-1.938-7.97L-1.512-8.034-1.526-8.454C-1.786-8.425-2.036-8.401-2.274-8.382-2.514-8.362-2.763-8.353-3.023-8.353-3.283-8.353-3.554-8.362-3.833-8.382-4.112-8.401-4.424-8.425-4.766-8.454L-4.751-8.034C-4.611-8.021-4.479-8.006-4.354-7.991-4.243-7.981-4.132-7.972-4.021-7.963-3.91-7.953-3.818-7.945-3.746-7.94-3.549-7.526-3.343-7.073-3.128-6.582-2.913-6.091-2.694-5.575-2.47-5.036-2.246-4.496-2.021-3.938-1.797-3.359-1.573-2.781-1.353-2.2-1.136-1.617-.919-1.034-.71-.454-.51 .124-.31 .702-.121 1.264 .058 1.808Z"/>
<path transform="matrix(1,0,0,-1,303.4258,359.04383)" d="M0 0C-.165 0-.329-.001-.493-.004-.657-.006-.814-.011-.964-.019-1.114-.025-1.254-.034-1.385-.043-1.515-.053-1.626-.062-1.718-.072-1.771-1.485-1.817-2.76-1.855-3.898-1.87-4.385-1.886-4.863-1.903-5.334-1.92-5.804-1.935-6.228-1.946-6.606-1.958-6.985-1.968-7.301-1.976-7.554-1.982-7.807-1.986-7.955-1.986-7.998-1.986-8.229-1.962-8.424-1.914-8.581-1.865-8.737-1.771-8.862-1.631-8.957-1.491-9.051-1.294-9.117-1.04-9.155-.787-9.194-.454-9.214-.044-9.214 .202-9.214 .489-9.194 .815-9.155 1.142-9.117 1.479-9.042 1.83-8.932 2.18-8.82 2.524-8.663 2.862-8.458 3.2-8.253 3.503-7.981 3.769-7.645 4.034-7.307 4.249-6.896 4.413-6.411 4.578-5.927 4.66-5.35 4.66-4.679 4.66-4.322 4.632-3.96 4.576-3.591 4.521-3.222 4.426-2.864 4.29-2.517 4.155-2.17 3.973-1.843 3.743-1.537 3.514-1.23 3.227-.965 2.881-.737 2.535-.511 2.126-.332 1.652-.199 1.179-.066 .628 0 0 0M-4.228-9.177C-4.103-9.168-3.992-9.158-3.896-9.148-3.799-9.139-3.71-9.129-3.628-9.119-3.546-9.11-3.466-9.103-3.389-9.098-3.313-9.093-3.23-9.088-3.144-9.083-3.096-7.672-3.053-6.396-3.015-5.253-3-4.767-2.985-4.287-2.968-3.815-2.951-3.344-2.937-2.915-2.922-2.529-2.907-2.144-2.896-1.822-2.89-1.564-2.883-1.307-2.879-1.149-2.879-1.091-2.879-.869-2.894-.691-2.922-.557-2.951-.422-2.994-.316-3.053-.242-3.11-.168-3.184-.113-3.273-.079-3.362-.046-3.467-.02-3.588 0L-3.898 .043V.463C-3.759 .443-3.607 .424-3.443 .405-3.303 .391-3.141 .378-2.955 .369-2.77 .359-2.57 .354-2.358 .354-2.093 .354-1.826 .364-1.559 .383-1.291 .402-1.018 .423-.737 .444-.458 .467-.172 .487 .12 .506 .411 .525 .717 .535 1.035 .535 1.772 .535 2.448 .414 3.061 .174 3.673-.067 4.197-.41 4.634-.854 5.07-1.297 5.409-1.83 5.65-2.451 5.892-3.073 6.013-3.763 6.013-4.52 6.013-4.867 5.975-5.234 5.9-5.623 5.825-6.011 5.702-6.396 5.531-6.78 5.36-7.163 5.134-7.529 4.852-7.879 4.569-8.229 4.224-8.537 3.813-8.805 3.404-9.072 2.922-9.286 2.367-9.444 1.812-9.604 1.177-9.684 .458-9.684 .236-9.684 .011-9.675-.218-9.658-.447-9.642-.679-9.622-.912-9.601-1.146-9.578-1.384-9.559-1.625-9.539-1.865-9.52-2.109-9.51-2.354-9.51-2.586-9.51-2.857-9.514-3.169-9.521-3.479-9.528-3.833-9.554-4.228-9.597Z"/>
<path transform="matrix(1,0,0,-1,320.2383,363.88954)" d="M0 0C-.289 .039-.582 .072-.879 .102-1.175 .131-1.458 .154-1.729 .174-1.998 .193-2.245 .209-2.47 .221-2.693 .232-2.878 .244-3.022 .254-3.042-.324-3.062-.852-3.081-1.328-3.091-1.53-3.098-1.732-3.103-1.935-3.107-2.137-3.113-2.323-3.12-2.494-3.128-2.665-3.133-2.811-3.135-2.931-3.138-3.051-3.139-3.133-3.139-3.176-3.139-3.427-3.104-3.626-3.037-3.775-2.97-3.925-2.867-4.038-2.729-4.115-2.593-4.192-2.423-4.242-2.22-4.267-2.018-4.291-1.781-4.303-1.512-4.303-1.126-4.303-.797-4.278-.524-4.23-.252-4.183-.021-4.093 .17-3.963 .36-3.833 .516-3.653 .637-3.424 .757-3.195 .855-2.899 .933-2.538H1.389C1.369-2.669 1.341-2.833 1.302-3.031 1.264-3.229 1.216-3.438 1.161-3.659 1.105-3.879 1.04-4.098 .966-4.315 .891-4.533 .811-4.727 .724-4.896 .212-4.881-.276-4.86-.741-4.834-1.206-4.808-1.631-4.782-2.014-4.758-2.397-4.734-2.731-4.713-3.016-4.693-3.3-4.674-3.515-4.664-3.659-4.664-3.905-4.664-4.165-4.669-4.44-4.679-4.715-4.688-5.033-4.713-5.395-4.751L-5.38-4.331C-5.255-4.322-5.145-4.312-5.048-4.303-4.951-4.293-4.862-4.283-4.78-4.273-4.698-4.265-4.618-4.257-4.541-4.252-4.465-4.247-4.383-4.242-4.296-4.237-4.247-2.826-4.204-1.55-4.165-.407-4.151 .079-4.136 .56-4.118 1.034-4.102 1.509-4.086 1.938-4.071 2.324-4.057 2.709-4.046 3.032-4.039 3.292-4.031 3.552-4.028 3.711-4.028 3.769-4.028 3.985-4.041 4.16-4.067 4.293-4.095 4.426-4.137 4.529-4.194 4.604-4.252 4.678-4.327 4.732-4.419 4.767-4.51 4.8-4.621 4.826-4.751 4.846L-5.048 4.889V5.309C-4.913 5.289-4.741 5.27-4.534 5.251-4.355 5.236-4.132 5.224-3.861 5.215-3.592 5.205-3.262 5.2-2.871 5.2H-1.128C-.936 5.2-.747 5.201-.563 5.204-.381 5.206-.195 5.211-.007 5.218 .181 5.226 .376 5.236 .579 5.251 .781 5.265 .998 5.284 1.229 5.309L1.005 2.864H.564C.569 2.961 .572 3.036 .575 3.092 .577 3.147 .579 3.19 .579 3.222V3.287 3.319C.579 3.479 .559 3.631 .518 3.775 .477 3.92 .396 4.049 .278 4.162 .16 4.275-.004 4.369-.213 4.444-.423 4.519-.696 4.568-1.034 4.593L-2.813 4.716C-2.852 4.32-2.882 3.919-2.903 3.512-2.925 3.104-2.94 2.729-2.95 2.387L-3.008 .76 .072 .919Z"/>
<path transform="matrix(1,0,0,-1,334.9463,368.1922)" d="M0 0C.097 .01 .186 .02 .268 .029 .35 .038 .43 .046 .507 .051 .584 .056 .666 .061 .753 .065 .776 .706 .8 1.34 .821 1.966 .843 2.592 .863 3.191 .883 3.765 .902 4.338 .921 4.873 .94 5.369 .96 5.865 .977 6.304 .991 6.685 1.006 7.064 1.017 7.378 1.023 7.624 1.031 7.869 1.034 8.028 1.034 8.101 1.034 8.308 1.019 8.477 .987 8.606 .956 8.736 .91 8.839 .851 8.913 .79 8.988 .714 9.041 .622 9.072 .53 9.104 .427 9.129 .312 9.148L-.007 9.191V9.611C.1 9.592 .227 9.572 .376 9.554 .502 9.539 .655 9.526 .836 9.518 1.017 9.508 1.229 9.503 1.476 9.503 1.722 9.503 1.993 9.511 2.289 9.528 2.586 9.545 2.912 9.572 3.27 9.611V9.191C3.144 9.182 3.033 9.173 2.937 9.163 2.84 9.153 2.752 9.145 2.673 9.138 2.593 9.13 2.515 9.124 2.438 9.119 2.36 9.114 2.278 9.109 2.191 9.105 2.167 8.464 2.145 7.829 2.123 7.201 2.102 6.572 2.079 5.973 2.058 5.401 2.036 4.831 2.017 4.296 2 3.798 1.983 3.299 1.968 2.859 1.953 2.479 1.938 2.099 1.928 1.785 1.921 1.539 1.913 1.294 1.909 1.137 1.909 1.069 1.909 .857 1.925 .687 1.957 .557 1.988 .427 2.033 .324 2.094 .249 2.154 .175 2.23 .12 2.322 .087 2.413 .053 2.517 .029 2.633 .015L2.943-.028V-.448C2.838-.434 2.71-.417 2.561-.397 2.435-.388 2.281-.377 2.098-.365 1.914-.354 1.702-.347 1.461-.347 1.215-.347 .945-.354 .651-.369 .357-.383 .029-.41-.332-.448V-.028C-.207-.02-.096-.01 0 0"/>
<path transform="matrix(1,0,0,-1,354.3457,366.8114)" d="M0 0C.005-.285 .021-.511 .051-.68 .079-.849 .123-.98 .181-1.077 .238-1.174 .312-1.241 .401-1.279 .49-1.318 .603-1.347 .737-1.366L1.049-1.409V-1.829C.942-1.814 .814-1.798 .665-1.778 .54-1.769 .386-1.758 .202-1.746 .019-1.734-.195-1.728-.439-1.728-.688-1.728-.961-1.735-1.257-1.75-1.552-1.764-1.881-1.791-2.242-1.829V-1.409C-2.117-1.4-2.006-1.391-1.909-1.381-1.813-1.371-1.724-1.361-1.642-1.352-1.56-1.343-1.48-1.335-1.403-1.33-1.326-1.325-1.244-1.32-1.157-1.315L-1.187 6.097H-1.323L-5.005-1.432H-5.345L-8.578 6.126H-8.701L-9.142 .562C-9.151 .49-9.158 .407-9.163 .313-9.168 .22-9.174 .126-9.181 .031-9.188-.062-9.193-.15-9.195-.232-9.198-.313-9.199-.379-9.199-.427-9.199-.615-9.183-.766-9.148-.879-9.115-.992-9.067-1.082-9.008-1.149-8.947-1.217-8.872-1.267-8.783-1.298-8.694-1.329-8.592-1.352-8.476-1.366L-8.165-1.409V-1.829C-8.242-1.814-8.344-1.798-8.469-1.778-8.575-1.769-8.707-1.758-8.866-1.746-9.025-1.734-9.217-1.728-9.441-1.728-9.667-1.728-9.922-1.735-10.205-1.75-10.489-1.764-10.812-1.791-11.174-1.829V-1.409C-11.048-1.4-10.938-1.391-10.841-1.381-10.744-1.371-10.655-1.361-10.573-1.352-10.491-1.342-10.412-1.335-10.334-1.33-10.258-1.325-10.176-1.32-10.089-1.315L-9.038 8.194-8.351 8.433-4.853 .362H-4.751L-.935 8.273-.21 8.418Z"/>
<path transform="matrix(1,0,0,-1,365.2686,357.1346)" d="M0 0 2.474 2.177C2.569 2.013 2.678 1.857 2.799 1.71 2.919 1.563 3.047 1.435 3.182 1.323L.268-.325ZM-2.979-6.364C-2.979-6.991-2.895-7.594-2.723-8.172-2.552-8.751-2.304-9.263-1.978-9.709-1.652-10.154-1.254-10.512-.781-10.779-.309-11.047 .229-11.181 .832-11.181 1.41-11.181 1.92-11.064 2.361-10.833 2.802-10.602 3.17-10.285 3.464-9.882 3.758-9.479 3.979-9.01 4.129-8.472 4.278-7.935 4.354-7.357 4.354-6.74 4.354-6.046 4.266-5.396 4.09-4.791 3.913-4.187 3.666-3.659 3.349-3.211 3.03-2.763 2.65-2.411 2.209-2.155 1.769-1.899 1.285-1.771 .759-1.771 .484-1.771 .202-1.802-.087-1.862-.376-1.923-.659-2.023-.937-2.166-1.214-2.309-1.477-2.495-1.725-2.727-1.974-2.958-2.19-3.243-2.376-3.583-2.562-3.923-2.708-4.322-2.816-4.78-2.926-5.238-2.979-5.767-2.979-6.364M-4.311-6.516C-4.311-5.759-4.181-5.058-3.92-4.411-3.66-3.766-3.295-3.209-2.822-2.741-2.351-2.273-1.784-1.907-1.122-1.642-.46-1.377 .272-1.244 1.077-1.244 1.568-1.244 2.022-1.311 2.441-1.442 2.86-1.575 3.241-1.759 3.583-1.992 3.925-2.227 4.228-2.502 4.492-2.82 4.757-3.139 4.98-3.482 5.16-3.851 5.341-4.22 5.478-4.609 5.568-5.019 5.66-5.429 5.706-5.839 5.706-6.248 5.706-7.054 5.576-7.79 5.315-8.458 5.056-9.125 4.702-9.701 4.254-10.187 3.807-10.671 3.286-11.047 2.694-11.314 2.103-11.582 1.474-11.716 .81-11.716 .237-11.716-.287-11.646-.761-11.51-1.235-11.372-1.662-11.182-2.043-10.938-2.423-10.694-2.755-10.408-3.039-10.077-3.323-9.747-3.56-9.39-3.747-9.004-3.935-8.618-4.075-8.214-4.17-7.792-4.264-7.37-4.311-6.945-4.311-6.516"/>
<path transform="matrix(1,0,0,-1,381.0586,367.29585)" d="M0 0H.094L2.668 6.893C2.765 7.139 2.836 7.341 2.882 7.5 2.927 7.659 2.95 7.791 2.95 7.897 2.95 8.018 2.915 8.102 2.846 8.147 2.775 8.192 2.671 8.228 2.53 8.252L2.22 8.295V8.715C2.297 8.695 2.396 8.676 2.517 8.657 2.617 8.643 2.747 8.63 2.905 8.621 3.063 8.611 3.255 8.606 3.479 8.606 3.697 8.606 3.947 8.614 4.229 8.632 4.509 8.648 4.828 8.676 5.185 8.715V8.295C5.06 8.285 4.948 8.276 4.853 8.267 4.756 8.257 4.668 8.248 4.588 8.241 4.509 8.233 4.43 8.228 4.354 8.223 4.276 8.218 4.194 8.213 4.107 8.209L.021-1.446-.557-1.569-3.509 6.893C-3.61 7.177-3.708 7.404-3.802 7.576-3.896 7.747-3.993 7.88-4.094 7.974-4.195 8.067-4.303 8.133-4.415 8.169-4.529 8.205-4.65 8.232-4.78 8.252L-5.092 8.295V8.715C-4.967 8.695-4.821 8.676-4.658 8.657-4.518 8.643-4.347 8.63-4.145 8.621-3.941 8.611-3.71 8.606-3.45 8.606-3.189 8.606-2.905 8.614-2.597 8.632-2.288 8.648-1.955 8.676-1.599 8.715V8.295C-1.725 8.285-1.835 8.276-1.932 8.267-2.028 8.257-2.116 8.248-2.195 8.241-2.274 8.233-2.354 8.228-2.431 8.223-2.508 8.218-2.59 8.213-2.676 8.209Z"/>
<path transform="matrix(1,0,0,-1,396.0957,363.88954)" d="M0 0C-.289 .039-.582 .072-.879 .102-1.175 .131-1.458 .154-1.729 .174-1.998 .193-2.245 .209-2.47 .221-2.693 .232-2.878 .244-3.022 .254-3.042-.324-3.062-.852-3.081-1.328-3.091-1.53-3.098-1.732-3.103-1.935-3.107-2.137-3.113-2.323-3.12-2.494-3.128-2.665-3.133-2.811-3.135-2.931-3.138-3.051-3.139-3.133-3.139-3.176-3.139-3.427-3.104-3.626-3.037-3.775-2.97-3.925-2.867-4.038-2.729-4.115-2.593-4.192-2.423-4.242-2.22-4.267-2.018-4.291-1.781-4.303-1.512-4.303-1.126-4.303-.797-4.278-.524-4.23-.252-4.183-.021-4.093 .17-3.963 .36-3.833 .516-3.653 .637-3.424 .757-3.195 .855-2.899 .933-2.538H1.389C1.369-2.669 1.341-2.833 1.302-3.031 1.264-3.229 1.216-3.438 1.161-3.659 1.105-3.879 1.04-4.098 .966-4.315 .891-4.533 .811-4.727 .724-4.896 .212-4.881-.276-4.86-.741-4.834-1.206-4.808-1.631-4.782-2.014-4.758-2.397-4.734-2.731-4.713-3.016-4.693-3.3-4.674-3.515-4.664-3.659-4.664-3.905-4.664-4.165-4.669-4.44-4.679-4.715-4.688-5.033-4.713-5.395-4.751L-5.38-4.331C-5.255-4.322-5.145-4.312-5.048-4.303-4.951-4.293-4.862-4.283-4.78-4.273-4.698-4.265-4.618-4.257-4.541-4.252-4.465-4.247-4.383-4.242-4.296-4.237-4.247-2.826-4.204-1.55-4.165-.407-4.151 .079-4.136 .56-4.118 1.034-4.102 1.509-4.086 1.938-4.071 2.324-4.057 2.709-4.046 3.032-4.039 3.292-4.031 3.552-4.028 3.711-4.028 3.769-4.028 3.985-4.041 4.16-4.067 4.293-4.095 4.426-4.137 4.529-4.194 4.604-4.252 4.678-4.327 4.732-4.419 4.767-4.51 4.8-4.621 4.826-4.751 4.846L-5.048 4.889V5.309C-4.913 5.289-4.741 5.27-4.534 5.251-4.355 5.236-4.132 5.224-3.861 5.215-3.592 5.205-3.262 5.2-2.871 5.2H-1.128C-.936 5.2-.747 5.201-.563 5.204-.381 5.206-.195 5.211-.007 5.218 .181 5.226 .376 5.236 .579 5.251 .781 5.265 .998 5.284 1.229 5.309L1.005 2.864H.564C.569 2.961 .572 3.036 .575 3.092 .577 3.147 .579 3.19 .579 3.222V3.287 3.319C.579 3.479 .559 3.631 .518 3.775 .477 3.92 .396 4.049 .278 4.162 .16 4.275-.004 4.369-.213 4.444-.423 4.519-.696 4.568-1.034 4.593L-2.813 4.716C-2.852 4.32-2.882 3.919-2.903 3.512-2.925 3.104-2.94 2.729-2.95 2.387L-3.008 .76 .072 .919Z"/>
<path transform="matrix(1,0,0,-1,403.1494,368.1922)" d="M0 0C.097 .01 .186 .02 .268 .029 .35 .038 .43 .046 .507 .051 .584 .056 .666 .061 .753 .065 .776 .706 .8 1.34 .821 1.966 .843 2.592 .863 3.191 .883 3.765 .902 4.338 .921 4.873 .94 5.369 .96 5.865 .977 6.304 .991 6.685 1.006 7.064 1.017 7.378 1.023 7.624 1.031 7.869 1.034 8.028 1.034 8.101 1.034 8.308 1.019 8.477 .987 8.606 .956 8.736 .91 8.839 .851 8.913 .79 8.988 .714 9.041 .622 9.072 .53 9.104 .427 9.129 .312 9.148L-.007 9.191V9.611C.1 9.592 .227 9.572 .376 9.554 .502 9.539 .655 9.526 .836 9.518 1.017 9.508 1.229 9.503 1.476 9.503 1.722 9.503 1.993 9.511 2.289 9.528 2.586 9.545 2.912 9.572 3.27 9.611V9.191C3.144 9.182 3.033 9.173 2.937 9.163 2.84 9.153 2.752 9.145 2.673 9.138 2.593 9.13 2.515 9.124 2.438 9.119 2.36 9.114 2.278 9.109 2.191 9.105 2.167 8.464 2.145 7.829 2.123 7.201 2.102 6.572 2.079 5.973 2.058 5.401 2.036 4.831 2.017 4.296 2 3.798 1.983 3.299 1.968 2.859 1.953 2.479 1.938 2.099 1.928 1.785 1.921 1.539 1.913 1.294 1.909 1.137 1.909 1.069 1.909 .857 1.925 .687 1.957 .557 1.988 .427 2.033 .324 2.094 .249 2.154 .175 2.23 .12 2.322 .087 2.413 .053 2.517 .029 2.633 .015L2.943-.028V-.448C2.838-.434 2.71-.417 2.561-.397 2.435-.388 2.281-.377 2.098-.365 1.914-.354 1.702-.347 1.461-.347 1.215-.347 .945-.354 .651-.369 .357-.383 .029-.41-.332-.448V-.028C-.207-.02-.096-.01 0 0"/>
<path transform="matrix(1,0,0,-1,414.5361,368.3153)" d="M0 0C.289 0 .561 .045 .813 .134 1.066 .224 1.287 .353 1.475 .521 1.663 .689 1.812 .896 1.92 1.14 2.028 1.383 2.082 1.659 2.082 1.968 2.082 2.262 2.014 2.53 1.876 2.773 1.739 3.017 1.565 3.242 1.355 3.45 1.146 3.657 .918 3.853 .672 4.035 .427 4.219 .192 4.399-.029 4.578-.241 4.742-.476 4.922-.73 5.117-.986 5.312-1.227 5.527-1.45 5.764-1.675 6-1.862 6.261-2.015 6.545-2.166 6.829-2.242 7.146-2.242 7.492-2.242 7.666-2.226 7.848-2.191 8.038-2.158 8.229-2.1 8.414-2.015 8.596-1.931 8.776-1.82 8.947-1.684 9.108-1.546 9.271-1.375 9.412-1.168 9.535-.961 9.658-.719 9.756-.439 9.828-.16 9.9 .164 9.937 .534 9.937 1.005 9.937 1.46 9.899 1.897 9.824 2.335 9.75 2.712 9.664 3.029 9.568L2.871 7.392H2.458V7.586C2.458 7.77 2.439 7.969 2.4 8.183 2.362 8.397 2.277 8.596 2.147 8.776 2.018 8.957 1.828 9.107 1.58 9.229 1.331 9.349 .998 9.409 .578 9.409 .327 9.409 .1 9.374-.105 9.304-.311 9.234-.485 9.135-.63 9.008-.774 8.88-.887 8.725-.966 8.541-1.045 8.357-1.085 8.153-1.085 7.927-1.085 7.627-1.026 7.363-.908 7.135-.79 6.905-.638 6.699-.452 6.516-.267 6.333-.061 6.163 .166 6.006 .393 5.85 .612 5.694 .824 5.54 1.143 5.309 1.447 5.078 1.739 4.85 2.03 4.62 2.287 4.379 2.509 4.126 2.73 3.873 2.908 3.602 3.041 3.313 3.173 3.023 3.239 2.705 3.239 2.357 3.239 1.953 3.148 1.574 2.966 1.223 2.782 .87 2.538 .564 2.233 .304 1.928 .044 1.578-.161 1.184-.311 .789-.46 .383-.535-.035-.535-.545-.535-1.031-.494-1.493-.412-1.954-.33-2.356-.236-2.698-.13L-2.524 2.162H-2.076V1.909C-2.076 1.707-2.052 1.493-2.004 1.27-1.955 1.045-1.857 .839-1.711 .651-1.563 .463-1.354 .308-1.081 .185-.81 .062-.448 0 0 0"/>
<path transform="matrix(1,0,0,-1,156.6416,358.90614)" d="M0 0C-.603 0-1.183-.1-1.739-.297-2.296-.495-2.788-.786-3.215-1.17-3.641-1.554-3.982-2.027-4.237-2.59-4.493-3.152-4.621-3.798-4.621-4.527-4.621-5.073-4.554-5.57-4.419-6.02-4.283-6.469-4.101-6.872-3.869-7.229-3.638-7.586-3.366-7.897-3.056-8.163-2.744-8.429-2.412-8.649-2.058-8.826-1.703-9.002-1.337-9.134-.958-9.221-.58-9.308-.207-9.352 .159-9.352 .391-9.352 .603-9.344 .796-9.329 .988-9.314 1.183-9.29 1.378-9.254 1.573-9.218 1.776-9.169 1.989-9.108 2.201-9.049 2.439-8.975 2.705-8.889L2.842-9.302C2.587-9.426 2.313-9.528 2.021-9.608 1.729-9.689 1.441-9.755 1.157-9.805 .873-9.854 .6-9.891 .336-9.912 .073-9.934-.159-9.944-.361-9.944-.887-9.944-1.391-9.888-1.873-9.774-2.355-9.661-2.804-9.501-3.218-9.293-3.633-9.086-4.01-8.833-4.35-8.534-4.689-8.235-4.98-7.898-5.222-7.525-5.462-7.151-5.647-6.746-5.778-6.311-5.908-5.874-5.974-5.41-5.974-4.918-5.974-4.388-5.908-3.885-5.778-3.41-5.647-2.936-5.461-2.496-5.218-2.094-4.975-1.691-4.678-1.327-4.328-1.002-3.979-.677-3.586-.4-3.149-.174-2.713 .053-2.238 .227-1.725 .347-1.211 .467-.668 .527-.094 .527 .634 .527 1.269 .485 1.808 .401 2.348 .316 2.825 .222 3.24 .115L3.03-2.3H2.589V-2.185C2.589-1.938 2.559-1.687 2.499-1.429 2.438-1.171 2.316-.936 2.134-.724 1.95-.512 1.688-.338 1.349-.203 1.009-.068 .56 0 0 0" fill="#834b4b"/>
<path transform="matrix(1,0,0,-1,166.5166,363.4989)" d="M0 0C0-.627 .085-1.229 .257-1.808 .428-2.387 .676-2.898 1.002-3.345 1.327-3.79 1.726-4.147 2.198-4.415 2.671-4.683 3.208-4.816 3.812-4.816 4.39-4.816 4.899-4.7 5.341-4.469 5.781-4.237 6.149-3.921 6.443-3.518 6.737-3.115 6.959-2.646 7.108-2.107 7.258-1.57 7.333-.993 7.333-.376 7.333 .318 7.245 .968 7.069 1.573 6.893 2.178 6.646 2.705 6.328 3.153 6.01 3.602 5.63 3.953 5.188 4.209 4.748 4.465 4.265 4.593 3.738 4.593 3.464 4.593 3.182 4.562 2.893 4.502 2.604 4.441 2.32 4.341 2.043 4.198 1.766 4.056 1.503 3.869 1.255 3.638 1.006 3.406 .789 3.121 .604 2.781 .418 2.441 .271 2.042 .163 1.584 .054 1.126 0 .598 0 0M-1.331-.151C-1.331 .605-1.201 1.307-.94 1.953-.681 2.599-.315 3.155 .157 3.623 .629 4.091 1.195 4.457 1.857 4.723 2.52 4.987 3.252 5.12 4.057 5.12 4.548 5.12 5.002 5.054 5.421 4.922 5.84 4.789 6.221 4.605 6.562 4.372 6.904 4.138 7.207 3.862 7.472 3.544 7.736 3.226 7.96 2.882 8.14 2.514 8.32 2.145 8.457 1.755 8.548 1.346 8.64 .936 8.686 .525 8.686 .116 8.686-.689 8.556-1.426 8.295-2.094 8.035-2.761 7.682-3.337 7.233-3.822 6.786-4.307 6.266-4.683 5.674-4.95 5.082-5.218 4.453-5.352 3.789-5.352 3.217-5.352 2.692-5.282 2.219-5.146 1.744-5.008 1.317-4.817 .937-4.574 .557-4.33 .225-4.044-.06-3.713-.344-3.383-.58-3.025-.768-2.64-.955-2.254-1.096-1.85-1.19-1.428-1.284-1.006-1.331-.581-1.331-.151" fill="#834b4b"/>
<path transform="matrix(1,0,0,-1,180.8809,368.1922)" d="M0 0C.097 .01 .186 .02 .268 .029 .35 .039 .43 .046 .507 .051 .584 .056 .666 .061 .752 .065L.94 5.644C.955 5.986 .963 6.312 .966 6.619 .968 6.928 .97 7.225 .97 7.509 .97 7.961 .963 8.364 .951 8.719 .939 9.073 .926 9.37 .911 9.611L1.505 9.828 8.599 1.31C8.613 1.729 8.629 2.18 8.646 2.661 8.663 3.144 8.679 3.624 8.693 4.104 8.707 4.584 8.722 5.048 8.736 5.496 8.751 5.944 8.763 6.351 8.772 6.715 8.782 7.079 8.791 7.383 8.798 7.626 8.805 7.869 8.809 8.027 8.809 8.1 8.809 8.307 8.794 8.476 8.766 8.606 8.736 8.736 8.691 8.839 8.632 8.913 8.571 8.988 8.496 9.041 8.407 9.072 8.318 9.104 8.216 9.129 8.1 9.148L7.789 9.191V9.611C7.856 9.592 7.948 9.572 8.063 9.554 8.16 9.539 8.283 9.526 8.433 9.518 8.582 9.508 8.766 9.503 8.982 9.503 9.199 9.503 9.446 9.511 9.724 9.528 10.001 9.545 10.317 9.572 10.675 9.611V9.191C10.549 9.182 10.438 9.173 10.342 9.163 10.245 9.153 10.157 9.145 10.078 9.138 9.998 9.13 9.92 9.124 9.843 9.119 9.766 9.114 9.682 9.109 9.59 9.105L9.431 4.455C9.426 4.325 9.421 4.151 9.416 3.935 9.411 3.717 9.405 3.489 9.398 3.251 9.391 3.012 9.385 2.774 9.38 2.538 9.375 2.302 9.373 2.103 9.373 1.938V1.327C9.373 1.137 9.374 .947 9.376 .76 9.379 .571 9.384 .38 9.391 .185 9.398-.011 9.406-.222 9.416-.448L8.794-.658 1.7 7.76C1.69 7.351 1.68 6.911 1.667 6.441 1.655 5.972 1.644 5.5 1.631 5.025 1.619 4.551 1.606 4.091 1.595 3.646 1.583 3.199 1.572 2.798 1.562 2.438 1.553 2.08 1.546 1.778 1.541 1.535 1.536 1.292 1.533 1.137 1.533 1.069 1.533 .857 1.548 .687 1.577 .56 1.605 .433 1.649 .331 1.707 .257 1.765 .182 1.838 .128 1.928 .094 2.017 .061 2.124 .034 2.249 .015L2.561-.028V-.448C2.488-.434 2.395-.417 2.278-.397 2.182-.388 2.059-.377 1.909-.365 1.76-.354 1.577-.347 1.36-.347 1.143-.347 .897-.354 .622-.369 .348-.383 .029-.41-.332-.448V-.028C-.207-.02-.096-.01 0 0" fill="#834b4b"/>
<path transform="matrix(1,0,0,-1,199.5859,368.3153)" d="M0 0C.289 0 .561 .045 .813 .134 1.066 .224 1.287 .353 1.475 .521 1.663 .689 1.812 .896 1.92 1.14 2.028 1.383 2.082 1.659 2.082 1.968 2.082 2.262 2.014 2.53 1.876 2.773 1.739 3.017 1.565 3.242 1.355 3.45 1.146 3.657 .918 3.853 .672 4.035 .427 4.219 .192 4.399-.029 4.578-.241 4.742-.476 4.922-.73 5.117-.986 5.312-1.227 5.527-1.45 5.764-1.675 6-1.862 6.261-2.015 6.545-2.166 6.829-2.242 7.146-2.242 7.492-2.242 7.666-2.226 7.848-2.191 8.038-2.158 8.229-2.1 8.414-2.015 8.596-1.931 8.776-1.82 8.947-1.684 9.108-1.546 9.271-1.375 9.412-1.168 9.535-.961 9.658-.719 9.756-.439 9.828-.16 9.9 .164 9.937 .534 9.937 1.005 9.937 1.46 9.899 1.897 9.824 2.335 9.75 2.712 9.664 3.029 9.568L2.871 7.392H2.458V7.586C2.458 7.77 2.439 7.969 2.4 8.183 2.362 8.397 2.277 8.596 2.147 8.776 2.018 8.957 1.828 9.107 1.58 9.229 1.331 9.349 .998 9.409 .578 9.409 .327 9.409 .1 9.374-.105 9.304-.311 9.234-.485 9.135-.63 9.008-.774 8.88-.887 8.725-.966 8.541-1.045 8.357-1.085 8.153-1.085 7.927-1.085 7.627-1.026 7.363-.908 7.135-.79 6.905-.638 6.699-.452 6.516-.267 6.333-.061 6.163 .166 6.006 .393 5.85 .612 5.694 .824 5.54 1.143 5.309 1.447 5.078 1.739 4.85 2.03 4.62 2.287 4.379 2.509 4.126 2.73 3.873 2.908 3.602 3.041 3.313 3.173 3.023 3.239 2.705 3.239 2.357 3.239 1.953 3.148 1.574 2.966 1.223 2.782 .87 2.538 .564 2.233 .304 1.928 .044 1.578-.161 1.184-.311 .789-.46 .383-.535-.035-.535-.545-.535-1.031-.494-1.493-.412-1.954-.33-2.356-.236-2.698-.13L-2.524 2.162H-2.076V1.909C-2.076 1.707-2.052 1.493-2.004 1.27-1.955 1.045-1.857 .839-1.711 .651-1.563 .463-1.354 .308-1.081 .185-.81 .062-.448 0 0 0" fill="#834b4b"/>
<path transform="matrix(1,0,0,-1,208.9902,358.63853)" d="M0 0C.125-.015 .278-.027 .459-.036 .64-.046 .854-.051 1.1-.051 1.346-.051 1.615-.043 1.909-.025 2.203-.009 2.528 .019 2.886 .058V-.362C2.76-.372 2.65-.381 2.557-.391 2.463-.4 2.374-.409 2.293-.416 2.211-.424 2.131-.43 2.054-.435 1.977-.439 1.895-.444 1.808-.448 1.774-1.302 1.747-2.039 1.725-2.658 1.703-3.277 1.684-3.806 1.667-4.242 1.65-4.678 1.637-5.036 1.627-5.315 1.617-5.596 1.611-5.821 1.609-5.992 1.606-6.163 1.604-6.293 1.602-6.383 1.6-6.472 1.599-6.543 1.599-6.596 1.599-7.589 1.836-8.336 2.311-8.838 2.785-9.339 3.531-9.59 4.549-9.59 5.537-9.59 6.292-9.306 6.812-8.736 7.333-8.168 7.615-7.3 7.658-6.133 7.712-4.773 7.751-3.707 7.778-2.933 7.805-2.159 7.817-1.666 7.817-1.454 7.817-1.247 7.804-1.078 7.774-.947 7.745-.817 7.702-.715 7.645-.641 7.586-.565 7.513-.513 7.424-.481 7.334-.45 7.229-.425 7.109-.405L6.798-.362V.058C6.89 .038 7.003 .019 7.138 0 7.254-.015 7.397-.027 7.568-.036 7.739-.046 7.943-.051 8.18-.051 8.411-.051 8.67-.043 8.957-.025 9.243-.009 9.565 .019 9.922 .058V-.362C9.797-.372 9.688-.381 9.593-.391 9.499-.4 9.411-.409 9.329-.416 9.247-.424 9.168-.43 9.091-.435 9.014-.439 8.932-.444 8.845-.448L8.353-6.241C8.295-6.883 8.175-7.45 7.991-7.944 7.808-8.438 7.556-8.854 7.235-9.188 6.915-9.523 6.521-9.777 6.057-9.951 5.592-10.125 5.053-10.212 4.44-10.212 3.838-10.212 3.291-10.149 2.799-10.023 2.307-9.898 1.888-9.707 1.54-9.448 1.193-9.19 .925-8.868 .734-8.479 .544-8.092 .448-7.633 .448-7.102 .448-7.001 .451-6.848 .456-6.643 .461-6.437 .468-6.201 .478-5.934 .487-5.666 .498-5.377 .51-5.066 .521-4.755 .535-4.443 .55-4.13 .564-3.816 .577-3.511 .59-3.211 .602-2.912 .612-2.642 .622-2.397 .632-2.154 .639-1.949 .644-1.783 .648-1.616 .651-1.507 .651-1.454 .651-1.247 .636-1.078 .604-.947 .572-.817 .526-.715 .467-.641 .406-.565 .33-.513 .238-.481 .147-.45 .044-.425-.072-.405L-.383-.362V.058C-.277 .038-.149 .019 0 0" fill="#834b4b"/>
<path transform="matrix(1,0,0,-1,224.8809,368.12684)" d="M0 0C.024 .641 .047 1.274 .069 1.9 .091 2.526 .112 3.126 .134 3.699 .156 4.272 .174 4.808 .188 5.304 .203 5.8 .216 6.238 .229 6.619 .24 6.999 .25 7.312 .257 7.559 .265 7.804 .268 7.963 .268 8.035 .268 8.242 .254 8.411 .225 8.541 .195 8.671 .152 8.773 .095 8.848 .036 8.923-.037 8.976-.126 9.007-.216 9.038-.32 9.063-.44 9.083L-.752 9.126V9.546C-.646 9.526-.521 9.507-.376 9.488-.25 9.474-.098 9.461 .084 9.452 .265 9.442 .478 9.438 .724 9.438 .97 9.438 1.24 9.445 1.537 9.463 1.834 9.479 2.16 9.507 2.517 9.546V9.126C2.392 9.116 2.282 9.107 2.188 9.098 2.094 9.088 2.006 9.079 1.924 9.072 1.842 9.064 1.763 9.059 1.686 9.054 1.608 9.049 1.526 9.044 1.439 9.04 1.415 8.398 1.393 7.764 1.371 7.136 1.349 6.507 1.327 5.907 1.306 5.336 1.284 4.766 1.265 4.23 1.248 3.732 1.23 3.233 1.215 2.794 1.201 2.413 1.187 2.033 1.176 1.72 1.168 1.474 1.161 1.229 1.157 1.071 1.157 1.004 1.157 .772 1.198 .587 1.28 .447 1.362 .308 1.48 .201 1.635 .126 1.789 .052 1.975 .001 2.191-.025 2.408-.052 2.654-.065 2.93-.065 3.314-.065 3.644-.034 3.916 .028 4.188 .092 4.42 .195 4.61 .34 4.801 .484 4.956 .677 5.077 .918 5.197 1.159 5.297 1.461 5.374 1.822H5.836C5.817 1.691 5.788 1.521 5.75 1.311 5.711 1.101 5.664 .878 5.608 .644 5.553 .409 5.488 .176 5.413-.057 5.339-.288 5.258-.489 5.171-.658 4.66-.644 4.163-.623 3.682-.597 3.199-.57 2.757-.545 2.354-.521 1.952-.497 1.601-.476 1.302-.456 1.003-.437 .781-.427 .637-.427 .391-.427 .131-.432-.145-.441-.419-.451-.737-.476-1.099-.514L-1.084-.094C-.959-.085-.849-.075-.752-.065-.655-.056-.566-.046-.484-.036-.402-.027-.322-.02-.245-.015-.169-.01-.087-.005 0 0" fill="#834b4b"/>
<path transform="matrix(1,0,0,-1,239.2715,359.08683)" d="M0 0C-.274 .009-.523 .017-.747 .021-.972 .026-1.15 .028-1.285 .028-1.555 .028-1.794 .008-2.001-.033-2.208-.074-2.392-.159-2.553-.29-2.715-.42-2.855-.608-2.976-.854-3.096-1.1-3.204-1.428-3.301-1.837H-3.728L-3.432 .593C-2.883 .549-2.412 .523-2.02 .517-1.628 .51-1.28 .506-.977 .506-.322 .506 .302 .507 .896 .51 1.491 .512 2.036 .517 2.531 .523 3.027 .531 3.467 .541 3.85 .553 4.231 .564 4.539 .583 4.771 .607L4.553-1.837H4.104C4.104-1.784 4.107-1.716 4.112-1.631 4.116-1.547 4.119-1.479 4.119-1.425 4.119-1.266 4.103-1.111 4.068-.962 4.035-.812 3.963-.679 3.852-.561 3.74-.442 3.58-.344 3.371-.265 3.161-.185 2.878-.136 2.521-.116L1.104-.044C1.079-.68 1.057-1.309 1.035-1.93 1.013-2.552 .994-3.146 .977-3.715 .96-4.283 .943-4.815 .927-5.312 .909-5.808 .896-6.246 .887-6.627 .877-7.008 .868-7.32 .861-7.566 .854-7.812 .851-7.969 .851-8.036 .851-8.248 .866-8.419 .897-8.549 .929-8.679 .975-8.781 1.035-8.856 1.095-8.931 1.169-8.985 1.255-9.019 1.342-9.053 1.443-9.076 1.56-9.091L1.87-9.134V-9.554C1.764-9.539 1.636-9.522 1.486-9.503 1.361-9.493 1.207-9.482 1.024-9.471 .842-9.459 .631-9.452 .394-9.452 .15-9.452-.117-9.46-.41-9.475-.703-9.488-1.03-9.516-1.392-9.554V-9.134C-1.267-9.125-1.155-9.115-1.059-9.105-.963-9.096-.873-9.086-.791-9.076-.709-9.067-.63-9.06-.553-9.055-.476-9.05-.394-9.045-.307-9.04Z" fill="#834b4b"/>
<path transform="matrix(1,0,0,-1,250.4229,363.4989)" d="M0 0C0-.627 .085-1.229 .257-1.808 .428-2.387 .676-2.898 1.002-3.345 1.327-3.79 1.726-4.147 2.198-4.415 2.671-4.683 3.208-4.816 3.812-4.816 4.39-4.816 4.899-4.7 5.341-4.469 5.781-4.237 6.149-3.921 6.443-3.518 6.737-3.115 6.959-2.646 7.108-2.107 7.258-1.57 7.333-.993 7.333-.376 7.333 .318 7.245 .968 7.069 1.573 6.893 2.178 6.646 2.705 6.328 3.153 6.01 3.602 5.63 3.953 5.188 4.209 4.748 4.465 4.265 4.593 3.738 4.593 3.464 4.593 3.182 4.562 2.893 4.502 2.604 4.441 2.32 4.341 2.043 4.198 1.766 4.056 1.503 3.869 1.255 3.638 1.006 3.406 .789 3.121 .604 2.781 .418 2.441 .271 2.042 .163 1.584 .054 1.126 0 .598 0 0M-1.331-.151C-1.331 .605-1.201 1.307-.94 1.953-.681 2.599-.315 3.155 .157 3.623 .629 4.091 1.195 4.457 1.857 4.723 2.52 4.987 3.252 5.12 4.057 5.12 4.548 5.12 5.002 5.054 5.421 4.922 5.84 4.789 6.221 4.605 6.562 4.372 6.904 4.138 7.207 3.862 7.472 3.544 7.736 3.226 7.96 2.882 8.14 2.514 8.32 2.145 8.457 1.755 8.548 1.346 8.64 .936 8.686 .525 8.686 .116 8.686-.689 8.556-1.426 8.295-2.094 8.035-2.761 7.682-3.337 7.233-3.822 6.786-4.307 6.266-4.683 5.674-4.95 5.082-5.218 4.453-5.352 3.789-5.352 3.217-5.352 2.692-5.282 2.219-5.146 1.744-5.008 1.317-4.817 .937-4.574 .557-4.33 .225-4.044-.06-3.713-.344-3.383-.58-3.025-.768-2.64-.955-2.254-1.096-1.85-1.19-1.428-1.284-1.006-1.331-.581-1.331-.151" fill="#834b4b"/>
<path transform="matrix(1,0,0,-1,266.8848,363.55653)" d="M0 0H.412C1.015 0 1.514 .071 1.909 .213 2.305 .354 2.618 .541 2.85 .772 3.081 1.004 3.243 1.269 3.337 1.566 3.432 1.865 3.479 2.173 3.479 2.491 3.479 2.645 3.463 2.803 3.432 2.964 3.4 3.125 3.347 3.283 3.272 3.437 3.197 3.591 3.099 3.736 2.976 3.874 2.853 4.011 2.703 4.131 2.527 4.234 2.352 4.338 2.145 4.42 1.905 4.48 1.667 4.54 1.394 4.57 1.085 4.57 .911 4.57 .754 4.565 .614 4.556 .475 4.546 .32 4.527 .151 4.498ZM-2.357-4.664C-2.232-4.655-2.121-4.646-2.025-4.636-1.929-4.626-1.84-4.616-1.758-4.606-1.676-4.598-1.596-4.59-1.519-4.585-1.441-4.58-1.359-4.575-1.272-4.57-1.249-3.93-1.226-3.296-1.204-2.67-1.183-2.044-1.162-1.444-1.143-.871-1.123-.298-1.104 .237-1.085 .733-1.065 1.229-1.049 1.668-1.034 2.049-1.02 2.429-1.009 2.742-1.002 2.988-.994 3.233-.991 3.393-.991 3.465-.991 3.672-1.005 3.841-1.034 3.971-1.063 4.101-1.107 4.203-1.168 4.277-1.229 4.353-1.305 4.405-1.396 4.437-1.487 4.468-1.594 4.493-1.714 4.513L-2.032 4.556V4.976C-1.897 4.956-1.753 4.937-1.599 4.918-1.468 4.903-1.32 4.891-1.153 4.882-.987 4.872-.814 4.867-.637 4.867-.473 4.867-.316 4.877-.166 4.896-.017 4.915 .138 4.936 .297 4.957 .455 4.979 .624 5 .803 5.019 .98 5.038 1.179 5.048 1.396 5.048 1.975 5.048 2.469 4.977 2.878 4.835 3.288 4.692 3.623 4.502 3.884 4.264 4.144 4.025 4.334 3.753 4.455 3.447 4.575 3.141 4.636 2.826 4.636 2.504 4.636 2.061 4.555 1.68 4.394 1.362 4.231 1.044 4.034 .775 3.8 .557 3.566 .337 3.318 .161 3.056 .028 2.793-.104 2.56-.201 2.357-.264 2.724-.925 3.098-1.548 3.479-2.131 3.859-2.715 4.234-3.227 4.603-3.665 4.972-4.104 5.328-4.45 5.673-4.704 6.018-4.957 6.34-5.084 6.639-5.084L6.624-5.337C6.441-5.366 6.263-5.381 6.089-5.381 5.693-5.371 5.314-5.275 4.95-5.095 4.586-4.914 4.24-4.682 3.912-4.396 3.584-4.112 3.277-3.791 2.99-3.432 2.703-3.072 2.44-2.712 2.202-2.351 1.963-1.988 1.752-1.645 1.569-1.316 1.386-.988 1.234-.709 1.113-.478 .988-.487 .856-.494 .72-.499 .582-.504 .437-.506 .282-.506H-.015C-.02-.65-.025-.818-.032-1.008-.04-1.198-.047-1.395-.055-1.597-.062-1.799-.068-2.003-.076-2.21-.083-2.417-.09-2.609-.094-2.787-.099-2.966-.104-3.123-.108-3.261-.113-3.397-.116-3.5-.116-3.567-.116-3.774-.102-3.941-.072-4.069-.044-4.196 0-4.299 .058-4.376 .115-4.453 .19-4.508 .282-4.542 .373-4.575 .481-4.603 .607-4.621L.918-4.664V-5.084C.812-5.069 .685-5.053 .535-5.033 .409-5.023 .256-5.013 .072-5.001-.111-4.989-.323-4.982-.564-4.982-.811-4.982-1.08-4.99-1.374-5.005-1.668-5.019-1.996-5.046-2.357-5.084Z" fill="#834b4b"/>
<path transform="matrix(1,0,0,-1,281.8574,360.1864)" d="M0 0-1.526-4.44H1.425L.21 0ZM.637 1.975 3.081-5.932C3.259-6.52 3.454-6.993 3.666-7.352 3.879-7.711 4.144-7.917 4.462-7.97L4.859-8.034 4.845-8.454C4.6-8.425 4.333-8.403 4.046-8.389 3.759-8.375 3.466-8.367 3.167-8.367 2.85-8.367 2.538-8.375 2.234-8.389 1.931-8.403 1.642-8.425 1.366-8.454L1.381-8.034 2.4-7.94 1.569-4.946H1.287C1.157-4.946 .985-4.948 .773-4.95 .562-4.953 .321-4.959 .054-4.969-.214-4.978-.502-4.992-.811-5.012-1.119-5.031-1.437-5.058-1.765-5.091L-2.162-6.202C-2.249-6.433-2.325-6.652-2.391-6.858-2.455-7.065-2.488-7.246-2.488-7.399-2.488-7.554-2.447-7.68-2.365-7.778-2.283-7.877-2.141-7.94-1.938-7.97L-1.512-8.034-1.526-8.454C-1.786-8.425-2.036-8.401-2.274-8.382-2.514-8.362-2.763-8.353-3.023-8.353-3.283-8.353-3.554-8.362-3.833-8.382-4.112-8.401-4.424-8.425-4.766-8.454L-4.751-8.034C-4.611-8.021-4.479-8.006-4.354-7.991-4.243-7.981-4.132-7.972-4.021-7.963-3.91-7.953-3.818-7.945-3.746-7.94-3.549-7.526-3.343-7.073-3.128-6.582-2.913-6.091-2.694-5.575-2.47-5.036-2.246-4.496-2.021-3.938-1.797-3.359-1.573-2.781-1.353-2.2-1.136-1.617-.919-1.034-.71-.454-.51 .124-.31 .702-.121 1.264 .058 1.808Z" fill="#834b4b"/>
<path transform="matrix(1,0,0,-1,303.4258,359.04383)" d="M0 0C-.165 0-.329-.001-.493-.004-.657-.006-.814-.011-.964-.019-1.114-.025-1.254-.034-1.385-.043-1.515-.053-1.626-.062-1.718-.072-1.771-1.485-1.817-2.76-1.855-3.898-1.87-4.385-1.886-4.863-1.903-5.334-1.92-5.804-1.935-6.228-1.946-6.606-1.958-6.985-1.968-7.301-1.976-7.554-1.982-7.807-1.986-7.955-1.986-7.998-1.986-8.229-1.962-8.424-1.914-8.581-1.865-8.737-1.771-8.862-1.631-8.957-1.491-9.051-1.294-9.117-1.04-9.155-.787-9.194-.454-9.214-.044-9.214 .202-9.214 .489-9.194 .815-9.155 1.142-9.117 1.479-9.042 1.83-8.932 2.18-8.82 2.524-8.663 2.862-8.458 3.2-8.253 3.503-7.981 3.769-7.645 4.034-7.307 4.249-6.896 4.413-6.411 4.578-5.927 4.66-5.35 4.66-4.679 4.66-4.322 4.632-3.96 4.576-3.591 4.521-3.222 4.426-2.864 4.29-2.517 4.155-2.17 3.973-1.843 3.743-1.537 3.514-1.23 3.227-.965 2.881-.737 2.535-.511 2.126-.332 1.652-.199 1.179-.066 .628 0 0 0M-4.228-9.177C-4.103-9.168-3.992-9.158-3.896-9.148-3.799-9.139-3.71-9.129-3.628-9.119-3.546-9.11-3.466-9.103-3.389-9.098-3.313-9.093-3.23-9.088-3.144-9.083-3.096-7.672-3.053-6.396-3.015-5.253-3-4.767-2.985-4.287-2.968-3.815-2.951-3.344-2.937-2.915-2.922-2.529-2.907-2.144-2.896-1.822-2.89-1.564-2.883-1.307-2.879-1.149-2.879-1.091-2.879-.869-2.894-.691-2.922-.557-2.951-.422-2.994-.316-3.053-.242-3.11-.168-3.184-.113-3.273-.079-3.362-.046-3.467-.02-3.588 0L-3.898 .043V.463C-3.759 .443-3.607 .424-3.443 .405-3.303 .391-3.141 .378-2.955 .369-2.77 .359-2.57 .354-2.358 .354-2.093 .354-1.826 .364-1.559 .383-1.291 .402-1.018 .423-.737 .444-.458 .467-.172 .487 .12 .506 .411 .525 .717 .535 1.035 .535 1.772 .535 2.448 .414 3.061 .174 3.673-.067 4.197-.41 4.634-.854 5.07-1.297 5.409-1.83 5.65-2.451 5.892-3.073 6.013-3.763 6.013-4.52 6.013-4.867 5.975-5.234 5.9-5.623 5.825-6.011 5.702-6.396 5.531-6.78 5.36-7.163 5.134-7.529 4.852-7.879 4.569-8.229 4.224-8.537 3.813-8.805 3.404-9.072 2.922-9.286 2.367-9.444 1.812-9.604 1.177-9.684 .458-9.684 .236-9.684 .011-9.675-.218-9.658-.447-9.642-.679-9.622-.912-9.601-1.146-9.578-1.384-9.559-1.625-9.539-1.865-9.52-2.109-9.51-2.354-9.51-2.586-9.51-2.857-9.514-3.169-9.521-3.479-9.528-3.833-9.554-4.228-9.597Z" fill="#834b4b"/>
<path transform="matrix(1,0,0,-1,320.2383,363.88954)" d="M0 0C-.289 .039-.582 .072-.879 .102-1.175 .131-1.458 .154-1.729 .174-1.998 .193-2.245 .209-2.47 .221-2.693 .232-2.878 .244-3.022 .254-3.042-.324-3.062-.852-3.081-1.328-3.091-1.53-3.098-1.732-3.103-1.935-3.107-2.137-3.113-2.323-3.12-2.494-3.128-2.665-3.133-2.811-3.135-2.931-3.138-3.051-3.139-3.133-3.139-3.176-3.139-3.427-3.104-3.626-3.037-3.775-2.97-3.925-2.867-4.038-2.729-4.115-2.593-4.192-2.423-4.242-2.22-4.267-2.018-4.291-1.781-4.303-1.512-4.303-1.126-4.303-.797-4.278-.524-4.23-.252-4.183-.021-4.093 .17-3.963 .36-3.833 .516-3.653 .637-3.424 .757-3.195 .855-2.899 .933-2.538H1.389C1.369-2.669 1.341-2.833 1.302-3.031 1.264-3.229 1.216-3.438 1.161-3.659 1.105-3.879 1.04-4.098 .966-4.315 .891-4.533 .811-4.727 .724-4.896 .212-4.881-.276-4.86-.741-4.834-1.206-4.808-1.631-4.782-2.014-4.758-2.397-4.734-2.731-4.713-3.016-4.693-3.3-4.674-3.515-4.664-3.659-4.664-3.905-4.664-4.165-4.669-4.44-4.679-4.715-4.688-5.033-4.713-5.395-4.751L-5.38-4.331C-5.255-4.322-5.145-4.312-5.048-4.303-4.951-4.293-4.862-4.283-4.78-4.273-4.698-4.265-4.618-4.257-4.541-4.252-4.465-4.247-4.383-4.242-4.296-4.237-4.247-2.826-4.204-1.55-4.165-.407-4.151 .079-4.136 .56-4.118 1.034-4.102 1.509-4.086 1.938-4.071 2.324-4.057 2.709-4.046 3.032-4.039 3.292-4.031 3.552-4.028 3.711-4.028 3.769-4.028 3.985-4.041 4.16-4.067 4.293-4.095 4.426-4.137 4.529-4.194 4.604-4.252 4.678-4.327 4.732-4.419 4.767-4.51 4.8-4.621 4.826-4.751 4.846L-5.048 4.889V5.309C-4.913 5.289-4.741 5.27-4.534 5.251-4.355 5.236-4.132 5.224-3.861 5.215-3.592 5.205-3.262 5.2-2.871 5.2H-1.128C-.936 5.2-.747 5.201-.563 5.204-.381 5.206-.195 5.211-.007 5.218 .181 5.226 .376 5.236 .579 5.251 .781 5.265 .998 5.284 1.229 5.309L1.005 2.864H.564C.569 2.961 .572 3.036 .575 3.092 .577 3.147 .579 3.19 .579 3.222V3.287 3.319C.579 3.479 .559 3.631 .518 3.775 .477 3.92 .396 4.049 .278 4.162 .16 4.275-.004 4.369-.213 4.444-.423 4.519-.696 4.568-1.034 4.593L-2.813 4.716C-2.852 4.32-2.882 3.919-2.903 3.512-2.925 3.104-2.94 2.729-2.95 2.387L-3.008 .76 .072 .919Z" fill="#834b4b"/>
<path transform="matrix(1,0,0,-1,334.9463,368.1922)" d="M0 0C.097 .01 .186 .02 .268 .029 .35 .038 .43 .046 .507 .051 .584 .056 .666 .061 .753 .065 .776 .706 .8 1.34 .821 1.966 .843 2.592 .863 3.191 .883 3.765 .902 4.338 .921 4.873 .94 5.369 .96 5.865 .977 6.304 .991 6.685 1.006 7.064 1.017 7.378 1.023 7.624 1.031 7.869 1.034 8.028 1.034 8.101 1.034 8.308 1.019 8.477 .987 8.606 .956 8.736 .91 8.839 .851 8.913 .79 8.988 .714 9.041 .622 9.072 .53 9.104 .427 9.129 .312 9.148L-.007 9.191V9.611C.1 9.592 .227 9.572 .376 9.554 .502 9.539 .655 9.526 .836 9.518 1.017 9.508 1.229 9.503 1.476 9.503 1.722 9.503 1.993 9.511 2.289 9.528 2.586 9.545 2.912 9.572 3.27 9.611V9.191C3.144 9.182 3.033 9.173 2.937 9.163 2.84 9.153 2.752 9.145 2.673 9.138 2.593 9.13 2.515 9.124 2.438 9.119 2.36 9.114 2.278 9.109 2.191 9.105 2.167 8.464 2.145 7.829 2.123 7.201 2.102 6.572 2.079 5.973 2.058 5.401 2.036 4.831 2.017 4.296 2 3.798 1.983 3.299 1.968 2.859 1.953 2.479 1.938 2.099 1.928 1.785 1.921 1.539 1.913 1.294 1.909 1.137 1.909 1.069 1.909 .857 1.925 .687 1.957 .557 1.988 .427 2.033 .324 2.094 .249 2.154 .175 2.23 .12 2.322 .087 2.413 .053 2.517 .029 2.633 .015L2.943-.028V-.448C2.838-.434 2.71-.417 2.561-.397 2.435-.388 2.281-.377 2.098-.365 1.914-.354 1.702-.347 1.461-.347 1.215-.347 .945-.354 .651-.369 .357-.383 .029-.41-.332-.448V-.028C-.207-.02-.096-.01 0 0" fill="#834b4b"/>
<path transform="matrix(1,0,0,-1,354.3457,366.8114)" d="M0 0C.005-.285 .021-.511 .051-.68 .079-.849 .123-.98 .181-1.077 .238-1.174 .312-1.241 .401-1.279 .49-1.318 .603-1.347 .737-1.366L1.049-1.409V-1.829C.942-1.814 .814-1.798 .665-1.778 .54-1.769 .386-1.758 .202-1.746 .019-1.734-.195-1.728-.439-1.728-.688-1.728-.961-1.735-1.257-1.75-1.552-1.764-1.881-1.791-2.242-1.829V-1.409C-2.117-1.4-2.006-1.391-1.909-1.381-1.813-1.371-1.724-1.361-1.642-1.352-1.56-1.343-1.48-1.335-1.403-1.33-1.326-1.325-1.244-1.32-1.157-1.315L-1.187 6.097H-1.323L-5.005-1.432H-5.345L-8.578 6.126H-8.701L-9.142 .562C-9.151 .49-9.158 .407-9.163 .313-9.168 .22-9.174 .126-9.181 .031-9.188-.062-9.193-.15-9.195-.232-9.198-.313-9.199-.379-9.199-.427-9.199-.615-9.183-.766-9.148-.879-9.115-.992-9.067-1.082-9.008-1.149-8.947-1.217-8.872-1.267-8.783-1.298-8.694-1.329-8.592-1.352-8.476-1.366L-8.165-1.409V-1.829C-8.242-1.814-8.344-1.798-8.469-1.778-8.575-1.769-8.707-1.758-8.866-1.746-9.025-1.734-9.217-1.728-9.441-1.728-9.667-1.728-9.922-1.735-10.205-1.75-10.489-1.764-10.812-1.791-11.174-1.829V-1.409C-11.048-1.4-10.938-1.391-10.841-1.381-10.744-1.371-10.655-1.361-10.573-1.352-10.491-1.342-10.412-1.335-10.334-1.33-10.258-1.325-10.176-1.32-10.089-1.315L-9.038 8.194-8.351 8.433-4.853 .362H-4.751L-.935 8.273-.21 8.418Z" fill="#834b4b"/>
<path transform="matrix(1,0,0,-1,365.2686,357.1346)" d="M0 0 2.474 2.177C2.569 2.013 2.678 1.857 2.799 1.71 2.919 1.563 3.047 1.435 3.182 1.323L.268-.325ZM-2.979-6.364C-2.979-6.991-2.895-7.594-2.723-8.172-2.552-8.751-2.304-9.263-1.978-9.709-1.652-10.154-1.254-10.512-.781-10.779-.309-11.047 .229-11.181 .832-11.181 1.41-11.181 1.92-11.064 2.361-10.833 2.802-10.602 3.17-10.285 3.464-9.882 3.758-9.479 3.979-9.01 4.129-8.472 4.278-7.935 4.354-7.357 4.354-6.74 4.354-6.046 4.266-5.396 4.09-4.791 3.913-4.187 3.666-3.659 3.349-3.211 3.03-2.763 2.65-2.411 2.209-2.155 1.769-1.899 1.285-1.771 .759-1.771 .484-1.771 .202-1.802-.087-1.862-.376-1.923-.659-2.023-.937-2.166-1.214-2.309-1.477-2.495-1.725-2.727-1.974-2.958-2.19-3.243-2.376-3.583-2.562-3.923-2.708-4.322-2.816-4.78-2.926-5.238-2.979-5.767-2.979-6.364M-4.311-6.516C-4.311-5.759-4.181-5.058-3.92-4.411-3.66-3.766-3.295-3.209-2.822-2.741-2.351-2.273-1.784-1.907-1.122-1.642-.46-1.377 .272-1.244 1.077-1.244 1.568-1.244 2.022-1.311 2.441-1.442 2.86-1.575 3.241-1.759 3.583-1.992 3.925-2.227 4.228-2.502 4.492-2.82 4.757-3.139 4.98-3.482 5.16-3.851 5.341-4.22 5.478-4.609 5.568-5.019 5.66-5.429 5.706-5.839 5.706-6.248 5.706-7.054 5.576-7.79 5.315-8.458 5.056-9.125 4.702-9.701 4.254-10.187 3.807-10.671 3.286-11.047 2.694-11.314 2.103-11.582 1.474-11.716 .81-11.716 .237-11.716-.287-11.646-.761-11.51-1.235-11.372-1.662-11.182-2.043-10.938-2.423-10.694-2.755-10.408-3.039-10.077-3.323-9.747-3.56-9.39-3.747-9.004-3.935-8.618-4.075-8.214-4.17-7.792-4.264-7.37-4.311-6.945-4.311-6.516" fill="#834b4b"/>
<path transform="matrix(1,0,0,-1,381.0586,367.29585)" d="M0 0H.094L2.668 6.893C2.765 7.139 2.836 7.341 2.882 7.5 2.927 7.659 2.95 7.791 2.95 7.897 2.95 8.018 2.915 8.102 2.846 8.147 2.775 8.192 2.671 8.228 2.53 8.252L2.22 8.295V8.715C2.297 8.695 2.396 8.676 2.517 8.657 2.617 8.643 2.747 8.63 2.905 8.621 3.063 8.611 3.255 8.606 3.479 8.606 3.697 8.606 3.947 8.614 4.229 8.632 4.509 8.648 4.828 8.676 5.185 8.715V8.295C5.06 8.285 4.948 8.276 4.853 8.267 4.756 8.257 4.668 8.248 4.588 8.241 4.509 8.233 4.43 8.228 4.354 8.223 4.276 8.218 4.194 8.213 4.107 8.209L.021-1.446-.557-1.569-3.509 6.893C-3.61 7.177-3.708 7.404-3.802 7.576-3.896 7.747-3.993 7.88-4.094 7.974-4.195 8.067-4.303 8.133-4.415 8.169-4.529 8.205-4.65 8.232-4.78 8.252L-5.092 8.295V8.715C-4.967 8.695-4.821 8.676-4.658 8.657-4.518 8.643-4.347 8.63-4.145 8.621-3.941 8.611-3.71 8.606-3.45 8.606-3.189 8.606-2.905 8.614-2.597 8.632-2.288 8.648-1.955 8.676-1.599 8.715V8.295C-1.725 8.285-1.835 8.276-1.932 8.267-2.028 8.257-2.116 8.248-2.195 8.241-2.274 8.233-2.354 8.228-2.431 8.223-2.508 8.218-2.59 8.213-2.676 8.209Z" fill="#834b4b"/>
<path transform="matrix(1,0,0,-1,396.0957,363.88954)" d="M0 0C-.289 .039-.582 .072-.879 .102-1.175 .131-1.458 .154-1.729 .174-1.998 .193-2.245 .209-2.47 .221-2.693 .232-2.878 .244-3.022 .254-3.042-.324-3.062-.852-3.081-1.328-3.091-1.53-3.098-1.732-3.103-1.935-3.107-2.137-3.113-2.323-3.12-2.494-3.128-2.665-3.133-2.811-3.135-2.931-3.138-3.051-3.139-3.133-3.139-3.176-3.139-3.427-3.104-3.626-3.037-3.775-2.97-3.925-2.867-4.038-2.729-4.115-2.593-4.192-2.423-4.242-2.22-4.267-2.018-4.291-1.781-4.303-1.512-4.303-1.126-4.303-.797-4.278-.524-4.23-.252-4.183-.021-4.093 .17-3.963 .36-3.833 .516-3.653 .637-3.424 .757-3.195 .855-2.899 .933-2.538H1.389C1.369-2.669 1.341-2.833 1.302-3.031 1.264-3.229 1.216-3.438 1.161-3.659 1.105-3.879 1.04-4.098 .966-4.315 .891-4.533 .811-4.727 .724-4.896 .212-4.881-.276-4.86-.741-4.834-1.206-4.808-1.631-4.782-2.014-4.758-2.397-4.734-2.731-4.713-3.016-4.693-3.3-4.674-3.515-4.664-3.659-4.664-3.905-4.664-4.165-4.669-4.44-4.679-4.715-4.688-5.033-4.713-5.395-4.751L-5.38-4.331C-5.255-4.322-5.145-4.312-5.048-4.303-4.951-4.293-4.862-4.283-4.78-4.273-4.698-4.265-4.618-4.257-4.541-4.252-4.465-4.247-4.383-4.242-4.296-4.237-4.247-2.826-4.204-1.55-4.165-.407-4.151 .079-4.136 .56-4.118 1.034-4.102 1.509-4.086 1.938-4.071 2.324-4.057 2.709-4.046 3.032-4.039 3.292-4.031 3.552-4.028 3.711-4.028 3.769-4.028 3.985-4.041 4.16-4.067 4.293-4.095 4.426-4.137 4.529-4.194 4.604-4.252 4.678-4.327 4.732-4.419 4.767-4.51 4.8-4.621 4.826-4.751 4.846L-5.048 4.889V5.309C-4.913 5.289-4.741 5.27-4.534 5.251-4.355 5.236-4.132 5.224-3.861 5.215-3.592 5.205-3.262 5.2-2.871 5.2H-1.128C-.936 5.2-.747 5.201-.563 5.204-.381 5.206-.195 5.211-.007 5.218 .181 5.226 .376 5.236 .579 5.251 .781 5.265 .998 5.284 1.229 5.309L1.005 2.864H.564C.569 2.961 .572 3.036 .575 3.092 .577 3.147 .579 3.19 .579 3.222V3.287 3.319C.579 3.479 .559 3.631 .518 3.775 .477 3.92 .396 4.049 .278 4.162 .16 4.275-.004 4.369-.213 4.444-.423 4.519-.696 4.568-1.034 4.593L-2.813 4.716C-2.852 4.32-2.882 3.919-2.903 3.512-2.925 3.104-2.94 2.729-2.95 2.387L-3.008 .76 .072 .919Z" fill="#834b4b"/>
<path transform="matrix(1,0,0,-1,403.1494,368.1922)" d="M0 0C.097 .01 .186 .02 .268 .029 .35 .038 .43 .046 .507 .051 .584 .056 .666 .061 .753 .065 .776 .706 .8 1.34 .821 1.966 .843 2.592 .863 3.191 .883 3.765 .902 4.338 .921 4.873 .94 5.369 .96 5.865 .977 6.304 .991 6.685 1.006 7.064 1.017 7.378 1.023 7.624 1.031 7.869 1.034 8.028 1.034 8.101 1.034 8.308 1.019 8.477 .987 8.606 .956 8.736 .91 8.839 .851 8.913 .79 8.988 .714 9.041 .622 9.072 .53 9.104 .427 9.129 .312 9.148L-.007 9.191V9.611C.1 9.592 .227 9.572 .376 9.554 .502 9.539 .655 9.526 .836 9.518 1.017 9.508 1.229 9.503 1.476 9.503 1.722 9.503 1.993 9.511 2.289 9.528 2.586 9.545 2.912 9.572 3.27 9.611V9.191C3.144 9.182 3.033 9.173 2.937 9.163 2.84 9.153 2.752 9.145 2.673 9.138 2.593 9.13 2.515 9.124 2.438 9.119 2.36 9.114 2.278 9.109 2.191 9.105 2.167 8.464 2.145 7.829 2.123 7.201 2.102 6.572 2.079 5.973 2.058 5.401 2.036 4.831 2.017 4.296 2 3.798 1.983 3.299 1.968 2.859 1.953 2.479 1.938 2.099 1.928 1.785 1.921 1.539 1.913 1.294 1.909 1.137 1.909 1.069 1.909 .857 1.925 .687 1.957 .557 1.988 .427 2.033 .324 2.094 .249 2.154 .175 2.23 .12 2.322 .087 2.413 .053 2.517 .029 2.633 .015L2.943-.028V-.448C2.838-.434 2.71-.417 2.561-.397 2.435-.388 2.281-.377 2.098-.365 1.914-.354 1.702-.347 1.461-.347 1.215-.347 .945-.354 .651-.369 .357-.383 .029-.41-.332-.448V-.028C-.207-.02-.096-.01 0 0" fill="#834b4b"/>
<path transform="matrix(1,0,0,-1,414.5361,368.3153)" d="M0 0C.289 0 .561 .045 .813 .134 1.066 .224 1.287 .353 1.475 .521 1.663 .689 1.812 .896 1.92 1.14 2.028 1.383 2.082 1.659 2.082 1.968 2.082 2.262 2.014 2.53 1.876 2.773 1.739 3.017 1.565 3.242 1.355 3.45 1.146 3.657 .918 3.853 .672 4.035 .427 4.219 .192 4.399-.029 4.578-.241 4.742-.476 4.922-.73 5.117-.986 5.312-1.227 5.527-1.45 5.764-1.675 6-1.862 6.261-2.015 6.545-2.166 6.829-2.242 7.146-2.242 7.492-2.242 7.666-2.226 7.848-2.191 8.038-2.158 8.229-2.1 8.414-2.015 8.596-1.931 8.776-1.82 8.947-1.684 9.108-1.546 9.271-1.375 9.412-1.168 9.535-.961 9.658-.719 9.756-.439 9.828-.16 9.9 .164 9.937 .534 9.937 1.005 9.937 1.46 9.899 1.897 9.824 2.335 9.75 2.712 9.664 3.029 9.568L2.871 7.392H2.458V7.586C2.458 7.77 2.439 7.969 2.4 8.183 2.362 8.397 2.277 8.596 2.147 8.776 2.018 8.957 1.828 9.107 1.58 9.229 1.331 9.349 .998 9.409 .578 9.409 .327 9.409 .1 9.374-.105 9.304-.311 9.234-.485 9.135-.63 9.008-.774 8.88-.887 8.725-.966 8.541-1.045 8.357-1.085 8.153-1.085 7.927-1.085 7.627-1.026 7.363-.908 7.135-.79 6.905-.638 6.699-.452 6.516-.267 6.333-.061 6.163 .166 6.006 .393 5.85 .612 5.694 .824 5.54 1.143 5.309 1.447 5.078 1.739 4.85 2.03 4.62 2.287 4.379 2.509 4.126 2.73 3.873 2.908 3.602 3.041 3.313 3.173 3.023 3.239 2.705 3.239 2.357 3.239 1.953 3.148 1.574 2.966 1.223 2.782 .87 2.538 .564 2.233 .304 1.928 .044 1.578-.161 1.184-.311 .789-.46 .383-.535-.035-.535-.545-.535-1.031-.494-1.493-.412-1.954-.33-2.356-.236-2.698-.13L-2.524 2.162H-2.076V1.909C-2.076 1.707-2.052 1.493-2.004 1.27-1.955 1.045-1.857 .839-1.711 .651-1.563 .463-1.354 .308-1.081 .185-.81 .062-.448 0 0 0" fill="#834b4b"/>
<path transform="matrix(1,0,0,-1,316.0178,269.30403)" d="M0 0C-2.593 3.938-7.683 6.915-12.293 7.683H-12.486C-12.582 7.683-12.678 7.779-12.582 7.779-6.915 10.373-2.689 15.847-2.689 22.762-2.786 28.14-6.243 32.27-10.565 34.864-13.926 36.88-19.4 37.36-23.626 37.36-24.875 37.36-26.027 37.36-26.988 37.264-28.717 37.073-31.214 36.977-33.423 36.977-36.208 36.977-38.609 37.073-39.186 37.073L-39.378 36.4C-37.457 36.112-36.688 35.247-36.304 34.383-36.112 33.903-36.016 33.327-36.112 32.655-36.131 23.97-36.149 15.286-36.168 6.602-35.108 6.465-33.685 6.387-32.033 6.602-30.572 6.793-29.352 7.157-28.426 7.507-28.491 16.402-28.556 25.296-28.621 34.191-27.486 34.49-25.824 34.81-23.818 34.767-22.555 34.741-14.958 34.569-11.119 28.754-9.121 25.728-9.115 22.591-9.123 21.514-9.171 15.497-13.125 11.475-14.589 10.172-20.487 5.244-28.016 2.112-35.798 2.112-50.298 2.112-74.236 12.585-74.236 42.276-74.236 67.594-50.874 75.42-40.172 75.42-30.849 75.42-19.111 73.348-12.321 59.769V76.916C-13.472 76.226-15.429 75.42-16.694 75.42-20.032 75.42-25.786 78.988-41.322 78.988-59.966 78.988-77.343 61.725-80.565 44.002-81.141 40.895-81.372 37.788-81.256 34.91-80.22 12.93-63.303-2.952-41.667-2.952-29.847-2.952-20.936 2.323-17.484 4.897-8.773 3.245-3.989-2.719-3.745-11.237-3.457-22.762-11.813-26.028-17.96-26.604-19.113-26.7-20.169-26.796-21.13-26.796-23.626-26.796-26.316-26.604-28.717-26.028-28.638-19.459-28.558-12.89-28.479-6.32-29.244-6.833-30.612-7.605-32.484-7.936-33.994-8.202-35.269-8.082-36.103-7.936-36.106-12.878-36.109-17.82-36.112-22.762-36.112-27.853-38.897-28.909-39.186-28.909-38.993-28.909-38.033-28.813-36.208-28.813-34.575-28.813-32.366-28.909-29.389-29.101-26.22-29.293-23.722-29.486-21.13-29.486-18.44-29.486-15.655-29.293-11.813-28.813 1.921-27.084 7.683-11.621 0 0" fill="#834b4b"/>
<path transform="matrix(1,0,0,-1,290.7902,336.3391)" d="M0 0-5.523 5.967 .444 11.491 5.967 5.523Z" fill="#4c2e2e"/>
</g>
</g>
</g>
</svg>
