<svg xmlns="http://www.w3.org/2000/svg" xmlns:xlink="http://www.w3.org/1999/xlink" xmlns:inkscape="http://www.inkscape.org/namespaces/inkscape" version="1.1" width="566.929" height="566.929" viewBox="0 0 566.929 566.929">
<defs>
<clipPath id="clip_5">
<path transform="matrix(1,0,0,-1,0,566.929)" d="M0 566.929H566.929V0H0Z"/>
</clipPath>
</defs>
<g>
<g inkscape:groupmode="layer" inkscape:label="Camada 1">
<g clip-path="url(#clip_5)">
<path transform="matrix(1,0,0,-1,336.5624,324.27363)" d="M0 0C-3.538 5.371-10.48 9.432-16.769 10.48H-17.031C-17.162 10.48-17.293 10.611-17.162 10.611-9.433 14.149-3.669 21.616-3.669 31.049-3.8 38.385-8.516 44.019-14.411 47.556-18.996 50.308-26.463 50.962-32.228 50.962-33.932 50.962-35.503 50.962-36.814 50.831-39.172 50.57-42.578 50.439-45.592 50.439-49.39 50.439-52.666 50.57-53.452 50.57L-53.714 49.652C-51.094 49.259-50.045 48.08-49.521 46.901-49.259 46.246-49.128 45.46-49.259 44.543-49.285 32.697-49.31 20.852-49.336 9.006-47.889 8.818-45.949 8.713-43.695 9.006-41.702 9.266-40.039 9.762-38.776 10.241-38.864 22.373-38.952 34.506-39.041 46.639-37.493 47.046-35.226 47.483-32.49 47.425-30.767 47.389-20.403 47.154-15.167 39.223-12.441 35.094-12.433 30.816-12.445 29.346-12.51 21.139-17.903 15.653-19.9 13.875-27.946 7.153-38.216 2.881-48.832 2.881-68.611 2.881-101.263 17.166-101.263 57.667-101.263 92.204-69.396 102.878-54.797 102.878-42.081 102.878-26.068 100.052-16.807 81.529V104.919C-18.376 103.977-21.046 102.878-22.772 102.878-27.325 102.878-35.174 107.745-56.366 107.745-81.797 107.745-105.502 84.197-109.897 60.022-110.682 55.784-110.997 51.545-110.839 47.62-109.426 17.637-86.35-4.027-56.837-4.027-40.713-4.027-28.559 3.168-23.849 6.679-11.967 4.426-5.442-3.708-5.109-15.328-4.716-31.049-16.114-35.505-24.498-36.29-26.071-36.421-27.512-36.552-28.823-36.552-32.228-36.552-35.896-36.29-39.172-35.505-39.064-26.544-38.955-17.582-38.847-8.621-39.891-9.321-41.757-10.374-44.311-10.825-46.371-11.188-48.109-11.025-49.247-10.825-49.251-17.566-49.255-24.308-49.259-31.049-49.259-37.994-53.059-39.434-53.452-39.434-53.19-39.434-51.879-39.303-49.39-39.303-47.163-39.303-44.15-39.434-40.089-39.696-35.765-39.958-32.359-40.22-28.823-40.22-25.154-40.22-21.354-39.958-16.114-39.303 2.62-36.945 10.48-15.852 0 0" fill="#ecded1"/>
</g>
</g>
</g>
</svg>
