<svg xmlns="http://www.w3.org/2000/svg" xmlns:xlink="http://www.w3.org/1999/xlink" xmlns:inkscape="http://www.inkscape.org/namespaces/inkscape" version="1.1" width="566.929" height="566.929" viewBox="0 0 566.929 566.929">
<defs>
<clipPath id="clip_2">
<path transform="matrix(1,0,0,-1,0,566.929)" d="M0 566.929H566.929V0H0Z"/>
</clipPath>
</defs>
<g>
<g inkscape:groupmode="layer" inkscape:label="Camada 1">
<g clip-path="url(#clip_2)">
<path transform="matrix(1,0,0,-1,339.0267,333.4342)" d="M0 0C-3.165 4.806-9.377 8.439-15.004 9.377H-15.238C-15.355 9.377-15.473 9.494-15.355 9.494-8.44 12.659-3.282 19.34-3.282 27.78-3.4 34.344-7.619 39.384-12.894 42.549-16.996 45.011-23.677 45.596-28.834 45.596-30.359 45.596-31.765 45.596-32.938 45.479-35.047 45.245-38.095 45.128-40.791 45.128-44.19 45.128-47.12 45.245-47.824 45.245L-48.059 44.424C-45.714 44.073-44.776 43.018-44.307 41.963-44.073 41.377-43.955 40.673-44.073 39.853-44.096 29.255-44.118 18.656-44.141 8.058-42.847 7.89-41.111 7.795-39.094 8.058-37.311 8.29-35.823 8.734-34.693 9.162-34.772 20.018-34.851 30.873-34.93 41.728-33.545 42.093-31.517 42.483-29.069 42.432-27.527 42.4-18.255 42.189-13.57 35.093-11.131 31.399-11.124 27.571-11.135 26.256-11.193 18.913-16.018 14.005-17.805 12.414-25.004 6.4-34.192 2.577-43.69 2.577-61.387 2.577-90.601 15.359-90.601 51.595-90.601 82.496-62.089 92.046-49.027 92.046-37.65 92.046-23.324 89.518-15.037 72.945V93.872C-16.442 93.03-18.83 92.046-20.375 92.046-24.448 92.046-31.471 96.4-50.432 96.4-73.185 96.4-94.394 75.332-98.326 53.702-99.028 49.91-99.31 46.118-99.169 42.606-97.905 15.78-77.258-3.603-50.853-3.603-36.426-3.603-25.552 2.835-21.338 5.976-10.707 3.96-4.869-3.318-4.571-13.714-4.219-27.78-14.417-31.766-21.919-32.469-23.326-32.586-24.615-32.703-25.788-32.703-28.834-32.703-32.117-32.469-35.047-31.766-34.951-23.749-34.854-15.731-34.757-7.714-35.691-8.34-37.36-9.282-39.646-9.685-41.488-10.01-43.044-9.864-44.062-9.685-44.065-15.717-44.069-21.749-44.073-27.78-44.073-33.993-47.472-35.282-47.824-35.282-47.59-35.282-46.417-35.165-44.19-35.165-42.197-35.165-39.501-35.282-35.868-35.517-32-35.751-28.952-35.986-25.788-35.986-22.505-35.986-19.106-35.751-14.417-35.165 2.344-33.055 9.377-14.183 0 0"/>
<path transform="matrix(1,0,0,-1,149.3963,320.98103)" d="M0 0-5.711 6.169 .459 11.88 6.169 5.711Z"/>
<path transform="matrix(1,0,0,-1,448.4632,315.04103)" d="M0 0-5.711 6.169 .459 11.88 6.169 5.711Z"/>
<path transform="matrix(1,0,0,-1,143.6575,242.35102)" d="M0 0C-.65-2.044-.937-4.118-.864-6.221-.792-8.324-.334-10.307 .51-12.167 1.355-14.029 2.593-15.695 4.227-17.167 5.859-18.64 7.915-19.768 10.389-20.553 12.24-21.14 14.001-21.445 15.67-21.471 17.34-21.498 18.904-21.307 20.366-20.908 21.828-20.506 23.177-19.922 24.413-19.153 25.65-18.383 26.757-17.492 27.736-16.479 28.714-15.465 29.557-14.364 30.259-13.173 30.962-11.982 31.508-10.765 31.904-9.522 32.152-8.735 32.356-8.008 32.514-7.338 32.673-6.669 32.797-5.983 32.883-5.282 32.97-4.581 33.027-3.836 33.05-3.052 33.074-2.268 33.082-1.379 33.072-.385L34.623-.364C34.768-1.364 34.821-2.403 34.781-3.48 34.742-4.557 34.654-5.605 34.516-6.622 34.381-7.642 34.206-8.609 33.997-9.523 33.788-10.44 33.573-11.24 33.355-11.928 32.791-13.711 32.054-15.359 31.153-16.873 30.25-18.388 29.222-19.736 28.071-20.92 26.923-22.104 25.657-23.112 24.279-23.944 22.898-24.775 21.444-25.401 19.916-25.817 18.39-26.233 16.816-26.425 15.194-26.397 13.574-26.37 11.928-26.092 10.26-25.562 8.461-24.992 6.824-24.23 5.353-23.278 3.882-22.325 2.594-21.219 1.489-19.96 .386-18.7-.531-17.302-1.26-15.764-1.987-14.229-2.502-12.598-2.8-10.874-3.1-9.149-3.178-7.351-3.034-5.479-2.89-3.606-2.511-1.697-1.893 .25-1.11 2.719-.284 4.826 .582 6.568 1.45 8.31 2.287 9.827 3.092 11.12L11.065 7.808 10.59 6.313 10.197 6.437C9.363 6.701 8.475 6.87 7.535 6.943 6.595 7.016 5.667 6.855 4.75 6.463 3.833 6.068 2.962 5.367 2.137 4.359 1.313 3.352 .601 1.899 0 0"/>
<path transform="matrix(1,0,0,-1,162.5843,213.52042)" d="M0 0 10.541-12.974 16.098-4.059 .395 .635ZM-4.765 5.642 23.724-1.864C25.834-2.433 27.631-2.735 29.115-2.769 30.6-2.805 31.721-2.391 32.481-1.53L33.427-.452 34.665-1.285C34.116-1.973 33.549-2.736 32.964-3.576 32.381-4.415 31.807-5.286 31.244-6.19 30.644-7.15 30.081-8.103 29.552-9.049 29.023-9.994 28.544-10.908 28.114-11.792L26.874-10.96 28.512-7.701 17.901-4.576 17.369-5.427C17.123-5.821 16.805-6.339 16.412-6.985 16.02-7.63 15.587-8.367 15.112-9.192 14.638-10.019 14.137-10.918 13.614-11.885 13.091-12.855 12.572-13.865 12.056-14.919L14.665-18.213C15.199-18.911 15.717-19.553 16.218-20.138 16.721-20.725 17.205-21.162 17.669-21.452 18.133-21.742 18.593-21.857 19.045-21.794 19.497-21.733 19.958-21.423 20.427-20.865L21.426-19.698 22.666-20.533C22.088-21.265 21.545-21.973 21.038-22.658 20.53-23.342 20.032-24.078 19.541-24.863 19.05-25.65 18.572-26.485 18.103-27.365 17.634-28.246 17.122-29.231 16.564-30.32L15.323-29.487C15.544-29.037 15.749-28.61 15.941-28.203 16.122-27.85 16.301-27.497 16.481-27.143 16.662-26.791 16.811-26.5 16.934-26.273 16.054-24.895 15.075-23.419 13.995-21.845 12.913-20.272 11.77-18.638 10.561-16.946 9.355-15.251 8.087-13.522 6.763-11.755 5.44-9.988 4.1-8.229 2.749-6.475 1.396-4.723 .034-3-1.336-1.305-2.705 .387-4.043 2.017-5.353 3.582Z"/>
<path transform="matrix(1,0,0,-1,220.6187,184.39981)" d="M0 0C.688-.742 1.271-1.301 1.748-1.681 2.225-2.059 2.656-2.306 3.039-2.425 3.421-2.541 3.776-2.546 4.104-2.436 4.432-2.327 4.798-2.137 5.202-1.866L6.129-1.243 7.126-2.354C6.81-2.567 6.431-2.826 5.989-3.131 5.633-3.404 5.2-3.741 4.685-4.146 4.169-4.55 3.588-5.042 2.942-5.622 2.281-6.215 1.576-6.881 .828-7.621 .078-8.362-.729-9.213-1.595-10.176L-2.592-9.064C-2.283-8.74-2.012-8.45-1.779-8.196-1.547-7.942-1.333-7.704-1.14-7.483-.945-7.264-.751-7.055-.557-6.86-.365-6.663-.159-6.456 .058-6.236L-17.636 13.342-17.999 13.016-9.863-15.687-10.767-16.496-37.297-4.15-37.622-4.443-25.568-20.233C-25.421-20.448-25.243-20.686-25.031-20.946-24.823-21.205-24.614-21.469-24.411-21.735-24.206-22.002-24.01-22.246-23.822-22.469-23.633-22.691-23.482-22.867-23.368-22.995-22.921-23.492-22.518-23.851-22.161-24.071-21.802-24.291-21.463-24.419-21.142-24.455-20.823-24.489-20.508-24.443-20.197-24.313-19.886-24.186-19.56-24.002-19.219-23.765L-18.291-23.14-17.295-24.253C-17.533-24.398-17.842-24.594-18.22-24.84-18.524-25.068-18.901-25.353-19.351-25.7-19.8-26.046-20.325-26.485-20.92-27.019-21.517-27.554-22.175-28.179-22.893-28.892-23.61-29.603-24.401-30.441-25.269-31.403L-26.265-30.29C-25.956-29.968-25.685-29.679-25.452-29.423-25.22-29.169-25.006-28.932-24.812-28.711-24.617-28.491-24.424-28.283-24.23-28.087-24.037-27.891-23.832-27.683-23.614-27.464L-43.434 .238-42.177 2.505-13.724-10.573-13.454-10.33-22.143 19.711-20.566 21.815Z"/>
<path transform="matrix(1,0,0,-1,230.0661,185.30661)" d="M0 0C.283 .198 .542 .383 .781 .555 1.019 .729 1.253 .888 1.484 1.038 1.715 1.187 1.962 1.344 2.222 1.511 1.184 3.543 .152 5.55-.87 7.534-1.892 9.516-2.873 11.414-3.81 13.229-4.748 15.043-5.619 16.738-6.421 18.311-7.226 19.887-7.937 21.278-8.552 22.485-9.17 23.69-9.682 24.684-10.087 25.459-10.491 26.234-10.757 26.735-10.882 26.959-11.243 27.603-11.585 28.1-11.909 28.449-12.232 28.799-12.552 29.036-12.869 29.163-13.186 29.291-13.514 29.323-13.853 29.26-14.193 29.198-14.559 29.097-14.953 28.955L-16.016 28.537-16.745 29.84C-16.382 29.963-15.953 30.125-15.454 30.327-15.039 30.5-14.544 30.729-13.965 31.014-13.387 31.297-12.716 31.653-11.953 32.082-11.189 32.509-10.36 33.007-9.47 33.576-8.577 34.144-7.611 34.798-6.57 35.54L-5.84 34.237C-6.212 33.988-6.54 33.765-6.822 33.567-7.107 33.37-7.365 33.191-7.599 33.03-7.832 32.868-8.066 32.713-8.297 32.564-8.529 32.416-8.776 32.258-9.036 32.092-7.996 30.061-6.963 28.05-5.937 26.058-4.91 24.068-3.934 22.168-3.008 20.358-2.082 18.547-1.211 16.852-.397 15.273 .418 13.695 1.134 12.303 1.752 11.097 2.369 9.889 2.88 8.897 3.286 8.121 3.69 7.346 3.951 6.853 4.069 6.644 4.438 5.985 4.784 5.481 5.107 5.132 5.43 4.783 5.752 4.544 6.07 4.418 6.386 4.289 6.716 4.254 7.058 4.308 7.402 4.363 7.767 4.47 8.15 4.626L9.191 5.031 9.922 3.728C9.567 3.589 9.14 3.419 8.644 3.22 8.236 3.031 7.738 2.795 7.149 2.516 6.558 2.233 5.889 1.884 5.14 1.463 4.377 1.035 3.551 .543 2.663-.013 1.776-.569 .802-1.223-.253-1.972L-.984-.668C-.61-.421-.283-.198 0 0"/>
<path transform="matrix(1,0,0,-1,245.374,176.85642)" d="M0 0C-.718 2.167-1.431 4.308-2.138 6.424-2.846 8.539-3.52 10.567-4.161 12.507-4.804 14.445-5.409 16.252-5.979 17.924-6.546 19.597-7.05 21.076-7.484 22.359-7.918 23.644-8.274 24.701-8.556 25.53-8.839 26.357-9.024 26.892-9.113 27.133-9.373 27.824-9.63 28.368-9.888 28.765-10.147 29.165-10.421 29.451-10.705 29.628-10.991 29.805-11.303 29.89-11.64 29.885-11.977 29.878-12.358 29.831-12.782 29.746L-13.875 29.502-14.397 30.902C-14.02 30.969-13.577 31.061-13.07 31.177-12.635 31.285-12.108 31.435-11.493 31.627-10.878 31.821-10.162 32.07-9.342 32.377-8.52 32.683-7.627 33.049-6.659 33.474-5.692 33.9-4.636 34.399-3.494 34.972L-2.971 33.574C-3.379 33.384-3.732 33.215-4.034 33.068-4.336 32.918-4.617 32.78-4.882 32.654-5.146 32.528-5.405 32.408-5.656 32.296-5.907 32.185-6.174 32.067-6.458 31.942-5.742 29.775-5.026 27.629-4.317 25.506-3.606 23.381-2.931 21.354-2.291 19.424-1.654 17.494-1.052 15.686-.487 14.002 .076 12.318 .572 10.832 .997 9.545 1.423 8.258 1.777 7.199 2.058 6.372 2.341 5.542 2.523 5.015 2.606 4.791 2.895 4.021 3.264 3.453 3.71 3.089 4.157 2.725 4.685 2.514 5.294 2.457 5.9 2.4 6.582 2.461 7.34 2.644 8.095 2.827 8.932 3.089 9.849 3.431 11.136 3.911 12.194 4.425 13.025 4.974 13.854 5.521 14.497 6.155 14.952 6.875 15.407 7.595 15.685 8.431 15.788 9.386 15.888 10.339 15.844 11.468 15.649 12.77L17.194 13.346C17.291 12.886 17.408 12.282 17.542 11.532 17.674 10.783 17.795 9.982 17.902 9.131 18.009 8.28 18.083 7.421 18.122 6.555 18.161 5.687 18.142 4.917 18.064 4.244 16.341 3.656 14.659 3.106 13.019 2.594 11.377 2.082 9.872 1.615 8.499 1.194 7.125 .774 5.929 .41 4.908 .102 3.888-.206 3.135-.45 2.653-.631 1.834-.938 .971-1.278 .065-1.651-.838-2.026-1.871-2.502-3.027-3.082L-3.501-1.665C-3.095-1.476-2.738-1.306-2.428-1.154-2.119-1.001-1.833-.858-1.571-.724-1.31-.591-1.054-.467-.803-.354-.551-.242-.285-.125 0 0"/>
<path transform="matrix(1,0,0,-1,275.2244,139.27722)" d="M0 0-3.138-16.418 7.262-14.929 .738 .107ZM1.246 7.28 13.848-19.349C14.775-21.33 15.702-22.9 16.631-24.058 17.56-25.215 18.599-25.807 19.746-25.833L21.18-25.862 21.342-27.347C20.46-27.369 19.51-27.428 18.492-27.521 17.473-27.615 16.437-27.737 15.385-27.888 14.264-28.049 13.171-28.23 12.107-28.435 11.045-28.64 10.037-28.862 9.082-29.102L8.922-27.616 12.467-26.772 8.026-16.64 7.031-16.782C6.574-16.848 5.971-16.938 5.225-17.054 4.477-17.169 3.636-17.312 2.697-17.48 1.759-17.649 .751-17.846-.326-18.07-1.404-18.293-2.511-18.548-3.65-18.831L-4.491-22.948C-4.682-23.806-4.838-24.614-4.963-25.377-5.087-26.137-5.111-26.789-5.033-27.333-4.956-27.875-4.748-28.298-4.408-28.605-4.071-28.911-3.537-29.064-2.81-29.064L-1.273-29.078-1.111-30.561C-2.044-30.592-2.936-30.632-3.787-30.686-4.638-30.737-5.521-30.83-6.439-30.962-7.357-31.091-8.303-31.262-9.279-31.471-10.254-31.681-11.337-31.923-12.529-32.196L-12.691-30.711C-12.205-30.59-11.745-30.473-11.311-30.359-10.926-30.269-10.538-30.178-10.152-30.089-9.767-30-9.447-29.928-9.194-29.874-8.708-28.315-8.21-26.613-7.701-24.773-7.193-22.934-6.681-21.007-6.162-18.992-5.645-16.977-5.137-14.894-4.639-12.744-4.141-10.594-3.656-8.436-3.185-6.273-2.715-4.109-2.274-1.956-1.861 .181-1.446 2.32-1.064 4.393-.708 6.401Z"/>
<path transform="matrix(1,0,0,-1,320.108,148.98493)" d="M0 0C.862-.15 1.672-.319 2.433-.511 3.191-.704 3.918-.903 4.615-1.111 5.259-.805 5.869-.43 6.442 .01 7.015 .45 7.532 .948 7.993 1.505 8.456 2.061 8.845 2.677 9.162 3.354 9.481 4.031 9.704 4.759 9.84 5.536 10.033 6.653 10.052 7.668 9.895 8.583 9.742 9.499 9.445 10.298 9.006 10.984 8.568 11.67 8.009 12.227 7.335 12.658 6.662 13.088 5.894 13.378 5.03 13.528 4.539 13.613 4.04 13.694 3.531 13.772 3.022 13.853 2.421 13.908 1.73 13.941 1.596 13.459 1.435 12.855 1.248 12.13 1.061 11.405 .86 10.617 .643 9.765 .425 8.915 .212 8.032 .002 7.12-.207 6.206-.395 5.329-.557 4.487L-1.446 .251ZM-1.809-1.541C-2.263-3.763-2.679-5.764-3.056-7.545-3.222-8.299-3.38-9.056-3.527-9.815-3.676-10.573-3.816-11.257-3.947-11.871-4.081-12.484-4.189-13.005-4.273-13.435-4.355-13.865-4.406-14.138-4.426-14.257-4.55-14.968-4.579-15.593-4.515-16.137-4.454-16.678-4.261-17.156-3.941-17.568-3.62-17.981-3.148-18.328-2.527-18.61-1.906-18.891-1.087-19.121-.072-19.296 .198-19.342 .592-19.384 1.108-19.421 1.624-19.458 2.193-19.439 2.817-19.364 3.438-19.289 4.085-19.126 4.755-18.876 5.426-18.626 6.064-18.241 6.667-17.718 7.27-17.195 7.807-16.508 8.278-15.657 8.746-14.809 9.093-13.739 9.314-12.453 9.532-11.203 9.544-10.002 9.351-8.854 9.156-7.706 8.726-6.665 8.06-5.731 7.395-4.797 6.481-3.995 5.317-3.323 4.153-2.652 2.707-2.165 .983-1.868 .069-1.71-.862-1.601-1.809-1.541M14.098 5.976C13.916 4.928 13.587 3.981 13.108 3.142 12.63 2.301 12.068 1.55 11.42 .887 10.773 .223 10.075-.353 9.325-.841 8.576-1.331 7.843-1.73 7.126-2.042 8.459-2.655 9.581-3.347 10.489-4.112 11.398-4.88 12.112-5.71 12.635-6.601 13.157-7.492 13.493-8.434 13.642-9.427 13.791-10.418 13.776-11.448 13.591-12.515 13.365-13.816 12.913-15.045 12.234-16.199 11.556-17.352 10.664-18.331 9.558-19.132 8.451-19.934 7.151-20.511 5.654-20.861 4.155-21.212 2.477-21.227 .617-20.903-.061-20.787-.732-20.641-1.398-20.464-2.064-20.288-2.729-20.102-3.392-19.91-4.055-19.717-4.728-19.527-5.409-19.339-6.091-19.151-6.779-18.998-7.473-18.878-8.285-18.738-9.155-18.612-10.086-18.504-11.017-18.396-12.074-18.291-13.258-18.191L-12.953-16.728C-12.509-16.77-12.114-16.803-11.77-16.828-11.425-16.853-11.107-16.874-10.813-16.89-10.521-16.905-10.237-16.929-9.962-16.957-9.69-16.988-9.399-17.022-9.091-17.057-8.038-11.966-7.091-7.404-6.253-3.371-5.904-1.657-5.556 .033-5.208 1.696-4.86 3.359-4.545 4.844-4.267 6.154-3.989 7.464-3.762 8.538-3.592 9.378-3.419 10.219-3.327 10.682-3.311 10.767-3.178 11.544-3.12 12.182-3.138 12.681-3.155 13.18-3.252 13.585-3.424 13.894-3.598 14.2-3.834 14.443-4.136 14.616-4.437 14.79-4.792 14.948-5.204 15.088L-6.268 15.429-5.962 16.891C-5.569 16.753-5.124 16.607-4.628 16.451-4.197 16.325-3.696 16.195-3.128 16.061-2.559 15.928-1.925 15.802-1.23 15.681-.5 15.555 .145 15.479 .708 15.451 1.271 15.422 1.839 15.398 2.411 15.378 2.984 15.358 3.607 15.322 4.281 15.277 4.955 15.229 5.774 15.122 6.741 14.956 8.302 14.685 9.596 14.243 10.625 13.631 11.656 13.016 12.453 12.303 13.02 11.492 13.587 10.68 13.951 9.798 14.109 8.847 14.268 7.896 14.263 6.94 14.098 5.976"/>
<path transform="matrix(1,0,0,-1,357.8096,162.99732)" d="M0 0C-.913 .497-1.845 .982-2.794 1.455-3.743 1.928-4.654 2.367-5.528 2.775-6.4 3.183-7.202 3.549-7.932 3.875-8.663 4.198-9.263 4.469-9.731 4.685-10.53 2.788-11.263 1.06-11.934-.499-12.224-1.16-12.504-1.823-12.775-2.489-13.05-3.154-13.306-3.768-13.549-4.326-13.789-4.885-13.991-5.364-14.151-5.762-14.312-6.159-14.42-6.429-14.476-6.572-14.793-7.406-14.936-8.113-14.901-8.695-14.866-9.275-14.67-9.783-14.31-10.214-13.951-10.644-13.449-11.029-12.807-11.367-12.164-11.703-11.394-12.044-10.496-12.387-9.214-12.876-8.089-13.215-7.121-13.402-6.155-13.587-5.272-13.585-4.472-13.394-3.674-13.202-2.93-12.803-2.237-12.195-1.545-11.587-.84-10.73-.125-9.626L1.389-10.204C1.16-10.616 .855-11.124 .474-11.735 .094-12.346-.328-12.981-.792-13.642-1.256-14.305-1.751-14.949-2.276-15.578-2.8-16.206-3.315-16.746-3.819-17.2-5.5-16.501-7.098-15.812-8.611-15.134-10.125-14.453-11.504-13.829-12.748-13.264-13.99-12.696-15.074-12.199-15.995-11.773-16.917-11.348-17.618-11.044-18.098-10.859-18.916-10.547-19.789-10.232-20.714-9.914-21.64-9.597-22.729-9.273-23.982-8.942L-23.398-7.566C-22.97-7.692-22.589-7.801-22.256-7.892-21.923-7.982-21.614-8.064-21.33-8.136-21.046-8.208-20.771-8.285-20.509-8.367-20.246-8.45-19.967-8.538-19.672-8.631-17.718-3.998-15.951 .191-14.371 3.939-13.705 5.538-13.043 7.117-12.383 8.674-11.722 10.231-11.124 11.64-10.586 12.902-10.049 14.167-9.602 15.225-9.248 16.082-8.894 16.937-8.678 17.461-8.606 17.654-8.329 18.374-8.151 18.973-8.071 19.446-7.99 19.922-8 20.319-8.097 20.642-8.196 20.963-8.374 21.238-8.636 21.467-8.897 21.695-9.233 21.924-9.641 22.154L-10.572 22.674-10.038 24.069C-9.615 23.834-9.071 23.551-8.405 23.223-7.83 22.95-7.101 22.624-6.215 22.249-5.329 21.873-4.236 21.438-2.938 20.941L2.858 18.726C3.499 18.481 4.125 18.246 4.739 18.021 5.349 17.797 5.975 17.576 6.608 17.362 7.242 17.148 7.906 16.934 8.596 16.725 9.289 16.515 10.034 16.304 10.836 16.09L6.982 8.246 5.516 8.807C5.655 9.122 5.763 9.37 5.841 9.551 5.92 9.733 5.979 9.875 6.017 9.979 6.059 10.083 6.085 10.156 6.102 10.196 6.117 10.235 6.13 10.271 6.143 10.304 6.347 10.832 6.469 11.364 6.519 11.897 6.565 12.431 6.464 12.959 6.216 13.487 5.966 14.015 5.542 14.535 4.939 15.051 4.337 15.565 3.489 16.078 2.398 16.587L-3.361 19.257C-3.992 17.991-4.603 16.695-5.193 15.367-5.782 14.04-6.311 12.814-6.778 11.688L-9.04 6.351 1.408 2.964Z"/>
<path transform="matrix(1,0,0,-1,359.4818,179.53653)" d="M0 0C.299-.17 .579-.326 .837-.466 1.095-.606 1.341-.748 1.575-.893 1.809-1.038 2.057-1.192 2.319-1.356L14.333 14.474C15.077 15.439 15.77 16.366 16.413 17.257 17.053 18.148 17.665 19.008 18.248 19.834 19.18 21.151 19.992 22.334 20.686 23.39 21.378 24.444 21.95 25.335 22.404 26.066L24.573 25.477 27.685-13.869C28.589-12.679 29.56-11.4 30.601-10.033 31.64-8.668 32.674-7.302 33.702-5.938 34.732-4.572 35.726-3.254 36.691-1.98 37.654-.706 38.524 .449 39.3 1.488 40.076 2.527 40.725 3.392 41.247 4.084 41.767 4.777 42.104 5.229 42.252 5.44 42.678 6.042 42.983 6.563 43.166 7 43.349 7.438 43.431 7.827 43.409 8.169 43.387 8.51 43.279 8.816 43.085 9.092 42.889 9.365 42.643 9.651 42.347 9.943L41.532 10.71 42.394 11.929C42.551 11.733 42.778 11.488 43.074 11.196 43.326 10.956 43.657 10.668 44.073 10.333 44.486 9.998 45.01 9.607 45.641 9.161 46.271 8.714 47.006 8.232 47.847 7.711 48.687 7.19 49.666 6.618 50.782 5.997L49.919 4.778C49.535 5.008 49.194 5.208 48.892 5.378 48.593 5.548 48.321 5.705 48.074 5.847 47.828 5.99 47.588 6.133 47.353 6.278 47.12 6.423 46.864 6.582 46.588 6.755L36.569-6.435C36.286-6.803 35.915-7.297 35.457-7.918 34.995-8.538 34.51-9.189 33.998-9.867 33.487-10.547 32.981-11.224 32.482-11.899 31.983-12.577 31.563-13.154 31.227-13.631 30.781-14.262 30.363-14.854 29.97-15.405 29.579-15.96 29.194-16.513 28.815-17.064 28.435-17.616 28.055-18.183 27.674-18.765 27.295-19.348 26.884-19.979 26.449-20.656L24.21-19.988 20.889 19.064C20.02 17.894 19.085 16.637 18.084 15.296 17.083 13.958 16.078 12.61 15.069 11.255 14.059 9.901 13.077 8.588 12.127 7.319 11.174 6.047 10.317 4.901 9.552 3.877 8.785 2.855 8.146 1.994 7.631 1.297 7.118 .601 6.792 .153 6.654-.043 6.217-.658 5.912-1.181 5.733-1.613 5.555-2.043 5.473-2.427 5.487-2.762 5.503-3.097 5.604-3.406 5.795-3.688 5.984-3.97 6.242-4.267 6.568-4.58L7.383-5.346 6.519-6.565C6.339-6.375 6.101-6.133 5.805-5.838 5.543-5.612 5.207-5.327 4.798-4.985 4.389-4.642 3.869-4.249 3.237-3.803 2.606-3.356 1.878-2.874 1.048-2.351 .221-1.827-.759-1.25-1.89-.619L-1.027 .6C-.644 .371-.301 .171 0 0"/>
<path transform="matrix(1,0,0,-1,423.7048,191.67823)" d="M0 0C-.599 .773-1.146 1.471-1.643 2.097-2.139 2.719-2.541 3.216-2.848 3.585-3.462 4.324-4.061 4.929-4.643 5.403-5.228 5.876-5.881 6.185-6.604 6.331-7.328 6.475-8.163 6.435-9.11 6.204-10.057 5.973-11.203 5.524-12.542 4.854L-13.513 6.023-6.187 10.744C-5.058 9.142-4.058 7.797-3.184 6.708-2.312 5.617-1.528 4.657-.84 3.827 .651 2.035 2.076 .328 3.436-1.293 4.794-2.914 6.048-4.395 7.196-5.736 8.346-7.076 9.371-8.258 10.275-9.277 11.179-10.297 11.928-11.096 12.518-11.673L5.335-16.644 4.314-15.417C4.46-15.296 4.653-15.146 4.895-14.968 5.135-14.787 5.329-14.639 5.475-14.519 5.91-14.155 6.294-13.758 6.627-13.325 6.959-12.893 7.161-12.39 7.233-11.818 7.303-11.246 7.209-10.582 6.949-9.827 6.689-9.072 6.18-8.184 5.421-7.164L2.391-3.119C.595-4.5-1.175-5.869-2.927-7.224-4.679-8.579-6.35-9.88-7.944-11.129-9.539-12.375-11.034-13.542-12.432-14.624-13.827-15.707-15.058-16.67-16.122-17.509-17.186-18.349-18.062-19.04-18.75-19.577-19.439-20.117-19.876-20.464-20.062-20.618-20.641-21.101-21.073-21.532-21.359-21.914-21.644-22.296-21.82-22.654-21.886-22.989-21.953-23.326-21.934-23.649-21.83-23.963-21.723-24.277-21.559-24.609-21.336-24.958L-20.746-25.909-21.893-26.864C-22.097-26.54-22.341-26.152-22.629-25.7-22.888-25.334-23.208-24.887-23.592-24.359-23.976-23.832-24.437-23.242-24.98-22.591-25.531-21.925-26.161-21.21-26.868-20.441-27.573-19.673-28.39-18.838-29.318-17.936L-28.171-16.981C-27.86-17.302-27.58-17.584-27.334-17.825-27.088-18.068-26.86-18.291-26.646-18.493-26.433-18.695-26.234-18.897-26.044-19.097-25.855-19.296-25.655-19.51-25.445-19.736Z"/>
<path transform="matrix(1,0,0,-1,427.2762,222.94522)" d="M0 0C-2.022-.946-3.834-2.132-5.443-3.556-7.049-4.981-8.325-6.556-9.273-8.278-10.219-10-10.768-11.824-10.918-13.752-11.067-15.679-10.687-17.615-9.778-19.558-8.904-21.424-7.762-22.893-6.35-23.965-4.937-25.039-3.361-25.745-1.619-26.088 .122-26.427 1.973-26.432 3.933-26.104 5.891-25.774 7.864-25.144 9.856-24.212 12.093-23.164 14.055-21.9 15.742-20.421 17.426-18.94 18.752-17.347 19.718-15.645 20.682-13.942 21.244-12.187 21.402-10.378 21.561-8.571 21.243-6.82 20.451-5.125 20.035-4.238 19.513-3.375 18.882-2.534 18.249-1.692 17.497-.932 16.62-.252 15.742 .428 14.745 .994 13.623 1.444 12.503 1.894 11.254 2.163 9.878 2.249 8.503 2.334 6.993 2.206 5.352 1.866 3.713 1.524 1.928 .901 0 0M-2.497 4.061C-.058 5.203 2.402 5.843 4.876 5.981 7.352 6.116 9.699 5.779 11.921 4.961 14.138 4.146 16.177 2.871 18.031 1.136 19.885-.597 21.419-2.76 22.631-5.353 23.373-6.936 23.846-8.503 24.049-10.052 24.255-11.604 24.238-13.107 24.001-14.561 23.762-16.016 23.33-17.411 22.703-18.745 22.078-20.078 21.305-21.316 20.389-22.454 19.472-23.594 18.422-24.619 17.238-25.533 16.054-26.446 14.804-27.212 13.482-27.831 10.885-29.046 8.314-29.739 5.77-29.907 3.224-30.077 .833-29.805-1.406-29.093-3.643-28.381-5.642-27.271-7.397-25.767-9.154-24.262-10.533-22.436-11.537-20.295-12.401-18.448-12.969-16.656-13.241-14.92-13.514-13.183-13.545-11.519-13.334-9.924-13.123-8.331-12.699-6.827-12.063-5.412-11.427-3.998-10.629-2.698-9.67-1.509-8.709-.322-7.619 .742-6.4 1.681-5.182 2.619-3.88 3.413-2.497 4.061"/>
<path transform="matrix(1,0,0,-1,161.744,358.9809)" d="M0 0C-.349 .761-.809 1.436-1.381 2.025-1.954 2.615-2.606 3.069-3.339 3.385-4.069 3.701-4.866 3.858-5.724 3.858-6.582 3.853-7.472 3.642-8.394 3.221-9.084 2.905-9.672 2.532-10.162 2.101-10.651 1.671-11.055 1.205-11.373 .706-11.691 .207-11.927-.314-12.082-.86-12.238-1.407-12.325-1.956-12.343-2.505-12.36-3.054-12.315-3.594-12.206-4.124-12.097-4.652-11.936-5.146-11.723-5.61-11.59-5.902-11.458-6.166-11.329-6.401-11.198-6.637-11.054-6.867-10.895-7.093-10.737-7.319-10.557-7.549-10.359-7.782-10.159-8.015-9.93-8.274-9.666-8.56L-10.109-8.973C-10.414-8.721-10.701-8.434-10.972-8.113-11.244-7.792-11.493-7.464-11.721-7.133-11.948-6.803-12.151-6.48-12.331-6.159-12.509-5.84-12.658-5.55-12.774-5.296-13.078-4.633-13.297-3.962-13.432-3.287-13.569-2.612-13.625-1.954-13.604-1.31-13.582-.666-13.48-.043-13.299 .559-13.119 1.162-12.862 1.723-12.529 2.244-12.198 2.764-11.792 3.233-11.317 3.651-10.84 4.067-10.292 4.419-9.671 4.702-9.001 5.011-8.327 5.218-7.652 5.329-6.977 5.439-6.314 5.458-5.664 5.382-5.015 5.308-4.383 5.144-3.77 4.889-3.157 4.635-2.58 4.3-2.042 3.879-1.502 3.459-1.009 2.959-.56 2.379-.111 1.802 .28 1.148 .613 .423 1.033-.494 1.347-1.322 1.552-2.051 1.759-2.783 1.915-3.442 2.02-4.027L-1.153-5.158-1.408-4.602-1.262-4.535C-.952-4.393-.65-4.21-.359-3.984-.069-3.758 .157-3.468 .321-3.114 .483-2.76 .55-2.329 .524-1.821 .498-1.314 .323-.706 0 0"/>
<path transform="matrix(1,0,0,-1,162.3977,373.9679)" d="M0 0C-.737-.466-1.381-1.013-1.934-1.643-2.488-2.272-2.905-2.945-3.186-3.658-3.469-4.371-3.592-5.106-3.555-5.859-3.519-6.613-3.278-7.343-2.83-8.051-2.401-8.731-1.886-9.244-1.287-9.591-.688-9.938-.042-10.133 .649-10.181 1.341-10.228 2.057-10.14 2.8-9.914 3.543-9.691 4.276-9.351 5.001-8.892 5.817-8.377 6.514-7.792 7.094-7.136 7.674-6.48 8.109-5.8 8.4-5.094 8.69-4.386 8.822-3.68 8.795-2.971 8.768-2.263 8.558-1.6 8.17-.982 7.965-.661 7.719-.352 7.434-.057 7.149 .24 6.82 .497 6.449 .718 6.076 .937 5.66 1.108 5.204 1.227 4.748 1.348 4.251 1.391 3.714 1.355 3.177 1.322 2.599 1.198 1.981 .986 1.362 .773 .701 .445 0 0M-1.167 1.45C-.278 2.013 .643 2.382 1.595 2.555 2.547 2.729 3.473 2.712 4.372 2.505 5.272 2.299 6.124 1.904 6.924 1.324 7.728 .744 8.428-.019 9.025-.965 9.389-1.54 9.649-2.125 9.804-2.715 9.96-3.306 10.027-3.889 10.006-4.464 9.985-5.039 9.885-5.6 9.708-6.147 9.531-6.694 9.293-7.212 8.993-7.697 8.694-8.182 8.339-8.631 7.924-9.042 7.51-9.456 7.063-9.812 6.583-10.117 5.637-10.715 4.676-11.108 3.697-11.3 2.72-11.49 1.78-11.5 .879-11.336-.023-11.17-.851-10.837-1.603-10.34-2.358-9.843-2.981-9.204-3.474-8.424-3.899-7.751-4.207-7.083-4.399-6.425-4.59-5.767-4.683-5.122-4.679-4.495-4.676-3.867-4.585-3.266-4.408-2.686-4.231-2.106-3.986-1.564-3.671-1.058-3.358-.549-2.988-.086-2.561 .338-2.137 .763-1.671 1.131-1.167 1.45"/>
<path transform="matrix(1,0,0,-1,168.6837,394.95204)" d="M0 0C.096-.093 .187-.178 .27-.257 .353-.335 .433-.414 .506-.49 .58-.568 .66-.651 .743-.739L6.823 4.081C7.199 4.374 7.549 4.657 7.88 4.93 8.208 5.206 8.523 5.472 8.825 5.726 9.305 6.133 9.725 6.503 10.09 6.834 10.454 7.164 10.758 7.447 11.001 7.678L11.763 7.245 9.118-7.932C9.576-7.571 10.068-7.181 10.594-6.765 11.118-6.349 11.643-5.933 12.164-5.517 12.686-5.101 13.19-4.699 13.678-4.312 14.167-3.924 14.608-3.573 15.002-3.254 15.396-2.938 15.725-2.672 15.99-2.46 16.254-2.251 16.425-2.111 16.501-2.047 16.721-1.861 16.887-1.692 16.998-1.545 17.111-1.398 17.179-1.26 17.204-1.127 17.229-.996 17.218-.87 17.17-.746 17.124-.623 17.059-.492 16.975-.354L16.741 .017 17.186 .392C17.226 .304 17.288 .19 17.372 .05 17.444-.064 17.54-.207 17.665-.373 17.788-.54 17.949-.739 18.145-.97 18.339-1.198 18.569-1.452 18.838-1.733 19.104-2.009 19.418-2.32 19.78-2.665L19.337-3.043C19.213-2.917 19.103-2.81 19.006-2.715 18.91-2.622 18.822-2.536 18.743-2.458 18.663-2.382 18.587-2.303 18.511-2.225 18.437-2.149 18.356-2.063 18.27-1.971L13.199-5.983C13.057-6.095 12.869-6.247 12.635-6.437 12.4-6.627 12.154-6.824 11.893-7.031 11.634-7.238 11.379-7.445 11.123-7.654 10.869-7.861 10.654-8.039 10.481-8.186 10.251-8.381 10.035-8.564 9.834-8.735 9.632-8.907 9.432-9.078 9.235-9.249 9.039-9.422 8.84-9.598 8.639-9.781 8.44-9.964 8.223-10.164 7.991-10.378L7.209-9.907 9.747 5.177C9.305 4.821 8.829 4.438 8.322 4.027 7.813 3.618 7.301 3.207 6.788 2.793 6.275 2.377 5.776 1.978 5.294 1.59 4.811 1.2 4.375 .851 3.986 .537 3.598 .226 3.271-.038 3.01-.25 2.748-.466 2.58-.601 2.51-.663 2.284-.853 2.119-1.02 2.009-1.167 1.899-1.312 1.831-1.448 1.804-1.578 1.777-1.704 1.786-1.833 1.83-1.956 1.875-2.082 1.943-2.22 2.036-2.37L2.27-2.738 1.826-3.116C1.774-3.026 1.708-2.912 1.626-2.772 1.549-2.66 1.45-2.52 1.328-2.351 1.206-2.182 1.048-1.982 .853-1.752 .657-1.521 .429-1.269 .168-.991-.095-.713-.409-.399-.775-.05L-.332 .326C-.208 .202-.099 .095 0 0"/>
<path transform="matrix(1,0,0,-1,186.8963,414.83564)" d="M0 0C.296-.273 .616-.483 .958-.63 1.3-.777 1.648-.853 1.999-.856 2.35-.86 2.693-.789 3.034-.644 3.374-.497 3.689-.264 3.98 .05 4.257 .352 4.439 .692 4.528 1.07 4.617 1.448 4.651 1.842 4.632 2.251 4.613 2.66 4.563 3.073 4.484 3.492 4.406 3.91 4.337 4.317 4.277 4.706 4.214 5.075 4.144 5.479 4.067 5.919 3.99 6.358 3.947 6.805 3.941 7.257 3.934 7.711 3.986 8.153 4.099 8.586 4.211 9.021 4.431 9.415 4.758 9.769 4.92 9.948 5.109 10.119 5.322 10.281 5.537 10.445 5.771 10.578 6.028 10.685 6.284 10.789 6.558 10.861 6.851 10.896 7.142 10.934 7.452 10.918 7.779 10.849 8.106 10.78 8.445 10.651 8.798 10.461 9.153 10.273 9.518 10.005 9.897 9.658 10.378 9.213 10.808 8.747 11.185 8.26 11.562 7.77 11.867 7.328 12.102 6.931L9.891 4.854 9.469 5.244 9.653 5.441C9.825 5.629 9.993 5.85 10.155 6.107 10.319 6.363 10.417 6.644 10.454 6.95 10.492 7.259 10.44 7.592 10.3 7.949 10.158 8.305 9.874 8.681 9.445 9.075 9.188 9.311 8.923 9.489 8.648 9.61 8.373 9.731 8.1 9.796 7.832 9.8 7.564 9.807 7.303 9.753 7.05 9.641 6.796 9.529 6.562 9.356 6.349 9.125 6.067 8.819 5.88 8.493 5.784 8.148 5.691 7.804 5.651 7.45 5.669 7.088 5.686 6.725 5.737 6.358 5.821 5.985 5.906 5.61 5.983 5.246 6.055 4.887 6.162 4.352 6.257 3.829 6.341 3.321 6.424 2.812 6.46 2.325 6.449 1.856 6.436 1.388 6.362 .946 6.227 .525 6.09 .105 5.857-.283 5.53-.639 5.15-1.053 4.701-1.355 4.182-1.543 3.664-1.73 3.126-1.814 2.57-1.792 2.013-1.771 1.463-1.652 .918-1.433 .374-1.215-.112-.908-.54-.516-1.06-.036-1.519 .464-1.913 .982-2.308 1.5-2.631 1.975-2.881 2.406L-.547 4.585-.087 4.165-.326 3.905C-.516 3.699-.693 3.456-.853 3.183-1.016 2.907-1.109 2.605-1.136 2.275-1.162 1.944-1.096 1.588-.932 1.205-.769 .822-.459 .421 0 0"/>
<path transform="matrix(1,0,0,-1,205.3917,413.11943)" d="M0 0C.128-.119 .291-.257 .488-.414 .683-.57 .921-.749 1.198-.951 1.475-1.15 1.786-1.36 2.131-1.578 2.478-1.799 2.865-2.032 3.299-2.28L2.959-2.753C2.811-2.66 2.679-2.581 2.565-2.517 2.452-2.451 2.345-2.389 2.247-2.332 2.148-2.272 2.054-2.215 1.962-2.158 1.872-2.101 1.776-2.039 1.675-1.973 .942-2.909 .313-3.718-.215-4.397-.743-5.08-1.193-5.657-1.566-6.135-1.94-6.615-2.246-7.007-2.484-7.314-2.722-7.623-2.913-7.873-3.053-8.063-3.196-8.253-3.304-8.398-3.379-8.498-3.454-8.595-3.513-8.674-3.556-8.735-4.364-9.855-4.703-10.891-4.576-11.842-4.446-12.793-3.809-13.68-2.662-14.507-1.547-15.31-.466-15.603 .584-15.384 1.633-15.165 2.656-14.414 3.653-13.135 4.816-11.645 5.727-10.475 6.386-9.624 7.044-8.773 7.46-8.229 7.631-7.989 7.8-7.756 7.921-7.554 7.995-7.385 8.068-7.214 8.102-7.064 8.097-6.931 8.092-6.801 8.053-6.682 7.978-6.572 7.902-6.465 7.805-6.351 7.685-6.232L7.37-5.931 7.71-5.458C7.798-5.553 7.909-5.667 8.046-5.798 8.165-5.909 8.317-6.038 8.503-6.19 8.687-6.339 8.914-6.511 9.18-6.701 9.44-6.891 9.74-7.091 10.077-7.305 10.414-7.518 10.8-7.749 11.234-7.996L10.891-8.469C10.743-8.377 10.612-8.298 10.497-8.234 10.384-8.167 10.278-8.106 10.179-8.046 10.082-7.989 9.987-7.932 9.897-7.875 9.805-7.818 9.709-7.756 9.607-7.69L4.346-13.82C3.76-14.497 3.164-15.039 2.556-15.448 1.948-15.857 1.328-16.118 .693-16.237 .059-16.354-.59-16.32-1.256-16.14-1.921-15.957-2.599-15.617-3.29-15.12-3.97-14.63-4.535-14.115-4.988-13.575-5.44-13.033-5.757-12.477-5.939-11.904-6.122-11.331-6.162-10.749-6.063-10.157-5.962-9.565-5.695-8.971-5.264-8.372-5.182-8.258-5.056-8.087-4.884-7.861-4.711-7.633-4.51-7.371-4.283-7.079-4.055-6.784-3.807-6.465-3.542-6.126-3.276-5.786-3.007-5.443-2.736-5.103-2.465-4.761-2.201-4.426-1.944-4.1-1.689-3.772-1.456-3.475-1.247-3.209-1.038-2.94-.864-2.717-.723-2.531-.582-2.348-.491-2.227-.447-2.168-.279-1.935-.159-1.73-.089-1.559-.019-1.386 .012-1.234 .006-1.101-.001-.967-.044-.846-.121-.734-.2-.625-.296-.513-.411-.397L-.726-.095-.385 .378C-.282 .269-.153 .143 0 0"/>
<path transform="matrix(1,0,0,-1,216.8286,436.59233)" d="M0 0C.459 .765 .912 1.521 1.358 2.268 1.804 3.016 2.232 3.732 2.643 4.414 3.053 5.099 3.435 5.736 3.785 6.33 4.135 6.924 4.445 7.452 4.715 7.906 4.985 8.36 5.206 8.735 5.38 9.03 5.554 9.325 5.664 9.515 5.713 9.601 5.852 9.853 5.948 10.069 6 10.247 6.052 10.423 6.067 10.578 6.046 10.708 6.026 10.837 5.972 10.951 5.884 11.048 5.798 11.148 5.687 11.248 5.553 11.353L5.203 11.614 5.485 12.125C5.6 12.03 5.74 11.921 5.903 11.802 6.046 11.7 6.224 11.583 6.438 11.45 6.652 11.317 6.908 11.167 7.208 11.003 7.508 10.839 7.843 10.666 8.216 10.49 8.587 10.311 9.003 10.126 9.464 9.933L9.182 9.422C9.024 9.496 8.883 9.556 8.763 9.608 8.642 9.658 8.53 9.708 8.424 9.753 8.32 9.8 8.218 9.846 8.121 9.893 8.025 9.938 7.921 9.986 7.812 10.038 7.354 9.277 6.9 8.519 6.452 7.768 6.004 7.017 5.576 6.301 5.166 5.622 4.758 4.939 4.375 4.302 4.021 3.708 3.667 3.111 3.353 2.589 3.079 2.132 2.807 1.681 2.584 1.307 2.41 1.013 2.237 .718 2.127 .53 2.082 .447 1.927 .166 1.853-.088 1.859-.311 1.865-.537 1.937-.746 2.074-.941 2.212-1.136 2.404-1.322 2.65-1.5 2.896-1.676 3.188-1.859 3.522-2.042 3.991-2.301 4.413-2.484 4.786-2.591 5.16-2.696 5.511-2.724 5.84-2.676 6.168-2.629 6.487-2.498 6.796-2.287 7.104-2.073 7.427-1.771 7.763-1.383L8.327-1.692C8.216-1.84 8.066-2.028 7.879-2.258 7.691-2.489 7.483-2.729 7.259-2.976 7.035-3.223 6.799-3.466 6.552-3.699 6.306-3.929 6.073-4.119 5.853-4.267 5.241-3.908 4.651-3.549 4.081-3.192 3.512-2.838 2.99-2.51 2.517-2.211 2.042-1.913 1.631-1.65 1.28-1.426 .929-1.203 .664-1.044 .488-.946 .189-.782-.131-.613-.472-.44-.813-.266-1.217-.083-1.683 .112L-1.383 .613C-1.224 .542-1.084 .478-.959 .425-.834 .373-.72 .323-.613 .28-.509 .238-.406 .193-.309 .147-.212 .102-.108 .052 0 0"/>
<path transform="matrix(1,0,0,-1,240.336,434.18443)" d="M0 0C-.347 .159-.663 .299-.948 .425-1.234 .551-1.463 .649-1.635 .72-1.982 .863-2.3 .963-2.587 1.02-2.875 1.077-3.157 1.065-3.434 .984-3.709 .903-3.991 .734-4.275 .483-4.56 .231-4.873-.133-5.215-.609L-5.763-.383-4.094 2.584C-3.412 2.237-2.82 1.954-2.321 1.735-1.821 1.519-1.376 1.331-.986 1.169-.146 .822 .657 .494 1.421 .181 2.186-.131 2.889-.414 3.53-.668 4.17-.92 4.74-1.141 5.238-1.329 5.736-1.517 6.14-1.657 6.449-1.747L4.875-4.773 4.299-4.535C4.326-4.466 4.365-4.378 4.416-4.274 4.468-4.167 4.508-4.081 4.536-4.012 4.62-3.81 4.679-3.601 4.716-3.392 4.752-3.183 4.73-2.971 4.651-2.762 4.571-2.551 4.418-2.339 4.191-2.125 3.961-1.911 3.624-1.697 3.177-1.483L1.394-.639C1.026-1.443 .663-2.239 .305-3.026-.051-3.813-.392-4.566-.714-5.289-1.039-6.009-1.342-6.684-1.627-7.314-1.911-7.942-2.161-8.498-2.376-8.98-2.59-9.465-2.767-9.862-2.907-10.174-3.045-10.485-3.133-10.685-3.169-10.773-3.281-11.044-3.353-11.272-3.38-11.455-3.41-11.64-3.405-11.795-3.367-11.923-3.33-12.051-3.265-12.158-3.17-12.249-3.076-12.339-2.959-12.422-2.819-12.503L-2.442-12.724-2.663-13.261C-2.793-13.188-2.947-13.097-3.129-12.995-3.285-12.914-3.478-12.819-3.707-12.707-3.935-12.593-4.201-12.474-4.507-12.349-4.819-12.22-5.168-12.087-5.551-11.952-5.935-11.814-6.368-11.673-6.854-11.533L-6.631-10.994C-6.465-11.048-6.318-11.096-6.19-11.134-6.06-11.172-5.94-11.208-5.83-11.238-5.72-11.269-5.613-11.303-5.511-11.336-5.41-11.372-5.302-11.41-5.188-11.448Z"/>
<path transform="matrix(1,0,0,-1,252.7486,445.23033)" d="M0 0C-.226-.841-.327-1.683-.307-2.52-.284-3.356-.135-4.134 .14-4.849 .417-5.567 .824-6.187 1.363-6.717 1.9-7.247 2.574-7.618 3.384-7.837 4.16-8.046 4.886-8.072 5.561-7.92 6.237-7.768 6.843-7.476 7.383-7.043 7.923-6.606 8.39-6.054 8.784-5.389 9.178-4.718 9.487-3.972 9.709-3.142 9.958-2.213 10.074-1.31 10.056-.433 10.037 .442 9.894 1.238 9.629 1.954 9.363 2.672 8.98 3.28 8.48 3.782 7.98 4.283 7.377 4.63 6.672 4.818 6.303 4.916 5.913 4.977 5.504 5.001 5.094 5.025 4.677 4.989 4.254 4.899 3.831 4.809 3.41 4.652 2.994 4.431 2.577 4.21 2.182 3.903 1.811 3.516 1.439 3.126 1.099 2.643 .789 2.068 .478 1.49 .215 .801 0 0M-1.84 .273C-1.568 1.291-1.141 2.184-.56 2.959 .023 3.732 .713 4.348 1.514 4.806 2.316 5.263 3.209 5.553 4.193 5.669 5.178 5.788 6.209 5.702 7.288 5.412 7.947 5.237 8.535 4.982 9.049 4.654 9.564 4.326 10.007 3.943 10.383 3.506 10.757 3.069 11.065 2.589 11.306 2.066 11.546 1.545 11.722 1.003 11.831 .442 11.941-.116 11.984-.689 11.96-1.272 11.934-1.854 11.848-2.422 11.701-2.971 11.412-4.053 10.971-4.994 10.383-5.795 9.793-6.599 9.111-7.245 8.335-7.732 7.56-8.222 6.727-8.541 5.834-8.688 4.944-8.833 4.053-8.785 3.16-8.548 2.391-8.341 1.714-8.06 1.127-7.704 .54-7.35 .036-6.941-.387-6.477-.811-6.014-1.154-5.51-1.416-4.963-1.678-4.419-1.866-3.853-1.979-3.266-2.092-2.684-2.136-2.089-2.111-1.49-2.083-.891-1.994-.302-1.84 .273"/>
<path transform="matrix(1,0,0,-1,275.2315,450.29573)" d="M0 0 .567-.076C1.398-.188 2.098-.181 2.668-.057 3.239 .064 3.705 .264 4.067 .54 4.427 .815 4.701 1.15 4.886 1.545 5.069 1.937 5.191 2.353 5.25 2.791 5.278 3.002 5.285 3.221 5.272 3.451 5.258 3.677 5.214 3.905 5.139 4.131 5.064 4.357 4.956 4.576 4.811 4.787 4.667 4.999 4.484 5.191 4.261 5.367 4.037 5.543 3.766 5.693 3.449 5.819 3.131 5.947 2.76 6.038 2.335 6.095 2.097 6.126 1.879 6.149 1.684 6.161 1.49 6.173 1.274 6.175 1.036 6.168ZM-4.105-5.992C-3.93-6.002-3.776-6.009-3.642-6.014-3.507-6.016-3.382-6.021-3.267-6.023-3.153-6.023-3.044-6.028-2.936-6.035-2.829-6.045-2.715-6.052-2.594-6.061-2.444-5.184-2.296-4.314-2.151-3.456-2.005-2.598-1.867-1.776-1.735-.989-1.602-.204-1.477 .53-1.36 1.21-1.242 1.89-1.137 2.489-1.047 3.009-.958 3.532-.885 3.962-.831 4.3-.775 4.635-.742 4.854-.727 4.954-.689 5.239-.679 5.474-.695 5.66-.711 5.843-.754 5.992-.822 6.107-.893 6.221-.986 6.306-1.106 6.368-1.228 6.427-1.368 6.482-1.531 6.53L-1.961 6.648-1.885 7.226C-1.702 7.176-1.506 7.121-1.297 7.067-1.12 7.022-.919 6.979-.691 6.936-.464 6.891-.227 6.853 .019 6.82 .245 6.789 .462 6.774 .672 6.772H1.32C1.544 6.772 1.78 6.77 2.029 6.765 2.278 6.758 2.552 6.734 2.851 6.696 3.648 6.589 4.317 6.399 4.854 6.13 5.392 5.857 5.819 5.534 6.134 5.158 6.448 4.78 6.662 4.371 6.771 3.927 6.88 3.482 6.906 3.04 6.847 2.593 6.764 1.985 6.582 1.476 6.303 1.067 6.021 .661 5.699 .326 5.338 .067 4.974-.193 4.6-.39 4.213-.523 3.827-.658 3.489-.749 3.199-.799 3.582-1.776 3.983-2.7 4.4-3.575 4.816-4.45 5.239-5.225 5.666-5.897 6.093-6.57 6.52-7.112 6.948-7.523 7.377-7.934 7.798-8.17 8.209-8.224L8.142-8.571C7.885-8.576 7.636-8.564 7.397-8.533 6.854-8.445 6.349-8.246 5.882-7.93 5.414-7.614 4.979-7.228 4.58-6.777 4.18-6.325 3.816-5.824 3.487-5.277 3.158-4.73 2.863-4.184 2.6-3.644 2.339-3.102 2.111-2.589 1.919-2.101 1.727-1.616 1.569-1.205 1.446-.863 1.272-.853 1.089-.839 .899-.82 .708-.801 .508-.777 .295-.749L-.114-.694C-.147-.894-.187-1.122-.231-1.383-.276-1.643-.322-1.913-.368-2.189-.416-2.467-.464-2.745-.512-3.031-.56-3.316-.604-3.577-.643-3.822-.682-4.067-.718-4.283-.75-4.471-.781-4.659-.805-4.799-.816-4.892-.855-5.177-.865-5.41-.849-5.591-.832-5.771-.792-5.921-.726-6.038-.661-6.156-.568-6.244-.447-6.309-.328-6.373-.183-6.427-.014-6.477L.406-6.596 .329-7.171C.185-7.133 .013-7.086-.19-7.031-.36-6.996-.57-6.953-.821-6.903-1.071-6.851-1.362-6.805-1.694-6.76-2.034-6.715-2.407-6.675-2.814-6.641-3.221-6.606-3.677-6.584-4.182-6.57Z"/>
<path transform="matrix(1,0,0,-1,296.3939,447.30543)" d="M0 0-2.287-6.111 1.812-6.221 .29-.007ZM.957 2.719 4.058-8.355C4.283-9.178 4.536-9.843 4.818-10.349 5.099-10.856 5.461-11.153 5.901-11.238L6.45-11.343 6.414-11.925C6.074-11.875 5.705-11.835 5.307-11.804 4.908-11.773 4.502-11.752 4.087-11.74 3.645-11.728 3.212-11.728 2.789-11.738 2.367-11.745 1.965-11.764 1.582-11.795L1.619-11.212 3.038-11.12 1.994-6.929 1.602-6.919C1.421-6.915 1.184-6.91 .889-6.905 .594-6.9 .26-6.9-.112-6.903-.484-6.908-.884-6.915-1.313-6.931-1.742-6.946-2.186-6.969-2.642-7.005L-3.237-8.533C-3.365-8.852-3.478-9.154-3.576-9.437-3.674-9.722-3.727-9.972-3.733-10.185-3.738-10.399-3.686-10.575-3.575-10.716-3.467-10.856-3.271-10.951-2.991-10.998L-2.401-11.105-2.436-11.688C-2.798-11.635-3.142-11.593-3.474-11.557-3.804-11.521-4.149-11.5-4.51-11.49-4.873-11.481-5.248-11.483-5.638-11.5-6.027-11.517-6.46-11.538-6.936-11.564L-6.9-10.982C-6.706-10.967-6.521-10.953-6.347-10.937-6.192-10.929-6.038-10.92-5.883-10.91-5.729-10.901-5.601-10.894-5.5-10.891-5.21-10.323-4.907-9.701-4.591-9.025-4.274-8.353-3.951-7.644-3.619-6.903-3.287-6.161-2.956-5.393-2.623-4.597-2.29-3.803-1.962-3.005-1.638-2.203-1.314-1.402-1.004-.604-.705 .193-.405 .986-.121 1.759 .147 2.508Z"/>
<path transform="matrix(1,0,0,-1,325.0391,443.46183)" d="M0 0C-.225-.04-.448-.083-.672-.128-.896-.174-1.109-.221-1.313-.266-1.515-.314-1.706-.364-1.88-.409-2.056-.454-2.206-.494-2.328-.532-2.045-2.477-1.785-4.231-1.551-5.795-1.449-6.463-1.349-7.121-1.254-7.768-1.159-8.415-1.072-8.997-.992-9.518-.914-10.038-.846-10.471-.794-10.82-.739-11.167-.707-11.372-.695-11.431-.638-11.747-.555-12.006-.45-12.208-.345-12.41-.184-12.558 .031-12.65 .246-12.743 .532-12.786 .889-12.774 1.244-12.762 1.704-12.705 2.265-12.6 2.602-12.539 2.988-12.441 3.424-12.306 3.86-12.17 4.304-11.982 4.755-11.742 5.206-11.502 5.636-11.2 6.046-10.834 6.457-10.471 6.801-10.024 7.079-9.496 7.358-8.966 7.547-8.35 7.65-7.647 7.751-6.943 7.718-6.133 7.551-5.217 7.46-4.733 7.329-4.243 7.162-3.753 6.992-3.261 6.771-2.798 6.499-2.358 6.227-1.916 5.895-1.517 5.504-1.155 5.113-.796 4.653-.504 4.124-.28 3.595-.057 2.989 .083 2.308 .145 1.628 .207 .858 .159 0 0M-3.462-13.606C-3.295-13.563-3.145-13.52-3.015-13.485-2.886-13.447-2.767-13.411-2.657-13.375-2.547-13.342-2.44-13.314-2.337-13.287-2.232-13.261-2.12-13.233-2.004-13.204-2.295-11.265-2.559-9.508-2.794-7.939-2.898-7.271-2.997-6.61-3.094-5.962-3.19-5.313-3.277-4.723-3.354-4.193-3.431-3.663-3.498-3.221-3.554-2.867-3.609-2.512-3.644-2.296-3.658-2.218-3.715-1.913-3.779-1.673-3.853-1.497-3.926-1.322-4.011-1.188-4.11-1.101-4.208-1.013-4.321-.958-4.452-.934-4.583-.91-4.734-.901-4.903-.906L-5.339-.925-5.445-.349C-5.248-.342-5.036-.33-4.806-.316-4.611-.299-4.387-.276-4.131-.24-3.875-.207-3.601-.164-3.311-.109-2.949-.043-2.587 .036-2.226 .131-1.865 .226-1.496 .323-1.118 .423-.742 .523-.358 .623 .036 .723 .43 .822 .845 .913 1.28 .994 2.289 1.179 3.242 1.184 4.14 1.01 5.038 .834 5.84 .499 6.55 .002 7.257-.492 7.855-1.136 8.341-1.925 8.828-2.715 9.167-3.625 9.358-4.661 9.446-5.134 9.487-5.645 9.483-6.194 9.478-6.744 9.408-7.302 9.27-7.868 9.134-8.436 8.916-8.995 8.619-9.541 8.322-10.093 7.926-10.599 7.434-11.07 6.942-11.538 6.336-11.952 5.619-12.31 4.9-12.667 4.052-12.936 3.07-13.116 2.767-13.173 2.457-13.218 2.139-13.254 1.822-13.287 1.501-13.321 1.177-13.349 .851-13.378 .521-13.411 .187-13.444-.147-13.48-.483-13.527-.819-13.589-1.135-13.649-1.505-13.722-1.929-13.81-2.351-13.898-2.827-14.022-3.356-14.181Z"/>
<path transform="matrix(1,0,0,-1,349.1597,444.28193)" d="M0 0C-.401-.071-.803-.147-1.208-.233-1.612-.321-1.998-.406-2.364-.494-2.73-.582-3.063-.666-3.366-.744-3.668-.82-3.917-.884-4.112-.932-3.896-1.704-3.7-2.413-3.526-3.052-3.454-3.323-3.379-3.594-3.299-3.865-3.222-4.134-3.152-4.383-3.089-4.614-3.027-4.842-2.972-5.037-2.925-5.196-2.879-5.358-2.845-5.467-2.827-5.524-2.722-5.855-2.593-6.107-2.442-6.275-2.289-6.444-2.106-6.551-1.892-6.596-1.678-6.641-1.431-6.637-1.154-6.582-.875-6.53-.556-6.446-.198-6.335 .311-6.173 .738-6.002 1.078-5.824 1.419-5.645 1.689-5.431 1.886-5.179 2.085-4.925 2.214-4.623 2.278-4.269 2.343-3.917 2.35-3.485 2.3-2.971L2.904-2.781C2.932-2.962 2.963-3.192 2.995-3.47 3.027-3.751 3.053-4.046 3.072-4.362 3.09-4.676 3.096-4.992 3.088-5.313 3.079-5.631 3.054-5.921 3.01-6.183 2.328-6.377 1.672-6.556 1.043-6.715 .417-6.874-.156-7.019-.674-7.148-1.192-7.276-1.644-7.388-2.029-7.483-2.414-7.576-2.701-7.654-2.893-7.713-3.22-7.816-3.562-7.932-3.922-8.06-4.282-8.189-4.693-8.353-5.157-8.557L-5.314-7.994C-5.151-7.93-5.008-7.87-4.885-7.816-4.761-7.763-4.647-7.713-4.542-7.666-4.438-7.618-4.336-7.576-4.235-7.537-4.135-7.499-4.029-7.459-3.915-7.416-4.443-5.524-4.922-3.815-5.348-2.287-5.534-1.638-5.716-.994-5.891-.357-6.067 .278-6.228 .856-6.369 1.372-6.513 1.887-6.633 2.32-6.733 2.669-6.833 3.016-6.895 3.228-6.918 3.304-7.01 3.592-7.101 3.817-7.19 3.981-7.282 4.145-7.381 4.267-7.489 4.34-7.597 4.416-7.719 4.457-7.855 4.462-7.99 4.469-8.147 4.457-8.328 4.428L-8.739 4.362-8.915 4.918C-8.727 4.949-8.493 4.994-8.21 5.056-7.968 5.111-7.666 5.189-7.303 5.289-6.942 5.391-6.502 5.522-5.985 5.686L-3.676 6.416C-3.421 6.496-3.172 6.577-2.931 6.658-2.688 6.739-2.445 6.822-2.199 6.91-1.952 6.998-1.697 7.095-1.437 7.2-1.174 7.305-.894 7.421-.598 7.549L.131 4.217-.454 4.031C-.488 4.162-.516 4.264-.535 4.338-.556 4.412-.572 4.469-.586 4.512-.598 4.554-.607 4.583-.613 4.597-.618 4.614-.623 4.628-.625 4.642-.693 4.851-.784 5.044-.898 5.218-1.014 5.393-1.174 5.531-1.377 5.631-1.582 5.733-1.837 5.788-2.146 5.8-2.457 5.809-2.841 5.762-3.297 5.65L-5.705 5.068C-5.591 4.528-5.462 3.984-5.321 3.435-5.178 2.886-5.042 2.382-4.911 1.925L-4.306-.254-.29 1.248Z"/>
<path transform="matrix(1,0,0,-1,371.0317,441.7195)" d="M0 0C.114 .071 .217 .14 .314 .204 .409 .266 .503 .326 .595 .38 .688 .435 .788 .492 .891 .554 .519 1.362 .15 2.163-.216 2.952-.582 3.744-.934 4.5-1.269 5.222-1.607 5.945-1.918 6.62-2.206 7.247-2.492 7.875-2.747 8.429-2.968 8.909-3.19 9.392-3.372 9.786-3.517 10.095-3.663 10.404-3.758 10.604-3.803 10.692-3.934 10.951-4.059 11.148-4.18 11.291-4.301 11.431-4.421 11.531-4.542 11.585-4.665 11.64-4.792 11.657-4.925 11.64-5.058 11.621-5.202 11.585-5.359 11.538L-5.78 11.391-6.042 11.914C-5.9 11.954-5.729 12.011-5.532 12.08-5.367 12.142-5.169 12.223-4.941 12.325-4.71 12.427-4.441 12.553-4.137 12.71-3.833 12.862-3.501 13.043-3.144 13.249-2.787 13.456-2.4 13.696-1.981 13.967L-1.717 13.447C-1.867 13.356-1.999 13.276-2.112 13.202-2.226 13.131-2.331 13.066-2.423 13.007-2.518 12.948-2.611 12.89-2.704 12.838-2.797 12.784-2.895 12.724-3 12.665-2.628 11.854-2.257 11.055-1.89 10.262-1.521 9.468-1.172 8.712-.84 7.989-.51 7.266-.197 6.594 .095 5.964 .387 5.334 .644 4.78 .865 4.3 1.085 3.817 1.269 3.423 1.414 3.114 1.559 2.805 1.653 2.61 1.696 2.524 1.829 2.263 1.956 2.061 2.075 1.918 2.196 1.778 2.318 1.678 2.439 1.624 2.56 1.569 2.688 1.55 2.824 1.566 2.959 1.581 3.102 1.616 3.254 1.671L3.668 1.811 3.93 1.293C3.79 1.243 3.621 1.184 3.423 1.115 3.262 1.048 3.064 .965 2.83 .865 2.594 .763 2.328 .637 2.03 .487 1.725 .333 1.394 .155 1.039-.048 .683-.252 .294-.49-.131-.765L-.395-.245C-.245-.154-.114-.074 0 0"/>
<path transform="matrix(1,0,0,-1,393.9317,425.8601)" d="M0 0C.223-.326 .417-.575 .58-.749 .743-.922 .895-1.044 1.035-1.11 1.177-1.177 1.313-1.198 1.446-1.174 1.579-1.15 1.732-1.098 1.903-1.017L2.296-.827 2.617-1.314C2.484-1.379 2.322-1.459 2.135-1.55 1.982-1.635 1.795-1.742 1.572-1.868 1.351-1.994 1.099-2.151 .816-2.339 .528-2.529 .217-2.748-.114-2.99-.445-3.233-.806-3.518-1.194-3.839L-1.517-3.352C-1.379-3.245-1.259-3.15-1.154-3.064-1.049-2.978-.953-2.9-.865-2.826-.778-2.753-.691-2.684-.606-2.617-.519-2.553-.428-2.484-.332-2.413L-6.053 6.154-6.212 6.049-4.701-5.498-5.095-5.759-14.641 .516-14.784 .421-11.023-6.361C-10.979-6.451-10.925-6.556-10.858-6.667-10.792-6.779-10.726-6.893-10.662-7.007-10.599-7.121-10.537-7.226-10.477-7.324-10.417-7.421-10.368-7.497-10.332-7.552-10.188-7.77-10.052-7.932-9.926-8.037-9.8-8.141-9.677-8.21-9.554-8.241-9.433-8.274-9.308-8.274-9.181-8.243-9.054-8.21-8.917-8.158-8.774-8.087L-8.379-7.899-8.057-8.384C-8.158-8.426-8.287-8.484-8.448-8.557-8.579-8.629-8.74-8.719-8.934-8.826-9.128-8.933-9.355-9.073-9.614-9.247-9.876-9.418-10.165-9.622-10.483-9.857-10.8-10.09-11.153-10.371-11.543-10.692L-11.865-10.207C-11.727-10.1-11.606-10.002-11.501-9.917-11.398-9.831-11.301-9.753-11.214-9.677-11.127-9.603-11.04-9.534-10.953-9.47-10.869-9.406-10.777-9.337-10.68-9.266L-16.761 2.56-16.147 3.363-5.901-3.304-5.783-3.226-7.432 8.871-6.703 9.594Z"/>
<path transform="matrix(1,0,0,-1,400.2058,415.0495)" d="M0 0C.581-.649 1.229-1.193 1.942-1.633 2.655-2.073 3.388-2.372 4.138-2.532 4.889-2.693 5.632-2.691 6.37-2.532 7.107-2.37 7.788-2.009 8.412-1.45 9.011-.913 9.431-.321 9.673 .328 9.914 .977 10.001 1.645 9.932 2.334 9.862 3.024 9.655 3.715 9.312 4.412 8.968 5.106 8.511 5.774 7.937 6.411 7.294 7.131 6.6 7.72 5.857 8.184 5.113 8.648 4.369 8.964 3.624 9.132 2.879 9.301 2.16 9.313 1.467 9.168 .773 9.023 .153 8.707-.39 8.22-.674 7.965-.939 7.673-1.181 7.34-1.425 7.01-1.625 6.644-1.779 6.24-1.935 5.836-2.034 5.398-2.076 4.928-2.118 4.457-2.077 3.96-1.954 3.437-1.831 2.912-1.613 2.363-1.3 1.79-.988 1.215-.555 .618 0 0M-2.819 9.349-2.278 13.896C-2.028 13.815-1.77 13.756-1.509 13.713-1.248 13.675-.996 13.658-.754 13.67L-2.24 9.261ZM-1.237-1.391C-1.938-.609-2.454 .238-2.785 1.148-3.114 2.056-3.252 2.974-3.197 3.894-3.142 4.816-2.898 5.721-2.458 6.608-2.019 7.497-1.382 8.315-.551 9.061-.043 9.515 .49 9.869 1.046 10.121 1.602 10.371 2.165 10.535 2.737 10.611 3.306 10.685 3.877 10.68 4.446 10.597 5.015 10.513 5.565 10.364 6.093 10.15 6.622 9.936 7.125 9.66 7.599 9.32 8.075 8.98 8.501 8.598 8.88 8.174 9.628 7.343 10.177 6.458 10.528 5.527 10.877 4.595 11.045 3.67 11.032 2.753 11.017 1.837 10.828 .965 10.464 .14 10.1-.687 9.572-1.407 8.886-2.025 8.292-2.555 7.687-2.969 7.068-3.268 6.45-3.566 5.832-3.765 5.213-3.865 4.594-3.967 3.983-3.977 3.382-3.898 2.782-3.82 2.206-3.67 1.653-3.444 1.102-3.218 .582-2.931 .094-2.581-.395-2.232-.839-1.835-1.237-1.391"/>
<path transform="matrix(1,0,0,-1,422.798,399.93183)" d="M0 0 .084 .1-4.866 9.044C-5.038 9.368-5.188 9.627-5.315 9.819-5.441 10.012-5.56 10.155-5.673 10.252-5.8 10.359-5.919 10.397-6.03 10.366-6.142 10.333-6.274 10.254-6.425 10.128L-6.752 9.838-7.195 10.219C-7.105 10.283-6.996 10.368-6.866 10.478-6.759 10.573-6.629 10.699-6.476 10.856-6.323 11.015-6.145 11.212-5.943 11.45-5.745 11.681-5.529 11.952-5.292 12.263-5.057 12.574-4.798 12.938-4.516 13.349L-4.074 12.969C-4.178 12.829-4.268 12.703-4.345 12.593-4.421 12.482-4.491 12.382-4.556 12.291-4.619 12.201-4.684 12.111-4.748 12.028-4.813 11.94-4.882 11.849-4.956 11.754L1.546-1.284 1.154-2.004-10.447 2.522C-10.839 2.672-11.167 2.776-11.432 2.831-11.698 2.886-11.927 2.902-12.117 2.881-12.307 2.86-12.473 2.805-12.615 2.719-12.754 2.631-12.893 2.527-13.031 2.408L-13.359 2.12-13.802 2.498C-13.668 2.612-13.516 2.748-13.348 2.905-13.207 3.038-13.039 3.209-12.845 3.413-12.652 3.618-12.439 3.858-12.204 4.134-11.968 4.409-11.721 4.716-11.458 5.058-11.198 5.398-10.927 5.774-10.645 6.187L-10.203 5.807C-10.305 5.667-10.396 5.541-10.472 5.429-10.549 5.32-10.62 5.22-10.685 5.127-10.749 5.037-10.812 4.949-10.877 4.863-10.943 4.778-11.011 4.687-11.085 4.59Z"/>
<path transform="matrix(1,0,0,-1,431.8448,379.91993)" d="M0 0C-.27-.304-.534-.616-.797-.937-1.06-1.255-1.307-1.564-1.539-1.861-1.77-2.156-1.98-2.429-2.168-2.679-2.354-2.928-2.51-3.133-2.634-3.292-1.982-3.76-1.389-4.191-.853-4.583-.629-4.752-.401-4.916-.171-5.077 .058-5.239 .27-5.391 .46-5.531 .652-5.672 .816-5.79 .953-5.888 1.09-5.983 1.185-6.047 1.235-6.083 1.524-6.275 1.78-6.392 2.005-6.43 2.228-6.468 2.438-6.435 2.634-6.337 2.829-6.237 3.02-6.08 3.204-5.866 3.388-5.65 3.585-5.389 3.795-5.077 4.093-4.63 4.319-4.233 4.476-3.882 4.63-3.53 4.708-3.195 4.704-2.871 4.702-2.553 4.615-2.234 4.444-1.918 4.273-1.602 4.009-1.26 3.652-.889L4.004-.364C4.14-.487 4.307-.649 4.506-.846 4.705-1.044 4.91-1.26 5.121-1.495 5.332-1.73 5.534-1.973 5.727-2.23 5.92-2.484 6.08-2.726 6.209-2.957 5.796-3.535 5.395-4.084 5.004-4.6 4.614-5.115 4.255-5.586 3.93-6.009 3.607-6.432 3.322-6.801 3.079-7.114 2.838-7.428 2.66-7.668 2.548-7.835 2.357-8.117 2.162-8.422 1.96-8.747 1.759-9.073 1.539-9.458 1.304-9.905L.831-9.563C.918-9.411 .992-9.275 1.055-9.156 1.118-9.037 1.177-8.928 1.229-8.826 1.282-8.724 1.336-8.626 1.388-8.533 1.443-8.441 1.501-8.343 1.563-8.239-.03-7.091-1.468-6.052-2.756-5.122-3.306-4.728-3.848-4.338-4.383-3.951-4.917-3.563-5.401-3.214-5.834-2.898-6.268-2.584-6.632-2.32-6.927-2.111-7.223-1.902-7.402-1.773-7.469-1.728-7.719-1.562-7.932-1.44-8.104-1.369-8.277-1.298-8.43-1.267-8.561-1.274-8.691-1.284-8.813-1.329-8.922-1.407-9.031-1.488-9.148-1.595-9.271-1.73L-9.551-2.039-10.034-1.714C-9.909-1.574-9.753-1.391-9.571-1.165-9.415-.972-9.228-.723-9.008-.418-8.788-.114-8.526 .264-8.223 .715L-6.874 2.726C-6.725 2.947-6.581 3.166-6.442 3.38-6.303 3.592-6.164 3.81-6.027 4.034-5.889 4.255-5.751 4.49-5.611 4.735-5.471 4.98-5.324 5.244-5.174 5.529L-2.527 3.378-2.868 2.869C-2.976 2.95-3.06 3.012-3.123 3.059-3.184 3.104-3.234 3.14-3.271 3.164-3.305 3.188-3.33 3.204-3.344 3.214-3.359 3.223-3.372 3.23-3.382 3.237-3.567 3.361-3.757 3.456-3.955 3.52-4.155 3.585-4.365 3.594-4.586 3.544-4.81 3.497-5.045 3.38-5.294 3.197-5.542 3.012-5.812 2.734-6.101 2.363L-7.621 .406C-7.194 .055-6.754-.29-6.3-.63-5.847-.972-5.427-1.281-5.039-1.557L-3.207-2.883-1.004 .794Z"/>
<path transform="matrix(1,0,0,-1,442.2466,374.2008)" d="M0 0C.052 .124 .1 .238 .143 .345 .185 .452 .229 .554 .275 .651 .319 .749 .367 .851 .42 .96-.347 1.414-1.105 1.864-1.856 2.303-2.606 2.745-3.323 3.169-4.011 3.575-4.698 3.977-5.339 4.357-5.932 4.709-6.524 5.061-7.049 5.372-7.504 5.643-7.959 5.914-8.334 6.135-8.629 6.306-8.924 6.477-9.117 6.587-9.204 6.637-9.457 6.772-9.673 6.865-9.854 6.915-10.033 6.962-10.189 6.974-10.32 6.95-10.451 6.927-10.567 6.867-10.664 6.777-10.764 6.686-10.864 6.577-10.964 6.449L-11.229 6.087-11.74 6.366C-11.646 6.482-11.538 6.627-11.416 6.796-11.315 6.938-11.198 7.119-11.066 7.333-10.934 7.547-10.787 7.804-10.624 8.106-10.461 8.405-10.291 8.743-10.115 9.116-9.939 9.489-9.756 9.905-9.566 10.366L-9.054 10.088C-9.126 9.929-9.187 9.786-9.239 9.663-9.292 9.539-9.339 9.427-9.383 9.323-9.428 9.223-9.472 9.123-9.518 9.025-9.564 8.928-9.613 8.823-9.664 8.714-8.897 8.26-8.138 7.811-7.384 7.369-6.631 6.924-5.912 6.499-5.229 6.095-4.547 5.691-3.907 5.31-3.309 4.958-2.713 4.607-2.187 4.298-1.732 4.027-1.276 3.756-.901 3.535-.606 3.363-.311 3.192-.122 3.083-.039 3.04 .22 2.898 .439 2.805 .619 2.757 .797 2.707 .953 2.696 1.084 2.719 1.215 2.743 1.332 2.8 1.435 2.89 1.537 2.981 1.634 3.09 1.729 3.223L1.988 3.573 2.501 3.295C2.411 3.176 2.307 3.031 2.184 2.86 2.088 2.715 1.974 2.534 1.837 2.318 1.701 2.101 1.552 1.847 1.393 1.552 1.23 1.253 1.059 .918 .882 .549 .704 .181 .519-.238 .326-.704L-.185-.425C-.114-.266-.052-.126 0 0"/>
<path transform="matrix(1,0,0,-1,449.7341,359.4301)" d="M0 0C.159 .371 .251 .742 .275 1.112 .301 1.486 .257 1.837 .145 2.17 .032 2.503-.15 2.805-.402 3.076-.654 3.349-.976 3.57-1.369 3.739-1.745 3.901-2.125 3.96-2.513 3.917-2.899 3.877-3.281 3.777-3.661 3.625-4.041 3.47-4.414 3.287-4.784 3.073-5.152 2.86-5.511 2.66-5.862 2.474-6.187 2.294-6.544 2.094-6.934 1.873-7.324 1.654-7.73 1.467-8.155 1.31-8.58 1.153-9.015 1.055-9.462 1.017-9.909 .979-10.352 1.055-10.795 1.248-11.017 1.343-11.241 1.464-11.464 1.612-11.69 1.759-11.895 1.935-12.08 2.142-12.264 2.348-12.422 2.584-12.553 2.848-12.684 3.111-12.772 3.409-12.814 3.739-12.858 4.072-12.85 4.435-12.789 4.83-12.729 5.227-12.597 5.66-12.395 6.133-12.136 6.734-11.839 7.295-11.502 7.811-11.168 8.329-10.852 8.764-10.555 9.116L-7.863 7.72-8.09 7.195-8.339 7.302C-8.573 7.402-8.837 7.485-9.132 7.554-9.427 7.623-9.725 7.623-10.029 7.556-10.329 7.49-10.626 7.331-10.915 7.079-11.205 6.829-11.465 6.435-11.696 5.9-11.834 5.579-11.914 5.27-11.936 4.97-11.96 4.668-11.929 4.393-11.846 4.138-11.761 3.882-11.625 3.653-11.435 3.451-11.243 3.249-11.004 3.088-10.714 2.962-10.333 2.798-9.964 2.729-9.608 2.755-9.251 2.779-8.904 2.86-8.568 2.997-8.233 3.133-7.902 3.304-7.578 3.508-7.253 3.71-6.935 3.905-6.621 4.091-6.152 4.371-5.689 4.635-5.238 4.88-4.786 5.127-4.337 5.324-3.892 5.467-3.447 5.612-3.005 5.691-2.562 5.7-2.119 5.712-1.677 5.622-1.234 5.431-.717 5.208-.284 4.885 .067 4.457 .416 4.031 .671 3.551 .838 3.019 1.002 2.486 1.072 1.928 1.047 1.343 1.021 .756 .894 .197 .663-.338 .385-.989 .065-1.585-.292-2.132-.65-2.674-.99-3.135-1.312-3.516L-4.144-2.037-3.899-1.464-3.576-1.602C-3.317-1.714-3.032-1.799-2.719-1.861-2.407-1.923-2.089-1.911-1.768-1.826-1.448-1.742-1.135-1.559-.828-1.279-.523-.998-.246-.573 0 0"/>
</g>
</g>
</g>
</svg>
