<svg xmlns="http://www.w3.org/2000/svg" xmlns:xlink="http://www.w3.org/1999/xlink" xmlns:inkscape="http://www.inkscape.org/namespaces/inkscape" version="1.1" width="566.929" height="566.929" viewBox="0 0 566.929 566.929">
<defs>
<clipPath id="clip_3">
<path transform="matrix(1,0,0,-1,0,566.929)" d="M0 566.929H566.929V0H0Z"/>
</clipPath>
</defs>
<g>
<g inkscape:groupmode="layer" inkscape:label="Camada 1">
<path transform="matrix(1,0,0,-1,0,566.929)" d="M0 0H566.929V566.929H0Z" fill="#ecded1"/>
<g clip-path="url(#clip_3)">
<path transform="matrix(1,0,0,-1,317.5999,318.31935)" d="M0 0C-2.601 3.949-7.705 6.934-12.328 7.705H-12.521C-12.617 7.705-12.714 7.801-12.617 7.801-6.935 10.402-2.697 15.891-2.697 22.826-2.793 28.219-6.26 32.361-10.595 34.962-13.965 36.984-19.455 37.466-23.693 37.466-24.945 37.466-26.101 37.466-27.064 37.369-28.798 37.177-31.302 37.081-33.517 37.081-36.31 37.081-38.718 37.177-39.296 37.177L-39.489 36.502C-37.563 36.213-36.792 35.347-36.406 34.48-36.213 33.999-36.117 33.42-36.213 32.746-36.232 24.038-36.251 15.33-36.27 6.621-35.206 6.483-33.78 6.405-32.123 6.621-30.658 6.812-29.435 7.177-28.506 7.529-28.571 16.448-28.636 25.368-28.701 34.287-27.563 34.587-25.897 34.907-23.885 34.865-22.618 34.839-15 34.666-11.15 28.835-9.146 25.8-9.141 22.655-9.149 21.574-9.197 15.541-13.162 11.508-14.63 10.201-20.545 5.259-28.095 2.118-35.899 2.118-50.44 2.118-74.445 12.62-74.445 42.395-74.445 67.785-51.017 75.632-40.285 75.632-30.936 75.632-19.165 73.555-12.356 59.937V77.133C-13.51 76.44-15.472 75.632-16.741 75.632-20.088 75.632-25.859 79.21-41.438 79.21-60.135 79.21-77.561 61.899-80.792 44.126-81.369 41.01-81.601 37.894-81.485 35.009-80.446 12.966-63.481-2.96-41.785-2.96-29.931-2.96-20.995 2.329-17.533 4.91-8.798 3.254-4-2.726-3.756-11.269-3.467-22.826-11.846-26.102-18.01-26.679-19.167-26.775-20.226-26.872-21.189-26.872-23.693-26.872-26.39-26.679-28.798-26.102-28.718-19.514-28.638-12.926-28.559-6.338-29.327-6.853-30.698-7.627-32.576-7.958-34.09-8.225-35.368-8.105-36.205-7.958-36.207-12.914-36.211-17.87-36.213-22.826-36.213-27.932-39.007-28.99-39.296-28.99-39.103-28.99-38.14-28.894-36.31-28.894-34.673-28.894-32.457-28.99-29.472-29.183-26.293-29.376-23.789-29.569-21.189-29.569-18.492-29.569-15.699-29.376-11.846-28.894 1.926-27.161 7.705-11.654 0 0" fill="#834b4b"/>
<path transform="matrix(1,0,0,-1,161.7849,308.08683)" d="M0 0-4.692 5.069 .377 9.762 5.069 4.692Z" fill="#4c2e2e"/>
<path transform="matrix(1,0,0,-1,407.5212,303.20613)" d="M0 0-4.692 5.069 .377 9.762 5.069 4.692Z" fill="#4c2e2e"/>
<path transform="matrix(1,0,0,-1,157.0479,243.4335)" d="M0 0C-.533-1.681-.769-3.384-.71-5.112-.649-6.84-.274-8.469 .419-9.998 1.112-11.527 2.13-12.896 3.474-14.106 4.815-15.316 6.504-16.244 8.536-16.888 10.059-17.371 11.505-17.623 12.876-17.643 14.247-17.664 15.534-17.509 16.735-17.18 17.936-16.85 19.045-16.369 20.059-15.737 21.075-15.105 21.986-14.373 22.789-13.541 23.595-12.708 24.286-11.803 24.862-10.825 25.439-9.846 25.89-8.846 26.215-7.824 26.419-7.179 26.586-6.581 26.716-6.03 26.847-5.48 26.947-4.917 27.02-4.34 27.092-3.764 27.137-3.153 27.155-2.508 27.176-1.863 27.183-1.133 27.174-.317L28.449-.299C28.569-1.122 28.611-1.975 28.578-2.859 28.547-3.745 28.474-4.605 28.361-5.442 28.25-6.28 28.106-7.074 27.936-7.826 27.762-8.578 27.586-9.236 27.406-9.8 26.942-11.266 26.339-12.621 25.598-13.865 24.855-15.109 24.012-16.217 23.066-17.19 22.123-18.163 21.083-18.991 19.948-19.674 18.815-20.358 17.62-20.871 16.365-21.212 15.109-21.554 13.817-21.714 12.484-21.691 11.153-21.668 9.802-21.439 8.431-21.004 6.951-20.536 5.607-19.91 4.398-19.126 3.189-18.344 2.132-17.435 1.225-16.4 .317-15.366-.437-14.217-1.034-12.954-1.633-11.692-2.055-10.352-2.301-8.935-2.548-7.518-2.61-6.041-2.492-4.503-2.375-2.964-2.063-1.395-1.556 .205-.912 2.234-.233 3.965 .479 5.396 1.191 6.827 1.88 8.074 2.542 9.136L9.093 6.416 8.701 5.186 8.379 5.288C7.693 5.506 6.964 5.645 6.191 5.705 5.419 5.764 4.656 5.632 3.902 5.31 3.149 4.986 2.435 4.41 1.757 3.582 1.08 2.753 .494 1.56 0 0" fill="#834b4b"/>
<path transform="matrix(1,0,0,-1,172.5997,219.7445)" d="M0 0 8.661-10.659 13.228-3.335 .324 .521ZM-3.915 4.636 19.492-1.532C21.227-1.999 22.704-2.247 23.924-2.275 25.143-2.305 26.065-1.965 26.688-1.257L27.466-.371 28.484-1.056C28.032-1.621 27.566-2.249 27.087-2.938 26.606-3.628 26.135-4.344 25.673-5.086 25.18-5.875 24.716-6.659 24.282-7.436 23.849-8.212 23.454-8.963 23.101-9.69L22.082-9.005 23.428-6.329 14.708-3.759 14.271-4.459C14.069-4.782 13.808-5.209 13.485-5.739 13.163-6.27 12.808-6.875 12.417-7.554 12.026-8.233 11.616-8.971 11.187-9.766 10.757-10.562 10.33-11.393 9.906-12.259L12.049-14.965C12.488-15.539 12.914-16.065 13.326-16.547 13.739-17.028 14.137-17.388 14.519-17.626 14.9-17.865 15.276-17.958 15.648-17.907 16.021-17.857 16.398-17.603 16.784-17.145L17.604-16.186 18.624-16.871C18.148-17.472 17.704-18.054 17.287-18.617 16.87-19.18 16.46-19.784 16.056-20.43 15.653-21.076 15.26-21.762 14.875-22.485 14.49-23.209 14.068-24.019 13.609-24.913L12.591-24.228C12.772-23.859 12.94-23.507 13.099-23.174 13.247-22.884 13.394-22.593 13.542-22.303 13.69-22.013 13.813-21.774 13.914-21.587 13.191-20.456 12.387-19.243 11.498-17.95 10.611-16.657 9.671-15.314 8.679-13.923 7.687-12.531 6.646-11.11 5.558-9.659 4.47-8.208 3.369-6.762 2.258-5.321 1.147-3.88 .028-2.464-1.097-1.073-2.222 .318-3.323 1.657-4.398 2.943Z" fill="#834b4b"/>
<path transform="matrix(1,0,0,-1,220.2843,195.8168)" d="M0 0C.566-.61 1.045-1.07 1.437-1.38 1.83-1.69 2.183-1.895 2.497-1.992 2.811-2.089 3.104-2.092 3.374-2.002 3.643-1.912 3.942-1.756 4.275-1.534L5.037-1.021 5.856-1.935C5.596-2.11 5.285-2.323 4.922-2.573 4.63-2.797 4.273-3.075 3.85-3.406 3.428-3.739 2.949-4.143 2.417-4.62 1.875-5.106 1.296-5.653 .681-6.262 .065-6.871-.598-7.57-1.311-8.361L-2.129-7.447C-1.875-7.182-1.652-6.944-1.462-6.734-1.271-6.525-1.095-6.33-.935-6.149-.774-5.969-.616-5.797-.458-5.636-.299-5.475-.13-5.304 .05-5.124L-14.49 10.963-14.789 10.695-8.104-12.89-8.846-13.554-30.646-3.41-30.912-3.65-21.008-16.625C-20.887-16.802-20.74-16.997-20.567-17.211-20.395-17.424-20.225-17.641-20.057-17.859-19.889-18.078-19.729-18.279-19.572-18.462-19.418-18.645-19.294-18.789-19.2-18.894-18.834-19.303-18.502-19.598-18.208-19.778-17.913-19.959-17.635-20.064-17.371-20.093-17.108-20.122-16.849-20.084-16.594-19.978-16.339-19.872-16.071-19.722-15.79-19.527L-15.028-19.014-14.209-19.928C-14.406-20.047-14.659-20.208-14.97-20.41-15.22-20.597-15.53-20.832-15.899-21.116-16.27-21.401-16.699-21.762-17.187-22.201-17.679-22.641-18.219-23.154-18.809-23.739-19.398-24.324-20.049-25.013-20.761-25.803L-21.581-24.889C-21.326-24.624-21.104-24.386-20.913-24.176-20.722-23.968-20.546-23.772-20.387-23.591-20.227-23.41-20.067-23.239-19.909-23.078-19.75-22.917-19.581-22.746-19.402-22.566L-35.688 .196-34.654 2.059-11.274-8.687-11.054-8.488-18.193 16.196-16.897 17.925Z" fill="#834b4b"/>
<path transform="matrix(1,0,0,-1,228.0479,196.56192)" d="M0 0C.231 .163 .445 .314 .642 .456 .837 .598 1.029 .729 1.22 .853 1.408 .975 1.611 1.105 1.826 1.241 .972 2.911 .125 4.561-.716 6.189-1.556 7.819-2.361 9.378-3.132 10.87-3.901 12.36-4.617 13.752-5.277 15.046-5.937 16.34-6.521 17.483-7.028 18.475-7.535 19.467-7.955 20.282-8.288 20.919-8.62 21.556-8.838 21.967-8.942 22.152-9.238 22.68-9.52 23.088-9.785 23.375-10.051 23.663-10.314 23.858-10.574 23.962-10.835 24.067-11.105 24.093-11.383 24.042-11.662 23.992-11.963 23.908-12.286 23.792L-13.16 23.448-13.76 24.519C-13.461 24.62-13.107 24.754-12.699 24.918-12.358 25.061-11.95 25.249-11.476 25.483-10.999 25.716-10.448 26.009-9.821 26.361-9.193 26.712-8.513 27.121-7.78 27.588-7.047 28.056-6.254 28.593-5.398 29.202L-4.8 28.131C-5.104 27.927-5.374 27.744-5.606 27.582-5.839 27.419-6.052 27.272-6.244 27.14-6.437 27.008-6.629 26.88-6.818 26.757-7.008 26.635-7.211 26.506-7.425 26.369-6.571 24.699-5.722 23.047-4.877 21.412-4.035 19.776-3.232 18.214-2.472 16.727-1.712 15.239-.996 13.846-.326 12.55 .344 11.253 .932 10.109 1.439 9.117 1.946 8.125 2.366 7.311 2.7 6.673 3.031 6.036 3.246 5.631 3.344 5.459 3.646 4.918 3.931 4.504 4.197 4.217 4.462 3.93 4.726 3.733 4.986 3.63 5.247 3.525 5.518 3.495 5.8 3.54 6.082 3.585 6.381 3.672 6.697 3.801L7.553 4.135 8.152 3.064C7.861 2.949 7.511 2.809 7.103 2.646 6.768 2.49 6.359 2.297 5.874 2.067 5.39 1.835 4.839 1.547 4.224 1.203 3.597 .851 2.917 .446 2.188-.011 1.458-.468 .659-1.004-.209-1.62L-.808-.549C-.502-.346-.233-.163 0 0" fill="#834b4b"/>
<path transform="matrix(1,0,0,-1,240.6251,189.61853)" d="M0 0C-.589 1.78-1.175 3.54-1.756 5.278-2.337 7.017-2.892 8.683-3.419 10.276-3.946 11.869-4.443 13.353-4.912 14.728-5.379 16.102-5.793 17.317-6.147 18.373-6.505 19.428-6.799 20.296-7.03 20.977-7.262 21.657-7.414 22.097-7.488 22.295-7.7 22.862-7.912 23.31-8.124 23.637-8.337 23.963-8.562 24.2-8.796 24.345-9.031 24.49-9.286 24.56-9.563 24.555-9.84 24.549-10.153 24.512-10.503 24.441L-11.399 24.241-11.829 25.391C-11.519 25.447-11.155 25.522-10.739 25.617-10.381 25.706-9.948 25.829-9.443 25.988-8.938 26.146-8.349 26.352-7.675 26.604-7.001 26.855-6.266 27.155-5.471 27.505-4.676 27.854-3.81 28.265-2.87 28.736L-2.441 27.586C-2.775 27.431-3.065 27.293-3.313 27.17-3.562 27.048-3.794 26.935-4.011 26.831-4.229 26.727-4.44 26.629-4.646 26.537-4.853 26.445-5.072 26.348-5.307 26.246-4.716 24.465-4.13 22.702-3.546 20.957-2.961 19.212-2.407 17.547-1.883 15.959-1.358 14.374-.864 12.888-.399 11.504 .063 10.121 .47 8.9 .82 7.842 1.17 6.785 1.461 5.916 1.692 5.234 1.925 4.554 2.074 4.122 2.144 3.937 2.38 3.303 2.682 2.836 3.05 2.538 3.417 2.238 3.85 2.065 4.35 2.019 4.849 1.972 5.408 2.023 6.031 2.172 6.653 2.322 7.34 2.538 8.093 2.819 9.15 3.213 10.02 3.635 10.702 4.086 11.385 4.537 11.912 5.058 12.287 5.649 12.659 6.24 12.889 6.928 12.973 7.711 13.056 8.496 13.019 9.423 12.86 10.492L14.13 10.966C14.21 10.588 14.305 10.092 14.414 9.476 14.523 8.859 14.622 8.202 14.711 7.503 14.799 6.803 14.858 6.097 14.892 5.385 14.924 4.673 14.909 4.04 14.845 3.487 13.429 3.004 12.046 2.552 10.698 2.131 9.35 1.711 8.111 1.328 6.983 .981 5.855 .636 4.873 .336 4.033 .083 3.194-.169 2.576-.37 2.182-.518 1.507-.77 .799-1.049 .056-1.357-.688-1.665-1.536-2.056-2.486-2.531L-2.876-1.367C-2.542-1.212-2.249-1.073-1.994-.948-1.74-.823-1.506-.705-1.29-.595-1.076-.484-.865-.384-.658-.292-.453-.2-.232-.103 0 0" fill="#834b4b"/>
<path transform="matrix(1,0,0,-1,265.1524,158.73963)" d="M0 0-2.577-13.491 5.967-12.268 .607 .086ZM1.024 5.98 11.381-15.899C12.141-17.527 12.903-18.817 13.666-19.768 14.43-20.72 15.282-21.206 16.226-21.228L17.403-21.251 17.537-22.472C16.812-22.489 16.032-22.538 15.196-22.614 14.358-22.691 13.508-22.792 12.642-22.916 11.721-23.048 10.823-23.197 9.949-23.366 9.076-23.533 8.248-23.716 7.464-23.914L7.331-22.693 10.245-21.999 6.595-13.673 5.778-13.791C5.402-13.844 4.906-13.919 4.293-14.014 3.68-14.109 2.988-14.226 2.218-14.365 1.446-14.503 .619-14.665-.268-14.848-1.152-15.032-2.063-15.24-2.999-15.474L-3.689-18.855C-3.845-19.562-3.974-20.227-4.077-20.852-4.18-21.478-4.199-22.014-4.135-22.459-4.071-22.905-3.901-23.254-3.622-23.505-3.344-23.757-2.906-23.882-2.308-23.881L-1.046-23.893-.913-25.113C-1.679-25.138-2.411-25.172-3.11-25.214-3.81-25.257-4.536-25.333-5.289-25.441-6.044-25.549-6.821-25.689-7.623-25.86-8.425-26.032-9.315-26.231-10.294-26.457L-10.427-25.236C-10.028-25.137-9.649-25.04-9.293-24.945-8.976-24.872-8.659-24.798-8.342-24.725-8.024-24.65-7.762-24.592-7.555-24.547-7.154-23.266-6.746-21.869-6.327-20.357-5.91-18.845-5.488-17.262-5.062-15.606-4.638-13.951-4.221-12.24-3.812-10.473-3.4-8.706-3.004-6.933-2.617-5.155-2.229-3.377-1.867-1.609-1.528 .147-1.188 1.905-.873 3.608-.582 5.259Z" fill="#834b4b"/>
<path transform="matrix(1,0,0,-1,302.0323,166.71622)" d="M0 0C.708-.123 1.375-.263 1.999-.421 2.623-.579 3.222-.744 3.792-.914 4.321-.662 4.822-.355 5.294 .007 5.765 .369 6.189 .779 6.569 1.236 6.948 1.692 7.268 2.199 7.528 2.755 7.79 3.311 7.976 3.908 8.086 4.548 8.244 5.465 8.26 6.299 8.133 7.052 8.006 7.804 7.761 8.461 7.4 9.024 7.04 9.588 6.582 10.047 6.028 10.4 5.474 10.754 4.843 10.991 4.134 11.114 3.73 11.184 3.319 11.251 2.901 11.316 2.484 11.381 1.99 11.428 1.423 11.454 1.312 11.058 1.179 10.563 1.026 9.966 .872 9.37 .707 8.723 .529 8.023 .351 7.324 .176 6.6 .002 5.85-.17 5.099-.324 4.378-.457 3.686L-1.188 .205ZM-1.485-1.268C-1.858-3.092-2.201-4.737-2.511-6.2-2.647-6.82-2.775-7.442-2.898-8.065-3.021-8.688-3.135-9.252-3.243-9.755-3.354-10.259-3.441-10.687-3.51-11.04-3.577-11.394-3.62-11.619-3.637-11.716-3.738-12.3-3.762-12.814-3.71-13.26-3.658-13.705-3.501-14.098-3.237-14.437-2.975-14.775-2.587-15.061-2.076-15.292-1.564-15.523-.893-15.712-.059-15.855 .163-15.894 .486-15.929 .911-15.959 1.336-15.989 1.802-15.974 2.315-15.912 2.826-15.85 3.358-15.717 3.907-15.511 4.459-15.306 4.982-14.988 5.479-14.56 5.975-14.13 6.416-13.565 6.802-12.867 7.188-12.168 7.473-11.291 7.654-10.234 7.833-9.206 7.842-8.22 7.684-7.276 7.524-6.333 7.172-5.478 6.624-4.709 6.076-3.943 5.325-3.283 4.369-2.731 3.413-2.179 2.226-1.781 .808-1.536 .058-1.406-.708-1.317-1.485-1.268M11.584 4.909C11.435 4.047 11.164 3.271 10.771 2.581 10.379 1.89 9.916 1.272 9.385 .728 8.852 .183 8.278-.291 7.663-.693 7.048-1.094 6.444-1.423 5.855-1.679 6.951-2.183 7.872-2.751 8.619-3.38 9.365-4.011 9.952-4.691 10.382-5.424 10.811-6.157 11.087-6.931 11.209-7.747 11.332-8.563 11.319-9.408 11.167-10.283 10.981-11.354 10.611-12.363 10.053-13.311 9.495-14.259 8.763-15.063 7.854-15.722 6.945-16.38 5.876-16.854 4.646-17.142 3.415-17.43 2.035-17.442 .507-17.177-.05-17.081-.602-16.96-1.148-16.816-1.696-16.671-2.242-16.52-2.787-16.36-3.332-16.202-3.885-16.045-4.444-15.892-5.005-15.737-5.57-15.611-6.14-15.512-6.807-15.397-7.522-15.294-8.287-15.205-9.053-15.116-9.92-15.03-10.894-14.947L-10.643-13.746C-10.277-13.781-9.952-13.808-9.671-13.828-9.387-13.849-9.125-13.865-8.884-13.879-8.643-13.892-8.41-13.911-8.186-13.935-7.961-13.96-7.723-13.986-7.47-14.016-6.603-9.833-5.826-6.084-5.138-2.771-4.852-1.362-4.564 .026-4.278 1.393-3.991 2.759-3.734 3.979-3.506 5.056-3.276 6.131-3.091 7.015-2.95 7.706-2.81 8.396-2.732 8.776-2.721 8.846-2.61 9.484-2.563 10.009-2.578 10.419-2.593 10.829-2.671 11.161-2.813 11.415-2.956 11.667-3.15 11.866-3.398 12.009-3.646 12.151-3.938 12.281-4.274 12.397L-5.149 12.677-4.898 13.878C-4.575 13.766-4.21 13.645-3.803 13.517-3.448 13.413-3.037 13.306-2.57 13.197-2.102 13.087-1.582 12.982-1.011 12.884-.411 12.78 .12 12.717 .582 12.694 1.045 12.671 1.512 12.652 1.982 12.634 2.452 12.618 2.965 12.59 3.518 12.551 4.071 12.513 4.744 12.425 5.539 12.288 6.821 12.066 7.886 11.703 8.73 11.199 9.577 10.695 10.232 10.109 10.699 9.441 11.164 8.774 11.463 8.05 11.593 7.269 11.724 6.488 11.721 5.701 11.584 4.909" fill="#834b4b"/>
<path transform="matrix(1,0,0,-1,333.0108,178.22983)" d="M0 0C-.75 .408-1.515 .806-2.296 1.194-3.074 1.583-3.824 1.945-4.541 2.279-5.259 2.614-5.917 2.915-6.518 3.182-7.118 3.449-7.609 3.671-7.995 3.849-8.651 2.291-9.255 .871-9.806-.411-10.043-.954-10.273-1.499-10.497-2.046-10.723-2.593-10.934-3.097-11.132-3.556-11.33-4.016-11.496-4.408-11.628-4.735-11.76-5.062-11.849-5.283-11.895-5.401-12.155-6.086-12.271-6.667-12.244-7.145-12.215-7.623-12.054-8.039-11.758-8.393-11.463-8.748-11.051-9.063-10.523-9.34-9.995-9.617-9.362-9.897-8.623-10.179-7.57-10.582-6.646-10.859-5.852-11.013-5.058-11.165-4.331-11.163-3.675-11.006-3.019-10.85-2.407-10.521-1.837-10.021-1.269-9.521-.69-8.818-.103-7.91L1.142-8.386C.953-8.723 .703-9.142 .391-9.644 .078-10.145-.269-10.667-.65-11.21-1.032-11.754-1.438-12.284-1.869-12.801-2.301-13.316-2.724-13.761-3.138-14.133-4.52-13.56-5.832-12.994-7.074-12.436-8.318-11.877-9.452-11.365-10.474-10.898-11.495-10.433-12.385-10.024-13.143-9.675-13.9-9.325-14.475-9.074-14.871-8.923-15.543-8.667-16.259-8.408-17.021-8.147-17.781-7.886-18.676-7.62-19.704-7.348L-19.226-6.217C-18.874-6.321-18.561-6.411-18.287-6.485-18.014-6.56-17.76-6.626-17.526-6.686-17.292-6.745-17.066-6.809-16.851-6.876-16.635-6.944-16.406-7.016-16.164-7.093-14.558-3.286-13.105 .157-11.808 3.236-11.26 4.55-10.716 5.847-10.174 7.125-9.632 8.404-9.141 9.563-8.698 10.601-8.256 11.639-7.889 12.51-7.597 13.213-7.307 13.916-7.131 14.347-7.07 14.505-6.844 15.097-6.697 15.588-6.632 15.978-6.565 16.367-6.572 16.694-6.653 16.959-6.733 17.223-6.881 17.449-7.096 17.638-7.311 17.825-7.586 18.014-7.922 18.202L-8.687 18.63-8.248 19.776C-7.9 19.583-7.453 19.351-6.906 19.082-6.434 18.856-5.834 18.589-5.106 18.28-4.379 17.972-3.48 17.614-2.414 17.207L2.349 15.386C2.875 15.185 3.391 14.992 3.894 14.807 4.397 14.622 4.909 14.441 5.43 14.265 5.951 14.088 6.496 13.914 7.064 13.742 7.633 13.569 8.246 13.396 8.903 13.22L5.737 6.775 4.532 7.236C4.646 7.494 4.735 7.698 4.8 7.848 4.864 7.996 4.913 8.113 4.946 8.199 4.979 8.285 5 8.344 5.014 8.377 5.026 8.409 5.037 8.439 5.048 8.466 5.215 8.9 5.315 9.337 5.356 9.775 5.395 10.213 5.312 10.648 5.107 11.081 4.903 11.514 4.555 11.942 4.059 12.366 3.563 12.789 2.867 13.209 1.971 13.628L-2.762 15.822C-3.28 14.782-3.781 13.717-4.267 12.626-4.751 11.536-5.186 10.528-5.569 9.603L-7.428 5.217 1.157 2.434Z" fill="#834b4b"/>
<path transform="matrix(1,0,0,-1,334.3849,191.82022)" d="M0 0C.246-.14 .476-.268 .688-.383 .899-.499 1.102-.615 1.295-.734 1.486-.853 1.69-.979 1.905-1.115L11.777 11.892C12.389 12.685 12.958 13.448 13.486 14.18 14.012 14.912 14.516 15.618 14.995 16.297 15.76 17.378 16.427 18.352 16.997 19.218 17.566 20.084 18.036 20.817 18.409 21.417L20.191 20.933 22.748-11.396C23.491-10.418 24.29-9.368 25.145-8.245 25.999-7.122 26.848-6 27.692-4.878 28.538-3.757 29.355-2.673 30.148-1.627 30.939-.58 31.654 .369 32.293 1.222 32.93 2.075 33.464 2.787 33.892 3.356 34.32 3.925 34.596 4.296 34.718 4.469 35.067 4.964 35.318 5.392 35.469 5.751 35.62 6.111 35.687 6.431 35.668 6.711 35.65 6.991 35.562 7.245 35.402 7.47 35.241 7.696 35.04 7.929 34.796 8.17L34.126 8.799 34.834 9.801C34.964 9.641 35.149 9.44 35.395 9.199 35.6 9.001 35.872 8.765 36.214 8.49 36.554 8.214 36.983 7.893 37.502 7.527 38.02 7.16 38.624 6.763 39.314 6.335 40.005 5.908 40.81 5.438 41.728 4.928L41.018 3.926C40.702 4.115 40.422 4.279 40.174 4.419 39.928 4.559 39.704 4.687 39.501 4.804 39.3 4.921 39.103 5.039 38.909 5.158 38.718 5.276 38.508 5.408 38.281 5.551L30.048-5.287C29.815-5.589 29.511-5.996 29.134-6.506 28.755-7.016 28.356-7.55 27.937-8.108 27.516-8.666 27.1-9.223 26.689-9.779 26.279-10.334 25.936-10.809 25.659-11.2 25.292-11.718 24.948-12.205 24.626-12.66 24.306-13.115 23.988-13.568 23.677-14.022 23.365-14.475 23.054-14.941 22.739-15.419 22.428-15.898 22.091-16.416 21.732-16.973L19.893-16.423 17.164 15.664C16.45 14.702 15.682 13.67 14.86 12.569 14.038 11.468 13.211 10.361 12.382 9.248 11.552 8.135 10.746 7.057 9.965 6.013 9.184 4.969 8.478 4.026 7.849 3.186 7.221 2.345 6.694 1.638 6.272 1.065 5.85 .493 5.581 .125 5.468-.036 5.109-.542 4.857-.971 4.711-1.325 4.564-1.679 4.497-1.994 4.51-2.27 4.521-2.545 4.605-2.799 4.762-3.03 4.917-3.262 5.13-3.506 5.396-3.764L6.066-4.393 5.356-5.394C5.21-5.238 5.013-5.039 4.77-4.797 4.556-4.611 4.278-4.378 3.942-4.096 3.606-3.815 3.18-3.492 2.662-3.125 2.143-2.759 1.544-2.361 .862-1.931 .183-1.501-.624-1.028-1.551-.509L-.844 .493C-.527 .304-.247 .14 0 0" fill="#834b4b"/>
<path transform="matrix(1,0,0,-1,387.1554,201.79721)" d="M0 0C-.492 .636-.941 1.209-1.35 1.723-1.758 2.235-2.087 2.643-2.34 2.946-2.844 3.553-3.337 4.05-3.815 4.439-4.296 4.828-4.832 5.083-5.427 5.203-6.021 5.321-6.707 5.287-7.484 5.098-8.264 4.909-9.204 4.539-10.306 3.989L-11.104 4.949-5.084 8.828C-4.156 7.513-3.334 6.407-2.616 5.511-1.898 4.616-1.256 3.827-.69 3.145 .535 1.673 1.706 .27 2.823-1.062 3.939-2.394 4.97-3.611 5.913-4.713 6.857-5.814 7.7-6.784 8.442-7.622 9.186-8.46 9.801-9.117 10.287-9.592L4.384-13.675 3.545-12.667C3.665-12.568 3.823-12.444 4.022-12.298 4.221-12.151 4.38-12.028 4.499-11.929 4.856-11.631 5.172-11.304 5.445-10.949 5.718-10.593 5.884-10.181 5.943-9.71 6.001-9.24 5.924-8.695 5.71-8.074 5.497-7.454 5.078-6.724 4.454-5.886L1.966-2.563C.489-3.698-.966-4.822-2.405-5.935-3.844-7.049-5.218-8.118-6.527-9.144-7.838-10.168-9.066-11.126-10.215-12.016-11.361-12.906-12.373-13.696-13.246-14.387-14.121-15.077-14.841-15.644-15.406-16.087-15.973-16.53-16.331-16.814-16.484-16.941-16.96-17.337-17.315-17.692-17.55-18.006-17.784-18.32-17.929-18.614-17.983-18.89-18.038-19.165-18.022-19.432-17.936-19.69-17.85-19.948-17.715-20.22-17.53-20.508L-17.047-21.289-17.989-22.073C-18.156-21.807-18.357-21.488-18.593-21.116-18.807-20.816-19.069-20.45-19.385-20.016-19.7-19.582-20.079-19.097-20.525-18.562-20.979-18.016-21.496-17.427-22.076-16.795-22.655-16.165-23.327-15.479-24.09-14.737L-23.146-13.952C-22.891-14.217-22.662-14.448-22.46-14.647-22.258-14.846-22.069-15.028-21.895-15.195-21.72-15.361-21.555-15.526-21.399-15.69-21.244-15.855-21.08-16.031-20.906-16.217Z" fill="#834b4b"/>
<path transform="matrix(1,0,0,-1,390.0792,227.46811)" d="M0 0C-1.66-.778-3.15-1.752-4.471-2.923-5.792-4.094-6.84-5.388-7.617-6.803-8.396-8.219-8.846-9.718-8.969-11.301-9.092-12.885-8.779-14.475-8.031-16.072-7.313-17.604-6.374-18.812-5.214-19.693-4.054-20.574-2.758-21.155-1.327-21.435 .104-21.714 1.625-21.719 3.234-21.448 4.844-21.177 6.467-20.658 8.102-19.893 9.94-19.031 11.552-17.992 12.937-16.775 14.321-15.559 15.41-14.251 16.203-12.852 16.996-11.453 17.458-10.01 17.587-8.524 17.716-7.039 17.455-5.6 16.804-4.208 16.463-3.479 16.033-2.77 15.516-2.078 14.996-1.387 14.377-.762 13.656-.204 12.936 .354 12.113 .818 11.193 1.189 10.271 1.56 9.245 1.78 8.116 1.85 6.984 1.92 5.745 1.815 4.396 1.534 3.05 1.253 1.583 .742 0 0M-2.053 3.336C-.048 4.275 1.972 4.801 4.006 4.915 6.039 5.027 7.969 4.749 9.793 4.079 11.616 3.41 13.291 2.362 14.815 .938 16.338-.487 17.599-2.265 18.597-4.394 19.206-5.695 19.595-6.982 19.763-8.257 19.931-9.531 19.918-10.766 19.723-11.961 19.527-13.157 19.172-14.303 18.657-15.398 18.143-16.495 17.509-17.511 16.757-18.446 16.004-19.383 15.141-20.226 14.168-20.977 13.195-21.727 12.168-22.357 11.082-22.865 8.948-23.864 6.837-24.433 4.745-24.573 2.653-24.713 .688-24.49-1.15-23.906-2.989-23.32-4.631-22.409-6.074-21.173-7.519-19.936-8.652-18.437-9.477-16.678-10.187-15.16-10.654-13.688-10.878-12.261-11.103-10.834-11.128-9.466-10.955-8.157-10.782-6.847-10.435-5.611-9.912-4.449-9.389-3.287-8.733-2.218-7.945-1.241-7.156-.266-6.261 .608-5.26 1.38-4.259 2.152-3.189 2.804-2.053 3.336" fill="#834b4b"/>
<path transform="matrix(1,0,0,-1,171.9024,339.28944)" d="M0 0C-.286 .625-.665 1.181-1.135 1.664-1.605 2.148-2.142 2.521-2.743 2.781-3.344 3.042-3.998 3.171-4.703 3.169-5.408 3.167-6.14 2.992-6.897 2.646-7.464 2.387-7.946 2.08-8.349 1.727-8.751 1.373-9.082 .99-9.344 .581-9.604 .17-9.799-.26-9.927-.708-10.055-1.157-10.126-1.608-10.141-2.059-10.155-2.511-10.118-2.953-10.027-3.388-9.938-3.822-9.807-4.229-9.632-4.61-9.521-4.851-9.414-5.067-9.308-5.261-9.2-5.454-9.082-5.644-8.951-5.829-8.821-6.015-8.674-6.203-8.511-6.395-8.347-6.586-8.158-6.799-7.941-7.033L-8.306-7.372C-8.556-7.166-8.792-6.931-9.015-6.666-9.237-6.401-9.441-6.134-9.629-5.862-9.815-5.59-9.983-5.323-10.131-5.061-10.277-4.798-10.398-4.562-10.495-4.352-10.745-3.806-10.926-3.256-11.037-2.701-11.149-2.146-11.195-1.605-11.178-1.076-11.159-.548-11.076-.035-10.927 .459-10.778 .954-10.567 1.416-10.294 1.844-10.021 2.271-9.688 2.657-9.297 2.999-8.906 3.343-8.455 3.631-7.945 3.864-7.396 4.116-6.842 4.288-6.287 4.378-5.732 4.469-5.188 4.483-4.654 4.422-4.121 4.36-3.602 4.226-3.097 4.018-2.594 3.81-2.12 3.532-1.677 3.188-1.234 2.842-.829 2.432-.46 1.955-.091 1.479 .23 .944 .504 .349 .85-.407 1.106-1.086 1.276-1.687 1.445-2.287 1.573-2.827 1.66-3.309L-.947-4.239-1.157-3.781-1.037-3.726C-.782-3.609-.534-3.458-.295-3.272-.057-3.088 .13-2.85 .264-2.559 .396-2.268 .452-1.914 .432-1.497 .409-1.08 .267-.581 0 0" fill="#834b4b"/>
<path transform="matrix(1,0,0,-1,172.4395,351.6039)" d="M0 0C-.605-.382-1.135-.832-1.589-1.35-2.044-1.868-2.387-2.42-2.618-3.007-2.851-3.593-2.951-4.195-2.921-4.814-2.892-5.435-2.692-6.034-2.325-6.616-1.973-7.175-1.549-7.597-1.057-7.881-.564-8.165-.034-8.327 .533-8.365 1.102-8.403 1.69-8.331 2.301-8.147 2.911-7.964 3.514-7.684 4.109-7.308 4.779-6.884 5.354-6.402 5.83-5.864 6.307-5.325 6.665-4.766 6.903-4.185 7.142-3.604 7.25-3.022 7.228-2.441 7.206-1.859 7.033-1.314 6.714-.808 6.546-.542 6.345-.288 6.109-.046 5.875 .196 5.604 .408 5.299 .589 4.992 .771 4.651 .909 4.277 1.009 3.902 1.106 3.493 1.142 3.053 1.114 2.61 1.086 2.136 .984 1.628 .81 1.119 .635 .576 .365 0 0M-.959 1.192C-.229 1.654 .529 1.957 1.311 2.1 2.093 2.242 2.854 2.229 3.593 2.059 4.332 1.889 5.032 1.565 5.691 1.088 6.351 .61 6.927-.017 7.417-.792 7.716-1.267 7.93-1.746 8.057-2.231 8.184-2.717 8.239-3.195 8.222-3.668 8.205-4.141 8.123-4.602 7.978-5.051 7.833-5.501 7.637-5.926 7.392-6.324 7.145-6.724 6.853-7.093 6.512-7.431 6.173-7.769 5.805-8.063 5.41-8.313 4.632-8.804 3.843-9.128 3.039-9.284 2.235-9.44 1.464-9.45 .723-9.313-.018-9.177-.699-8.904-1.317-8.496-1.937-8.088-2.449-7.562-2.854-6.922-3.204-6.368-3.457-5.821-3.614-5.28-3.771-4.738-3.848-4.21-3.845-3.693-3.842-3.178-3.768-2.683-3.622-2.207-3.476-1.731-3.274-1.285-3.017-.869-2.759-.452-2.455-.07-2.104 .277-1.755 .626-1.373 .931-.959 1.192" fill="#834b4b"/>
<path transform="matrix(1,0,0,-1,177.6046,368.84614)" d="M0 0C.079-.077 .153-.146 .222-.211 .291-.275 .356-.34 .417-.403 .479-.467 .543-.534 .611-.606L5.606 3.353C5.915 3.593 6.203 3.825 6.475 4.052 6.744 4.277 7.003 4.495 7.251 4.705 7.646 5.04 7.991 5.343 8.291 5.615 8.59 5.888 8.84 6.119 9.039 6.31L9.665 5.954 7.492-6.518C7.869-6.22 8.272-5.9 8.705-5.559 9.137-5.218 9.566-4.876 9.995-4.534 10.424-4.191 10.839-3.861 11.239-3.543 11.641-3.225 12.003-2.935 12.327-2.674 12.65-2.413 12.921-2.196 13.139-2.022 13.355-1.849 13.496-1.735 13.559-1.682 13.74-1.528 13.876-1.392 13.967-1.27 14.06-1.148 14.115-1.034 14.136-.927 14.156-.818 14.148-.714 14.109-.613 14.07-.513 14.017-.405 13.948-.29L13.756 .013 14.121 .323C14.154 .25 14.205 .156 14.274 .041 14.333-.054 14.413-.17 14.515-.307 14.617-.444 14.748-.607 14.909-.796 15.069-.984 15.258-1.194 15.479-1.423 15.697-1.651 15.956-1.907 16.254-2.189L15.889-2.499C15.787-2.397 15.696-2.308 15.617-2.23 15.538-2.154 15.466-2.083 15.4-2.02 15.335-1.956 15.272-1.892 15.211-1.829 15.149-1.765 15.083-1.695 15.012-1.619L10.846-4.917C10.729-5.009 10.574-5.133 10.382-5.289 10.188-5.445 9.986-5.607 9.773-5.778 9.561-5.948 9.35-6.118 9.14-6.289 8.931-6.459 8.754-6.604 8.612-6.726 8.423-6.886 8.246-7.037 8.08-7.178 7.914-7.318 7.75-7.459 7.588-7.601 7.427-7.741 7.264-7.887 7.1-8.038 6.935-8.188 6.757-8.352 6.566-8.527L5.924-8.142 8.009 4.255C7.646 3.961 7.256 3.646 6.838 3.309 6.42 2.973 5.999 2.635 5.578 2.294 5.156 1.954 4.746 1.624 4.351 1.306 3.953 .987 3.595 .699 3.275 .442 2.956 .186 2.688-.03 2.475-.206 2.259-.382 2.122-.494 2.063-.544 1.878-.7 1.742-.839 1.651-.958 1.562-1.078 1.506-1.19 1.484-1.296 1.462-1.401 1.469-1.506 1.505-1.608 1.542-1.711 1.598-1.823 1.675-1.947L1.866-2.25 1.501-2.56C1.46-2.486 1.405-2.392 1.337-2.277 1.273-2.186 1.192-2.071 1.093-1.932 .992-1.793 .862-1.629 .702-1.44 .541-1.251 .354-1.042 .138-.813-.078-.585-.336-.328-.637-.042L-.271 .269C-.17 .167-.08 .077 0 0" fill="#834b4b"/>
<path transform="matrix(1,0,0,-1,192.5694,385.18495)" d="M0 0C.243-.224 .506-.396 .787-.517 1.069-.637 1.354-.699 1.643-.703 1.931-.706 2.215-.647 2.494-.527 2.773-.407 3.032-.217 3.271 .043 3.499 .29 3.648 .568 3.723 .88 3.794 1.19 3.822 1.514 3.806 1.851 3.79 2.187 3.751 2.527 3.686 2.871 3.621 3.215 3.564 3.547 3.516 3.868 3.465 4.17 3.406 4.502 3.343 4.864 3.279 5.226 3.244 5.592 3.239 5.964 3.233 6.336 3.276 6.7 3.369 7.057 3.461 7.413 3.643 7.737 3.909 8.028 4.044 8.175 4.198 8.314 4.374 8.448 4.55 8.582 4.742 8.692 4.953 8.78 5.163 8.866 5.389 8.925 5.629 8.955 5.869 8.984 6.123 8.971 6.392 8.914 6.66 8.857 6.939 8.752 7.23 8.598 7.521 8.442 7.82 8.222 8.132 7.936 8.527 7.571 8.881 7.188 9.19 6.787 9.501 6.387 9.752 6.022 9.944 5.696L8.127 3.99 7.781 4.309 7.932 4.473C8.073 4.626 8.211 4.809 8.344 5.019 8.479 5.229 8.56 5.46 8.59 5.713 8.621 5.966 8.578 6.238 8.463 6.531 8.347 6.825 8.114 7.134 7.761 7.458 7.55 7.652 7.332 7.799 7.105 7.898 6.88 7.998 6.655 8.05 6.436 8.055 6.216 8.06 6.001 8.016 5.793 7.923 5.584 7.83 5.392 7.689 5.217 7.499 4.985 7.247 4.832 6.979 4.753 6.696 4.676 6.412 4.644 6.122 4.658 5.824 4.673 5.526 4.714 5.225 4.783 4.918 4.854 4.611 4.916 4.311 4.976 4.017 5.063 3.576 5.143 3.147 5.21 2.729 5.278 2.312 5.308 1.91 5.299 1.526 5.289 1.143 5.229 .777 5.116 .432 5.004 .087 4.813-.232 4.544-.523 4.232-.864 3.862-1.112 3.438-1.267 3.012-1.42 2.569-1.488 2.112-1.471 1.654-1.454 1.202-1.355 .755-1.177 .309-.997-.092-.745-.443-.422-.871-.028-1.247 .383-1.572 .809-1.896 1.234-2.162 1.624-2.367 1.978L-.448 3.769-.071 3.422-.267 3.209C-.424 3.039-.568 2.842-.701 2.616-.834 2.391-.911 2.142-.934 1.87-.955 1.599-.899 1.306-.766 .991-.632 .678-.377 .348 0 0" fill="#834b4b"/>
<path transform="matrix(1,0,0,-1,207.7667,383.77284)" d="M0 0C.106-.098 .239-.211 .401-.341 .562-.471 .757-.617 .984-.781 1.213-.945 1.469-1.118 1.752-1.299 2.036-1.479 2.355-1.671 2.712-1.873L2.432-2.262C2.31-2.188 2.201-2.123 2.107-2.069 2.015-2.016 1.927-1.964 1.847-1.916 1.765-1.868 1.687-1.821 1.613-1.773 1.538-1.727 1.46-1.677 1.376-1.623 .775-2.391 .257-3.056-.177-3.613-.61-4.174-.979-4.649-1.287-5.042-1.594-5.436-1.846-5.758-2.04-6.011-2.236-6.264-2.393-6.469-2.509-6.625-2.626-6.782-2.715-6.901-2.776-6.982-2.838-7.063-2.887-7.128-2.922-7.178-3.585-8.099-3.864-8.949-3.759-9.73-3.653-10.512-3.13-11.242-2.188-11.921-1.271-12.581-.383-12.821 .479-12.642 1.342-12.462 2.183-11.846 3.002-10.794 3.958-9.569 4.707-8.608 5.248-7.909 5.788-7.21 6.13-6.763 6.271-6.565 6.41-6.374 6.51-6.207 6.569-6.068 6.63-5.928 6.657-5.805 6.653-5.696 6.649-5.588 6.617-5.49 6.556-5.401 6.493-5.312 6.413-5.22 6.314-5.121L6.056-4.873 6.335-4.484C6.408-4.563 6.499-4.657 6.611-4.765 6.709-4.855 6.834-4.962 6.986-5.086 7.139-5.209 7.324-5.35 7.543-5.507 7.758-5.662 8.003-5.826 8.28-6.002 8.557-6.178 8.874-6.368 9.23-6.57L8.95-6.959C8.827-6.885 8.72-6.819 8.626-6.766 8.532-6.712 8.445-6.661 8.364-6.612 8.284-6.565 8.206-6.518 8.132-6.471 8.057-6.424 7.978-6.373 7.894-6.319L3.572-11.357C3.091-11.914 2.601-12.359 2.101-12.694 1.601-13.03 1.091-13.246 .57-13.343 .05-13.439-.484-13.412-1.032-13.263-1.578-13.112-2.136-12.834-2.703-12.425-3.261-12.022-3.727-11.6-4.099-11.154-4.47-10.71-4.73-10.253-4.88-9.782-5.03-9.312-5.063-8.833-4.98-8.346-4.898-7.859-4.68-7.371-4.325-6.879-4.258-6.785-4.154-6.645-4.012-6.459-3.87-6.271-3.706-6.058-3.519-5.816-3.332-5.574-3.128-5.313-2.91-5.034-2.691-4.754-2.471-4.474-2.247-4.193-2.024-3.912-1.808-3.638-1.597-3.369-1.387-3.101-1.196-2.856-1.024-2.637-.853-2.418-.71-2.232-.594-2.082-.478-1.931-.402-1.831-.367-1.782-.229-1.59-.131-1.423-.072-1.281-.016-1.14 .011-1.015 .005-.905-.001-.796-.036-.696-.1-.605-.164-.516-.243-.423-.338-.327L-.597-.08-.316 .309C-.231 .221-.126 .117 0 0" fill="#834b4b"/>
<path transform="matrix(1,0,0,-1,217.1651,403.05995)" d="M0 0C.376 .627 .748 1.248 1.115 1.862 1.481 2.477 1.833 3.064 2.172 3.625 2.509 4.187 2.822 4.712 3.109 5.2 3.396 5.688 3.651 6.12 3.873 6.494 4.095 6.868 4.277 7.177 4.42 7.418 4.562 7.66 4.654 7.817 4.694 7.889 4.808 8.096 4.887 8.272 4.929 8.419 4.972 8.564 4.984 8.691 4.968 8.798 4.951 8.904 4.907 8.998 4.835 9.078 4.763 9.159 4.672 9.242 4.562 9.327L4.275 9.542 4.506 9.962C4.601 9.885 4.716 9.795 4.85 9.697 4.967 9.612 5.113 9.517 5.289 9.407 5.465 9.298 5.676 9.176 5.922 9.041 6.168 8.905 6.443 8.764 6.75 8.618 7.055 8.471 7.397 8.319 7.775 8.161L7.544 7.741C7.414 7.801 7.298 7.852 7.199 7.894 7.1 7.936 7.008 7.976 6.921 8.014 6.836 8.052 6.752 8.09 6.672 8.128 6.593 8.165 6.508 8.205 6.419 8.248 6.042 7.62 5.669 6.998 5.301 6.381 4.933 5.764 4.581 5.177 4.245 4.618 3.908 4.058 3.595 3.534 3.303 3.045 3.012 2.556 2.754 2.125 2.529 1.751 2.306 1.379 2.123 1.072 1.979 .83 1.837 .589 1.747 .434 1.71 .366 1.582 .136 1.521-.072 1.526-.257 1.531-.442 1.591-.614 1.703-.774 1.817-.934 1.975-1.087 2.177-1.232 2.38-1.378 2.618-1.527 2.893-1.679 3.278-1.891 3.626-2.041 3.933-2.129 4.239-2.216 4.528-2.239 4.798-2.2 5.067-2.16 5.33-2.053 5.584-1.879 5.837-1.703 6.102-1.456 6.378-1.137L6.841-1.392C6.75-1.512 6.627-1.667 6.473-1.855 6.318-2.045 6.148-2.242 5.964-2.445 5.779-2.649 5.586-2.848 5.383-3.039 5.181-3.229 4.989-3.385 4.81-3.507 4.306-3.211 3.82-2.916 3.353-2.624 2.885-2.332 2.456-2.063 2.067-1.817 1.678-1.572 1.339-1.356 1.051-1.173 .763-.989 .545-.857 .4-.778 .155-.643-.108-.504-.388-.361-.669-.22-1-.068-1.384 .092L-1.138 .502C-1.007 .443-.891 .392-.789 .348-.687 .305-.593 .265-.505 .229-.418 .194-.335 .158-.255 .121-.175 .083-.09 .043 0 0" fill="#834b4b"/>
<path transform="matrix(1,0,0,-1,236.4796,401.0824)" d="M0 0C-.285 .131-.545 .246-.779 .35-1.014 .452-1.202 .533-1.344 .591-1.629 .709-1.89 .791-2.126 .838-2.362 .885-2.594 .875-2.821 .808-3.048 .741-3.278 .604-3.513 .396-3.747 .189-4.004-.109-4.285-.5L-4.735-.314-3.364 2.122C-2.804 1.837-2.317 1.605-1.907 1.426-1.496 1.248-1.131 1.093-.811 .96-.12 .676 .54 .405 1.168 .148 1.796-.108 2.374-.341 2.9-.549 3.428-.757 3.896-.938 4.304-1.093 4.713-1.246 5.045-1.361 5.299-1.437L4.006-3.921 3.532-3.726C3.556-3.67 3.587-3.598 3.629-3.512 3.671-3.424 3.704-3.354 3.728-3.297 3.797-3.13 3.845-2.959 3.875-2.786 3.904-2.614 3.887-2.44 3.821-2.269 3.756-2.095 3.63-1.922 3.443-1.747 3.256-1.57 2.979-1.396 2.61-1.22L1.146-.525C.844-1.187 .545-1.841 .251-2.486-.042-3.133-.322-3.752-.587-4.345-.854-4.937-1.103-5.491-1.337-6.009-1.57-6.524-1.775-6.981-1.952-7.379-2.128-7.776-2.273-8.104-2.388-8.359-2.502-8.615-2.574-8.779-2.604-8.851-2.696-9.074-2.754-9.262-2.777-9.412-2.802-9.563-2.798-9.691-2.767-9.796-2.735-9.901-2.682-9.99-2.604-10.064-2.527-10.138-2.432-10.207-2.315-10.272L-2.006-10.454-2.188-10.896C-2.295-10.836-2.422-10.762-2.571-10.677-2.699-10.611-2.857-10.533-3.045-10.44-3.232-10.348-3.452-10.25-3.703-10.146-3.96-10.04-4.246-9.932-4.562-9.819-4.876-9.707-5.232-9.592-5.632-9.476L-5.448-9.033C-5.312-9.077-5.191-9.116-5.085-9.147-4.979-9.179-4.881-9.208-4.79-9.233-4.7-9.259-4.612-9.286-4.528-9.314-4.444-9.343-4.356-9.374-4.263-9.406Z" fill="#834b4b"/>
<path transform="matrix(1,0,0,-1,246.6788,410.15864)" d="M0 0C-.185-.691-.269-1.382-.251-2.07-.233-2.759-.111-3.397 .116-3.985 .343-4.574 .678-5.085 1.12-5.52 1.562-5.955 2.115-6.261 2.78-6.44 3.418-6.611 4.015-6.634 4.569-6.509 5.125-6.384 5.624-6.144 6.067-5.787 6.511-5.429 6.895-4.977 7.219-4.428 7.542-3.878 7.795-3.264 7.978-2.583 8.183-1.817 8.277-1.075 8.263-.355 8.247 .363 8.13 1.018 7.912 1.606 7.693 2.195 7.38 2.695 6.968 3.108 6.558 3.52 6.062 3.805 5.482 3.959 5.179 4.04 4.859 4.091 4.522 4.11 4.186 4.129 3.844 4.101 3.495 4.026 3.147 3.951 2.802 3.822 2.46 3.641 2.117 3.459 1.794 3.208 1.488 2.889 1.184 2.568 .903 2.172 .648 1.699 .394 1.225 .177 .659 0 0M-1.512 .226C-1.288 1.061-.937 1.796-.46 2.432 .019 3.067 .586 3.573 1.245 3.949 1.903 4.325 2.638 4.562 3.446 4.659 4.255 4.756 5.102 4.686 5.989 4.447 6.53 4.303 7.013 4.095 7.436 3.825 7.858 3.555 8.224 3.24 8.531 2.881 8.839 2.521 9.093 2.128 9.29 1.698 9.487 1.27 9.632 .824 9.722 .364 9.812-.096 9.847-.565 9.827-1.044 9.807-1.523 9.736-1.989 9.615-2.441 9.377-3.33 9.015-4.104 8.531-4.762 8.047-5.422 7.486-5.953 6.849-6.354 6.212-6.757 5.527-7.019 4.795-7.139 4.062-7.258 3.331-7.22 2.598-7.023 1.965-6.854 1.408-6.624 .926-6.331 .443-6.04 .029-5.703-.318-5.323-.666-4.941-.947-4.527-1.164-4.078-1.38-3.631-1.534-3.166-1.626-2.685-1.72-2.204-1.756-1.717-1.734-1.225-1.713-.731-1.64-.247-1.512 .226" fill="#834b4b"/>
<path transform="matrix(1,0,0,-1,265.1524,414.3207)" d="M0 0 .466-.062C1.148-.154 1.724-.149 2.193-.048 2.662 .053 3.045 .216 3.342 .443 3.639 .67 3.863 .944 4.015 1.269 4.166 1.592 4.266 1.934 4.313 2.293 4.337 2.467 4.343 2.647 4.332 2.836 4.32 3.022 4.284 3.209 4.223 3.395 4.162 3.581 4.072 3.761 3.953 3.935 3.835 4.107 3.685 4.267 3.502 4.41 3.317 4.555 3.095 4.678 2.835 4.782 2.573 4.887 2.268 4.962 1.919 5.009 1.723 5.034 1.544 5.053 1.384 5.063 1.226 5.073 1.048 5.075 .852 5.068ZM-3.374-4.924C-3.23-4.932-3.104-4.937-2.993-4.941-2.883-4.944-2.78-4.947-2.686-4.949-2.592-4.95-2.501-4.954-2.412-4.96-2.324-4.967-2.23-4.974-2.132-4.982-2.008-4.26-1.886-3.546-1.768-2.841-1.647-2.136-1.533-1.46-1.425-.813-1.316-.168-1.214 .435-1.116 .993-1.02 1.552-.935 2.046-.86 2.474-.786 2.903-.728 3.256-.683 3.533-.637 3.81-.609 3.989-.598 4.071-.566 4.305-.558 4.498-.57 4.649-.584 4.802-.618 4.924-.675 5.019-.732 5.111-.811 5.183-.909 5.232-1.008 5.281-1.124 5.327-1.258 5.366L-1.611 5.464-1.548 5.937C-1.398 5.896-1.237 5.853-1.065 5.808-.92 5.771-.754 5.735-.567 5.699-.381 5.663-.187 5.631 .016 5.604 .201 5.579 .38 5.566 .552 5.565 .724 5.564 .901 5.564 1.085 5.565 1.269 5.565 1.463 5.563 1.667 5.559 1.872 5.554 2.098 5.534 2.343 5.502 2.997 5.414 3.547 5.259 3.988 5.037 4.431 4.813 4.781 4.548 5.04 4.238 5.298 3.929 5.474 3.592 5.563 3.228 5.653 2.862 5.675 2.498 5.626 2.132 5.558 1.631 5.409 1.213 5.179 .877 4.947 .542 4.683 .267 4.386 .055 4.088-.158 3.78-.32 3.462-.43 3.145-.541 2.867-.616 2.629-.656 2.943-1.46 3.272-2.22 3.615-2.938 3.957-3.657 4.305-4.293 4.655-4.846 5.007-5.397 5.357-5.843 5.71-6.182 6.062-6.52 6.407-6.712 6.746-6.758L6.69-7.042C6.479-7.047 6.274-7.037 6.079-7.011 5.632-6.939 5.217-6.774 4.833-6.515 4.448-6.255 4.091-5.939 3.764-5.567 3.435-5.198 3.137-4.786 2.866-4.337 2.596-3.887 2.353-3.438 2.137-2.994 1.922-2.549 1.735-2.127 1.577-1.728 1.419-1.329 1.289-.99 1.188-.709 1.045-.701 .895-.689 .738-.674 .583-.659 .417-.64 .242-.616L-.093-.571C-.12-.734-.152-.923-.189-1.137-.227-1.351-.264-1.572-.303-1.799-.341-2.027-.381-2.257-.421-2.49-.46-2.725-.495-2.94-.528-3.142-.561-3.343-.59-3.52-.616-3.675-.642-3.829-.661-3.945-.67-4.021-.702-4.255-.711-4.446-.697-4.595-.684-4.743-.65-4.866-.597-4.962-.543-5.059-.466-5.132-.367-5.185-.27-5.236-.15-5.282-.012-5.323L.334-5.419 .271-5.893C.153-5.86 .011-5.822-.156-5.777-.296-5.748-.469-5.712-.674-5.671-.88-5.629-1.119-5.591-1.392-5.555-1.671-5.518-1.978-5.484-2.312-5.457-2.647-5.428-3.022-5.409-3.438-5.397Z" fill="#834b4b"/>
<path transform="matrix(1,0,0,-1,282.5411,411.86363)" d="M0 0-1.878-5.021 1.489-5.111 .239-.006ZM.786 2.234 3.334-6.865C3.521-7.542 3.729-8.087 3.959-8.504 4.19-8.919 4.487-9.163 4.849-9.233L5.3-9.32 5.271-9.798C4.991-9.757 4.687-9.725 4.36-9.698 4.033-9.674 3.699-9.656 3.358-9.646 2.996-9.637 2.64-9.637 2.292-9.644 1.945-9.65 1.614-9.666 1.301-9.691L1.33-9.213 2.496-9.137 1.64-5.694 1.317-5.687C1.169-5.682 .974-5.678 .731-5.674 .489-5.671 .215-5.67-.091-5.673-.396-5.676-.727-5.683-1.079-5.695-1.432-5.708-1.796-5.729-2.171-5.756L-2.659-7.013C-2.765-7.273-2.858-7.521-2.939-7.755-3.02-7.988-3.063-8.193-3.067-8.369-3.072-8.545-3.029-8.689-2.938-8.805-2.848-8.92-2.688-8.997-2.458-9.037L-1.972-9.124-2.002-9.603C-2.298-9.561-2.582-9.525-2.854-9.496-3.126-9.467-3.41-9.448-3.707-9.44-4.005-9.433-4.313-9.435-4.633-9.449-4.953-9.462-5.308-9.479-5.699-9.502L-5.67-9.023C-5.51-9.012-5.357-9-5.215-8.986-5.089-8.979-4.962-8.972-4.835-8.965-4.708-8.957-4.604-8.951-4.521-8.948-4.282-8.481-4.033-7.971-3.773-7.417-3.513-6.863-3.246-6.281-2.975-5.673-2.701-5.063-2.429-4.432-2.155-3.778-1.882-3.126-1.612-2.47-1.346-1.812-1.08-1.152-.825-.496-.579 .158-.332 .812-.099 1.446 .121 2.062Z" fill="#834b4b"/>
<path transform="matrix(1,0,0,-1,306.0782,408.70454)" d="M0 0C-.184-.034-.368-.069-.552-.106-.736-.144-.911-.182-1.078-.22-1.245-.259-1.4-.299-1.545-.336-1.689-.374-1.812-.407-1.913-.437-1.68-2.035-1.467-3.477-1.274-4.763-1.19-5.312-1.108-5.853-1.03-6.384-.952-6.915-.881-7.395-.815-7.822-.75-8.25-.695-8.605-.651-8.893-.607-9.178-.58-9.346-.571-9.394-.524-9.653-.456-9.866-.37-10.032-.283-10.198-.151-10.32 .025-10.396 .202-10.473 .437-10.507 .73-10.497 1.022-10.487 1.4-10.441 1.861-10.355 2.138-10.305 2.455-10.224 2.814-10.112 3.172-10.002 3.537-9.848 3.906-9.65 4.276-9.453 4.63-9.205 4.967-8.904 5.305-8.604 5.588-8.237 5.815-7.804 6.045-7.369 6.201-6.863 6.285-6.285 6.368-5.706 6.342-5.041 6.203-4.289 6.129-3.889 6.022-3.486 5.884-3.084 5.744-2.681 5.563-2.299 5.34-1.937 5.115-1.575 4.843-1.246 4.521-.95 4.2-.654 3.823-.414 3.389-.231 2.954-.048 2.456 .068 1.897 .119 1.338 .169 .706 .13 0 0M-2.845-11.182C-2.706-11.146-2.584-11.111-2.478-11.081-2.371-11.05-2.273-11.021-2.184-10.992-2.093-10.965-2.005-10.94-1.92-10.919-1.833-10.897-1.742-10.875-1.646-10.852-1.886-9.257-2.103-7.814-2.296-6.524-2.381-5.976-2.463-5.434-2.542-4.9-2.621-4.366-2.692-3.882-2.756-3.445-2.819-3.01-2.874-2.647-2.92-2.355-2.966-2.065-2.994-1.887-3.006-1.822-3.052-1.573-3.104-1.376-3.166-1.23-3.226-1.086-3.296-.977-3.377-.904-3.457-.833-3.551-.787-3.658-.768-3.766-.749-3.889-.741-4.028-.744L-4.387-.76-4.474-.288C-4.312-.281-4.137-.271-3.949-.26-3.789-.247-3.604-.227-3.394-.198-3.184-.171-2.959-.136-2.721-.091-2.423-.035-2.126 .029-1.829 .107-1.532 .185-1.229 .264-.919 .347-.609 .429-.293 .511 .03 .594 .354 .675 .694 .749 1.052 .815 1.881 .968 2.664 .973 3.402 .829 4.139 .686 4.798 .409 5.381 .002 5.962-.405 6.454-.934 6.854-1.582 7.254-2.23 7.531-2.979 7.688-3.83 7.761-4.22 7.794-4.641 7.791-5.092 7.787-5.543 7.729-6.001 7.616-6.467 7.504-6.933 7.325-7.392 7.081-7.843 6.837-8.294 6.512-8.711 6.107-9.097 5.703-9.482 5.205-9.822 4.616-10.116 4.026-10.409 3.329-10.631 2.522-10.779 2.273-10.825 2.019-10.862 1.758-10.892 1.498-10.92 1.233-10.946 .967-10.97 .699-10.994 .428-11.021 .153-11.049-.121-11.077-.396-11.116-.672-11.168-.933-11.216-1.236-11.276-1.584-11.349-1.932-11.42-2.322-11.521-2.758-11.652Z" fill="#834b4b"/>
<path transform="matrix(1,0,0,-1,325.8976,409.3783)" d="M0 0C-.329-.059-.659-.122-.992-.192-1.324-.264-1.642-.335-1.942-.407-2.242-.479-2.517-.547-2.766-.611-3.014-.675-3.218-.727-3.379-.766-3.201-1.401-3.04-1.982-2.897-2.508-2.838-2.73-2.776-2.954-2.711-3.176-2.646-3.397-2.59-3.603-2.538-3.791-2.487-3.979-2.442-4.14-2.403-4.271-2.364-4.403-2.337-4.493-2.323-4.54-2.236-4.812-2.131-5.019-2.007-5.158-1.881-5.297-1.73-5.385-1.555-5.422-1.379-5.458-1.176-5.454-.947-5.411-.719-5.367-.457-5.299-.163-5.206 .257-5.073 .605-4.933 .886-4.787 1.165-4.641 1.387-4.464 1.55-4.257 1.712-4.049 1.819-3.8 1.871-3.509 1.924-3.219 1.93-2.863 1.89-2.442L2.385-2.286C2.409-2.435 2.435-2.623 2.46-2.853 2.487-3.082 2.508-3.325 2.523-3.584 2.538-3.843 2.543-4.104 2.537-4.366 2.53-4.629 2.509-4.867 2.474-5.081 1.912-5.242 1.373-5.388 .857-5.519 .342-5.65-.128-5.77-.553-5.875-.979-5.98-1.351-6.072-1.667-6.149-1.982-6.226-2.22-6.29-2.377-6.34-2.646-6.424-2.927-6.52-3.223-6.625-3.519-6.729-3.856-6.865-4.236-7.032L-4.365-6.57C-4.232-6.517-4.114-6.468-4.014-6.424-3.911-6.381-3.818-6.339-3.731-6.301-3.646-6.262-3.563-6.227-3.479-6.195-3.397-6.163-3.31-6.13-3.217-6.095-3.65-4.541-4.044-3.136-4.395-1.88-4.547-1.346-4.695-.816-4.841-.294-4.985 .228-5.117 .702-5.233 1.126-5.352 1.551-5.45 1.906-5.532 2.192-5.613 2.478-5.665 2.651-5.685 2.714-5.759 2.95-5.834 3.136-5.908 3.271-5.982 3.406-6.064 3.505-6.153 3.566-6.242 3.628-6.343 3.661-6.454 3.666-6.564 3.671-6.694 3.662-6.843 3.638L-7.181 3.583-7.325 4.039C-7.171 4.065-6.979 4.104-6.746 4.153-6.547 4.199-6.299 4.263-6.001 4.346-5.704 4.429-5.343 4.537-4.917 4.671L-3.021 5.271C-2.811 5.338-2.606 5.403-2.407 5.47-2.209 5.535-2.009 5.604-1.807 5.677-1.604 5.749-1.395 5.829-1.18 5.914-.964 6-.734 6.096-.491 6.201L.107 3.464-.373 3.312C-.401 3.419-.424 3.503-.439 3.563-.456 3.625-.47 3.672-.48 3.706-.491 3.741-.499 3.765-.504 3.777-.507 3.791-.511 3.803-.514 3.813-.568 3.985-.645 4.145-.738 4.287-.832 4.431-.964 4.544-1.131 4.627-1.299 4.71-1.51 4.755-1.764 4.765-2.019 4.773-2.333 4.733-2.708 4.643L-4.687 4.164C-4.594 3.721-4.488 3.272-4.372 2.821-4.254 2.371-4.143 1.957-4.035 1.581L-3.538-.211-.238 1.024Z" fill="#834b4b"/>
<path transform="matrix(1,0,0,-1,343.8683,407.27284)" d="M0 0C.094 .059 .18 .115 .258 .167 .337 .219 .413 .268 .49 .312 .565 .356 .647 .404 .732 .454 .428 1.119 .124 1.776-.178 2.425-.479 3.074-.767 3.695-1.043 4.289-1.318 4.883-1.574 5.437-1.812 5.954-2.047 6.469-2.256 6.925-2.438 7.319-2.62 7.715-2.77 8.039-2.889 8.293-3.008 8.547-3.087 8.711-3.124 8.784-3.231 8.996-3.334 9.159-3.434 9.275-3.532 9.392-3.631 9.473-3.731 9.518-3.831 9.563-3.936 9.577-4.045 9.563-4.155 9.547-4.273 9.519-4.401 9.479L-4.748 9.358-4.964 9.787C-4.847 9.821-4.706 9.868-4.545 9.925-4.409 9.976-4.246 10.042-4.058 10.125-3.868 10.209-3.648 10.313-3.398 10.441-3.147 10.567-2.876 10.716-2.582 10.887-2.289 11.056-1.971 11.253-1.627 11.476L-1.41 11.049C-1.533 10.975-1.641 10.907-1.734 10.848-1.828 10.788-1.913 10.734-1.99 10.686-2.067 10.638-2.145 10.591-2.22 10.547-2.297 10.502-2.377 10.454-2.464 10.404-2.157 9.739-1.853 9.081-1.552 8.43-1.25 7.778-.962 7.155-.69 6.562-.418 5.97-.161 5.416 .078 4.898 .318 4.382 .529 3.927 .711 3.531 .893 3.136 1.043 2.813 1.162 2.559 1.282 2.304 1.358 2.143 1.394 2.074 1.503 1.858 1.607 1.692 1.706 1.576 1.805 1.459 1.905 1.378 2.004 1.333 2.104 1.288 2.209 1.272 2.321 1.286 2.432 1.299 2.549 1.327 2.675 1.372L3.014 1.488 3.229 1.062C3.114 1.021 2.976 .973 2.813 .915 2.681 .86 2.518 .792 2.325 .71 2.132 .627 1.913 .523 1.668 .399 1.417 .273 1.146 .127 .854-.04 .562-.207 .241-.403-.107-.629L-.324-.201C-.201-.127-.093-.061 0 0" fill="#834b4b"/>
<path transform="matrix(1,0,0,-1,362.6847,394.24253)" d="M0 0C.184-.268 .343-.473 .478-.615 .61-.757 .735-.856 .851-.911 .967-.966 1.08-.983 1.188-.965 1.298-.945 1.423-.901 1.563-.835L1.887-.68 2.151-1.079C2.041-1.133 1.908-1.198 1.754-1.273 1.63-1.344 1.476-1.431 1.293-1.534 1.11-1.639 .903-1.768 .671-1.922 .434-2.079 .179-2.258-.094-2.457-.365-2.657-.662-2.891-.98-3.154L-1.246-2.755C-1.133-2.667-1.033-2.589-.947-2.518-.862-2.447-.783-2.382-.71-2.321-.64-2.261-.567-2.204-.497-2.15-.427-2.098-.352-2.041-.272-1.982L-4.973 5.058-5.104 4.971-3.861-4.518-4.186-4.732-12.029 .424-12.146 .347-9.057-5.228C-9.021-5.302-8.976-5.387-8.921-5.479-8.866-5.571-8.813-5.664-8.76-5.758-8.708-5.853-8.657-5.938-8.607-6.019-8.559-6.098-8.518-6.16-8.488-6.206-8.37-6.386-8.259-6.518-8.155-6.604-8.052-6.69-7.95-6.747-7.85-6.772-7.75-6.799-7.647-6.8-7.543-6.773-7.438-6.747-7.326-6.704-7.207-6.645L-6.884-6.49-6.619-6.89C-6.701-6.924-6.809-6.972-6.94-7.032-7.047-7.09-7.181-7.164-7.34-7.252-7.499-7.341-7.685-7.456-7.898-7.598-8.114-7.74-8.351-7.907-8.612-8.1-8.873-8.292-9.163-8.521-9.483-8.786L-9.748-8.387C-9.635-8.299-9.535-8.22-9.449-8.149-9.363-8.079-9.285-8.015-9.213-7.953-9.141-7.892-9.07-7.835-8.999-7.782-8.93-7.729-8.854-7.672-8.774-7.613L-13.771 2.104-13.267 2.764-4.848-2.715-4.75-2.65-6.105 7.288-5.507 7.883Z" fill="#834b4b"/>
<path transform="matrix(1,0,0,-1,367.8409,385.3597)" d="M0 0C.478-.533 1.01-.98 1.597-1.342 2.183-1.704 2.784-1.95 3.401-2.081 4.018-2.213 4.628-2.212 5.234-2.079 5.84-1.946 6.399-1.65 6.912-1.191 7.404-.751 7.748-.264 7.947 .27 8.146 .803 8.217 1.352 8.16 1.918 8.103 2.484 7.934 3.053 7.651 3.625 7.369 4.195 6.993 4.743 6.522 5.269 5.993 5.858 5.423 6.344 4.812 6.725 4.201 7.104 3.59 7.364 2.979 7.503 2.365 7.642 1.774 7.651 1.205 7.533 .635 7.414 .127 7.154-.32 6.754-.554 6.544-.771 6.304-.971 6.032-1.171 5.761-1.335 5.458-1.462 5.126-1.59 4.794-1.67 4.435-1.706 4.049-1.74 3.663-1.706 3.255-1.605 2.824-1.505 2.394-1.325 1.942-1.068 1.47-.812 .998-.455 .508 0 0M-2.316 7.682-1.872 11.417C-1.666 11.352-1.454 11.302-1.24 11.269-1.025 11.235-.818 11.223-.619 11.232L-1.841 7.609ZM-1.017-1.144C-1.593-.5-2.017 .195-2.288 .943-2.56 1.69-2.672 2.442-2.628 3.2-2.583 3.957-2.381 4.701-2.02 5.431-1.659 6.16-1.136 6.832-.452 7.444-.035 7.819 .402 8.109 .859 8.316 1.317 8.522 1.779 8.656 2.249 8.718 2.718 8.779 3.187 8.776 3.653 8.708 4.121 8.639 4.572 8.516 5.007 8.34 5.441 8.164 5.854 7.937 6.244 7.658 6.635 7.379 6.985 7.065 7.298 6.717 7.91 6.032 8.361 5.308 8.649 4.541 8.938 3.775 9.074 3.016 9.063 2.262 9.053 1.509 8.896 .793 8.597 .114 8.298-.564 7.864-1.157 7.302-1.663 6.813-2.1 6.316-2.44 5.808-2.685 5.301-2.93 4.792-3.093 4.283-3.177 3.774-3.259 3.273-3.269 2.779-3.203 2.286-3.14 1.812-3.016 1.358-2.83 .905-2.646 .479-2.409 .077-2.122-.324-1.835-.688-1.509-1.017-1.144" fill="#834b4b"/>
<path transform="matrix(1,0,0,-1,386.4044,372.93794)" d="M0 0 .069 .082-3.999 7.432C-4.141 7.698-4.263 7.91-4.368 8.067-4.472 8.226-4.569 8.344-4.662 8.423-4.767 8.512-4.864 8.543-4.956 8.517-5.048 8.49-5.156 8.426-5.28 8.321L-5.549 8.084-5.912 8.396C-5.839 8.448-5.749 8.52-5.643 8.61-5.555 8.687-5.448 8.791-5.321 8.921-5.196 9.051-5.05 9.214-4.884 9.407-4.722 9.598-4.544 9.821-4.35 10.076-4.156 10.333-3.943 10.63-3.712 10.969L-3.348 10.657C-3.433 10.541-3.507 10.438-3.57 10.347-3.633 10.256-3.691 10.174-3.743 10.099-3.796 10.024-3.85 9.952-3.902 9.882-3.956 9.812-4.012 9.736-4.072 9.657L1.271-1.055 .948-1.647-8.585 2.072C-8.907 2.195-9.177 2.28-9.395 2.326-9.613 2.372-9.801 2.386-9.957 2.367-10.113 2.35-10.25 2.306-10.365 2.233-10.48 2.162-10.595 2.077-10.708 1.979L-10.977 1.741-11.34 2.053C-11.229 2.146-11.105 2.258-10.968 2.386-10.853 2.496-10.715 2.636-10.556 2.805-10.396 2.973-10.222 3.17-10.028 3.396-9.835 3.622-9.631 3.875-9.416 4.155-9.202 4.436-8.979 4.745-8.748 5.083L-8.384 4.772C-8.469 4.655-8.543 4.553-8.605 4.462-8.669 4.371-8.728 4.288-8.779 4.214-8.832 4.14-8.885 4.066-8.938 3.996-8.992 3.926-9.048 3.852-9.108 3.772Z" fill="#834b4b"/>
<path transform="matrix(1,0,0,-1,393.837,356.4945)" d="M0 0C-.221-.25-.438-.506-.655-.769-.871-1.031-1.074-1.284-1.264-1.528-1.454-1.772-1.627-1.996-1.781-2.201-1.935-2.406-2.062-2.574-2.162-2.705-1.629-3.091-1.141-3.444-.701-3.766-.516-3.903-.329-4.039-.14-4.172 .048-4.306 .222-4.43 .379-4.546 .536-4.661 .671-4.759 .784-4.838 .896-4.916 .974-4.97 1.015-4.997 1.252-5.156 1.463-5.252 1.647-5.282 1.831-5.313 2.004-5.288 2.165-5.207 2.325-5.125 2.481-4.997 2.633-4.82 2.784-4.644 2.945-4.427 3.118-4.171 3.363-3.806 3.55-3.479 3.678-3.189 3.805-2.9 3.868-2.625 3.865-2.361 3.863-2.098 3.792-1.836 3.652-1.576 3.511-1.316 3.294-1.034 3.001-.73L3.291-.299C3.401-.4 3.539-.532 3.702-.695 3.866-.857 4.035-1.035 4.208-1.229 4.381-1.421 4.547-1.621 4.706-1.831 4.865-2.04 4.996-2.24 5.102-2.431 4.763-2.905 4.433-3.355 4.111-3.779 3.791-4.203 3.497-4.59 3.23-4.937 2.964-5.286 2.73-5.588 2.531-5.846 2.332-6.104 2.187-6.301 2.094-6.437 1.937-6.671 1.776-6.921 1.61-7.187 1.445-7.454 1.265-7.771 1.071-8.139L.683-7.857C.754-7.733 .815-7.622 .867-7.524 .919-7.427 .967-7.336 1.01-7.252 1.054-7.168 1.098-7.088 1.142-7.012 1.187-6.936 1.233-6.854 1.284-6.77-.023-5.825-1.206-4.972-2.264-4.209-2.715-3.886-3.161-3.564-3.601-3.247-4.039-2.929-4.437-2.641-4.793-2.382-5.148-2.123-5.448-1.907-5.69-1.734-5.933-1.562-6.081-1.457-6.136-1.421-6.341-1.283-6.516-1.185-6.658-1.125-6.8-1.066-6.926-1.04-7.033-1.047-7.141-1.055-7.239-1.091-7.33-1.156-7.42-1.222-7.516-1.311-7.617-1.422L-7.847-1.675-8.244-1.408C-8.141-1.292-8.013-1.143-7.863-.958-7.735-.798-7.581-.593-7.4-.343-7.219-.094-7.005 .217-6.756 .587L-5.647 2.239C-5.524 2.422-5.406 2.602-5.292 2.776-5.178 2.952-5.063 3.131-4.951 3.313-4.838 3.497-4.725 3.688-4.609 3.89-4.493 4.091-4.374 4.31-4.249 4.544L-2.074 2.775-2.355 2.357C-2.443 2.423-2.514 2.475-2.564 2.513-2.615 2.551-2.656 2.579-2.686 2.599-2.715 2.619-2.735 2.633-2.747 2.64-2.759 2.648-2.77 2.655-2.778 2.661-2.93 2.763-3.086 2.84-3.249 2.893-3.413 2.945-3.586 2.952-3.768 2.913-3.951 2.873-4.145 2.777-4.348 2.626-4.553 2.475-4.774 2.247-5.012 1.942L-6.261 .333C-5.91 .045-5.549-.239-5.176-.519-4.804-.798-4.458-1.052-4.14-1.279L-2.634-2.369-.825 .653Z" fill="#834b4b"/>
<path transform="matrix(1,0,0,-1,402.3849,351.7972)" d="M0 0C.043 .103 .082 .197 .117 .284 .152 .372 .188 .456 .226 .536 .263 .616 .303 .701 .346 .79-.284 1.164-.907 1.532-1.525 1.896-2.142 2.259-2.731 2.606-3.296 2.938-3.861 3.271-4.387 3.581-4.874 3.871-5.361 4.16-5.792 4.416-6.167 4.639-6.541 4.86-6.849 5.042-7.091 5.184-7.334 5.324-7.492 5.415-7.563 5.454-7.771 5.567-7.949 5.644-8.098 5.683-8.244 5.722-8.372 5.732-8.48 5.713-8.588 5.692-8.683 5.646-8.764 5.57-8.846 5.496-8.928 5.405-9.01 5.3L-9.227 5.004-9.647 5.233C-9.57 5.328-9.481 5.446-9.381 5.586-9.298 5.704-9.202 5.851-9.094 6.027-8.985 6.203-8.864 6.415-8.73 6.661-8.596 6.908-8.456 7.185-8.313 7.491-8.168 7.798-8.018 8.141-7.861 8.52L-7.44 8.291C-7.5 8.16-7.55 8.044-7.593 7.942-7.636 7.84-7.675 7.747-7.711 7.663-7.748 7.579-7.784 7.497-7.821 7.418-7.859 7.337-7.899 7.253-7.941 7.163-7.312 6.789-6.687 6.421-6.067 6.056-5.448 5.691-4.858 5.343-4.298 5.01-3.736 4.677-3.211 4.366-2.72 4.077-2.229 3.788-1.797 3.533-1.423 3.311-1.048 3.089-.739 2.907-.498 2.766-.255 2.625-.1 2.536-.032 2.499 .181 2.384 .36 2.306 .509 2.267 .655 2.228 .783 2.217 .892 2.236 .999 2.257 1.095 2.304 1.179 2.377 1.263 2.45 1.343 2.542 1.421 2.649L1.634 2.938 2.055 2.709C1.982 2.611 1.896 2.492 1.795 2.353 1.717 2.231 1.622 2.083 1.51 1.905 1.397 1.729 1.276 1.519 1.145 1.277 1.011 1.03 .87 .756 .725 .452 .579 .149 .427-.193 .269-.577L-.152-.349C-.094-.218-.043-.102 0 0" fill="#834b4b"/>
<path transform="matrix(1,0,0,-1,408.5372,339.65763)" d="M0 0C.13 .303 .205 .607 .226 .914 .246 1.219 .21 1.509 .118 1.782 .025 2.056-.124 2.304-.33 2.527-.536 2.751-.801 2.933-1.125 3.071-1.433 3.204-1.746 3.253-2.063 3.218-2.382 3.184-2.696 3.104-3.008 2.977-3.32 2.851-3.627 2.699-3.931 2.523-4.233 2.349-4.528 2.185-4.816 2.032-5.083 1.883-5.377 1.719-5.697 1.539-6.018 1.358-6.352 1.204-6.7 1.076-7.05 .946-7.407 .867-7.774 .836-8.142 .805-8.507 .867-8.871 1.023-9.053 1.102-9.236 1.201-9.421 1.322-9.606 1.443-9.774 1.589-9.926 1.759-10.077 1.929-10.207 2.122-10.315 2.339-10.423 2.555-10.495 2.799-10.53 3.071-10.566 3.344-10.56 3.643-10.51 3.968-10.46 4.293-10.352 4.649-10.185 5.038-9.973 5.532-9.729 5.992-9.452 6.417-9.177 6.843-8.918 7.2-8.673 7.49L-6.461 6.343-6.646 5.91-6.851 5.998C-7.044 6.08-7.261 6.149-7.503 6.206-7.746 6.262-7.991 6.263-8.239 6.207-8.488 6.152-8.731 6.021-8.97 5.815-9.208 5.609-9.422 5.286-9.61 4.846-9.724 4.583-9.79 4.328-9.809 4.082-9.828 3.836-9.803 3.607-9.733 3.398-9.665 3.189-9.553 3.002-9.396 2.835-9.239 2.67-9.043 2.535-8.805 2.434-8.491 2.299-8.188 2.241-7.895 2.263-7.601 2.283-7.315 2.35-7.04 2.462-6.765 2.573-6.492 2.713-6.227 2.881-5.96 3.048-5.698 3.208-5.44 3.361-5.055 3.591-4.675 3.807-4.304 4.009-3.933 4.212-3.563 4.373-3.198 4.491-2.832 4.61-2.468 4.674-2.104 4.683-1.741 4.691-1.378 4.617-1.014 4.461-.589 4.278-.232 4.012 .054 3.662 .341 3.312 .552 2.918 .687 2.479 .822 2.042 .88 1.583 .859 1.102 .839 .62 .733 .16 .545-.278 .315-.813 .053-1.305-.24-1.752-.534-2.199-.813-2.578-1.078-2.89L-3.405-1.674-3.204-1.204-2.938-1.317C-2.726-1.409-2.491-1.479-2.233-1.53-1.978-1.581-1.717-1.571-1.453-1.502-1.189-1.433-.933-1.282-.681-1.052-.429-.821-.203-.471 0 0" fill="#834b4b"/>
</g>
</g>
</g>
</svg>
