<svg xmlns="http://www.w3.org/2000/svg" xmlns:xlink="http://www.w3.org/1999/xlink" xmlns:inkscape="http://www.inkscape.org/namespaces/inkscape" version="1.1" width="566.929" height="566.929" viewBox="0 0 566.929 566.929">
<defs>
<clipPath id="clip_6">
<path transform="matrix(1,0,0,-1,0,566.929)" d="M0 566.929H566.929V0H0Z"/>
</clipPath>
<clipPath id="clip_7">
<path transform="matrix(1,0,0,-1,0,566.929)" d="M0 566.929H566.929V0H0Z"/>
</clipPath>
</defs>
<g>
<g inkscape:groupmode="layer" inkscape:label="Camada 1">
<path transform="matrix(1,0,0,-1,0,566.929)" d="M0 0H566.929V566.929H0Z" fill="#ecded1"/>
<text fill="#834b4b" xml:space="preserve" transform="matrix(1 0 -0 1 0 566.929)" font-size="38.9041" font-family="Simonetta"><tspan y="-376.7598" x="145.3525 172.15741 196.20015 229.8133 241.48453 261.2089 285.25163 293.69383 302.13603 323.57218 343.7245 374.41984 397.25654">CAMILA  BENTO</tspan></text>
<text xml:space="preserve" transform="matrix(1 0 -0 1 0 566.929)" font-size="11.8784" font-family="Simonetta"><tspan y="-360.7266" x="179.9727 191.61473 204.17496 217.11054 226.51824 238.78862 248.37448 258.9106 271.46965 282.21958 293.12394 299.26509 311.8241 321.54063 327.68177 334.8088 348.63526 361.27388 372.66526 382.38179 389.50883">CONSULTORA DE IM&#x00d3;VEIS</tspan></text>
<text fill="#834b4b" xml:space="preserve" transform="matrix(1 0 -0 1 0 566.929)" font-size="11.8784" font-family="Simonetta"><tspan y="-360.7266" x="179.9727 191.61473 204.17496 217.11054 226.51824 238.78862 248.37448 258.9106 271.46965 282.21958 293.12394 299.26509 311.8241 321.54063 327.68177 334.8088 348.63526 361.27388 372.66526 382.38179 389.50883">CONSULTORA DE IM&#x00d3;VEIS</tspan></text>
<text fill="#834b4b" xml:space="preserve" transform="matrix(1 0 -0 1 0 566.929)" font-size="42.882" font-family="Simonetta"><tspan y="-69.0107" x="171.1172 192.21515 205.07975 242.12979 274.6043 308.4382 330.65107 355.82279 380.9945">SIMONETTA</tspan></text>
<g clip-path="url(#clip_6)">
<path transform="matrix(1,0,0,-1,306.9849,126.532108)" d="M0 0C-2.08 3.158-6.162 5.546-9.859 6.162H-10.014C-10.091 6.162-10.168 6.239-10.091 6.239-5.546 8.319-2.157 12.709-2.157 18.255-2.234 22.569-5.007 25.881-8.473 27.961-11.169 29.578-15.559 29.963-18.948 29.963-19.95 29.963-20.874 29.963-21.645 29.886-23.031 29.733-25.034 29.655-26.806 29.655-29.039 29.655-30.965 29.733-31.427 29.733L-31.581 29.193C-30.041 28.962-29.424 28.269-29.116 27.576-28.962 27.191-28.885 26.728-28.962 26.189-28.977 19.225-28.992 12.26-29.007 5.295-28.157 5.185-27.016 5.123-25.69 5.295-24.519 5.448-23.541 5.74-22.798 6.021-22.85 13.154-22.902 20.288-22.954 27.421-22.044 27.661-20.711 27.918-19.102 27.884-18.089 27.863-11.996 27.724-8.917 23.061-7.315 20.634-7.31 18.118-7.317 17.254-7.355 12.429-10.526 9.203-11.7 8.158-16.431 4.206-22.469 1.694-28.711 1.694-40.34 1.694-59.538 10.093-59.538 33.905-59.538 54.211-40.801 60.487-32.218 60.487-24.741 60.487-15.327 58.826-9.882 47.935V61.687C-10.804 61.134-12.374 60.487-13.389 60.487-16.065 60.487-20.681 63.349-33.141 63.349-48.093 63.349-62.03 49.504-64.614 35.29-65.076 32.798-65.261 30.306-65.168 27.998-64.337 10.37-50.769-2.368-33.417-2.368-23.937-2.368-16.791 1.863-14.022 3.927-7.036 2.602-3.199-2.18-3.004-9.012-2.773-18.256-9.474-20.875-14.404-21.337-15.329-21.414-16.176-21.491-16.946-21.491-18.948-21.491-21.105-21.337-23.031-20.875-22.967-15.606-22.904-10.338-22.84-5.069-23.454-5.48-24.551-6.099-26.053-6.364-27.264-6.578-28.286-6.482-28.955-6.364-28.957-10.328-28.96-14.292-28.962-18.256-28.962-22.338-31.196-23.185-31.427-23.185-31.273-23.185-30.502-23.108-29.039-23.108-27.73-23.108-25.958-23.185-23.571-23.339-21.028-23.494-19.025-23.648-16.946-23.648-14.789-23.648-12.555-23.494-9.474-23.108 1.541-21.722 6.162-9.32 0 0" fill="#834b4b"/>
<path transform="matrix(1,0,0,-1,292.8841,180.29483)" d="M0 0-4.43 4.786 .356 9.216 4.786 4.43Z" fill="#4c2e2e"/>
</g>
<text xml:space="preserve" transform="matrix(1 0 -0 1 0 566.929)" font-size="12.3355" font-family="Simonetta"><tspan y="-20.6572" x="205.6318 216.12932 227.39163 233.76909 246.72136 254.12267 265.59468 276.91865 282.8298 295.0296 306.19325 313.59455 324.91853 335.8601 343.2614 355.09117">BY @IZA.CRIATIVA</tspan></text>
<text fill="#834b4b" xml:space="preserve" transform="matrix(1 0 -0 1 0 566.929)" font-size="12.3355" font-family="Simonetta"><tspan y="-20.6572" x="205.6318 216.12932 227.39163 233.76909 246.72136 254.12267 265.59468 276.91865 282.8298 295.0296 306.19325 313.59455 324.91853 335.8601 343.2614 355.09117">BY @IZA.CRIATIVA</tspan></text>
<text xml:space="preserve" transform="matrix(1 0 -0 1 0 566.929)" font-size="12.3355" font-family="Simonetta"><tspan y="-121.41356" x="130.78 140.73474 150.82518 161.76677 172.93039 184.25438">LETRA:</tspan></text>
<text fill="#834b4b" xml:space="preserve" transform="matrix(1 0 -0 1 0 566.929)" font-size="12.3355" font-family="Simonetta"><tspan y="-121.41356" x="130.78 140.73474 150.82518 161.76677 172.93039 184.25438">LETRA:</tspan></text>
<text xml:space="preserve" transform="matrix(1 0 -0 1 0 566.929)" font-size="12.3355" font-family="Simonetta"><tspan y="-316.49949" x="131.15007 143.24134 156.28366 167.4473 177.53774 187.30745">CORES:</tspan></text>
<text fill="#834b4b" xml:space="preserve" transform="matrix(1 0 -0 1 0 566.929)" font-size="12.3355" font-family="Simonetta"><tspan y="-316.49949" x="131.15007 143.24134 156.28366 167.4473 177.53774 187.30745">CORES:</tspan></text>
<g clip-path="url(#clip_7)">
<path transform="matrix(1,0,0,-1,0,566.929)" d="M150.952 170.715H33.637994V288.029H150.952Z" fill="#834b4b"/>
<path transform="matrix(1,0,0,-1,0,566.929)" stroke-width="1" stroke-linecap="butt" stroke-miterlimit="10" stroke-linejoin="miter" fill="none" stroke="#834b4b" d="M278.399 170.715H161.08499V288.029H278.399Z"/>
<path transform="matrix(1,0,0,-1,0,566.929)" d="M405.845 170.715H288.531V288.029H405.845Z" fill="#4c2e2e"/>
<path transform="matrix(1,0,0,-1,0,566.929)" d="M533.291 170.715H415.97703V288.029H533.291Z" fill="#bc8686"/>
</g>
<text xml:space="preserve" transform="matrix(1 0 -0 1 0 566.929)" font-size="18.6018" font-family="Simonetta"><tspan y="-220.2539" x="47.0254 63.190366 75.16992 86.88905 98.905818 111.94568 123.96244">#834B4B</tspan></text>
<text fill="#ecded1" xml:space="preserve" transform="matrix(1 0 -0 1 0 566.929)" font-size="18.6018" font-family="Simonetta"><tspan y="-220.2539" x="47.0254 63.190366 75.16992 86.88905 98.905818 111.94568 123.96244">#834B4B</tspan></text>
<text xml:space="preserve" transform="matrix(1 0 -0 1 0 566.929)" font-size="18.6018" font-family="Simonetta"><tspan y="-219.73307" x="172.84798 189.01294 201.33104 216.93796 233.81723 246.24323 263.2639">#ECDED1</tspan></text>
<text fill="#834b4b" xml:space="preserve" transform="matrix(1 0 -0 1 0 566.929)" font-size="18.6018" font-family="Simonetta"><tspan y="-219.73307" x="172.84798 189.01294 201.33104 216.93796 233.81723 246.24323 263.2639">#ECDED1</tspan></text>
<text xml:space="preserve" transform="matrix(1 0 -0 1 0 566.929)" font-size="18.6018" font-family="Simonetta"><tspan y="-220.2539" x="301.87007 318.03504 330.0518 345.6587 357.65687 370.08287 382.08103">#4C2E2E</tspan></text>
<text fill="#ecded1" xml:space="preserve" transform="matrix(1 0 -0 1 0 566.929)" font-size="18.6018" font-family="Simonetta"><tspan y="-220.2539" x="301.87007 318.03504 330.0518 345.6587 357.65687 370.08287 382.08103">#4C2E2E</tspan></text>
<text xml:space="preserve" transform="matrix(1 0 -0 1 0 566.929)" font-size="18.6018" font-family="Simonetta"><tspan y="-220.2539" x="428.90177 445.06675 458.1066 473.7135 485.69306 497.95164 509.93119">#BC8686</tspan></text>
<text fill="#ecded1" xml:space="preserve" transform="matrix(1 0 -0 1 0 566.929)" font-size="18.6018" font-family="Simonetta"><tspan y="-220.2539" x="428.90177 445.06675 458.1066 473.7135 485.69306 497.95164 509.93119">#BC8686</tspan></text>
</g>
</g>
</svg>
